G04 EAGLE Gerber RS-274X export*
G75*
%MOMM*%
%FSLAX34Y34*%
%LPD*%
%INBottom Copper*%
%IPPOS*%
%AMOC8*
5,1,8,0,0,1.08239X$1,22.5*%
G01*
%ADD10C,1.879600*%
%ADD11P,1.429621X8X292.500000*%
%ADD12P,1.429621X8X22.500000*%
%ADD13P,1.429621X8X202.500000*%
%ADD14P,1.429621X8X112.500000*%
%ADD15C,1.320800*%
%ADD16C,1.508000*%
%ADD17C,1.408000*%
%ADD18C,1.530000*%
%ADD19C,0.406400*%
%ADD20C,0.609600*%

G36*
X203548Y10176D02*
X203548Y10176D01*
X203645Y10186D01*
X203669Y10196D01*
X203695Y10200D01*
X203780Y10246D01*
X203870Y10286D01*
X203889Y10303D01*
X203912Y10316D01*
X203979Y10386D01*
X204051Y10452D01*
X204063Y10475D01*
X204081Y10494D01*
X204122Y10582D01*
X204169Y10668D01*
X204174Y10693D01*
X204185Y10717D01*
X204196Y10814D01*
X204213Y10910D01*
X204209Y10936D01*
X204212Y10961D01*
X204191Y11057D01*
X204177Y11153D01*
X204165Y11176D01*
X204160Y11202D01*
X204110Y11285D01*
X204066Y11372D01*
X204047Y11391D01*
X204034Y11413D01*
X203960Y11476D01*
X203890Y11544D01*
X203861Y11560D01*
X203847Y11573D01*
X203816Y11585D01*
X203743Y11625D01*
X202390Y12186D01*
X199266Y15310D01*
X197575Y19391D01*
X197575Y23809D01*
X199266Y27890D01*
X202390Y31014D01*
X206471Y32705D01*
X210889Y32705D01*
X214970Y31014D01*
X218094Y27890D01*
X219785Y23809D01*
X219785Y19391D01*
X218094Y15310D01*
X214970Y12186D01*
X213617Y11625D01*
X213534Y11574D01*
X213448Y11528D01*
X213430Y11510D01*
X213408Y11496D01*
X213346Y11420D01*
X213279Y11350D01*
X213268Y11326D01*
X213251Y11306D01*
X213216Y11215D01*
X213175Y11127D01*
X213172Y11101D01*
X213163Y11077D01*
X213159Y10979D01*
X213148Y10883D01*
X213154Y10857D01*
X213152Y10831D01*
X213180Y10737D01*
X213200Y10642D01*
X213214Y10620D01*
X213221Y10595D01*
X213276Y10515D01*
X213326Y10431D01*
X213346Y10414D01*
X213361Y10393D01*
X213439Y10334D01*
X213513Y10271D01*
X213538Y10261D01*
X213559Y10246D01*
X213651Y10216D01*
X213742Y10179D01*
X213774Y10176D01*
X213792Y10170D01*
X213826Y10170D01*
X213908Y10161D01*
X228452Y10161D01*
X228548Y10176D01*
X228645Y10186D01*
X228669Y10196D01*
X228695Y10200D01*
X228780Y10246D01*
X228870Y10286D01*
X228889Y10303D01*
X228912Y10316D01*
X228979Y10386D01*
X229051Y10452D01*
X229063Y10475D01*
X229081Y10494D01*
X229122Y10582D01*
X229169Y10668D01*
X229174Y10693D01*
X229185Y10717D01*
X229196Y10814D01*
X229213Y10910D01*
X229209Y10936D01*
X229212Y10961D01*
X229191Y11057D01*
X229177Y11153D01*
X229165Y11176D01*
X229160Y11202D01*
X229110Y11285D01*
X229066Y11372D01*
X229047Y11391D01*
X229034Y11413D01*
X228960Y11476D01*
X228890Y11544D01*
X228861Y11560D01*
X228847Y11573D01*
X228816Y11585D01*
X228743Y11625D01*
X227390Y12186D01*
X224266Y15310D01*
X222575Y19391D01*
X222575Y23809D01*
X224266Y27890D01*
X227390Y31014D01*
X231471Y32705D01*
X235889Y32705D01*
X239970Y31014D01*
X243094Y27890D01*
X244785Y23809D01*
X244785Y19391D01*
X243094Y15310D01*
X239970Y12186D01*
X238617Y11625D01*
X238534Y11574D01*
X238448Y11528D01*
X238430Y11510D01*
X238408Y11496D01*
X238346Y11420D01*
X238279Y11350D01*
X238268Y11326D01*
X238251Y11306D01*
X238216Y11215D01*
X238175Y11127D01*
X238172Y11101D01*
X238163Y11077D01*
X238159Y10979D01*
X238148Y10883D01*
X238154Y10857D01*
X238152Y10831D01*
X238180Y10737D01*
X238200Y10642D01*
X238214Y10620D01*
X238221Y10595D01*
X238276Y10515D01*
X238326Y10431D01*
X238346Y10414D01*
X238361Y10393D01*
X238439Y10334D01*
X238513Y10271D01*
X238538Y10261D01*
X238559Y10246D01*
X238651Y10216D01*
X238742Y10179D01*
X238774Y10176D01*
X238792Y10170D01*
X238826Y10170D01*
X238908Y10161D01*
X253452Y10161D01*
X253548Y10176D01*
X253645Y10186D01*
X253669Y10196D01*
X253695Y10200D01*
X253780Y10246D01*
X253870Y10286D01*
X253889Y10303D01*
X253912Y10316D01*
X253979Y10386D01*
X254051Y10452D01*
X254063Y10475D01*
X254081Y10494D01*
X254122Y10582D01*
X254169Y10668D01*
X254174Y10693D01*
X254185Y10717D01*
X254196Y10814D01*
X254213Y10910D01*
X254209Y10936D01*
X254212Y10961D01*
X254191Y11057D01*
X254177Y11153D01*
X254165Y11176D01*
X254160Y11202D01*
X254110Y11285D01*
X254066Y11372D01*
X254047Y11391D01*
X254034Y11413D01*
X253960Y11476D01*
X253890Y11544D01*
X253861Y11560D01*
X253847Y11573D01*
X253816Y11585D01*
X253743Y11625D01*
X252390Y12186D01*
X249266Y15310D01*
X247575Y19391D01*
X247575Y23809D01*
X249266Y27890D01*
X252390Y31014D01*
X256471Y32705D01*
X260889Y32705D01*
X264970Y31014D01*
X268094Y27890D01*
X269785Y23809D01*
X269785Y19391D01*
X268094Y15310D01*
X264970Y12186D01*
X263617Y11625D01*
X263534Y11574D01*
X263448Y11528D01*
X263430Y11510D01*
X263408Y11496D01*
X263346Y11420D01*
X263279Y11350D01*
X263268Y11326D01*
X263251Y11306D01*
X263216Y11215D01*
X263175Y11127D01*
X263172Y11101D01*
X263163Y11077D01*
X263159Y10979D01*
X263148Y10883D01*
X263154Y10857D01*
X263152Y10831D01*
X263180Y10737D01*
X263200Y10642D01*
X263214Y10620D01*
X263221Y10595D01*
X263276Y10515D01*
X263326Y10431D01*
X263346Y10414D01*
X263361Y10393D01*
X263439Y10334D01*
X263513Y10271D01*
X263538Y10261D01*
X263559Y10246D01*
X263651Y10216D01*
X263742Y10179D01*
X263774Y10176D01*
X263792Y10170D01*
X263826Y10170D01*
X263908Y10161D01*
X288618Y10161D01*
X288688Y10172D01*
X288760Y10174D01*
X288809Y10192D01*
X288860Y10200D01*
X288924Y10234D01*
X288991Y10259D01*
X289032Y10291D01*
X289078Y10316D01*
X289127Y10368D01*
X289183Y10412D01*
X289211Y10456D01*
X289247Y10494D01*
X289277Y10559D01*
X289316Y10619D01*
X289329Y10670D01*
X289351Y10717D01*
X289359Y10788D01*
X289376Y10858D01*
X289372Y10910D01*
X289378Y10961D01*
X289363Y11032D01*
X289357Y11103D01*
X289337Y11151D01*
X289326Y11202D01*
X289289Y11263D01*
X289261Y11329D01*
X289216Y11385D01*
X289199Y11413D01*
X289182Y11428D01*
X289156Y11460D01*
X288074Y12542D01*
X286969Y14063D01*
X286116Y15737D01*
X285535Y17524D01*
X285334Y18797D01*
X296418Y18797D01*
X296438Y18800D01*
X296457Y18798D01*
X296559Y18820D01*
X296661Y18837D01*
X296678Y18846D01*
X296698Y18850D01*
X296787Y18903D01*
X296878Y18952D01*
X296892Y18966D01*
X296909Y18976D01*
X296976Y19055D01*
X297047Y19130D01*
X297056Y19148D01*
X297069Y19163D01*
X297107Y19259D01*
X297151Y19353D01*
X297153Y19373D01*
X297161Y19391D01*
X297179Y19558D01*
X297179Y20321D01*
X297942Y20321D01*
X297962Y20324D01*
X297981Y20322D01*
X298083Y20344D01*
X298185Y20361D01*
X298202Y20370D01*
X298222Y20374D01*
X298311Y20427D01*
X298402Y20476D01*
X298416Y20490D01*
X298433Y20500D01*
X298500Y20579D01*
X298571Y20654D01*
X298580Y20672D01*
X298593Y20687D01*
X298632Y20783D01*
X298675Y20877D01*
X298677Y20897D01*
X298685Y20915D01*
X298703Y21082D01*
X298703Y32166D01*
X299976Y31965D01*
X301763Y31384D01*
X303437Y30531D01*
X304958Y29426D01*
X306286Y28098D01*
X307391Y26577D01*
X308244Y24903D01*
X308337Y24616D01*
X308384Y24526D01*
X308425Y24434D01*
X308440Y24418D01*
X308450Y24398D01*
X308523Y24327D01*
X308591Y24253D01*
X308611Y24242D01*
X308627Y24227D01*
X308718Y24183D01*
X308807Y24134D01*
X308829Y24130D01*
X308849Y24121D01*
X308949Y24108D01*
X309049Y24090D01*
X309071Y24094D01*
X309093Y24091D01*
X309192Y24111D01*
X309292Y24126D01*
X309312Y24136D01*
X309334Y24141D01*
X309421Y24192D01*
X309511Y24238D01*
X309527Y24254D01*
X309546Y24265D01*
X309613Y24341D01*
X309684Y24413D01*
X309697Y24437D01*
X309708Y24450D01*
X309720Y24480D01*
X309764Y24560D01*
X311167Y27946D01*
X314954Y31733D01*
X319902Y33783D01*
X325258Y33783D01*
X330206Y31733D01*
X333993Y27946D01*
X334577Y26537D01*
X334615Y26476D01*
X334644Y26411D01*
X334679Y26372D01*
X334706Y26328D01*
X334762Y26282D01*
X334810Y26230D01*
X334856Y26205D01*
X334896Y26171D01*
X334963Y26146D01*
X335026Y26111D01*
X335077Y26102D01*
X335125Y26083D01*
X335197Y26080D01*
X335268Y26067D01*
X335319Y26075D01*
X335371Y26073D01*
X335440Y26093D01*
X335511Y26103D01*
X335557Y26127D01*
X335607Y26141D01*
X335666Y26182D01*
X335730Y26215D01*
X335767Y26252D01*
X335809Y26282D01*
X335852Y26339D01*
X335902Y26390D01*
X335937Y26453D01*
X335956Y26479D01*
X335963Y26501D01*
X335983Y26537D01*
X336567Y27946D01*
X340354Y31733D01*
X345302Y33783D01*
X350658Y33783D01*
X355606Y31733D01*
X359393Y27946D01*
X359977Y26537D01*
X360015Y26476D01*
X360044Y26411D01*
X360079Y26372D01*
X360106Y26328D01*
X360162Y26282D01*
X360210Y26230D01*
X360256Y26205D01*
X360296Y26171D01*
X360363Y26146D01*
X360426Y26111D01*
X360477Y26102D01*
X360525Y26083D01*
X360597Y26080D01*
X360668Y26067D01*
X360719Y26075D01*
X360771Y26073D01*
X360840Y26093D01*
X360911Y26103D01*
X360957Y26127D01*
X361007Y26141D01*
X361066Y26182D01*
X361130Y26215D01*
X361167Y26252D01*
X361209Y26282D01*
X361252Y26339D01*
X361302Y26390D01*
X361337Y26453D01*
X361356Y26479D01*
X361363Y26501D01*
X361383Y26537D01*
X361967Y27946D01*
X365754Y31733D01*
X370702Y33783D01*
X376058Y33783D01*
X381006Y31733D01*
X384793Y27946D01*
X385377Y26537D01*
X385415Y26476D01*
X385444Y26411D01*
X385479Y26372D01*
X385506Y26328D01*
X385562Y26282D01*
X385610Y26230D01*
X385656Y26205D01*
X385696Y26171D01*
X385763Y26146D01*
X385826Y26111D01*
X385877Y26102D01*
X385925Y26083D01*
X385997Y26080D01*
X386068Y26067D01*
X386119Y26075D01*
X386171Y26073D01*
X386240Y26093D01*
X386311Y26103D01*
X386357Y26127D01*
X386407Y26141D01*
X386466Y26182D01*
X386530Y26215D01*
X386567Y26252D01*
X386609Y26282D01*
X386652Y26339D01*
X386702Y26390D01*
X386737Y26453D01*
X386756Y26479D01*
X386763Y26501D01*
X386783Y26537D01*
X387367Y27946D01*
X391154Y31733D01*
X396102Y33783D01*
X401458Y33783D01*
X406406Y31733D01*
X410193Y27946D01*
X410777Y26537D01*
X410815Y26476D01*
X410844Y26411D01*
X410879Y26372D01*
X410906Y26328D01*
X410962Y26282D01*
X411010Y26230D01*
X411056Y26205D01*
X411096Y26171D01*
X411163Y26146D01*
X411226Y26111D01*
X411277Y26102D01*
X411325Y26083D01*
X411397Y26080D01*
X411468Y26067D01*
X411519Y26075D01*
X411571Y26073D01*
X411640Y26093D01*
X411711Y26103D01*
X411757Y26127D01*
X411807Y26141D01*
X411866Y26182D01*
X411930Y26215D01*
X411967Y26252D01*
X412009Y26282D01*
X412052Y26339D01*
X412102Y26390D01*
X412137Y26453D01*
X412156Y26479D01*
X412163Y26501D01*
X412183Y26537D01*
X412767Y27946D01*
X416554Y31733D01*
X421502Y33783D01*
X426858Y33783D01*
X431806Y31733D01*
X435593Y27946D01*
X437643Y22998D01*
X437643Y17642D01*
X435593Y12694D01*
X434359Y11460D01*
X434318Y11402D01*
X434268Y11350D01*
X434246Y11303D01*
X434216Y11261D01*
X434195Y11192D01*
X434165Y11127D01*
X434159Y11075D01*
X434144Y11025D01*
X434145Y10954D01*
X434137Y10883D01*
X434149Y10832D01*
X434150Y10780D01*
X434175Y10712D01*
X434190Y10642D01*
X434216Y10597D01*
X434234Y10549D01*
X434279Y10493D01*
X434316Y10431D01*
X434355Y10397D01*
X434388Y10357D01*
X434448Y10318D01*
X434503Y10271D01*
X434551Y10252D01*
X434595Y10224D01*
X434664Y10206D01*
X434731Y10179D01*
X434802Y10171D01*
X434833Y10163D01*
X434857Y10165D01*
X434898Y10161D01*
X489078Y10161D01*
X489098Y10164D01*
X489117Y10162D01*
X489219Y10184D01*
X489321Y10200D01*
X489338Y10210D01*
X489358Y10214D01*
X489447Y10267D01*
X489538Y10316D01*
X489552Y10330D01*
X489569Y10340D01*
X489636Y10419D01*
X489708Y10494D01*
X489716Y10512D01*
X489729Y10527D01*
X489768Y10623D01*
X489811Y10717D01*
X489813Y10737D01*
X489821Y10755D01*
X489839Y10922D01*
X489839Y457635D01*
X489828Y457706D01*
X489826Y457778D01*
X489808Y457827D01*
X489800Y457878D01*
X489766Y457941D01*
X489741Y458009D01*
X489709Y458049D01*
X489684Y458095D01*
X489632Y458145D01*
X489588Y458201D01*
X489544Y458229D01*
X489506Y458265D01*
X489441Y458295D01*
X489381Y458334D01*
X489330Y458346D01*
X489283Y458368D01*
X489212Y458376D01*
X489142Y458394D01*
X489090Y458390D01*
X489039Y458395D01*
X488968Y458380D01*
X488897Y458375D01*
X488849Y458354D01*
X488798Y458343D01*
X488737Y458306D01*
X488671Y458278D01*
X488615Y458233D01*
X488587Y458217D01*
X488572Y458199D01*
X488540Y458173D01*
X487497Y457131D01*
X486213Y456198D01*
X484800Y455478D01*
X483291Y454987D01*
X482453Y454855D01*
X482453Y464058D01*
X482450Y464078D01*
X482452Y464097D01*
X482430Y464199D01*
X482413Y464301D01*
X482404Y464318D01*
X482400Y464338D01*
X482347Y464427D01*
X482298Y464518D01*
X482284Y464532D01*
X482274Y464549D01*
X482195Y464616D01*
X482120Y464687D01*
X482102Y464696D01*
X482087Y464709D01*
X481991Y464747D01*
X481897Y464791D01*
X481877Y464793D01*
X481859Y464801D01*
X481692Y464819D01*
X480929Y464819D01*
X480929Y464821D01*
X481692Y464821D01*
X481712Y464824D01*
X481731Y464822D01*
X481833Y464844D01*
X481935Y464861D01*
X481952Y464870D01*
X481972Y464874D01*
X482061Y464927D01*
X482152Y464976D01*
X482166Y464990D01*
X482183Y465000D01*
X482250Y465079D01*
X482321Y465154D01*
X482330Y465172D01*
X482343Y465187D01*
X482382Y465283D01*
X482425Y465377D01*
X482427Y465397D01*
X482435Y465415D01*
X482453Y465582D01*
X482453Y474785D01*
X483291Y474653D01*
X484800Y474162D01*
X486213Y473442D01*
X487497Y472509D01*
X488540Y471467D01*
X488598Y471425D01*
X488650Y471375D01*
X488697Y471353D01*
X488739Y471323D01*
X488808Y471302D01*
X488873Y471272D01*
X488925Y471266D01*
X488975Y471251D01*
X489046Y471253D01*
X489117Y471245D01*
X489168Y471256D01*
X489220Y471257D01*
X489288Y471282D01*
X489358Y471297D01*
X489403Y471324D01*
X489451Y471341D01*
X489507Y471386D01*
X489569Y471423D01*
X489603Y471463D01*
X489643Y471495D01*
X489682Y471555D01*
X489729Y471610D01*
X489748Y471658D01*
X489776Y471702D01*
X489794Y471772D01*
X489821Y471838D01*
X489829Y471909D01*
X489837Y471941D01*
X489835Y471964D01*
X489839Y472005D01*
X489839Y489078D01*
X489836Y489098D01*
X489838Y489117D01*
X489816Y489219D01*
X489800Y489321D01*
X489790Y489338D01*
X489786Y489358D01*
X489733Y489447D01*
X489684Y489538D01*
X489670Y489552D01*
X489660Y489569D01*
X489581Y489636D01*
X489506Y489708D01*
X489488Y489716D01*
X489473Y489729D01*
X489377Y489768D01*
X489283Y489811D01*
X489263Y489813D01*
X489245Y489821D01*
X489078Y489839D01*
X404656Y489839D01*
X404586Y489828D01*
X404514Y489826D01*
X404465Y489808D01*
X404414Y489800D01*
X404350Y489766D01*
X404283Y489741D01*
X404242Y489709D01*
X404196Y489684D01*
X404147Y489632D01*
X404091Y489588D01*
X404063Y489544D01*
X404027Y489506D01*
X403997Y489441D01*
X403958Y489381D01*
X403945Y489330D01*
X403923Y489283D01*
X403915Y489212D01*
X403898Y489142D01*
X403902Y489090D01*
X403896Y489039D01*
X403911Y488968D01*
X403917Y488897D01*
X403937Y488849D01*
X403948Y488798D01*
X403985Y488737D01*
X404013Y488671D01*
X404058Y488615D01*
X404075Y488587D01*
X404092Y488572D01*
X404118Y488540D01*
X405639Y487019D01*
X405639Y478181D01*
X399389Y471931D01*
X390551Y471931D01*
X386202Y476280D01*
X386128Y476333D01*
X386058Y476393D01*
X386028Y476405D01*
X386002Y476424D01*
X385915Y476451D01*
X385830Y476485D01*
X385789Y476489D01*
X385767Y476496D01*
X385735Y476495D01*
X385664Y476503D01*
X371141Y476503D01*
X371051Y476489D01*
X370960Y476481D01*
X370930Y476469D01*
X370898Y476464D01*
X370817Y476421D01*
X370733Y476385D01*
X370701Y476359D01*
X370681Y476348D01*
X370658Y476325D01*
X370602Y476280D01*
X349220Y454898D01*
X349167Y454824D01*
X349107Y454754D01*
X349095Y454724D01*
X349076Y454698D01*
X349049Y454611D01*
X349015Y454526D01*
X349011Y454485D01*
X349004Y454463D01*
X349005Y454431D01*
X348997Y454359D01*
X348997Y415706D01*
X349011Y415616D01*
X349019Y415525D01*
X349031Y415496D01*
X349036Y415464D01*
X349079Y415383D01*
X349115Y415299D01*
X349141Y415267D01*
X349152Y415246D01*
X349175Y415224D01*
X349220Y415168D01*
X353569Y410819D01*
X353569Y401981D01*
X347319Y395731D01*
X338481Y395731D01*
X332231Y401981D01*
X332231Y410819D01*
X336580Y415168D01*
X336633Y415242D01*
X336693Y415312D01*
X336705Y415342D01*
X336724Y415368D01*
X336751Y415455D01*
X336785Y415540D01*
X336789Y415581D01*
X336796Y415603D01*
X336795Y415635D01*
X336803Y415706D01*
X336803Y458413D01*
X337731Y460654D01*
X339553Y462476D01*
X339554Y462476D01*
X364846Y487769D01*
X366310Y488375D01*
X366393Y488426D01*
X366479Y488472D01*
X366497Y488490D01*
X366519Y488504D01*
X366581Y488580D01*
X366648Y488650D01*
X366659Y488674D01*
X366676Y488694D01*
X366711Y488785D01*
X366752Y488873D01*
X366755Y488899D01*
X366764Y488923D01*
X366768Y489021D01*
X366779Y489117D01*
X366773Y489143D01*
X366774Y489169D01*
X366747Y489263D01*
X366727Y489358D01*
X366713Y489380D01*
X366706Y489405D01*
X366650Y489485D01*
X366600Y489569D01*
X366581Y489586D01*
X366566Y489607D01*
X366487Y489666D01*
X366413Y489729D01*
X366389Y489739D01*
X366368Y489754D01*
X366276Y489784D01*
X366185Y489821D01*
X366153Y489824D01*
X366134Y489830D01*
X366101Y489830D01*
X366019Y489839D01*
X308891Y489839D01*
X308795Y489824D01*
X308698Y489814D01*
X308674Y489804D01*
X308648Y489800D01*
X308563Y489754D01*
X308473Y489714D01*
X308454Y489697D01*
X308431Y489684D01*
X308364Y489614D01*
X308292Y489548D01*
X308280Y489525D01*
X308262Y489506D01*
X308221Y489418D01*
X308174Y489332D01*
X308169Y489307D01*
X308158Y489283D01*
X308147Y489186D01*
X308130Y489090D01*
X308134Y489064D01*
X308131Y489039D01*
X308152Y488943D01*
X308166Y488847D01*
X308178Y488824D01*
X308183Y488798D01*
X308233Y488715D01*
X308277Y488628D01*
X308296Y488609D01*
X308309Y488587D01*
X308383Y488524D01*
X308453Y488456D01*
X308481Y488440D01*
X308496Y488427D01*
X308527Y488415D01*
X308600Y488375D01*
X310063Y487769D01*
X311885Y485946D01*
X321100Y476731D01*
X321101Y476731D01*
X322923Y474909D01*
X323851Y472668D01*
X323851Y370887D01*
X323865Y370797D01*
X323873Y370706D01*
X323885Y370676D01*
X323890Y370644D01*
X323933Y370563D01*
X323969Y370479D01*
X323995Y370447D01*
X324006Y370427D01*
X324029Y370404D01*
X324074Y370348D01*
X332502Y361920D01*
X332576Y361867D01*
X332646Y361807D01*
X332676Y361795D01*
X332702Y361776D01*
X332789Y361749D01*
X332874Y361715D01*
X332915Y361711D01*
X332937Y361704D01*
X332969Y361705D01*
X333041Y361697D01*
X365459Y361697D01*
X365549Y361711D01*
X365640Y361719D01*
X365670Y361731D01*
X365702Y361736D01*
X365783Y361779D01*
X365867Y361815D01*
X365899Y361841D01*
X365919Y361852D01*
X365942Y361875D01*
X365998Y361920D01*
X408208Y404130D01*
X408261Y404204D01*
X408321Y404274D01*
X408333Y404304D01*
X408352Y404330D01*
X408379Y404417D01*
X408413Y404502D01*
X408417Y404543D01*
X408424Y404565D01*
X408423Y404597D01*
X408431Y404669D01*
X408431Y410819D01*
X414681Y417069D01*
X423519Y417069D01*
X429769Y410819D01*
X429769Y401981D01*
X423519Y395731D01*
X417369Y395731D01*
X417279Y395717D01*
X417188Y395709D01*
X417158Y395697D01*
X417126Y395692D01*
X417045Y395649D01*
X416961Y395613D01*
X416929Y395587D01*
X416909Y395576D01*
X416886Y395553D01*
X416830Y395508D01*
X414290Y392968D01*
X414249Y392910D01*
X414199Y392858D01*
X414177Y392811D01*
X414147Y392769D01*
X414126Y392700D01*
X414095Y392635D01*
X414090Y392583D01*
X414074Y392533D01*
X414076Y392462D01*
X414068Y392391D01*
X414079Y392340D01*
X414081Y392288D01*
X414105Y392220D01*
X414121Y392150D01*
X414147Y392106D01*
X414165Y392057D01*
X414210Y392001D01*
X414247Y391939D01*
X414286Y391905D01*
X414319Y391865D01*
X414379Y391826D01*
X414434Y391779D01*
X414482Y391760D01*
X414526Y391732D01*
X414595Y391714D01*
X414662Y391687D01*
X414733Y391679D01*
X414764Y391671D01*
X414788Y391673D01*
X414829Y391669D01*
X423519Y391669D01*
X429769Y385419D01*
X429769Y376581D01*
X423519Y370331D01*
X414681Y370331D01*
X408431Y376581D01*
X408431Y385271D01*
X408420Y385342D01*
X408418Y385414D01*
X408400Y385463D01*
X408392Y385514D01*
X408358Y385577D01*
X408333Y385645D01*
X408301Y385685D01*
X408276Y385732D01*
X408224Y385781D01*
X408180Y385837D01*
X408136Y385865D01*
X408098Y385901D01*
X408033Y385931D01*
X407973Y385970D01*
X407922Y385983D01*
X407875Y386005D01*
X407804Y386012D01*
X407734Y386030D01*
X407682Y386026D01*
X407631Y386032D01*
X407560Y386016D01*
X407489Y386011D01*
X407441Y385990D01*
X407390Y385979D01*
X407329Y385943D01*
X407263Y385914D01*
X407207Y385870D01*
X407179Y385853D01*
X407164Y385835D01*
X407132Y385810D01*
X373576Y352254D01*
X371754Y350431D01*
X369513Y349503D01*
X328987Y349503D01*
X326746Y350431D01*
X314408Y362770D01*
X314407Y362770D01*
X312585Y364592D01*
X311657Y366833D01*
X311657Y453219D01*
X311655Y453234D01*
X311656Y453248D01*
X311650Y453275D01*
X311652Y453310D01*
X311630Y453385D01*
X311618Y453462D01*
X311604Y453487D01*
X311604Y453488D01*
X311601Y453493D01*
X311596Y453502D01*
X311583Y453547D01*
X311539Y453611D01*
X311502Y453679D01*
X311469Y453711D01*
X311443Y453749D01*
X311380Y453795D01*
X311324Y453849D01*
X311282Y453868D01*
X311246Y453895D01*
X311172Y453919D01*
X311101Y453952D01*
X311055Y453957D01*
X311012Y453972D01*
X310934Y453971D01*
X310857Y453979D01*
X310812Y453970D01*
X310766Y453969D01*
X310634Y453931D01*
X310632Y453931D01*
X310627Y453930D01*
X310626Y453929D01*
X310616Y453927D01*
X310612Y453925D01*
X310605Y453922D01*
X307478Y452627D01*
X302122Y452627D01*
X301063Y453066D01*
X300949Y453093D01*
X300836Y453121D01*
X300829Y453121D01*
X300823Y453122D01*
X300707Y453111D01*
X300590Y453102D01*
X300585Y453100D01*
X300578Y453099D01*
X300471Y453051D01*
X300364Y453006D01*
X300358Y453001D01*
X300354Y452999D01*
X300340Y452986D01*
X300233Y452901D01*
X260320Y412988D01*
X260267Y412914D01*
X260207Y412844D01*
X260195Y412814D01*
X260176Y412788D01*
X260149Y412701D01*
X260115Y412616D01*
X260111Y412575D01*
X260104Y412553D01*
X260105Y412521D01*
X260097Y412449D01*
X260097Y328987D01*
X259169Y326746D01*
X244754Y312331D01*
X242513Y311403D01*
X231810Y311403D01*
X231720Y311389D01*
X231629Y311381D01*
X231600Y311369D01*
X231568Y311364D01*
X231487Y311321D01*
X231403Y311285D01*
X231371Y311259D01*
X231350Y311248D01*
X231328Y311225D01*
X231272Y311180D01*
X228547Y308455D01*
X224626Y306831D01*
X207174Y306831D01*
X203253Y308455D01*
X200251Y311457D01*
X198627Y315378D01*
X198627Y319622D01*
X200251Y323543D01*
X203253Y326545D01*
X207174Y328169D01*
X224626Y328169D01*
X228547Y326545D01*
X231272Y323820D01*
X231346Y323767D01*
X231416Y323707D01*
X231446Y323695D01*
X231472Y323676D01*
X231559Y323649D01*
X231644Y323615D01*
X231685Y323611D01*
X231707Y323604D01*
X231739Y323605D01*
X231810Y323597D01*
X238459Y323597D01*
X238549Y323611D01*
X238640Y323619D01*
X238670Y323631D01*
X238702Y323636D01*
X238783Y323679D01*
X238867Y323715D01*
X238899Y323741D01*
X238919Y323752D01*
X238942Y323775D01*
X238998Y323820D01*
X247680Y332502D01*
X247733Y332576D01*
X247793Y332646D01*
X247805Y332676D01*
X247824Y332702D01*
X247851Y332789D01*
X247885Y332874D01*
X247889Y332915D01*
X247896Y332937D01*
X247895Y332969D01*
X247903Y333041D01*
X247903Y351783D01*
X247888Y351879D01*
X247878Y351976D01*
X247868Y352000D01*
X247864Y352026D01*
X247818Y352112D01*
X247778Y352201D01*
X247761Y352220D01*
X247748Y352243D01*
X247678Y352310D01*
X247612Y352382D01*
X247589Y352395D01*
X247570Y352413D01*
X247482Y352454D01*
X247396Y352501D01*
X247371Y352505D01*
X247347Y352516D01*
X247250Y352527D01*
X247154Y352544D01*
X247128Y352540D01*
X247103Y352543D01*
X247007Y352523D01*
X246911Y352508D01*
X246888Y352497D01*
X246862Y352491D01*
X246778Y352441D01*
X246692Y352397D01*
X246673Y352378D01*
X246651Y352365D01*
X246588Y352291D01*
X246519Y352221D01*
X246504Y352193D01*
X246491Y352178D01*
X246485Y352163D01*
X231989Y337667D01*
X231964Y337651D01*
X231906Y337581D01*
X231842Y337516D01*
X231822Y337480D01*
X231807Y337462D01*
X231795Y337432D01*
X231761Y337369D01*
X231549Y336857D01*
X228547Y333855D01*
X224626Y332231D01*
X207174Y332231D01*
X203253Y333855D01*
X200251Y336857D01*
X198627Y340778D01*
X198627Y345022D01*
X200251Y348943D01*
X203253Y351945D01*
X207174Y353569D01*
X224626Y353569D01*
X228413Y352000D01*
X228480Y351984D01*
X228490Y351980D01*
X228503Y351979D01*
X228527Y351973D01*
X228640Y351945D01*
X228647Y351945D01*
X228653Y351944D01*
X228769Y351955D01*
X228886Y351964D01*
X228891Y351966D01*
X228898Y351967D01*
X229005Y352015D01*
X229112Y352060D01*
X229118Y352065D01*
X229122Y352067D01*
X229136Y352080D01*
X229179Y352114D01*
X229185Y352117D01*
X229191Y352124D01*
X229243Y352165D01*
X234980Y357902D01*
X235033Y357976D01*
X235093Y358046D01*
X235105Y358076D01*
X235124Y358102D01*
X235151Y358189D01*
X235185Y358274D01*
X235189Y358315D01*
X235196Y358337D01*
X235195Y358369D01*
X235203Y358441D01*
X235203Y429203D01*
X236131Y431444D01*
X237954Y433266D01*
X258016Y453328D01*
X258056Y453383D01*
X258103Y453432D01*
X258127Y453483D01*
X258160Y453528D01*
X258180Y453593D01*
X258209Y453654D01*
X258216Y453710D01*
X258232Y453763D01*
X258230Y453831D01*
X258238Y453898D01*
X258227Y453953D01*
X258226Y454009D01*
X258202Y454073D01*
X258189Y454139D01*
X258160Y454187D01*
X258141Y454240D01*
X258099Y454293D01*
X258065Y454351D01*
X258022Y454388D01*
X257988Y454432D01*
X257931Y454469D01*
X257879Y454513D01*
X257828Y454535D01*
X257781Y454565D01*
X257715Y454582D01*
X257652Y454607D01*
X257596Y454611D01*
X257542Y454625D01*
X257475Y454620D01*
X257407Y454624D01*
X257330Y454608D01*
X257297Y454606D01*
X257278Y454598D01*
X257243Y454590D01*
X256796Y454445D01*
X255523Y454244D01*
X255523Y465328D01*
X255520Y465348D01*
X255522Y465367D01*
X255500Y465469D01*
X255483Y465571D01*
X255474Y465588D01*
X255470Y465608D01*
X255417Y465697D01*
X255368Y465788D01*
X255354Y465802D01*
X255344Y465819D01*
X255265Y465886D01*
X255190Y465957D01*
X255172Y465966D01*
X255157Y465979D01*
X255061Y466017D01*
X254967Y466061D01*
X254947Y466063D01*
X254929Y466071D01*
X254762Y466089D01*
X253238Y466089D01*
X253218Y466086D01*
X253199Y466088D01*
X253097Y466066D01*
X252995Y466049D01*
X252978Y466040D01*
X252958Y466036D01*
X252869Y465983D01*
X252778Y465934D01*
X252764Y465920D01*
X252747Y465910D01*
X252680Y465831D01*
X252609Y465756D01*
X252600Y465738D01*
X252587Y465723D01*
X252548Y465627D01*
X252505Y465533D01*
X252503Y465513D01*
X252495Y465495D01*
X252477Y465328D01*
X252477Y454244D01*
X251204Y454445D01*
X249417Y455026D01*
X247743Y455879D01*
X246222Y456984D01*
X244894Y458312D01*
X243789Y459833D01*
X242936Y461507D01*
X242843Y461794D01*
X242796Y461884D01*
X242755Y461976D01*
X242740Y461992D01*
X242730Y462012D01*
X242657Y462083D01*
X242589Y462157D01*
X242569Y462168D01*
X242553Y462183D01*
X242462Y462227D01*
X242373Y462276D01*
X242351Y462280D01*
X242331Y462289D01*
X242231Y462302D01*
X242131Y462320D01*
X242109Y462316D01*
X242087Y462319D01*
X241988Y462299D01*
X241888Y462284D01*
X241868Y462274D01*
X241846Y462269D01*
X241759Y462218D01*
X241669Y462172D01*
X241653Y462156D01*
X241634Y462145D01*
X241567Y462069D01*
X241496Y461997D01*
X241483Y461973D01*
X241472Y461960D01*
X241460Y461930D01*
X241416Y461850D01*
X240013Y458464D01*
X236226Y454677D01*
X231278Y452627D01*
X225922Y452627D01*
X220974Y454677D01*
X217187Y458464D01*
X216603Y459873D01*
X216566Y459934D01*
X216536Y459999D01*
X216501Y460038D01*
X216474Y460082D01*
X216418Y460128D01*
X216370Y460180D01*
X216324Y460205D01*
X216284Y460239D01*
X216217Y460264D01*
X216154Y460299D01*
X216103Y460308D01*
X216055Y460327D01*
X215983Y460330D01*
X215912Y460343D01*
X215861Y460335D01*
X215809Y460337D01*
X215740Y460317D01*
X215669Y460307D01*
X215623Y460283D01*
X215573Y460269D01*
X215514Y460228D01*
X215450Y460195D01*
X215413Y460158D01*
X215371Y460128D01*
X215328Y460071D01*
X215278Y460020D01*
X215243Y459957D01*
X215224Y459931D01*
X215217Y459909D01*
X215197Y459873D01*
X214613Y458464D01*
X210826Y454677D01*
X209767Y454238D01*
X209667Y454176D01*
X209567Y454117D01*
X209563Y454112D01*
X209558Y454108D01*
X209483Y454018D01*
X209407Y453930D01*
X209405Y453924D01*
X209401Y453919D01*
X209359Y453811D01*
X209315Y453701D01*
X209314Y453694D01*
X209313Y453689D01*
X209312Y453671D01*
X209297Y453535D01*
X209297Y434641D01*
X209311Y434551D01*
X209319Y434460D01*
X209331Y434430D01*
X209336Y434398D01*
X209379Y434317D01*
X209415Y434233D01*
X209441Y434201D01*
X209452Y434181D01*
X209475Y434158D01*
X209520Y434102D01*
X213630Y429992D01*
X213704Y429939D01*
X213774Y429879D01*
X213804Y429867D01*
X213830Y429848D01*
X213917Y429821D01*
X214002Y429787D01*
X214043Y429783D01*
X214065Y429776D01*
X214097Y429777D01*
X214169Y429769D01*
X224626Y429769D01*
X228547Y428145D01*
X231549Y425143D01*
X233173Y421222D01*
X233173Y416978D01*
X231549Y413057D01*
X228547Y410055D01*
X224626Y408431D01*
X207174Y408431D01*
X203253Y410055D01*
X200251Y413057D01*
X198627Y416978D01*
X198627Y421222D01*
X200266Y425178D01*
X200288Y425213D01*
X200348Y425296D01*
X200354Y425315D01*
X200365Y425332D01*
X200390Y425432D01*
X200421Y425531D01*
X200420Y425551D01*
X200425Y425571D01*
X200417Y425674D01*
X200414Y425777D01*
X200407Y425796D01*
X200406Y425816D01*
X200365Y425911D01*
X200330Y426008D01*
X200317Y426024D01*
X200310Y426042D01*
X200205Y426173D01*
X199854Y426524D01*
X198031Y428346D01*
X197103Y430587D01*
X197103Y453535D01*
X197084Y453649D01*
X197067Y453766D01*
X197065Y453771D01*
X197064Y453778D01*
X197009Y453880D01*
X196956Y453985D01*
X196951Y453989D01*
X196948Y453995D01*
X196864Y454075D01*
X196780Y454157D01*
X196774Y454161D01*
X196770Y454164D01*
X196753Y454172D01*
X196633Y454238D01*
X195574Y454677D01*
X191787Y458464D01*
X189737Y463412D01*
X189737Y468768D01*
X191787Y473716D01*
X195574Y477503D01*
X200522Y479553D01*
X203915Y479553D01*
X204005Y479567D01*
X204096Y479575D01*
X204126Y479587D01*
X204158Y479592D01*
X204239Y479635D01*
X204323Y479671D01*
X204355Y479697D01*
X204375Y479708D01*
X204398Y479731D01*
X204454Y479776D01*
X212446Y487769D01*
X213910Y488375D01*
X213993Y488426D01*
X214079Y488472D01*
X214097Y488490D01*
X214119Y488504D01*
X214181Y488580D01*
X214248Y488650D01*
X214259Y488674D01*
X214276Y488694D01*
X214311Y488785D01*
X214352Y488873D01*
X214355Y488899D01*
X214364Y488923D01*
X214368Y489021D01*
X214379Y489117D01*
X214373Y489143D01*
X214374Y489169D01*
X214347Y489263D01*
X214327Y489358D01*
X214313Y489380D01*
X214306Y489405D01*
X214250Y489485D01*
X214200Y489569D01*
X214181Y489586D01*
X214166Y489607D01*
X214087Y489666D01*
X214013Y489729D01*
X213989Y489739D01*
X213968Y489754D01*
X213876Y489784D01*
X213785Y489821D01*
X213753Y489824D01*
X213734Y489830D01*
X213701Y489830D01*
X213619Y489839D01*
X154681Y489839D01*
X154585Y489824D01*
X154488Y489814D01*
X154464Y489804D01*
X154439Y489800D01*
X154353Y489754D01*
X154264Y489714D01*
X154244Y489697D01*
X154221Y489684D01*
X154154Y489614D01*
X154083Y489548D01*
X154070Y489525D01*
X154052Y489506D01*
X154011Y489418D01*
X153964Y489332D01*
X153959Y489307D01*
X153948Y489283D01*
X153938Y489186D01*
X153920Y489090D01*
X153924Y489064D01*
X153921Y489039D01*
X153942Y488943D01*
X153956Y488847D01*
X153968Y488824D01*
X153973Y488798D01*
X154023Y488715D01*
X154068Y488628D01*
X154086Y488609D01*
X154100Y488587D01*
X154174Y488524D01*
X154243Y488456D01*
X154272Y488440D01*
X154287Y488427D01*
X154317Y488415D01*
X154390Y488375D01*
X155854Y487769D01*
X170269Y473354D01*
X171197Y471113D01*
X171197Y206041D01*
X171211Y205951D01*
X171219Y205860D01*
X171231Y205830D01*
X171236Y205798D01*
X171279Y205717D01*
X171315Y205633D01*
X171341Y205601D01*
X171352Y205581D01*
X171375Y205558D01*
X171420Y205502D01*
X202557Y174365D01*
X202651Y174298D01*
X202746Y174227D01*
X202752Y174225D01*
X202757Y174222D01*
X202868Y174187D01*
X202980Y174151D01*
X202986Y174151D01*
X202992Y174149D01*
X203109Y174152D01*
X203226Y174153D01*
X203233Y174155D01*
X203238Y174156D01*
X203255Y174162D01*
X203387Y174200D01*
X207174Y175769D01*
X224626Y175769D01*
X228547Y174145D01*
X231549Y171143D01*
X233173Y167222D01*
X233173Y162978D01*
X231549Y159057D01*
X228547Y156055D01*
X224626Y154431D01*
X207174Y154431D01*
X203253Y156055D01*
X200251Y159057D01*
X200039Y159569D01*
X199991Y159646D01*
X199950Y159728D01*
X199927Y159750D01*
X199910Y159778D01*
X199854Y159824D01*
X159898Y199780D01*
X159864Y199843D01*
X159846Y199861D01*
X159832Y199883D01*
X159757Y199946D01*
X159686Y200013D01*
X159662Y200024D01*
X159642Y200040D01*
X159551Y200075D01*
X159463Y200116D01*
X159437Y200119D01*
X159413Y200128D01*
X159315Y200133D01*
X159219Y200143D01*
X159193Y200138D01*
X159167Y200139D01*
X159074Y200112D01*
X158978Y200091D01*
X158956Y200078D01*
X158931Y200070D01*
X158851Y200015D01*
X158767Y199965D01*
X158750Y199945D01*
X158729Y199930D01*
X158671Y199852D01*
X158607Y199778D01*
X158597Y199754D01*
X158582Y199733D01*
X158552Y199640D01*
X158515Y199550D01*
X158512Y199518D01*
X158506Y199499D01*
X158506Y199466D01*
X158497Y199383D01*
X158497Y193341D01*
X158511Y193251D01*
X158519Y193160D01*
X158531Y193130D01*
X158536Y193098D01*
X158579Y193017D01*
X158615Y192933D01*
X158641Y192901D01*
X158652Y192881D01*
X158675Y192858D01*
X158720Y192802D01*
X202557Y148965D01*
X202651Y148898D01*
X202746Y148827D01*
X202752Y148825D01*
X202757Y148822D01*
X202868Y148787D01*
X202980Y148751D01*
X202986Y148751D01*
X202992Y148749D01*
X203109Y148752D01*
X203226Y148753D01*
X203233Y148755D01*
X203238Y148756D01*
X203255Y148762D01*
X203387Y148800D01*
X207174Y150369D01*
X224626Y150369D01*
X228547Y148745D01*
X231549Y145743D01*
X233173Y141822D01*
X233173Y137578D01*
X231549Y133657D01*
X228547Y130655D01*
X224626Y129031D01*
X207174Y129031D01*
X203253Y130655D01*
X200251Y133657D01*
X200039Y134169D01*
X199991Y134246D01*
X199950Y134328D01*
X199927Y134350D01*
X199910Y134378D01*
X199854Y134424D01*
X185196Y149082D01*
X185138Y149123D01*
X185086Y149173D01*
X185039Y149195D01*
X184997Y149225D01*
X184928Y149246D01*
X184863Y149277D01*
X184811Y149282D01*
X184761Y149298D01*
X184690Y149296D01*
X184619Y149304D01*
X184568Y149293D01*
X184516Y149291D01*
X184448Y149267D01*
X184378Y149251D01*
X184333Y149225D01*
X184285Y149207D01*
X184229Y149162D01*
X184167Y149125D01*
X184133Y149086D01*
X184093Y149053D01*
X184054Y148993D01*
X184007Y148938D01*
X183988Y148890D01*
X183960Y148846D01*
X183942Y148777D01*
X183915Y148710D01*
X183907Y148639D01*
X183899Y148608D01*
X183901Y148584D01*
X183897Y148543D01*
X183897Y124622D01*
X183908Y124552D01*
X183910Y124480D01*
X183928Y124431D01*
X183936Y124380D01*
X183970Y124316D01*
X183995Y124249D01*
X184027Y124208D01*
X184052Y124162D01*
X184104Y124113D01*
X184148Y124057D01*
X184192Y124029D01*
X184230Y123993D01*
X184295Y123963D01*
X184355Y123924D01*
X184406Y123911D01*
X184453Y123889D01*
X184524Y123881D01*
X184594Y123864D01*
X184646Y123868D01*
X184697Y123862D01*
X184768Y123877D01*
X184839Y123883D01*
X184887Y123903D01*
X184938Y123914D01*
X184999Y123951D01*
X185065Y123979D01*
X185121Y124024D01*
X185149Y124041D01*
X185164Y124058D01*
X185196Y124084D01*
X186081Y124969D01*
X194919Y124969D01*
X199360Y120528D01*
X199376Y120517D01*
X199388Y120501D01*
X199476Y120445D01*
X199559Y120385D01*
X199578Y120379D01*
X199595Y120368D01*
X199696Y120343D01*
X199795Y120312D01*
X199814Y120313D01*
X199834Y120308D01*
X199937Y120316D01*
X200040Y120319D01*
X200059Y120325D01*
X200079Y120327D01*
X200174Y120367D01*
X200271Y120403D01*
X200287Y120416D01*
X200305Y120423D01*
X200436Y120528D01*
X203253Y123345D01*
X207174Y124969D01*
X224626Y124969D01*
X228547Y123345D01*
X231549Y120343D01*
X233173Y116422D01*
X233173Y112178D01*
X231549Y108257D01*
X228547Y105255D01*
X224626Y103631D01*
X207174Y103631D01*
X203253Y105255D01*
X200436Y108072D01*
X200420Y108083D01*
X200408Y108099D01*
X200320Y108155D01*
X200237Y108215D01*
X200218Y108221D01*
X200201Y108232D01*
X200100Y108257D01*
X200001Y108288D01*
X199982Y108287D01*
X199962Y108292D01*
X199859Y108284D01*
X199756Y108281D01*
X199737Y108275D01*
X199717Y108273D01*
X199622Y108233D01*
X199525Y108197D01*
X199509Y108184D01*
X199491Y108177D01*
X199360Y108072D01*
X194919Y103631D01*
X186229Y103631D01*
X186158Y103620D01*
X186086Y103618D01*
X186037Y103600D01*
X185986Y103592D01*
X185923Y103558D01*
X185855Y103533D01*
X185815Y103501D01*
X185768Y103476D01*
X185719Y103424D01*
X185663Y103380D01*
X185635Y103336D01*
X185599Y103298D01*
X185569Y103233D01*
X185530Y103173D01*
X185517Y103122D01*
X185495Y103075D01*
X185488Y103004D01*
X185470Y102934D01*
X185474Y102882D01*
X185468Y102831D01*
X185484Y102760D01*
X185489Y102689D01*
X185510Y102641D01*
X185521Y102590D01*
X185557Y102529D01*
X185586Y102463D01*
X185630Y102407D01*
X185647Y102379D01*
X185665Y102364D01*
X185690Y102332D01*
X192802Y95220D01*
X192876Y95167D01*
X192946Y95107D01*
X192976Y95095D01*
X193002Y95076D01*
X193089Y95049D01*
X193174Y95015D01*
X193215Y95011D01*
X193237Y95004D01*
X193269Y95005D01*
X193341Y94997D01*
X199990Y94997D01*
X200080Y95011D01*
X200171Y95019D01*
X200200Y95031D01*
X200232Y95036D01*
X200313Y95079D01*
X200397Y95115D01*
X200429Y95141D01*
X200450Y95152D01*
X200472Y95175D01*
X200528Y95220D01*
X203253Y97945D01*
X207174Y99569D01*
X224626Y99569D01*
X228547Y97945D01*
X231549Y94943D01*
X233173Y91022D01*
X233173Y86778D01*
X231549Y82857D01*
X228547Y79855D01*
X224626Y78231D01*
X207174Y78231D01*
X203253Y79855D01*
X200528Y82580D01*
X200454Y82633D01*
X200384Y82693D01*
X200354Y82705D01*
X200328Y82724D01*
X200241Y82751D01*
X200156Y82785D01*
X200115Y82789D01*
X200093Y82796D01*
X200061Y82795D01*
X199990Y82803D01*
X189287Y82803D01*
X187046Y83731D01*
X172631Y98146D01*
X171703Y100387D01*
X171703Y106133D01*
X171692Y106204D01*
X171690Y106275D01*
X171672Y106324D01*
X171664Y106376D01*
X171630Y106439D01*
X171605Y106506D01*
X171573Y106547D01*
X171548Y106593D01*
X171496Y106642D01*
X171452Y106698D01*
X171408Y106727D01*
X171370Y106762D01*
X171305Y106793D01*
X171245Y106831D01*
X171194Y106844D01*
X171147Y106866D01*
X171076Y106874D01*
X171006Y106891D01*
X170954Y106887D01*
X170903Y106893D01*
X170832Y106878D01*
X170761Y106872D01*
X170713Y106852D01*
X170662Y106841D01*
X170601Y106804D01*
X170535Y106776D01*
X170479Y106731D01*
X170451Y106715D01*
X170436Y106697D01*
X170404Y106671D01*
X168888Y105155D01*
X166623Y105155D01*
X166623Y113538D01*
X166620Y113558D01*
X166622Y113577D01*
X166600Y113679D01*
X166583Y113781D01*
X166574Y113798D01*
X166570Y113818D01*
X166517Y113907D01*
X166468Y113998D01*
X166454Y114012D01*
X166444Y114029D01*
X166365Y114096D01*
X166290Y114167D01*
X166272Y114176D01*
X166257Y114189D01*
X166161Y114227D01*
X166067Y114271D01*
X166047Y114273D01*
X166029Y114281D01*
X165862Y114299D01*
X164338Y114299D01*
X164318Y114296D01*
X164299Y114298D01*
X164197Y114276D01*
X164095Y114259D01*
X164078Y114250D01*
X164058Y114246D01*
X163969Y114193D01*
X163878Y114144D01*
X163864Y114130D01*
X163847Y114120D01*
X163780Y114041D01*
X163709Y113966D01*
X163700Y113948D01*
X163687Y113933D01*
X163648Y113837D01*
X163605Y113743D01*
X163603Y113723D01*
X163595Y113705D01*
X163577Y113538D01*
X163577Y105155D01*
X161312Y105155D01*
X159796Y106671D01*
X159738Y106713D01*
X159686Y106762D01*
X159639Y106784D01*
X159597Y106815D01*
X159528Y106836D01*
X159463Y106866D01*
X159411Y106872D01*
X159361Y106887D01*
X159290Y106885D01*
X159219Y106893D01*
X159168Y106882D01*
X159116Y106881D01*
X159048Y106856D01*
X158978Y106841D01*
X158933Y106814D01*
X158885Y106796D01*
X158829Y106751D01*
X158767Y106715D01*
X158733Y106675D01*
X158693Y106643D01*
X158654Y106582D01*
X158607Y106528D01*
X158588Y106479D01*
X158560Y106436D01*
X158542Y106366D01*
X158515Y106300D01*
X158507Y106228D01*
X158499Y106197D01*
X158501Y106174D01*
X158497Y106133D01*
X158497Y74987D01*
X157569Y72746D01*
X155746Y70924D01*
X138851Y54029D01*
X138783Y53935D01*
X138713Y53840D01*
X138711Y53834D01*
X138708Y53829D01*
X138673Y53718D01*
X138637Y53606D01*
X138637Y53600D01*
X138635Y53594D01*
X138638Y53477D01*
X138639Y53360D01*
X138641Y53353D01*
X138642Y53348D01*
X138648Y53331D01*
X138686Y53199D01*
X138715Y53130D01*
X138715Y48470D01*
X136931Y44164D01*
X133636Y40869D01*
X129330Y39085D01*
X124670Y39085D01*
X120364Y40869D01*
X117069Y44164D01*
X115285Y48470D01*
X115285Y53130D01*
X117069Y57436D01*
X120364Y60731D01*
X124670Y62515D01*
X129330Y62515D01*
X129399Y62486D01*
X129513Y62459D01*
X129627Y62431D01*
X129633Y62431D01*
X129639Y62430D01*
X129755Y62441D01*
X129872Y62450D01*
X129877Y62452D01*
X129884Y62453D01*
X129991Y62501D01*
X130098Y62546D01*
X130104Y62551D01*
X130108Y62553D01*
X130122Y62566D01*
X130229Y62651D01*
X146080Y78502D01*
X146133Y78576D01*
X146193Y78646D01*
X146205Y78676D01*
X146224Y78702D01*
X146251Y78789D01*
X146285Y78874D01*
X146289Y78915D01*
X146296Y78937D01*
X146295Y78969D01*
X146303Y79041D01*
X146303Y149559D01*
X146289Y149649D01*
X146281Y149740D01*
X146269Y149770D01*
X146264Y149802D01*
X146221Y149883D01*
X146185Y149967D01*
X146159Y149999D01*
X146148Y150019D01*
X146125Y150042D01*
X146080Y150098D01*
X139097Y157081D01*
X139081Y157093D01*
X139068Y157108D01*
X138981Y157164D01*
X138897Y157225D01*
X138878Y157230D01*
X138861Y157241D01*
X138761Y157267D01*
X138662Y157297D01*
X138642Y157296D01*
X138623Y157301D01*
X138520Y157293D01*
X138416Y157291D01*
X138397Y157284D01*
X138378Y157282D01*
X138283Y157242D01*
X138185Y157206D01*
X138169Y157194D01*
X138151Y157186D01*
X138020Y157081D01*
X134626Y153687D01*
X129678Y151637D01*
X124322Y151637D01*
X119374Y153687D01*
X115587Y157474D01*
X115148Y158533D01*
X115087Y158633D01*
X115027Y158733D01*
X115022Y158737D01*
X115018Y158742D01*
X114929Y158817D01*
X114840Y158893D01*
X114834Y158895D01*
X114829Y158899D01*
X114721Y158941D01*
X114611Y158985D01*
X114604Y158986D01*
X114599Y158987D01*
X114581Y158988D01*
X114445Y159003D01*
X100387Y159003D01*
X98146Y159931D01*
X48498Y209580D01*
X48424Y209633D01*
X48354Y209693D01*
X48324Y209705D01*
X48298Y209724D01*
X48211Y209751D01*
X48126Y209785D01*
X48085Y209789D01*
X48063Y209796D01*
X48031Y209795D01*
X47959Y209803D01*
X37955Y209803D01*
X37841Y209784D01*
X37724Y209767D01*
X37719Y209765D01*
X37712Y209764D01*
X37610Y209709D01*
X37505Y209656D01*
X37501Y209651D01*
X37495Y209648D01*
X37415Y209564D01*
X37333Y209480D01*
X37329Y209474D01*
X37326Y209470D01*
X37318Y209453D01*
X37252Y209333D01*
X36813Y208274D01*
X33026Y204487D01*
X31617Y203903D01*
X31556Y203865D01*
X31491Y203836D01*
X31452Y203801D01*
X31408Y203774D01*
X31362Y203718D01*
X31310Y203670D01*
X31285Y203624D01*
X31251Y203584D01*
X31226Y203517D01*
X31191Y203454D01*
X31182Y203403D01*
X31163Y203355D01*
X31160Y203283D01*
X31147Y203212D01*
X31155Y203161D01*
X31153Y203109D01*
X31173Y203040D01*
X31183Y202969D01*
X31207Y202923D01*
X31221Y202873D01*
X31262Y202814D01*
X31295Y202750D01*
X31332Y202713D01*
X31362Y202671D01*
X31419Y202628D01*
X31470Y202578D01*
X31533Y202543D01*
X31559Y202524D01*
X31581Y202517D01*
X31617Y202497D01*
X33026Y201913D01*
X36813Y198126D01*
X38863Y193178D01*
X38863Y187822D01*
X36813Y182874D01*
X33026Y179087D01*
X29640Y177684D01*
X29554Y177631D01*
X29465Y177583D01*
X29450Y177566D01*
X29431Y177555D01*
X29367Y177477D01*
X29298Y177403D01*
X29289Y177382D01*
X29274Y177365D01*
X29238Y177271D01*
X29196Y177178D01*
X29194Y177156D01*
X29186Y177136D01*
X29182Y177035D01*
X29172Y176934D01*
X29177Y176912D01*
X29176Y176890D01*
X29204Y176793D01*
X29227Y176694D01*
X29238Y176675D01*
X29244Y176654D01*
X29302Y176571D01*
X29355Y176484D01*
X29372Y176470D01*
X29385Y176452D01*
X29466Y176391D01*
X29544Y176326D01*
X29568Y176315D01*
X29582Y176305D01*
X29613Y176295D01*
X29696Y176257D01*
X29983Y176164D01*
X31657Y175311D01*
X33178Y174206D01*
X34506Y172878D01*
X35611Y171357D01*
X36464Y169683D01*
X37045Y167896D01*
X37246Y166623D01*
X26162Y166623D01*
X26142Y166620D01*
X26123Y166622D01*
X26021Y166600D01*
X25919Y166583D01*
X25902Y166574D01*
X25882Y166570D01*
X25793Y166517D01*
X25702Y166468D01*
X25688Y166454D01*
X25671Y166444D01*
X25604Y166365D01*
X25533Y166290D01*
X25524Y166272D01*
X25511Y166257D01*
X25473Y166161D01*
X25429Y166067D01*
X25427Y166047D01*
X25419Y166029D01*
X25401Y165862D01*
X25401Y165099D01*
X25399Y165099D01*
X25399Y165862D01*
X25396Y165882D01*
X25398Y165901D01*
X25376Y166003D01*
X25359Y166105D01*
X25350Y166122D01*
X25346Y166142D01*
X25293Y166231D01*
X25244Y166322D01*
X25230Y166336D01*
X25220Y166353D01*
X25141Y166420D01*
X25066Y166491D01*
X25048Y166500D01*
X25033Y166513D01*
X24937Y166552D01*
X24843Y166595D01*
X24823Y166597D01*
X24805Y166605D01*
X24638Y166623D01*
X13554Y166623D01*
X13755Y167896D01*
X14336Y169683D01*
X15189Y171357D01*
X16294Y172878D01*
X17622Y174206D01*
X19143Y175311D01*
X20817Y176164D01*
X21104Y176257D01*
X21194Y176304D01*
X21286Y176345D01*
X21302Y176360D01*
X21322Y176370D01*
X21393Y176443D01*
X21467Y176511D01*
X21478Y176531D01*
X21493Y176547D01*
X21537Y176638D01*
X21586Y176727D01*
X21590Y176749D01*
X21599Y176769D01*
X21612Y176869D01*
X21630Y176969D01*
X21626Y176991D01*
X21629Y177013D01*
X21609Y177112D01*
X21594Y177212D01*
X21584Y177232D01*
X21579Y177254D01*
X21528Y177341D01*
X21482Y177431D01*
X21466Y177447D01*
X21455Y177466D01*
X21379Y177533D01*
X21307Y177604D01*
X21283Y177617D01*
X21270Y177628D01*
X21240Y177640D01*
X21160Y177684D01*
X17774Y179087D01*
X13987Y182874D01*
X11937Y187822D01*
X11937Y193178D01*
X13987Y198126D01*
X17774Y201913D01*
X19183Y202497D01*
X19244Y202534D01*
X19309Y202564D01*
X19348Y202599D01*
X19392Y202626D01*
X19438Y202682D01*
X19490Y202730D01*
X19515Y202776D01*
X19549Y202816D01*
X19574Y202883D01*
X19609Y202946D01*
X19618Y202997D01*
X19637Y203045D01*
X19640Y203117D01*
X19653Y203188D01*
X19645Y203239D01*
X19647Y203291D01*
X19627Y203360D01*
X19617Y203431D01*
X19593Y203477D01*
X19579Y203527D01*
X19538Y203586D01*
X19505Y203650D01*
X19468Y203687D01*
X19438Y203729D01*
X19381Y203772D01*
X19330Y203822D01*
X19267Y203857D01*
X19241Y203876D01*
X19219Y203883D01*
X19183Y203903D01*
X17774Y204487D01*
X13987Y208274D01*
X11937Y213222D01*
X11937Y218578D01*
X13987Y223526D01*
X17774Y227313D01*
X19183Y227897D01*
X19244Y227934D01*
X19309Y227964D01*
X19348Y227999D01*
X19392Y228026D01*
X19438Y228082D01*
X19490Y228130D01*
X19515Y228176D01*
X19549Y228216D01*
X19574Y228283D01*
X19609Y228346D01*
X19618Y228397D01*
X19637Y228445D01*
X19640Y228517D01*
X19653Y228588D01*
X19645Y228639D01*
X19647Y228691D01*
X19627Y228760D01*
X19617Y228831D01*
X19593Y228877D01*
X19579Y228927D01*
X19538Y228986D01*
X19505Y229050D01*
X19468Y229087D01*
X19438Y229129D01*
X19381Y229172D01*
X19330Y229222D01*
X19267Y229257D01*
X19241Y229276D01*
X19219Y229283D01*
X19183Y229303D01*
X17774Y229887D01*
X13987Y233674D01*
X11937Y238622D01*
X11937Y243978D01*
X13987Y248926D01*
X17774Y252713D01*
X19183Y253297D01*
X19244Y253335D01*
X19309Y253364D01*
X19348Y253399D01*
X19392Y253426D01*
X19438Y253482D01*
X19490Y253530D01*
X19515Y253576D01*
X19549Y253616D01*
X19574Y253683D01*
X19609Y253746D01*
X19618Y253797D01*
X19637Y253845D01*
X19640Y253917D01*
X19653Y253988D01*
X19645Y254039D01*
X19647Y254091D01*
X19627Y254160D01*
X19617Y254231D01*
X19593Y254277D01*
X19579Y254327D01*
X19538Y254386D01*
X19505Y254450D01*
X19468Y254487D01*
X19438Y254529D01*
X19381Y254572D01*
X19330Y254622D01*
X19267Y254657D01*
X19241Y254676D01*
X19219Y254683D01*
X19183Y254703D01*
X17774Y255287D01*
X13987Y259074D01*
X11937Y264022D01*
X11937Y269378D01*
X13987Y274326D01*
X17774Y278113D01*
X19183Y278697D01*
X19244Y278734D01*
X19309Y278764D01*
X19348Y278799D01*
X19392Y278826D01*
X19438Y278882D01*
X19490Y278930D01*
X19515Y278976D01*
X19549Y279016D01*
X19574Y279083D01*
X19609Y279146D01*
X19618Y279197D01*
X19637Y279245D01*
X19640Y279317D01*
X19653Y279388D01*
X19645Y279439D01*
X19647Y279491D01*
X19627Y279560D01*
X19617Y279631D01*
X19593Y279677D01*
X19579Y279727D01*
X19538Y279786D01*
X19505Y279850D01*
X19468Y279887D01*
X19438Y279929D01*
X19381Y279972D01*
X19330Y280022D01*
X19267Y280057D01*
X19241Y280076D01*
X19219Y280083D01*
X19183Y280103D01*
X17774Y280687D01*
X13987Y284474D01*
X11937Y289422D01*
X11937Y294778D01*
X13987Y299726D01*
X17774Y303513D01*
X19183Y304097D01*
X19244Y304134D01*
X19309Y304164D01*
X19348Y304199D01*
X19392Y304226D01*
X19438Y304282D01*
X19490Y304330D01*
X19515Y304376D01*
X19549Y304416D01*
X19574Y304483D01*
X19609Y304546D01*
X19618Y304597D01*
X19637Y304645D01*
X19640Y304717D01*
X19653Y304788D01*
X19645Y304839D01*
X19647Y304891D01*
X19627Y304960D01*
X19617Y305031D01*
X19593Y305077D01*
X19579Y305127D01*
X19538Y305186D01*
X19505Y305250D01*
X19468Y305287D01*
X19438Y305329D01*
X19381Y305372D01*
X19330Y305422D01*
X19267Y305457D01*
X19241Y305476D01*
X19219Y305483D01*
X19183Y305503D01*
X17774Y306087D01*
X13987Y309874D01*
X11937Y314822D01*
X11937Y320178D01*
X13987Y325126D01*
X17774Y328913D01*
X19183Y329497D01*
X19244Y329534D01*
X19309Y329564D01*
X19348Y329599D01*
X19392Y329626D01*
X19438Y329682D01*
X19490Y329730D01*
X19515Y329776D01*
X19549Y329816D01*
X19574Y329883D01*
X19609Y329946D01*
X19618Y329997D01*
X19637Y330045D01*
X19640Y330117D01*
X19653Y330188D01*
X19645Y330239D01*
X19647Y330291D01*
X19627Y330360D01*
X19617Y330431D01*
X19593Y330477D01*
X19579Y330527D01*
X19538Y330586D01*
X19505Y330650D01*
X19468Y330687D01*
X19438Y330729D01*
X19381Y330772D01*
X19330Y330822D01*
X19267Y330857D01*
X19241Y330876D01*
X19219Y330883D01*
X19183Y330903D01*
X17774Y331487D01*
X13987Y335274D01*
X11937Y340222D01*
X11937Y345578D01*
X13987Y350526D01*
X17774Y354313D01*
X19183Y354897D01*
X19244Y354934D01*
X19309Y354964D01*
X19348Y354999D01*
X19392Y355026D01*
X19438Y355082D01*
X19490Y355130D01*
X19515Y355176D01*
X19549Y355216D01*
X19574Y355283D01*
X19609Y355346D01*
X19618Y355397D01*
X19637Y355445D01*
X19640Y355517D01*
X19653Y355588D01*
X19645Y355639D01*
X19647Y355691D01*
X19627Y355760D01*
X19617Y355831D01*
X19593Y355877D01*
X19579Y355927D01*
X19538Y355986D01*
X19505Y356050D01*
X19468Y356087D01*
X19438Y356129D01*
X19381Y356172D01*
X19330Y356222D01*
X19267Y356257D01*
X19241Y356276D01*
X19219Y356283D01*
X19183Y356303D01*
X17774Y356887D01*
X13987Y360674D01*
X11937Y365622D01*
X11937Y370978D01*
X13987Y375926D01*
X17774Y379713D01*
X22722Y381763D01*
X28078Y381763D01*
X33026Y379713D01*
X36813Y375926D01*
X38863Y370978D01*
X38863Y365622D01*
X36813Y360674D01*
X33026Y356887D01*
X31617Y356303D01*
X31556Y356265D01*
X31491Y356236D01*
X31452Y356201D01*
X31408Y356174D01*
X31362Y356118D01*
X31310Y356070D01*
X31285Y356024D01*
X31251Y355984D01*
X31226Y355917D01*
X31191Y355854D01*
X31182Y355803D01*
X31163Y355755D01*
X31160Y355683D01*
X31147Y355612D01*
X31155Y355561D01*
X31153Y355509D01*
X31173Y355440D01*
X31183Y355369D01*
X31207Y355323D01*
X31221Y355273D01*
X31262Y355214D01*
X31295Y355150D01*
X31332Y355113D01*
X31362Y355071D01*
X31419Y355028D01*
X31470Y354978D01*
X31533Y354943D01*
X31559Y354924D01*
X31581Y354917D01*
X31617Y354897D01*
X33026Y354313D01*
X36813Y350526D01*
X38863Y345578D01*
X38863Y340222D01*
X36813Y335274D01*
X33026Y331487D01*
X31617Y330903D01*
X31556Y330865D01*
X31491Y330836D01*
X31452Y330801D01*
X31408Y330774D01*
X31362Y330718D01*
X31310Y330670D01*
X31285Y330624D01*
X31251Y330584D01*
X31226Y330517D01*
X31191Y330454D01*
X31182Y330403D01*
X31163Y330355D01*
X31160Y330283D01*
X31147Y330212D01*
X31155Y330161D01*
X31153Y330109D01*
X31173Y330040D01*
X31183Y329969D01*
X31207Y329923D01*
X31221Y329873D01*
X31262Y329814D01*
X31295Y329750D01*
X31332Y329713D01*
X31362Y329671D01*
X31419Y329628D01*
X31470Y329578D01*
X31533Y329543D01*
X31559Y329524D01*
X31581Y329517D01*
X31617Y329497D01*
X33026Y328913D01*
X36813Y325126D01*
X38863Y320178D01*
X38863Y314822D01*
X36813Y309874D01*
X33026Y306087D01*
X31617Y305503D01*
X31556Y305465D01*
X31491Y305436D01*
X31452Y305401D01*
X31408Y305374D01*
X31362Y305318D01*
X31310Y305270D01*
X31285Y305224D01*
X31251Y305184D01*
X31226Y305117D01*
X31191Y305054D01*
X31182Y305003D01*
X31163Y304955D01*
X31160Y304883D01*
X31147Y304812D01*
X31155Y304761D01*
X31153Y304709D01*
X31173Y304640D01*
X31183Y304569D01*
X31207Y304523D01*
X31221Y304473D01*
X31262Y304414D01*
X31295Y304350D01*
X31332Y304313D01*
X31362Y304271D01*
X31419Y304228D01*
X31470Y304178D01*
X31533Y304143D01*
X31559Y304124D01*
X31581Y304117D01*
X31617Y304097D01*
X33026Y303513D01*
X36813Y299726D01*
X38863Y294778D01*
X38863Y289422D01*
X36813Y284474D01*
X33026Y280687D01*
X31617Y280103D01*
X31556Y280065D01*
X31491Y280036D01*
X31452Y280001D01*
X31408Y279974D01*
X31362Y279918D01*
X31310Y279870D01*
X31285Y279824D01*
X31251Y279784D01*
X31226Y279717D01*
X31191Y279654D01*
X31182Y279603D01*
X31163Y279555D01*
X31160Y279483D01*
X31147Y279412D01*
X31155Y279361D01*
X31153Y279309D01*
X31173Y279240D01*
X31183Y279169D01*
X31207Y279123D01*
X31221Y279073D01*
X31262Y279014D01*
X31295Y278950D01*
X31332Y278913D01*
X31362Y278871D01*
X31419Y278828D01*
X31470Y278778D01*
X31533Y278743D01*
X31559Y278724D01*
X31581Y278717D01*
X31617Y278697D01*
X33026Y278113D01*
X36813Y274326D01*
X37252Y273267D01*
X37313Y273167D01*
X37373Y273067D01*
X37378Y273063D01*
X37382Y273058D01*
X37471Y272983D01*
X37560Y272907D01*
X37566Y272905D01*
X37571Y272901D01*
X37679Y272859D01*
X37789Y272815D01*
X37796Y272814D01*
X37801Y272813D01*
X37819Y272812D01*
X37955Y272797D01*
X102813Y272797D01*
X105054Y271869D01*
X106876Y270047D01*
X106876Y270046D01*
X144902Y232020D01*
X144936Y231957D01*
X144954Y231939D01*
X144968Y231917D01*
X145043Y231854D01*
X145114Y231787D01*
X145138Y231776D01*
X145158Y231760D01*
X145249Y231725D01*
X145337Y231684D01*
X145363Y231681D01*
X145387Y231672D01*
X145485Y231667D01*
X145581Y231657D01*
X145607Y231662D01*
X145633Y231661D01*
X145727Y231688D01*
X145822Y231709D01*
X145844Y231722D01*
X145869Y231729D01*
X145949Y231785D01*
X146033Y231835D01*
X146050Y231855D01*
X146071Y231870D01*
X146129Y231948D01*
X146193Y232022D01*
X146203Y232046D01*
X146218Y232067D01*
X146248Y232159D01*
X146285Y232250D01*
X146288Y232282D01*
X146294Y232301D01*
X146294Y232334D01*
X146303Y232417D01*
X146303Y454359D01*
X146289Y454449D01*
X146281Y454540D01*
X146269Y454570D01*
X146264Y454602D01*
X146221Y454683D01*
X146185Y454767D01*
X146159Y454799D01*
X146148Y454819D01*
X146125Y454842D01*
X146080Y454898D01*
X139938Y461040D01*
X139864Y461093D01*
X139794Y461153D01*
X139764Y461165D01*
X139738Y461184D01*
X139651Y461211D01*
X139566Y461245D01*
X139525Y461249D01*
X139503Y461256D01*
X139471Y461255D01*
X139399Y461263D01*
X123606Y461263D01*
X123516Y461249D01*
X123425Y461241D01*
X123396Y461229D01*
X123364Y461224D01*
X123283Y461181D01*
X123199Y461145D01*
X123167Y461119D01*
X123146Y461108D01*
X123124Y461085D01*
X123068Y461040D01*
X118719Y456691D01*
X109881Y456691D01*
X103631Y462941D01*
X103631Y471779D01*
X107056Y475204D01*
X107098Y475262D01*
X107147Y475314D01*
X107169Y475361D01*
X107199Y475403D01*
X107221Y475472D01*
X107251Y475537D01*
X107256Y475589D01*
X107272Y475639D01*
X107270Y475710D01*
X107278Y475781D01*
X107267Y475832D01*
X107265Y475884D01*
X107241Y475952D01*
X107226Y476022D01*
X107199Y476067D01*
X107181Y476115D01*
X107136Y476171D01*
X107099Y476233D01*
X107060Y476267D01*
X107027Y476307D01*
X106967Y476346D01*
X106912Y476393D01*
X106864Y476412D01*
X106820Y476440D01*
X106751Y476458D01*
X106684Y476485D01*
X106613Y476493D01*
X106582Y476501D01*
X106559Y476499D01*
X106518Y476503D01*
X104441Y476503D01*
X104351Y476489D01*
X104260Y476481D01*
X104230Y476469D01*
X104198Y476464D01*
X104117Y476421D01*
X104033Y476385D01*
X104001Y476359D01*
X103981Y476348D01*
X103958Y476325D01*
X103902Y476280D01*
X95220Y467598D01*
X95167Y467524D01*
X95107Y467454D01*
X95095Y467424D01*
X95076Y467398D01*
X95049Y467311D01*
X95015Y467226D01*
X95011Y467185D01*
X95004Y467163D01*
X95005Y467131D01*
X94997Y467059D01*
X94997Y415706D01*
X95011Y415616D01*
X95019Y415525D01*
X95031Y415496D01*
X95036Y415464D01*
X95079Y415383D01*
X95115Y415299D01*
X95141Y415267D01*
X95152Y415246D01*
X95175Y415224D01*
X95220Y415168D01*
X99569Y410819D01*
X99569Y401981D01*
X93319Y395731D01*
X84481Y395731D01*
X78231Y401981D01*
X78231Y410819D01*
X82580Y415168D01*
X82633Y415242D01*
X82693Y415312D01*
X82705Y415342D01*
X82724Y415368D01*
X82751Y415455D01*
X82785Y415540D01*
X82789Y415581D01*
X82796Y415603D01*
X82795Y415635D01*
X82803Y415706D01*
X82803Y471113D01*
X83731Y473354D01*
X98146Y487769D01*
X99610Y488375D01*
X99693Y488426D01*
X99779Y488472D01*
X99797Y488490D01*
X99819Y488504D01*
X99881Y488580D01*
X99948Y488650D01*
X99959Y488674D01*
X99976Y488694D01*
X100011Y488785D01*
X100052Y488873D01*
X100055Y488899D01*
X100064Y488923D01*
X100068Y489021D01*
X100079Y489117D01*
X100073Y489143D01*
X100074Y489169D01*
X100047Y489263D01*
X100027Y489358D01*
X100013Y489380D01*
X100006Y489405D01*
X99950Y489485D01*
X99900Y489569D01*
X99881Y489586D01*
X99866Y489607D01*
X99787Y489666D01*
X99713Y489729D01*
X99689Y489739D01*
X99668Y489754D01*
X99576Y489784D01*
X99485Y489821D01*
X99453Y489824D01*
X99434Y489830D01*
X99401Y489830D01*
X99319Y489839D01*
X10922Y489839D01*
X10902Y489836D01*
X10883Y489838D01*
X10781Y489816D01*
X10679Y489800D01*
X10662Y489790D01*
X10642Y489786D01*
X10553Y489733D01*
X10462Y489684D01*
X10448Y489670D01*
X10431Y489660D01*
X10364Y489581D01*
X10292Y489506D01*
X10284Y489488D01*
X10271Y489473D01*
X10232Y489377D01*
X10189Y489283D01*
X10187Y489263D01*
X10179Y489245D01*
X10161Y489078D01*
X10161Y472510D01*
X10172Y472439D01*
X10174Y472368D01*
X10192Y472319D01*
X10200Y472267D01*
X10234Y472204D01*
X10259Y472137D01*
X10291Y472096D01*
X10316Y472050D01*
X10368Y472001D01*
X10412Y471945D01*
X10456Y471916D01*
X10494Y471881D01*
X10559Y471850D01*
X10619Y471812D01*
X10670Y471799D01*
X10717Y471777D01*
X10788Y471769D01*
X10858Y471752D01*
X10910Y471756D01*
X10961Y471750D01*
X11032Y471765D01*
X11103Y471771D01*
X11151Y471791D01*
X11202Y471802D01*
X11263Y471839D01*
X11329Y471867D01*
X11385Y471912D01*
X11413Y471928D01*
X11428Y471946D01*
X11460Y471972D01*
X14146Y474658D01*
X18412Y476425D01*
X23028Y476425D01*
X27294Y474658D01*
X30558Y471394D01*
X32325Y467128D01*
X32325Y462512D01*
X30558Y458246D01*
X27294Y454982D01*
X23028Y453215D01*
X18412Y453215D01*
X14146Y454982D01*
X11460Y457668D01*
X11402Y457710D01*
X11350Y457759D01*
X11303Y457781D01*
X11261Y457812D01*
X11192Y457833D01*
X11127Y457863D01*
X11075Y457869D01*
X11025Y457884D01*
X10954Y457882D01*
X10883Y457890D01*
X10832Y457879D01*
X10780Y457878D01*
X10712Y457853D01*
X10642Y457838D01*
X10597Y457811D01*
X10549Y457793D01*
X10493Y457748D01*
X10431Y457712D01*
X10397Y457672D01*
X10357Y457640D01*
X10318Y457579D01*
X10271Y457525D01*
X10252Y457476D01*
X10224Y457433D01*
X10206Y457363D01*
X10179Y457297D01*
X10171Y457225D01*
X10163Y457194D01*
X10165Y457171D01*
X10161Y457130D01*
X10161Y10922D01*
X10164Y10902D01*
X10162Y10883D01*
X10184Y10781D01*
X10200Y10679D01*
X10210Y10662D01*
X10214Y10642D01*
X10267Y10553D01*
X10316Y10462D01*
X10330Y10448D01*
X10340Y10431D01*
X10419Y10364D01*
X10494Y10292D01*
X10512Y10284D01*
X10527Y10271D01*
X10623Y10232D01*
X10717Y10189D01*
X10737Y10187D01*
X10755Y10179D01*
X10922Y10161D01*
X203452Y10161D01*
X203548Y10176D01*
G37*
%LPC*%
G36*
X231471Y43495D02*
X231471Y43495D01*
X227390Y45186D01*
X224266Y48310D01*
X222575Y52391D01*
X222575Y56809D01*
X224266Y60890D01*
X227390Y64014D01*
X231471Y65705D01*
X234411Y65705D01*
X234501Y65719D01*
X234592Y65727D01*
X234621Y65739D01*
X234653Y65744D01*
X234734Y65787D01*
X234818Y65823D01*
X234850Y65849D01*
X234871Y65860D01*
X234893Y65883D01*
X234897Y65886D01*
X234898Y65887D01*
X234899Y65887D01*
X234949Y65928D01*
X249143Y80122D01*
X251251Y82230D01*
X253865Y83313D01*
X275123Y83313D01*
X275169Y83320D01*
X275214Y83318D01*
X275289Y83340D01*
X275366Y83352D01*
X275407Y83374D01*
X275451Y83387D01*
X275515Y83431D01*
X275583Y83468D01*
X275615Y83501D01*
X275653Y83527D01*
X275699Y83590D01*
X275753Y83646D01*
X275772Y83688D01*
X275799Y83724D01*
X275824Y83798D01*
X275856Y83869D01*
X275861Y83915D01*
X275876Y83958D01*
X275875Y84036D01*
X275883Y84113D01*
X275874Y84158D01*
X275873Y84204D01*
X275835Y84336D01*
X275831Y84354D01*
X275829Y84358D01*
X275827Y84365D01*
X274827Y86778D01*
X274827Y91022D01*
X276451Y94943D01*
X279453Y97945D01*
X283374Y99569D01*
X300826Y99569D01*
X304747Y97945D01*
X307749Y94943D01*
X309373Y91022D01*
X309373Y86778D01*
X308373Y84365D01*
X308363Y84321D01*
X308344Y84279D01*
X308335Y84202D01*
X308317Y84126D01*
X308322Y84080D01*
X308317Y84035D01*
X308333Y83958D01*
X308340Y83881D01*
X308359Y83839D01*
X308369Y83794D01*
X308409Y83727D01*
X308440Y83656D01*
X308471Y83622D01*
X308495Y83583D01*
X308554Y83532D01*
X308607Y83475D01*
X308647Y83453D01*
X308682Y83423D01*
X308754Y83394D01*
X308822Y83357D01*
X308867Y83348D01*
X308910Y83331D01*
X309046Y83316D01*
X309064Y83313D01*
X309069Y83314D01*
X309077Y83313D01*
X314238Y83313D01*
X314329Y83327D01*
X314419Y83335D01*
X314449Y83347D01*
X314481Y83352D01*
X314562Y83395D01*
X314646Y83431D01*
X314678Y83457D01*
X314699Y83468D01*
X314721Y83491D01*
X314777Y83536D01*
X427771Y196530D01*
X430385Y197613D01*
X461468Y197613D01*
X461558Y197627D01*
X461649Y197635D01*
X461679Y197647D01*
X461711Y197652D01*
X461792Y197695D01*
X461876Y197731D01*
X461908Y197757D01*
X461928Y197768D01*
X461951Y197791D01*
X462007Y197836D01*
X462274Y198103D01*
X463683Y198687D01*
X463744Y198725D01*
X463809Y198754D01*
X463848Y198789D01*
X463892Y198816D01*
X463938Y198872D01*
X463990Y198920D01*
X464015Y198966D01*
X464049Y199006D01*
X464074Y199073D01*
X464109Y199136D01*
X464118Y199187D01*
X464137Y199235D01*
X464140Y199307D01*
X464153Y199378D01*
X464145Y199429D01*
X464147Y199481D01*
X464127Y199550D01*
X464117Y199621D01*
X464093Y199667D01*
X464079Y199717D01*
X464038Y199776D01*
X464005Y199840D01*
X463968Y199877D01*
X463938Y199919D01*
X463881Y199962D01*
X463830Y200012D01*
X463767Y200047D01*
X463741Y200066D01*
X463719Y200073D01*
X463683Y200093D01*
X462274Y200677D01*
X458487Y204464D01*
X458048Y205523D01*
X457987Y205623D01*
X457927Y205723D01*
X457922Y205727D01*
X457918Y205732D01*
X457829Y205807D01*
X457740Y205883D01*
X457734Y205885D01*
X457729Y205889D01*
X457621Y205931D01*
X457511Y205975D01*
X457504Y205976D01*
X457499Y205977D01*
X457481Y205978D01*
X457345Y205993D01*
X430831Y205993D01*
X430741Y205979D01*
X430650Y205971D01*
X430620Y205959D01*
X430588Y205954D01*
X430507Y205911D01*
X430423Y205875D01*
X430391Y205849D01*
X430371Y205838D01*
X430348Y205815D01*
X430292Y205770D01*
X333654Y109131D01*
X331413Y108203D01*
X308010Y108203D01*
X307920Y108189D01*
X307829Y108181D01*
X307800Y108169D01*
X307768Y108164D01*
X307687Y108121D01*
X307603Y108085D01*
X307571Y108059D01*
X307550Y108048D01*
X307528Y108025D01*
X307472Y107980D01*
X304747Y105255D01*
X300826Y103631D01*
X283374Y103631D01*
X279453Y105255D01*
X276451Y108257D01*
X274827Y112178D01*
X274827Y116422D01*
X276451Y120343D01*
X279453Y123345D01*
X283374Y124969D01*
X300826Y124969D01*
X304747Y123345D01*
X307472Y120620D01*
X307546Y120567D01*
X307616Y120507D01*
X307646Y120495D01*
X307672Y120476D01*
X307759Y120449D01*
X307844Y120415D01*
X307885Y120411D01*
X307907Y120404D01*
X307939Y120405D01*
X308010Y120397D01*
X327359Y120397D01*
X327449Y120411D01*
X327540Y120419D01*
X327570Y120431D01*
X327602Y120436D01*
X327683Y120479D01*
X327767Y120515D01*
X327799Y120541D01*
X327819Y120552D01*
X327842Y120575D01*
X327898Y120620D01*
X424536Y217259D01*
X426777Y218187D01*
X457345Y218187D01*
X457460Y218206D01*
X457576Y218223D01*
X457581Y218225D01*
X457587Y218226D01*
X457690Y218281D01*
X457795Y218334D01*
X457799Y218339D01*
X457805Y218342D01*
X457885Y218426D01*
X457967Y218510D01*
X457971Y218516D01*
X457974Y218520D01*
X457982Y218537D01*
X458048Y218657D01*
X458487Y219716D01*
X462274Y223503D01*
X463683Y224087D01*
X463744Y224125D01*
X463809Y224154D01*
X463848Y224189D01*
X463892Y224216D01*
X463938Y224272D01*
X463990Y224320D01*
X464015Y224366D01*
X464049Y224406D01*
X464074Y224473D01*
X464109Y224536D01*
X464118Y224587D01*
X464137Y224635D01*
X464140Y224707D01*
X464153Y224778D01*
X464145Y224829D01*
X464147Y224881D01*
X464127Y224950D01*
X464117Y225021D01*
X464093Y225067D01*
X464079Y225117D01*
X464038Y225176D01*
X464005Y225240D01*
X463968Y225277D01*
X463938Y225319D01*
X463881Y225362D01*
X463830Y225412D01*
X463767Y225447D01*
X463741Y225466D01*
X463719Y225473D01*
X463683Y225493D01*
X462274Y226077D01*
X458487Y229864D01*
X456437Y234812D01*
X456437Y240168D01*
X458487Y245116D01*
X462274Y248903D01*
X467222Y250953D01*
X472578Y250953D01*
X477526Y248903D01*
X481313Y245116D01*
X483363Y240168D01*
X483363Y234812D01*
X481313Y229864D01*
X477526Y226077D01*
X476117Y225493D01*
X476056Y225455D01*
X475991Y225426D01*
X475953Y225391D01*
X475908Y225364D01*
X475862Y225308D01*
X475810Y225260D01*
X475785Y225214D01*
X475751Y225174D01*
X475726Y225107D01*
X475691Y225044D01*
X475682Y224993D01*
X475663Y224945D01*
X475660Y224873D01*
X475647Y224802D01*
X475655Y224751D01*
X475653Y224699D01*
X475673Y224630D01*
X475683Y224559D01*
X475707Y224513D01*
X475721Y224463D01*
X475762Y224404D01*
X475795Y224340D01*
X475832Y224303D01*
X475862Y224261D01*
X475919Y224218D01*
X475970Y224168D01*
X476033Y224133D01*
X476059Y224114D01*
X476081Y224107D01*
X476117Y224087D01*
X477526Y223503D01*
X481313Y219716D01*
X483363Y214768D01*
X483363Y209412D01*
X481313Y204464D01*
X477526Y200677D01*
X476117Y200093D01*
X476056Y200056D01*
X475991Y200026D01*
X475952Y199991D01*
X475908Y199964D01*
X475862Y199908D01*
X475810Y199860D01*
X475785Y199814D01*
X475751Y199774D01*
X475726Y199707D01*
X475691Y199644D01*
X475682Y199593D01*
X475663Y199545D01*
X475660Y199473D01*
X475647Y199402D01*
X475655Y199351D01*
X475653Y199299D01*
X475673Y199230D01*
X475683Y199159D01*
X475707Y199113D01*
X475721Y199063D01*
X475762Y199004D01*
X475795Y198940D01*
X475832Y198903D01*
X475862Y198861D01*
X475919Y198818D01*
X475970Y198768D01*
X476033Y198733D01*
X476059Y198714D01*
X476081Y198707D01*
X476117Y198687D01*
X477526Y198103D01*
X481313Y194316D01*
X483363Y189368D01*
X483363Y184012D01*
X481313Y179064D01*
X477526Y175277D01*
X476117Y174693D01*
X476056Y174655D01*
X475991Y174626D01*
X475952Y174591D01*
X475908Y174564D01*
X475862Y174508D01*
X475810Y174460D01*
X475785Y174414D01*
X475751Y174374D01*
X475726Y174307D01*
X475691Y174244D01*
X475682Y174193D01*
X475663Y174145D01*
X475660Y174073D01*
X475647Y174002D01*
X475655Y173951D01*
X475653Y173899D01*
X475673Y173830D01*
X475683Y173759D01*
X475707Y173713D01*
X475721Y173663D01*
X475762Y173604D01*
X475795Y173540D01*
X475832Y173503D01*
X475862Y173461D01*
X475919Y173418D01*
X475970Y173368D01*
X476033Y173333D01*
X476059Y173314D01*
X476081Y173307D01*
X476117Y173287D01*
X477526Y172703D01*
X481313Y168916D01*
X483363Y163968D01*
X483363Y158612D01*
X481313Y153664D01*
X477526Y149877D01*
X474140Y148474D01*
X474054Y148421D01*
X473965Y148373D01*
X473950Y148356D01*
X473931Y148345D01*
X473867Y148267D01*
X473798Y148193D01*
X473789Y148172D01*
X473774Y148155D01*
X473738Y148061D01*
X473696Y147968D01*
X473694Y147946D01*
X473686Y147926D01*
X473682Y147825D01*
X473672Y147724D01*
X473677Y147702D01*
X473676Y147680D01*
X473704Y147583D01*
X473727Y147484D01*
X473738Y147465D01*
X473744Y147444D01*
X473802Y147361D01*
X473855Y147274D01*
X473872Y147260D01*
X473885Y147242D01*
X473966Y147181D01*
X474044Y147116D01*
X474068Y147105D01*
X474082Y147095D01*
X474113Y147085D01*
X474196Y147047D01*
X474483Y146954D01*
X476157Y146101D01*
X477678Y144996D01*
X479006Y143668D01*
X480111Y142147D01*
X480964Y140473D01*
X481545Y138686D01*
X481746Y137413D01*
X470662Y137413D01*
X470642Y137410D01*
X470623Y137412D01*
X470521Y137390D01*
X470419Y137373D01*
X470402Y137364D01*
X470382Y137360D01*
X470293Y137307D01*
X470202Y137258D01*
X470188Y137244D01*
X470171Y137234D01*
X470104Y137155D01*
X470033Y137080D01*
X470024Y137062D01*
X470011Y137047D01*
X469973Y136951D01*
X469929Y136857D01*
X469927Y136837D01*
X469919Y136819D01*
X469901Y136652D01*
X469901Y135889D01*
X469899Y135889D01*
X469899Y136652D01*
X469896Y136672D01*
X469898Y136691D01*
X469876Y136793D01*
X469859Y136895D01*
X469850Y136912D01*
X469846Y136932D01*
X469793Y137021D01*
X469744Y137112D01*
X469730Y137126D01*
X469720Y137143D01*
X469641Y137210D01*
X469566Y137281D01*
X469548Y137290D01*
X469533Y137303D01*
X469437Y137342D01*
X469343Y137385D01*
X469323Y137387D01*
X469305Y137395D01*
X469138Y137413D01*
X458054Y137413D01*
X458255Y138686D01*
X458836Y140473D01*
X459689Y142147D01*
X460794Y143668D01*
X462122Y144996D01*
X463643Y146101D01*
X465317Y146954D01*
X465604Y147047D01*
X465694Y147094D01*
X465786Y147135D01*
X465802Y147150D01*
X465822Y147160D01*
X465893Y147233D01*
X465967Y147301D01*
X465978Y147321D01*
X465993Y147337D01*
X466037Y147428D01*
X466086Y147517D01*
X466090Y147539D01*
X466099Y147559D01*
X466112Y147659D01*
X466130Y147759D01*
X466126Y147781D01*
X466129Y147803D01*
X466109Y147902D01*
X466094Y148002D01*
X466084Y148022D01*
X466079Y148044D01*
X466028Y148131D01*
X465982Y148221D01*
X465966Y148237D01*
X465955Y148256D01*
X465879Y148323D01*
X465807Y148394D01*
X465783Y148407D01*
X465770Y148418D01*
X465740Y148430D01*
X465660Y148474D01*
X462274Y149877D01*
X458487Y153664D01*
X456437Y158612D01*
X456437Y163968D01*
X458487Y168916D01*
X462274Y172703D01*
X463683Y173287D01*
X463744Y173324D01*
X463809Y173354D01*
X463848Y173389D01*
X463892Y173416D01*
X463938Y173472D01*
X463990Y173520D01*
X464015Y173566D01*
X464049Y173606D01*
X464074Y173673D01*
X464109Y173736D01*
X464118Y173787D01*
X464137Y173835D01*
X464140Y173907D01*
X464153Y173978D01*
X464145Y174029D01*
X464147Y174081D01*
X464127Y174150D01*
X464117Y174221D01*
X464093Y174267D01*
X464079Y174317D01*
X464038Y174376D01*
X464005Y174440D01*
X463968Y174477D01*
X463938Y174519D01*
X463881Y174562D01*
X463830Y174612D01*
X463767Y174647D01*
X463741Y174666D01*
X463719Y174673D01*
X463683Y174693D01*
X462274Y175277D01*
X458487Y179064D01*
X456891Y182917D01*
X456829Y183017D01*
X456769Y183117D01*
X456764Y183121D01*
X456761Y183126D01*
X456671Y183201D01*
X456582Y183277D01*
X456576Y183279D01*
X456572Y183283D01*
X456463Y183325D01*
X456354Y183369D01*
X456347Y183370D01*
X456342Y183371D01*
X456324Y183372D01*
X456187Y183387D01*
X435062Y183387D01*
X434971Y183373D01*
X434881Y183365D01*
X434851Y183353D01*
X434819Y183348D01*
X434738Y183305D01*
X434654Y183269D01*
X434622Y183243D01*
X434601Y183232D01*
X434579Y183209D01*
X434523Y183164D01*
X321529Y70170D01*
X318915Y69087D01*
X258542Y69087D01*
X258451Y69073D01*
X258361Y69065D01*
X258331Y69053D01*
X258299Y69048D01*
X258218Y69005D01*
X258134Y68969D01*
X258102Y68943D01*
X258081Y68932D01*
X258059Y68909D01*
X258003Y68864D01*
X256143Y67004D01*
X256101Y66946D01*
X256052Y66894D01*
X256030Y66847D01*
X256000Y66805D01*
X255979Y66736D01*
X255948Y66671D01*
X255943Y66619D01*
X255927Y66569D01*
X255929Y66498D01*
X255921Y66427D01*
X255932Y66376D01*
X255934Y66324D01*
X255958Y66256D01*
X255973Y66186D01*
X256000Y66141D01*
X256018Y66093D01*
X256063Y66037D01*
X256100Y65975D01*
X256139Y65941D01*
X256172Y65901D01*
X256232Y65862D01*
X256287Y65815D01*
X256335Y65796D01*
X256379Y65768D01*
X256448Y65750D01*
X256515Y65723D01*
X256586Y65715D01*
X256617Y65707D01*
X256641Y65709D01*
X256681Y65705D01*
X260889Y65705D01*
X264970Y64014D01*
X268094Y60890D01*
X269785Y56809D01*
X269785Y52391D01*
X268094Y48310D01*
X264970Y45186D01*
X260889Y43495D01*
X256471Y43495D01*
X252390Y45186D01*
X249266Y48310D01*
X247575Y52391D01*
X247575Y56599D01*
X247572Y56618D01*
X247574Y56636D01*
X247563Y56687D01*
X247562Y56741D01*
X247544Y56790D01*
X247536Y56841D01*
X247526Y56860D01*
X247522Y56877D01*
X247497Y56919D01*
X247477Y56972D01*
X247445Y57013D01*
X247420Y57059D01*
X247404Y57074D01*
X247396Y57088D01*
X247360Y57118D01*
X247324Y57164D01*
X247280Y57192D01*
X247242Y57228D01*
X247220Y57238D01*
X247209Y57248D01*
X247167Y57265D01*
X247117Y57297D01*
X247066Y57310D01*
X247019Y57332D01*
X246994Y57334D01*
X246981Y57340D01*
X246920Y57346D01*
X246878Y57357D01*
X246847Y57355D01*
X246814Y57358D01*
X246812Y57358D01*
X246799Y57356D01*
X246775Y57359D01*
X246704Y57344D01*
X246633Y57338D01*
X246598Y57323D01*
X246570Y57318D01*
X246556Y57311D01*
X246534Y57307D01*
X246473Y57270D01*
X246407Y57242D01*
X246372Y57214D01*
X246352Y57203D01*
X246340Y57190D01*
X246323Y57180D01*
X246308Y57163D01*
X246276Y57137D01*
X245008Y55869D01*
X244955Y55795D01*
X244895Y55725D01*
X244883Y55695D01*
X244864Y55669D01*
X244837Y55582D01*
X244803Y55497D01*
X244799Y55456D01*
X244792Y55434D01*
X244793Y55402D01*
X244785Y55331D01*
X244785Y52391D01*
X243094Y48310D01*
X239970Y45186D01*
X235889Y43495D01*
X231471Y43495D01*
G37*
%LPD*%
G36*
X165882Y114304D02*
X165882Y114304D01*
X165901Y114302D01*
X166003Y114324D01*
X166105Y114341D01*
X166122Y114350D01*
X166142Y114354D01*
X166231Y114407D01*
X166322Y114456D01*
X166336Y114470D01*
X166353Y114480D01*
X166420Y114559D01*
X166491Y114634D01*
X166500Y114652D01*
X166513Y114667D01*
X166552Y114763D01*
X166595Y114857D01*
X166597Y114877D01*
X166605Y114895D01*
X166623Y115062D01*
X166623Y123445D01*
X168888Y123445D01*
X170404Y121929D01*
X170462Y121887D01*
X170514Y121838D01*
X170561Y121816D01*
X170603Y121785D01*
X170672Y121764D01*
X170737Y121734D01*
X170789Y121728D01*
X170839Y121713D01*
X170910Y121715D01*
X170981Y121707D01*
X171032Y121718D01*
X171084Y121719D01*
X171152Y121744D01*
X171222Y121759D01*
X171267Y121786D01*
X171315Y121804D01*
X171371Y121849D01*
X171433Y121885D01*
X171467Y121925D01*
X171507Y121957D01*
X171546Y122018D01*
X171593Y122072D01*
X171612Y122121D01*
X171640Y122164D01*
X171658Y122234D01*
X171685Y122300D01*
X171693Y122372D01*
X171701Y122403D01*
X171699Y122426D01*
X171703Y122467D01*
X171703Y149559D01*
X171689Y149649D01*
X171681Y149740D01*
X171669Y149770D01*
X171664Y149802D01*
X171621Y149883D01*
X171585Y149967D01*
X171559Y149999D01*
X171548Y150019D01*
X171525Y150042D01*
X171480Y150098D01*
X134531Y187046D01*
X133603Y189287D01*
X133603Y225759D01*
X133589Y225849D01*
X133581Y225940D01*
X133569Y225970D01*
X133564Y226002D01*
X133521Y226083D01*
X133485Y226167D01*
X133459Y226199D01*
X133448Y226219D01*
X133425Y226242D01*
X133380Y226298D01*
X99298Y260380D01*
X99224Y260433D01*
X99154Y260493D01*
X99124Y260505D01*
X99098Y260524D01*
X99011Y260551D01*
X98926Y260585D01*
X98885Y260589D01*
X98863Y260596D01*
X98831Y260595D01*
X98759Y260603D01*
X37955Y260603D01*
X37840Y260584D01*
X37724Y260567D01*
X37719Y260565D01*
X37713Y260564D01*
X37610Y260509D01*
X37505Y260456D01*
X37501Y260451D01*
X37495Y260448D01*
X37415Y260364D01*
X37333Y260280D01*
X37329Y260274D01*
X37326Y260270D01*
X37318Y260253D01*
X37252Y260133D01*
X36813Y259074D01*
X33026Y255287D01*
X31617Y254703D01*
X31556Y254666D01*
X31491Y254636D01*
X31452Y254601D01*
X31408Y254574D01*
X31362Y254518D01*
X31310Y254470D01*
X31285Y254424D01*
X31251Y254384D01*
X31226Y254317D01*
X31191Y254254D01*
X31182Y254203D01*
X31163Y254155D01*
X31160Y254083D01*
X31147Y254012D01*
X31155Y253961D01*
X31153Y253909D01*
X31173Y253840D01*
X31183Y253769D01*
X31207Y253723D01*
X31221Y253673D01*
X31262Y253614D01*
X31295Y253550D01*
X31332Y253513D01*
X31362Y253471D01*
X31419Y253428D01*
X31470Y253378D01*
X31533Y253343D01*
X31559Y253324D01*
X31581Y253317D01*
X31617Y253297D01*
X33026Y252713D01*
X36813Y248926D01*
X38863Y243978D01*
X38863Y238622D01*
X36813Y233674D01*
X33026Y229887D01*
X31617Y229303D01*
X31556Y229265D01*
X31491Y229236D01*
X31452Y229201D01*
X31408Y229174D01*
X31362Y229118D01*
X31310Y229070D01*
X31285Y229024D01*
X31251Y228984D01*
X31226Y228917D01*
X31191Y228854D01*
X31182Y228803D01*
X31163Y228755D01*
X31160Y228683D01*
X31147Y228612D01*
X31155Y228561D01*
X31153Y228509D01*
X31173Y228440D01*
X31183Y228369D01*
X31207Y228323D01*
X31221Y228273D01*
X31262Y228214D01*
X31295Y228150D01*
X31332Y228113D01*
X31362Y228071D01*
X31419Y228028D01*
X31470Y227978D01*
X31533Y227943D01*
X31559Y227924D01*
X31581Y227917D01*
X31617Y227897D01*
X33026Y227313D01*
X36813Y223526D01*
X37252Y222467D01*
X37314Y222367D01*
X37373Y222267D01*
X37378Y222263D01*
X37382Y222258D01*
X37472Y222183D01*
X37560Y222107D01*
X37566Y222105D01*
X37571Y222101D01*
X37679Y222059D01*
X37789Y222015D01*
X37796Y222014D01*
X37801Y222013D01*
X37819Y222012D01*
X37955Y221997D01*
X52013Y221997D01*
X54254Y221069D01*
X103902Y171420D01*
X103976Y171367D01*
X104046Y171307D01*
X104076Y171295D01*
X104102Y171276D01*
X104189Y171249D01*
X104274Y171215D01*
X104315Y171211D01*
X104337Y171204D01*
X104369Y171205D01*
X104441Y171197D01*
X114445Y171197D01*
X114560Y171216D01*
X114676Y171233D01*
X114681Y171235D01*
X114687Y171236D01*
X114790Y171291D01*
X114895Y171344D01*
X114899Y171349D01*
X114905Y171352D01*
X114985Y171436D01*
X115067Y171520D01*
X115071Y171526D01*
X115074Y171530D01*
X115082Y171547D01*
X115148Y171667D01*
X115587Y172726D01*
X119374Y176513D01*
X124322Y178563D01*
X129678Y178563D01*
X134626Y176513D01*
X138413Y172726D01*
X138852Y171667D01*
X138913Y171567D01*
X138973Y171467D01*
X138978Y171463D01*
X138982Y171458D01*
X139071Y171383D01*
X139160Y171307D01*
X139166Y171305D01*
X139171Y171301D01*
X139279Y171259D01*
X139389Y171215D01*
X139396Y171214D01*
X139401Y171213D01*
X139419Y171212D01*
X139555Y171197D01*
X140913Y171197D01*
X143154Y170269D01*
X157569Y155854D01*
X158497Y153613D01*
X158497Y122467D01*
X158508Y122396D01*
X158510Y122325D01*
X158528Y122276D01*
X158536Y122224D01*
X158570Y122161D01*
X158595Y122094D01*
X158627Y122053D01*
X158652Y122007D01*
X158704Y121958D01*
X158748Y121902D01*
X158792Y121873D01*
X158830Y121838D01*
X158895Y121807D01*
X158955Y121769D01*
X159006Y121756D01*
X159053Y121734D01*
X159124Y121726D01*
X159194Y121709D01*
X159246Y121713D01*
X159297Y121707D01*
X159368Y121722D01*
X159439Y121728D01*
X159487Y121748D01*
X159538Y121759D01*
X159599Y121796D01*
X159665Y121824D01*
X159721Y121869D01*
X159749Y121885D01*
X159764Y121903D01*
X159796Y121929D01*
X161312Y123445D01*
X163577Y123445D01*
X163577Y115062D01*
X163580Y115042D01*
X163578Y115023D01*
X163600Y114921D01*
X163617Y114819D01*
X163626Y114802D01*
X163630Y114782D01*
X163683Y114693D01*
X163732Y114602D01*
X163746Y114588D01*
X163756Y114571D01*
X163835Y114504D01*
X163910Y114433D01*
X163928Y114424D01*
X163943Y114411D01*
X164039Y114373D01*
X164133Y114329D01*
X164153Y114327D01*
X164171Y114319D01*
X164338Y114301D01*
X165862Y114301D01*
X165882Y114304D01*
G37*
%LPC*%
G36*
X467222Y253237D02*
X467222Y253237D01*
X462274Y255287D01*
X458487Y259074D01*
X456437Y264022D01*
X456437Y269378D01*
X458487Y274326D01*
X462274Y278113D01*
X463683Y278697D01*
X463744Y278734D01*
X463809Y278764D01*
X463848Y278799D01*
X463892Y278826D01*
X463938Y278882D01*
X463990Y278930D01*
X464015Y278976D01*
X464049Y279016D01*
X464074Y279083D01*
X464109Y279146D01*
X464118Y279197D01*
X464137Y279245D01*
X464140Y279317D01*
X464153Y279388D01*
X464145Y279439D01*
X464147Y279491D01*
X464127Y279560D01*
X464117Y279631D01*
X464093Y279677D01*
X464079Y279727D01*
X464038Y279786D01*
X464005Y279850D01*
X463968Y279887D01*
X463938Y279929D01*
X463881Y279972D01*
X463830Y280022D01*
X463767Y280057D01*
X463741Y280076D01*
X463719Y280083D01*
X463683Y280103D01*
X462274Y280687D01*
X458487Y284474D01*
X456437Y289422D01*
X456437Y294778D01*
X458487Y299726D01*
X462274Y303513D01*
X463683Y304097D01*
X463744Y304134D01*
X463809Y304164D01*
X463848Y304199D01*
X463892Y304226D01*
X463938Y304282D01*
X463990Y304330D01*
X464015Y304376D01*
X464049Y304416D01*
X464074Y304483D01*
X464109Y304546D01*
X464118Y304597D01*
X464137Y304645D01*
X464140Y304717D01*
X464153Y304788D01*
X464145Y304839D01*
X464147Y304891D01*
X464127Y304960D01*
X464117Y305031D01*
X464093Y305077D01*
X464079Y305127D01*
X464038Y305186D01*
X464005Y305250D01*
X463968Y305287D01*
X463938Y305329D01*
X463881Y305372D01*
X463830Y305422D01*
X463767Y305457D01*
X463741Y305476D01*
X463719Y305483D01*
X463683Y305503D01*
X462274Y306087D01*
X458487Y309874D01*
X456437Y314822D01*
X456437Y320178D01*
X458487Y325126D01*
X462274Y328913D01*
X463683Y329497D01*
X463744Y329534D01*
X463809Y329564D01*
X463848Y329599D01*
X463892Y329626D01*
X463938Y329682D01*
X463990Y329730D01*
X464015Y329776D01*
X464049Y329816D01*
X464074Y329883D01*
X464109Y329946D01*
X464118Y329997D01*
X464137Y330045D01*
X464140Y330117D01*
X464153Y330188D01*
X464145Y330239D01*
X464147Y330291D01*
X464127Y330360D01*
X464117Y330431D01*
X464093Y330477D01*
X464079Y330527D01*
X464038Y330586D01*
X464005Y330650D01*
X463968Y330687D01*
X463938Y330729D01*
X463881Y330772D01*
X463830Y330822D01*
X463767Y330857D01*
X463741Y330876D01*
X463719Y330883D01*
X463683Y330903D01*
X462274Y331487D01*
X458487Y335274D01*
X456437Y340222D01*
X456437Y345578D01*
X458487Y350526D01*
X462274Y354313D01*
X463683Y354897D01*
X463744Y354934D01*
X463809Y354964D01*
X463848Y354999D01*
X463892Y355026D01*
X463938Y355082D01*
X463990Y355130D01*
X464015Y355176D01*
X464049Y355216D01*
X464074Y355283D01*
X464109Y355346D01*
X464118Y355397D01*
X464137Y355445D01*
X464140Y355517D01*
X464153Y355588D01*
X464145Y355639D01*
X464147Y355691D01*
X464127Y355760D01*
X464117Y355831D01*
X464093Y355877D01*
X464079Y355927D01*
X464038Y355986D01*
X464005Y356050D01*
X463968Y356087D01*
X463938Y356129D01*
X463881Y356172D01*
X463830Y356222D01*
X463767Y356257D01*
X463741Y356276D01*
X463719Y356283D01*
X463683Y356303D01*
X462274Y356887D01*
X458487Y360674D01*
X456437Y365622D01*
X456437Y370978D01*
X458487Y375926D01*
X462274Y379713D01*
X467222Y381763D01*
X472578Y381763D01*
X477526Y379713D01*
X481313Y375926D01*
X483363Y370978D01*
X483363Y365622D01*
X481313Y360674D01*
X477526Y356887D01*
X476117Y356303D01*
X476056Y356265D01*
X475991Y356236D01*
X475952Y356201D01*
X475908Y356174D01*
X475862Y356118D01*
X475810Y356070D01*
X475785Y356024D01*
X475751Y355984D01*
X475726Y355917D01*
X475691Y355854D01*
X475682Y355803D01*
X475663Y355755D01*
X475660Y355683D01*
X475647Y355612D01*
X475655Y355561D01*
X475653Y355509D01*
X475673Y355440D01*
X475683Y355369D01*
X475707Y355323D01*
X475721Y355273D01*
X475762Y355214D01*
X475795Y355150D01*
X475832Y355113D01*
X475862Y355071D01*
X475919Y355028D01*
X475970Y354978D01*
X476033Y354943D01*
X476059Y354924D01*
X476081Y354917D01*
X476117Y354897D01*
X477526Y354313D01*
X481313Y350526D01*
X483363Y345578D01*
X483363Y340222D01*
X481313Y335274D01*
X477526Y331487D01*
X476117Y330903D01*
X476056Y330865D01*
X475991Y330836D01*
X475952Y330801D01*
X475908Y330774D01*
X475862Y330718D01*
X475810Y330670D01*
X475785Y330624D01*
X475751Y330584D01*
X475726Y330517D01*
X475691Y330454D01*
X475682Y330403D01*
X475663Y330355D01*
X475660Y330283D01*
X475647Y330212D01*
X475655Y330161D01*
X475653Y330109D01*
X475673Y330040D01*
X475683Y329969D01*
X475707Y329923D01*
X475721Y329873D01*
X475762Y329814D01*
X475795Y329750D01*
X475832Y329713D01*
X475862Y329671D01*
X475919Y329628D01*
X475970Y329578D01*
X476033Y329543D01*
X476059Y329524D01*
X476081Y329517D01*
X476117Y329497D01*
X477526Y328913D01*
X481313Y325126D01*
X483363Y320178D01*
X483363Y314822D01*
X481313Y309874D01*
X477526Y306087D01*
X476117Y305503D01*
X476056Y305465D01*
X475991Y305436D01*
X475952Y305401D01*
X475908Y305374D01*
X475862Y305318D01*
X475810Y305270D01*
X475785Y305224D01*
X475751Y305184D01*
X475726Y305117D01*
X475691Y305054D01*
X475682Y305003D01*
X475663Y304955D01*
X475660Y304883D01*
X475647Y304812D01*
X475655Y304761D01*
X475653Y304709D01*
X475673Y304640D01*
X475683Y304569D01*
X475707Y304523D01*
X475721Y304473D01*
X475762Y304414D01*
X475795Y304350D01*
X475832Y304313D01*
X475862Y304271D01*
X475919Y304228D01*
X475970Y304178D01*
X476033Y304143D01*
X476059Y304124D01*
X476081Y304117D01*
X476117Y304097D01*
X477526Y303513D01*
X481313Y299726D01*
X483363Y294778D01*
X483363Y289422D01*
X481313Y284474D01*
X477526Y280687D01*
X476117Y280103D01*
X476056Y280065D01*
X475991Y280036D01*
X475952Y280001D01*
X475908Y279974D01*
X475862Y279918D01*
X475810Y279870D01*
X475785Y279824D01*
X475751Y279784D01*
X475726Y279717D01*
X475691Y279654D01*
X475682Y279603D01*
X475663Y279555D01*
X475660Y279483D01*
X475647Y279412D01*
X475655Y279361D01*
X475653Y279309D01*
X475673Y279240D01*
X475683Y279169D01*
X475707Y279123D01*
X475721Y279073D01*
X475762Y279014D01*
X475795Y278950D01*
X475832Y278913D01*
X475862Y278871D01*
X475919Y278828D01*
X475970Y278778D01*
X476033Y278743D01*
X476059Y278724D01*
X476081Y278717D01*
X476117Y278697D01*
X477526Y278113D01*
X481313Y274326D01*
X483363Y269378D01*
X483363Y264022D01*
X481313Y259074D01*
X477526Y255287D01*
X472578Y253237D01*
X467222Y253237D01*
G37*
%LPD*%
%LPC*%
G36*
X457199Y25399D02*
X457199Y25399D01*
X457199Y26162D01*
X457197Y26176D01*
X457198Y26186D01*
X457197Y26192D01*
X457198Y26201D01*
X457176Y26303D01*
X457159Y26405D01*
X457150Y26422D01*
X457146Y26442D01*
X457093Y26531D01*
X457044Y26622D01*
X457030Y26636D01*
X457020Y26653D01*
X456941Y26720D01*
X456866Y26791D01*
X456848Y26800D01*
X456833Y26813D01*
X456737Y26852D01*
X456643Y26895D01*
X456623Y26897D01*
X456605Y26905D01*
X456438Y26923D01*
X445354Y26923D01*
X445555Y28196D01*
X446136Y29983D01*
X446989Y31657D01*
X448094Y33178D01*
X449422Y34506D01*
X450943Y35611D01*
X452617Y36464D01*
X452904Y36557D01*
X452994Y36604D01*
X453086Y36645D01*
X453102Y36660D01*
X453122Y36670D01*
X453193Y36743D01*
X453267Y36811D01*
X453278Y36831D01*
X453293Y36847D01*
X453337Y36938D01*
X453386Y37027D01*
X453390Y37049D01*
X453399Y37069D01*
X453412Y37169D01*
X453430Y37269D01*
X453426Y37291D01*
X453429Y37313D01*
X453409Y37412D01*
X453394Y37512D01*
X453384Y37532D01*
X453379Y37554D01*
X453328Y37641D01*
X453282Y37731D01*
X453266Y37747D01*
X453255Y37766D01*
X453179Y37833D01*
X453107Y37904D01*
X453083Y37917D01*
X453070Y37928D01*
X453040Y37940D01*
X452960Y37984D01*
X449574Y39387D01*
X445787Y43174D01*
X443737Y48122D01*
X443737Y53478D01*
X445787Y58426D01*
X449574Y62213D01*
X450983Y62797D01*
X451044Y62834D01*
X451109Y62864D01*
X451148Y62899D01*
X451192Y62926D01*
X451238Y62982D01*
X451290Y63030D01*
X451315Y63076D01*
X451349Y63116D01*
X451374Y63183D01*
X451409Y63246D01*
X451418Y63297D01*
X451437Y63345D01*
X451440Y63417D01*
X451453Y63488D01*
X451445Y63539D01*
X451447Y63591D01*
X451427Y63660D01*
X451417Y63731D01*
X451393Y63777D01*
X451379Y63827D01*
X451338Y63886D01*
X451305Y63950D01*
X451268Y63987D01*
X451238Y64029D01*
X451181Y64072D01*
X451130Y64122D01*
X451067Y64157D01*
X451041Y64176D01*
X451019Y64183D01*
X450983Y64203D01*
X449574Y64787D01*
X445787Y68574D01*
X443737Y73522D01*
X443737Y78878D01*
X445787Y83826D01*
X449574Y87613D01*
X450983Y88197D01*
X451044Y88234D01*
X451109Y88264D01*
X451148Y88299D01*
X451192Y88326D01*
X451238Y88382D01*
X451290Y88430D01*
X451315Y88476D01*
X451349Y88516D01*
X451374Y88583D01*
X451409Y88646D01*
X451418Y88697D01*
X451437Y88745D01*
X451440Y88817D01*
X451453Y88888D01*
X451445Y88939D01*
X451447Y88991D01*
X451427Y89060D01*
X451417Y89131D01*
X451393Y89177D01*
X451379Y89227D01*
X451338Y89286D01*
X451305Y89350D01*
X451268Y89387D01*
X451238Y89429D01*
X451181Y89472D01*
X451130Y89522D01*
X451067Y89557D01*
X451041Y89576D01*
X451019Y89583D01*
X450983Y89603D01*
X449574Y90187D01*
X445787Y93974D01*
X443737Y98922D01*
X443737Y104278D01*
X445787Y109226D01*
X449574Y113013D01*
X454522Y115063D01*
X459878Y115063D01*
X464826Y113013D01*
X468613Y109226D01*
X470663Y104278D01*
X470663Y98922D01*
X468613Y93974D01*
X464826Y90187D01*
X463417Y89603D01*
X463356Y89565D01*
X463291Y89536D01*
X463252Y89501D01*
X463208Y89474D01*
X463162Y89418D01*
X463110Y89370D01*
X463085Y89324D01*
X463051Y89284D01*
X463026Y89217D01*
X462991Y89154D01*
X462982Y89103D01*
X462963Y89055D01*
X462960Y88983D01*
X462947Y88912D01*
X462955Y88861D01*
X462953Y88809D01*
X462973Y88740D01*
X462983Y88669D01*
X463007Y88623D01*
X463021Y88573D01*
X463062Y88514D01*
X463095Y88450D01*
X463132Y88413D01*
X463162Y88371D01*
X463219Y88328D01*
X463270Y88278D01*
X463333Y88243D01*
X463359Y88224D01*
X463381Y88217D01*
X463417Y88197D01*
X464826Y87613D01*
X468613Y83826D01*
X470663Y78878D01*
X470663Y73522D01*
X468613Y68574D01*
X464826Y64787D01*
X463417Y64203D01*
X463356Y64165D01*
X463291Y64136D01*
X463252Y64101D01*
X463208Y64074D01*
X463162Y64018D01*
X463110Y63970D01*
X463085Y63924D01*
X463051Y63884D01*
X463026Y63817D01*
X462991Y63754D01*
X462982Y63703D01*
X462963Y63655D01*
X462960Y63583D01*
X462947Y63512D01*
X462955Y63461D01*
X462953Y63409D01*
X462973Y63340D01*
X462983Y63269D01*
X463007Y63223D01*
X463021Y63173D01*
X463062Y63114D01*
X463095Y63050D01*
X463132Y63013D01*
X463162Y62971D01*
X463219Y62928D01*
X463270Y62878D01*
X463333Y62843D01*
X463359Y62824D01*
X463381Y62817D01*
X463417Y62797D01*
X464826Y62213D01*
X468613Y58426D01*
X470663Y53478D01*
X470663Y48122D01*
X468613Y43174D01*
X464826Y39387D01*
X461440Y37984D01*
X461354Y37931D01*
X461265Y37883D01*
X461250Y37866D01*
X461231Y37855D01*
X461167Y37777D01*
X461098Y37703D01*
X461089Y37682D01*
X461074Y37665D01*
X461038Y37571D01*
X460996Y37478D01*
X460994Y37456D01*
X460986Y37436D01*
X460982Y37335D01*
X460972Y37234D01*
X460977Y37212D01*
X460976Y37190D01*
X461004Y37093D01*
X461027Y36994D01*
X461038Y36975D01*
X461044Y36954D01*
X461102Y36871D01*
X461155Y36784D01*
X461172Y36770D01*
X461185Y36752D01*
X461266Y36691D01*
X461344Y36626D01*
X461368Y36615D01*
X461382Y36605D01*
X461413Y36595D01*
X461496Y36557D01*
X461783Y36464D01*
X463457Y35611D01*
X464978Y34506D01*
X466306Y33178D01*
X467411Y31657D01*
X468264Y29983D01*
X468845Y28196D01*
X469046Y26923D01*
X457962Y26923D01*
X457942Y26920D01*
X457923Y26922D01*
X457821Y26900D01*
X457719Y26883D01*
X457702Y26874D01*
X457682Y26870D01*
X457593Y26817D01*
X457502Y26768D01*
X457488Y26754D01*
X457471Y26744D01*
X457404Y26665D01*
X457333Y26590D01*
X457324Y26572D01*
X457311Y26557D01*
X457273Y26461D01*
X457229Y26367D01*
X457227Y26347D01*
X457219Y26329D01*
X457201Y26162D01*
X457201Y25399D01*
X457199Y25399D01*
G37*
%LPD*%
%LPC*%
G36*
X313081Y192531D02*
X313081Y192531D01*
X306831Y198781D01*
X306831Y207102D01*
X306820Y207172D01*
X306818Y207244D01*
X306800Y207293D01*
X306792Y207344D01*
X306758Y207408D01*
X306733Y207475D01*
X306701Y207516D01*
X306676Y207562D01*
X306624Y207611D01*
X306580Y207667D01*
X306536Y207695D01*
X306498Y207731D01*
X306433Y207761D01*
X306373Y207800D01*
X306322Y207813D01*
X306275Y207835D01*
X306204Y207843D01*
X306134Y207860D01*
X306082Y207856D01*
X306031Y207862D01*
X305960Y207847D01*
X305889Y207841D01*
X305841Y207821D01*
X305790Y207810D01*
X305729Y207773D01*
X305663Y207745D01*
X305607Y207700D01*
X305579Y207683D01*
X305564Y207666D01*
X305532Y207640D01*
X304747Y206855D01*
X300826Y205231D01*
X283374Y205231D01*
X279453Y206855D01*
X276451Y209857D01*
X274827Y213778D01*
X274827Y218022D01*
X276451Y221943D01*
X279453Y224945D01*
X283374Y226569D01*
X300826Y226569D01*
X304747Y224945D01*
X307749Y221943D01*
X309373Y218022D01*
X309373Y213778D01*
X308279Y211139D01*
X308257Y211044D01*
X308229Y210951D01*
X308229Y210924D01*
X308223Y210899D01*
X308232Y210802D01*
X308235Y210705D01*
X308244Y210680D01*
X308246Y210654D01*
X308286Y210565D01*
X308319Y210474D01*
X308336Y210453D01*
X308346Y210429D01*
X308412Y210358D01*
X308473Y210282D01*
X308495Y210268D01*
X308513Y210248D01*
X308598Y210201D01*
X308680Y210149D01*
X308705Y210142D01*
X308728Y210130D01*
X308824Y210112D01*
X308919Y210089D01*
X308945Y210091D01*
X308970Y210086D01*
X309067Y210100D01*
X309164Y210108D01*
X309188Y210118D01*
X309214Y210122D01*
X309301Y210166D01*
X309390Y210204D01*
X309416Y210224D01*
X309433Y210233D01*
X309456Y210257D01*
X309521Y210309D01*
X313081Y213869D01*
X321919Y213869D01*
X328169Y207619D01*
X328169Y198781D01*
X321919Y192531D01*
X313081Y192531D01*
G37*
%LPD*%
%LPC*%
G36*
X165099Y25399D02*
X165099Y25399D01*
X165099Y26162D01*
X165097Y26176D01*
X165098Y26186D01*
X165097Y26192D01*
X165098Y26201D01*
X165076Y26303D01*
X165059Y26405D01*
X165050Y26422D01*
X165046Y26442D01*
X164993Y26531D01*
X164944Y26622D01*
X164930Y26636D01*
X164920Y26653D01*
X164841Y26720D01*
X164766Y26791D01*
X164748Y26800D01*
X164733Y26813D01*
X164637Y26852D01*
X164543Y26895D01*
X164523Y26897D01*
X164505Y26905D01*
X164338Y26923D01*
X153254Y26923D01*
X153455Y28196D01*
X154036Y29983D01*
X154889Y31657D01*
X155994Y33178D01*
X157322Y34506D01*
X158843Y35611D01*
X160517Y36464D01*
X160804Y36557D01*
X160894Y36604D01*
X160986Y36645D01*
X161002Y36660D01*
X161022Y36670D01*
X161093Y36743D01*
X161167Y36811D01*
X161178Y36831D01*
X161193Y36847D01*
X161237Y36938D01*
X161286Y37027D01*
X161290Y37049D01*
X161299Y37069D01*
X161312Y37169D01*
X161330Y37269D01*
X161326Y37291D01*
X161329Y37313D01*
X161309Y37412D01*
X161294Y37512D01*
X161284Y37532D01*
X161279Y37554D01*
X161228Y37641D01*
X161182Y37731D01*
X161166Y37747D01*
X161155Y37766D01*
X161079Y37833D01*
X161007Y37904D01*
X160983Y37917D01*
X160970Y37928D01*
X160940Y37940D01*
X160860Y37984D01*
X157474Y39387D01*
X153687Y43174D01*
X151637Y48122D01*
X151637Y53478D01*
X153687Y58426D01*
X157474Y62213D01*
X162422Y64263D01*
X167778Y64263D01*
X172726Y62213D01*
X176513Y58426D01*
X178563Y53478D01*
X178563Y48122D01*
X176513Y43174D01*
X172726Y39387D01*
X169340Y37984D01*
X169254Y37931D01*
X169165Y37883D01*
X169150Y37866D01*
X169131Y37855D01*
X169067Y37777D01*
X168998Y37703D01*
X168989Y37682D01*
X168974Y37665D01*
X168938Y37571D01*
X168896Y37478D01*
X168894Y37456D01*
X168886Y37436D01*
X168882Y37335D01*
X168872Y37234D01*
X168877Y37212D01*
X168876Y37190D01*
X168904Y37093D01*
X168927Y36994D01*
X168938Y36975D01*
X168944Y36954D01*
X169002Y36871D01*
X169055Y36784D01*
X169072Y36770D01*
X169085Y36752D01*
X169166Y36691D01*
X169244Y36626D01*
X169268Y36615D01*
X169282Y36605D01*
X169313Y36595D01*
X169396Y36557D01*
X169683Y36464D01*
X171357Y35611D01*
X172878Y34506D01*
X174206Y33178D01*
X175311Y31657D01*
X176164Y29983D01*
X176745Y28196D01*
X176946Y26923D01*
X165862Y26923D01*
X165842Y26920D01*
X165823Y26922D01*
X165721Y26900D01*
X165619Y26883D01*
X165602Y26874D01*
X165582Y26870D01*
X165493Y26817D01*
X165402Y26768D01*
X165388Y26754D01*
X165371Y26744D01*
X165304Y26665D01*
X165233Y26590D01*
X165224Y26572D01*
X165211Y26557D01*
X165173Y26461D01*
X165129Y26367D01*
X165127Y26347D01*
X165119Y26329D01*
X165101Y26162D01*
X165101Y25399D01*
X165099Y25399D01*
G37*
%LPD*%
%LPC*%
G36*
X283374Y281431D02*
X283374Y281431D01*
X279453Y283055D01*
X276451Y286057D01*
X274827Y289978D01*
X274827Y294222D01*
X276451Y298143D01*
X279453Y301145D01*
X283374Y302769D01*
X300826Y302769D01*
X304747Y301145D01*
X307749Y298143D01*
X309373Y294222D01*
X309373Y289978D01*
X307749Y286057D01*
X304747Y283055D01*
X300826Y281431D01*
X283374Y281431D01*
G37*
%LPD*%
%LPC*%
G36*
X207174Y357631D02*
X207174Y357631D01*
X203253Y359255D01*
X200251Y362257D01*
X198627Y366178D01*
X198627Y370422D01*
X200251Y374343D01*
X203253Y377345D01*
X207174Y378969D01*
X224626Y378969D01*
X228547Y377345D01*
X231549Y374343D01*
X233173Y370422D01*
X233173Y366178D01*
X231549Y362257D01*
X228547Y359255D01*
X224626Y357631D01*
X207174Y357631D01*
G37*
%LPD*%
%LPC*%
G36*
X283374Y332231D02*
X283374Y332231D01*
X279453Y333855D01*
X276451Y336857D01*
X274827Y340778D01*
X274827Y345022D01*
X276451Y348943D01*
X279453Y351945D01*
X283374Y353569D01*
X300826Y353569D01*
X304747Y351945D01*
X307749Y348943D01*
X309373Y345022D01*
X309373Y340778D01*
X307749Y336857D01*
X304747Y333855D01*
X300826Y332231D01*
X283374Y332231D01*
G37*
%LPD*%
%LPC*%
G36*
X283374Y129031D02*
X283374Y129031D01*
X279453Y130655D01*
X276451Y133657D01*
X274827Y137578D01*
X274827Y141822D01*
X276451Y145743D01*
X279453Y148745D01*
X283374Y150369D01*
X300826Y150369D01*
X304747Y148745D01*
X307749Y145743D01*
X309373Y141822D01*
X309373Y137578D01*
X307749Y133657D01*
X304747Y130655D01*
X300826Y129031D01*
X283374Y129031D01*
G37*
%LPD*%
%LPC*%
G36*
X283374Y154431D02*
X283374Y154431D01*
X279453Y156055D01*
X276451Y159057D01*
X274827Y162978D01*
X274827Y167222D01*
X276451Y171143D01*
X279453Y174145D01*
X283374Y175769D01*
X300826Y175769D01*
X304747Y174145D01*
X307749Y171143D01*
X309373Y167222D01*
X309373Y162978D01*
X307749Y159057D01*
X304747Y156055D01*
X300826Y154431D01*
X283374Y154431D01*
G37*
%LPD*%
%LPC*%
G36*
X283374Y306831D02*
X283374Y306831D01*
X279453Y308455D01*
X276451Y311457D01*
X274827Y315378D01*
X274827Y319622D01*
X276451Y323543D01*
X279453Y326545D01*
X283374Y328169D01*
X300826Y328169D01*
X304747Y326545D01*
X307749Y323543D01*
X309373Y319622D01*
X309373Y315378D01*
X307749Y311457D01*
X304747Y308455D01*
X300826Y306831D01*
X283374Y306831D01*
G37*
%LPD*%
%LPC*%
G36*
X207174Y281431D02*
X207174Y281431D01*
X203253Y283055D01*
X200251Y286057D01*
X198627Y289978D01*
X198627Y294222D01*
X200251Y298143D01*
X203253Y301145D01*
X207174Y302769D01*
X224626Y302769D01*
X228547Y301145D01*
X231549Y298143D01*
X233173Y294222D01*
X233173Y289978D01*
X231549Y286057D01*
X228547Y283055D01*
X224626Y281431D01*
X207174Y281431D01*
G37*
%LPD*%
%LPC*%
G36*
X283374Y357631D02*
X283374Y357631D01*
X279453Y359255D01*
X276451Y362257D01*
X274827Y366178D01*
X274827Y370422D01*
X276451Y374343D01*
X279453Y377345D01*
X283374Y378969D01*
X300826Y378969D01*
X304747Y377345D01*
X307749Y374343D01*
X309373Y370422D01*
X309373Y366178D01*
X307749Y362257D01*
X304747Y359255D01*
X300826Y357631D01*
X283374Y357631D01*
G37*
%LPD*%
%LPC*%
G36*
X283374Y256031D02*
X283374Y256031D01*
X279453Y257655D01*
X276451Y260657D01*
X274827Y264578D01*
X274827Y268822D01*
X276451Y272743D01*
X279453Y275745D01*
X283374Y277369D01*
X300826Y277369D01*
X304747Y275745D01*
X307749Y272743D01*
X309373Y268822D01*
X309373Y264578D01*
X307749Y260657D01*
X304747Y257655D01*
X300826Y256031D01*
X283374Y256031D01*
G37*
%LPD*%
%LPC*%
G36*
X207174Y256031D02*
X207174Y256031D01*
X203253Y257655D01*
X200251Y260657D01*
X198627Y264578D01*
X198627Y268822D01*
X200251Y272743D01*
X203253Y275745D01*
X207174Y277369D01*
X224626Y277369D01*
X228547Y275745D01*
X231549Y272743D01*
X233173Y268822D01*
X233173Y264578D01*
X231549Y260657D01*
X228547Y257655D01*
X224626Y256031D01*
X207174Y256031D01*
G37*
%LPD*%
%LPC*%
G36*
X283374Y230631D02*
X283374Y230631D01*
X279453Y232255D01*
X276451Y235257D01*
X274827Y239178D01*
X274827Y243422D01*
X276451Y247343D01*
X279453Y250345D01*
X283374Y251969D01*
X300826Y251969D01*
X304747Y250345D01*
X307749Y247343D01*
X309373Y243422D01*
X309373Y239178D01*
X307749Y235257D01*
X304747Y232255D01*
X300826Y230631D01*
X283374Y230631D01*
G37*
%LPD*%
%LPC*%
G36*
X207174Y205231D02*
X207174Y205231D01*
X203253Y206855D01*
X200251Y209857D01*
X198627Y213778D01*
X198627Y218022D01*
X200251Y221943D01*
X203253Y224945D01*
X207174Y226569D01*
X224626Y226569D01*
X228547Y224945D01*
X231549Y221943D01*
X233173Y218022D01*
X233173Y213778D01*
X231549Y209857D01*
X228547Y206855D01*
X224626Y205231D01*
X207174Y205231D01*
G37*
%LPD*%
%LPC*%
G36*
X207174Y179831D02*
X207174Y179831D01*
X203253Y181455D01*
X200251Y184457D01*
X198627Y188378D01*
X198627Y192622D01*
X200251Y196543D01*
X203253Y199545D01*
X207174Y201169D01*
X224626Y201169D01*
X228547Y199545D01*
X231549Y196543D01*
X233173Y192622D01*
X233173Y188378D01*
X231549Y184457D01*
X228547Y181455D01*
X224626Y179831D01*
X207174Y179831D01*
G37*
%LPD*%
%LPC*%
G36*
X283374Y408431D02*
X283374Y408431D01*
X279453Y410055D01*
X276451Y413057D01*
X274827Y416978D01*
X274827Y421222D01*
X276451Y425143D01*
X279453Y428145D01*
X283374Y429769D01*
X300826Y429769D01*
X304747Y428145D01*
X307749Y425143D01*
X309373Y421222D01*
X309373Y416978D01*
X307749Y413057D01*
X304747Y410055D01*
X300826Y408431D01*
X283374Y408431D01*
G37*
%LPD*%
%LPC*%
G36*
X207174Y383031D02*
X207174Y383031D01*
X203253Y384655D01*
X200251Y387657D01*
X198627Y391578D01*
X198627Y395822D01*
X200251Y399743D01*
X203253Y402745D01*
X207174Y404369D01*
X224626Y404369D01*
X228547Y402745D01*
X231549Y399743D01*
X233173Y395822D01*
X233173Y391578D01*
X231549Y387657D01*
X228547Y384655D01*
X224626Y383031D01*
X207174Y383031D01*
G37*
%LPD*%
%LPC*%
G36*
X22722Y50037D02*
X22722Y50037D01*
X17774Y52087D01*
X13987Y55874D01*
X11937Y60822D01*
X11937Y66178D01*
X13987Y71126D01*
X17774Y74913D01*
X22722Y76963D01*
X28078Y76963D01*
X33026Y74913D01*
X36813Y71126D01*
X38863Y66178D01*
X38863Y60822D01*
X36813Y55874D01*
X33026Y52087D01*
X28078Y50037D01*
X22722Y50037D01*
G37*
%LPD*%
%LPC*%
G36*
X416422Y62737D02*
X416422Y62737D01*
X411474Y64787D01*
X407687Y68574D01*
X405637Y73522D01*
X405637Y78878D01*
X407687Y83826D01*
X411474Y87613D01*
X416422Y89663D01*
X421778Y89663D01*
X426726Y87613D01*
X430513Y83826D01*
X432563Y78878D01*
X432563Y73522D01*
X430513Y68574D01*
X426726Y64787D01*
X421778Y62737D01*
X416422Y62737D01*
G37*
%LPD*%
%LPC*%
G36*
X416422Y100837D02*
X416422Y100837D01*
X411474Y102887D01*
X407687Y106674D01*
X405637Y111622D01*
X405637Y116978D01*
X407687Y121926D01*
X411474Y125713D01*
X416422Y127763D01*
X421778Y127763D01*
X426726Y125713D01*
X430513Y121926D01*
X432563Y116978D01*
X432563Y111622D01*
X430513Y106674D01*
X426726Y102887D01*
X421778Y100837D01*
X416422Y100837D01*
G37*
%LPD*%
%LPC*%
G36*
X124670Y13685D02*
X124670Y13685D01*
X120364Y15469D01*
X117069Y18764D01*
X115285Y23070D01*
X115285Y27730D01*
X117069Y32036D01*
X120364Y35331D01*
X124670Y37115D01*
X129330Y37115D01*
X133636Y35331D01*
X136931Y32036D01*
X138715Y27730D01*
X138715Y23070D01*
X136931Y18764D01*
X133636Y15469D01*
X129330Y13685D01*
X124670Y13685D01*
G37*
%LPD*%
%LPC*%
G36*
X124670Y89885D02*
X124670Y89885D01*
X120364Y91669D01*
X117069Y94964D01*
X115285Y99270D01*
X115285Y103930D01*
X117069Y108236D01*
X120364Y111531D01*
X124670Y113315D01*
X129330Y113315D01*
X133636Y111531D01*
X136931Y108236D01*
X138715Y103930D01*
X138715Y99270D01*
X136931Y94964D01*
X133636Y91669D01*
X129330Y89885D01*
X124670Y89885D01*
G37*
%LPD*%
%LPC*%
G36*
X428622Y453215D02*
X428622Y453215D01*
X424356Y454982D01*
X421092Y458246D01*
X419325Y462512D01*
X419325Y467128D01*
X421092Y471394D01*
X424356Y474658D01*
X428622Y476425D01*
X433238Y476425D01*
X437504Y474658D01*
X440768Y471394D01*
X442535Y467128D01*
X442535Y462512D01*
X440768Y458246D01*
X437504Y454982D01*
X433238Y453215D01*
X428622Y453215D01*
G37*
%LPD*%
%LPC*%
G36*
X206471Y43495D02*
X206471Y43495D01*
X202390Y45186D01*
X199266Y48310D01*
X197575Y52391D01*
X197575Y56809D01*
X199266Y60890D01*
X202390Y64014D01*
X206471Y65705D01*
X210889Y65705D01*
X214970Y64014D01*
X218094Y60890D01*
X219785Y56809D01*
X219785Y52391D01*
X218094Y48310D01*
X214970Y45186D01*
X210889Y43495D01*
X206471Y43495D01*
G37*
%LPD*%
%LPC*%
G36*
X84481Y370331D02*
X84481Y370331D01*
X78231Y376581D01*
X78231Y385419D01*
X84481Y391669D01*
X93319Y391669D01*
X99569Y385419D01*
X99569Y376581D01*
X93319Y370331D01*
X84481Y370331D01*
G37*
%LPD*%
%LPC*%
G36*
X390551Y446531D02*
X390551Y446531D01*
X384301Y452781D01*
X384301Y461619D01*
X390551Y467869D01*
X399389Y467869D01*
X405639Y461619D01*
X405639Y452781D01*
X399389Y446531D01*
X390551Y446531D01*
G37*
%LPD*%
%LPC*%
G36*
X109881Y431291D02*
X109881Y431291D01*
X103631Y437541D01*
X103631Y446379D01*
X109881Y452629D01*
X118719Y452629D01*
X124969Y446379D01*
X124969Y437541D01*
X118719Y431291D01*
X109881Y431291D01*
G37*
%LPD*%
%LPC*%
G36*
X122581Y395731D02*
X122581Y395731D01*
X116331Y401981D01*
X116331Y410819D01*
X122581Y417069D01*
X131419Y417069D01*
X137669Y410819D01*
X137669Y401981D01*
X131419Y395731D01*
X122581Y395731D01*
G37*
%LPD*%
%LPC*%
G36*
X376581Y395731D02*
X376581Y395731D01*
X370331Y401981D01*
X370331Y410819D01*
X376581Y417069D01*
X385419Y417069D01*
X391669Y410819D01*
X391669Y401981D01*
X385419Y395731D01*
X376581Y395731D01*
G37*
%LPD*%
%LPC*%
G36*
X293623Y192023D02*
X293623Y192023D01*
X293623Y199645D01*
X299605Y199645D01*
X301371Y199293D01*
X303036Y198604D01*
X304534Y197603D01*
X305807Y196330D01*
X306808Y194832D01*
X307497Y193167D01*
X307725Y192023D01*
X293623Y192023D01*
G37*
%LPD*%
%LPC*%
G36*
X293623Y395223D02*
X293623Y395223D01*
X293623Y402845D01*
X299605Y402845D01*
X301371Y402493D01*
X303036Y401804D01*
X304534Y400803D01*
X305807Y399530D01*
X306808Y398032D01*
X307497Y396367D01*
X307725Y395223D01*
X293623Y395223D01*
G37*
%LPD*%
%LPC*%
G36*
X217423Y242823D02*
X217423Y242823D01*
X217423Y250445D01*
X223405Y250445D01*
X225171Y250093D01*
X226836Y249404D01*
X228334Y248403D01*
X229607Y247130D01*
X230608Y245632D01*
X231297Y243967D01*
X231525Y242823D01*
X217423Y242823D01*
G37*
%LPD*%
%LPC*%
G36*
X276475Y192023D02*
X276475Y192023D01*
X276703Y193167D01*
X277392Y194832D01*
X278393Y196330D01*
X279666Y197603D01*
X281164Y198604D01*
X282829Y199293D01*
X284595Y199645D01*
X290577Y199645D01*
X290577Y192023D01*
X276475Y192023D01*
G37*
%LPD*%
%LPC*%
G36*
X200275Y242823D02*
X200275Y242823D01*
X200503Y243967D01*
X201192Y245632D01*
X202193Y247130D01*
X203466Y248403D01*
X204964Y249404D01*
X206629Y250093D01*
X208395Y250445D01*
X214377Y250445D01*
X214377Y242823D01*
X200275Y242823D01*
G37*
%LPD*%
%LPC*%
G36*
X276475Y395223D02*
X276475Y395223D01*
X276703Y396367D01*
X277392Y398032D01*
X278393Y399530D01*
X279666Y400803D01*
X281164Y401804D01*
X282829Y402493D01*
X284595Y402845D01*
X290577Y402845D01*
X290577Y395223D01*
X276475Y395223D01*
G37*
%LPD*%
%LPC*%
G36*
X293623Y181355D02*
X293623Y181355D01*
X293623Y188977D01*
X307725Y188977D01*
X307497Y187833D01*
X306808Y186168D01*
X305807Y184670D01*
X304534Y183397D01*
X303036Y182396D01*
X301371Y181707D01*
X299605Y181355D01*
X293623Y181355D01*
G37*
%LPD*%
%LPC*%
G36*
X217423Y232155D02*
X217423Y232155D01*
X217423Y239777D01*
X231525Y239777D01*
X231297Y238633D01*
X230608Y236968D01*
X229607Y235470D01*
X228334Y234197D01*
X226836Y233196D01*
X225171Y232507D01*
X223405Y232155D01*
X217423Y232155D01*
G37*
%LPD*%
%LPC*%
G36*
X293623Y384555D02*
X293623Y384555D01*
X293623Y392177D01*
X307725Y392177D01*
X307497Y391033D01*
X306808Y389368D01*
X305807Y387870D01*
X304534Y386597D01*
X303036Y385596D01*
X301371Y384907D01*
X299605Y384555D01*
X293623Y384555D01*
G37*
%LPD*%
%LPC*%
G36*
X208395Y232155D02*
X208395Y232155D01*
X206629Y232507D01*
X204964Y233196D01*
X203466Y234197D01*
X202193Y235470D01*
X201192Y236968D01*
X200503Y238633D01*
X200275Y239777D01*
X214377Y239777D01*
X214377Y232155D01*
X208395Y232155D01*
G37*
%LPD*%
%LPC*%
G36*
X284595Y181355D02*
X284595Y181355D01*
X282829Y181707D01*
X281164Y182396D01*
X279666Y183397D01*
X278393Y184670D01*
X277392Y186168D01*
X276703Y187833D01*
X276475Y188977D01*
X290577Y188977D01*
X290577Y181355D01*
X284595Y181355D01*
G37*
%LPD*%
%LPC*%
G36*
X284595Y384555D02*
X284595Y384555D01*
X282829Y384907D01*
X281164Y385596D01*
X279666Y386597D01*
X278393Y387870D01*
X277392Y389368D01*
X276703Y391033D01*
X276475Y392177D01*
X290577Y392177D01*
X290577Y384555D01*
X284595Y384555D01*
G37*
%LPD*%
%LPC*%
G36*
X26923Y26923D02*
X26923Y26923D01*
X26923Y37246D01*
X28196Y37045D01*
X29983Y36464D01*
X31657Y35611D01*
X33178Y34506D01*
X34506Y33178D01*
X35611Y31657D01*
X36464Y29983D01*
X37045Y28196D01*
X37246Y26923D01*
X26923Y26923D01*
G37*
%LPD*%
%LPC*%
G36*
X26923Y141223D02*
X26923Y141223D01*
X26923Y151546D01*
X28196Y151345D01*
X29983Y150764D01*
X31657Y149911D01*
X33178Y148806D01*
X34506Y147478D01*
X35611Y145957D01*
X36464Y144283D01*
X37045Y142496D01*
X37246Y141223D01*
X26923Y141223D01*
G37*
%LPD*%
%LPC*%
G36*
X26923Y138177D02*
X26923Y138177D01*
X37246Y138177D01*
X37045Y136904D01*
X36464Y135117D01*
X35611Y133443D01*
X34506Y131922D01*
X33178Y130594D01*
X31657Y129489D01*
X29983Y128636D01*
X28196Y128055D01*
X26923Y127854D01*
X26923Y138177D01*
G37*
%LPD*%
%LPC*%
G36*
X285334Y21843D02*
X285334Y21843D01*
X285535Y23116D01*
X286116Y24903D01*
X286969Y26577D01*
X288074Y28098D01*
X289402Y29426D01*
X290923Y30531D01*
X292597Y31384D01*
X294384Y31965D01*
X295657Y32166D01*
X295657Y21843D01*
X285334Y21843D01*
G37*
%LPD*%
%LPC*%
G36*
X13554Y26923D02*
X13554Y26923D01*
X13755Y28196D01*
X14336Y29983D01*
X15189Y31657D01*
X16294Y33178D01*
X17622Y34506D01*
X19143Y35611D01*
X20817Y36464D01*
X22604Y37045D01*
X23877Y37246D01*
X23877Y26923D01*
X13554Y26923D01*
G37*
%LPD*%
%LPC*%
G36*
X26923Y163577D02*
X26923Y163577D01*
X37246Y163577D01*
X37045Y162304D01*
X36464Y160517D01*
X35611Y158843D01*
X34506Y157322D01*
X33178Y155994D01*
X31657Y154889D01*
X29983Y154036D01*
X28196Y153455D01*
X26923Y153254D01*
X26923Y163577D01*
G37*
%LPD*%
%LPC*%
G36*
X13554Y141223D02*
X13554Y141223D01*
X13755Y142496D01*
X14336Y144283D01*
X15189Y145957D01*
X16294Y147478D01*
X17622Y148806D01*
X19143Y149911D01*
X20817Y150764D01*
X22604Y151345D01*
X23877Y151546D01*
X23877Y141223D01*
X13554Y141223D01*
G37*
%LPD*%
%LPC*%
G36*
X26923Y23877D02*
X26923Y23877D01*
X37246Y23877D01*
X37045Y22604D01*
X36464Y20817D01*
X35611Y19143D01*
X34506Y17622D01*
X33178Y16294D01*
X31657Y15189D01*
X29983Y14336D01*
X28196Y13755D01*
X26923Y13554D01*
X26923Y23877D01*
G37*
%LPD*%
%LPC*%
G36*
X166623Y23877D02*
X166623Y23877D01*
X176946Y23877D01*
X176745Y22604D01*
X176164Y20817D01*
X175311Y19143D01*
X174206Y17622D01*
X172878Y16294D01*
X171357Y15189D01*
X169683Y14336D01*
X167896Y13755D01*
X166623Y13554D01*
X166623Y23877D01*
G37*
%LPD*%
%LPC*%
G36*
X471423Y134367D02*
X471423Y134367D01*
X481746Y134367D01*
X481545Y133094D01*
X480964Y131307D01*
X480111Y129633D01*
X479006Y128112D01*
X477678Y126784D01*
X476157Y125679D01*
X474483Y124826D01*
X472696Y124245D01*
X471423Y124044D01*
X471423Y134367D01*
G37*
%LPD*%
%LPC*%
G36*
X458723Y23877D02*
X458723Y23877D01*
X469046Y23877D01*
X468845Y22604D01*
X468264Y20817D01*
X467411Y19143D01*
X466306Y17622D01*
X464978Y16294D01*
X463457Y15189D01*
X461783Y14336D01*
X459996Y13755D01*
X458723Y13554D01*
X458723Y23877D01*
G37*
%LPD*%
%LPC*%
G36*
X22604Y128055D02*
X22604Y128055D01*
X20817Y128636D01*
X19143Y129489D01*
X17622Y130594D01*
X16294Y131922D01*
X15189Y133443D01*
X14336Y135117D01*
X13755Y136904D01*
X13554Y138177D01*
X23877Y138177D01*
X23877Y127854D01*
X22604Y128055D01*
G37*
%LPD*%
%LPC*%
G36*
X467104Y124245D02*
X467104Y124245D01*
X465317Y124826D01*
X463643Y125679D01*
X462122Y126784D01*
X460794Y128112D01*
X459689Y129633D01*
X458836Y131307D01*
X458255Y133094D01*
X458054Y134367D01*
X468377Y134367D01*
X468377Y124044D01*
X467104Y124245D01*
G37*
%LPD*%
%LPC*%
G36*
X162304Y13755D02*
X162304Y13755D01*
X160517Y14336D01*
X158843Y15189D01*
X157322Y16294D01*
X155994Y17622D01*
X154889Y19143D01*
X154036Y20817D01*
X153455Y22604D01*
X153254Y23877D01*
X163577Y23877D01*
X163577Y13554D01*
X162304Y13755D01*
G37*
%LPD*%
%LPC*%
G36*
X22604Y153455D02*
X22604Y153455D01*
X20817Y154036D01*
X19143Y154889D01*
X17622Y155994D01*
X16294Y157322D01*
X15189Y158843D01*
X14336Y160517D01*
X13755Y162304D01*
X13554Y163577D01*
X23877Y163577D01*
X23877Y153254D01*
X22604Y153455D01*
G37*
%LPD*%
%LPC*%
G36*
X22604Y13755D02*
X22604Y13755D01*
X20817Y14336D01*
X19143Y15189D01*
X17622Y16294D01*
X16294Y17622D01*
X15189Y19143D01*
X14336Y20817D01*
X13755Y22604D01*
X13554Y23877D01*
X23877Y23877D01*
X23877Y13554D01*
X22604Y13755D01*
G37*
%LPD*%
%LPC*%
G36*
X454404Y13755D02*
X454404Y13755D01*
X452617Y14336D01*
X450943Y15189D01*
X449422Y16294D01*
X448094Y17622D01*
X446989Y19143D01*
X446136Y20817D01*
X445555Y22604D01*
X445354Y23877D01*
X455677Y23877D01*
X455677Y13554D01*
X454404Y13755D01*
G37*
%LPD*%
%LPC*%
G36*
X128523Y77723D02*
X128523Y77723D01*
X128523Y86277D01*
X129386Y86140D01*
X130912Y85644D01*
X132341Y84916D01*
X133639Y83973D01*
X134773Y82839D01*
X135716Y81541D01*
X136444Y80112D01*
X136940Y78586D01*
X137077Y77723D01*
X128523Y77723D01*
G37*
%LPD*%
%LPC*%
G36*
X128523Y74677D02*
X128523Y74677D01*
X137077Y74677D01*
X136940Y73814D01*
X136444Y72288D01*
X135716Y70859D01*
X134773Y69561D01*
X133639Y68427D01*
X132341Y67484D01*
X130912Y66756D01*
X129386Y66260D01*
X128523Y66123D01*
X128523Y74677D01*
G37*
%LPD*%
%LPC*%
G36*
X116923Y77723D02*
X116923Y77723D01*
X117060Y78586D01*
X117556Y80112D01*
X118284Y81541D01*
X119227Y82839D01*
X120361Y83973D01*
X121659Y84916D01*
X123088Y85644D01*
X124614Y86140D01*
X125477Y86277D01*
X125477Y77723D01*
X116923Y77723D01*
G37*
%LPD*%
%LPC*%
G36*
X124614Y66260D02*
X124614Y66260D01*
X123088Y66756D01*
X121659Y67484D01*
X120361Y68427D01*
X119227Y69561D01*
X118284Y70859D01*
X117556Y72288D01*
X117060Y73814D01*
X116923Y74677D01*
X125477Y74677D01*
X125477Y66123D01*
X124614Y66260D01*
G37*
%LPD*%
%LPC*%
G36*
X72243Y466343D02*
X72243Y466343D01*
X72243Y474785D01*
X73081Y474653D01*
X74590Y474162D01*
X76003Y473442D01*
X77287Y472509D01*
X78409Y471387D01*
X79342Y470103D01*
X80062Y468690D01*
X80553Y467181D01*
X80685Y466343D01*
X72243Y466343D01*
G37*
%LPD*%
%LPC*%
G36*
X470965Y466343D02*
X470965Y466343D01*
X471097Y467181D01*
X471588Y468690D01*
X472308Y470103D01*
X473241Y471387D01*
X474363Y472509D01*
X475647Y473442D01*
X477060Y474162D01*
X478569Y474653D01*
X479407Y474785D01*
X479407Y466343D01*
X470965Y466343D01*
G37*
%LPD*%
%LPC*%
G36*
X72243Y463297D02*
X72243Y463297D01*
X80685Y463297D01*
X80553Y462459D01*
X80062Y460950D01*
X79342Y459537D01*
X78409Y458253D01*
X77287Y457131D01*
X76003Y456198D01*
X74590Y455478D01*
X73081Y454987D01*
X72243Y454855D01*
X72243Y463297D01*
G37*
%LPD*%
%LPC*%
G36*
X60755Y466343D02*
X60755Y466343D01*
X60887Y467181D01*
X61378Y468690D01*
X62098Y470103D01*
X63031Y471387D01*
X64153Y472509D01*
X65437Y473442D01*
X66850Y474162D01*
X68359Y474653D01*
X69197Y474785D01*
X69197Y466343D01*
X60755Y466343D01*
G37*
%LPD*%
%LPC*%
G36*
X478569Y454987D02*
X478569Y454987D01*
X477060Y455478D01*
X475647Y456198D01*
X474363Y457131D01*
X473241Y458253D01*
X472308Y459537D01*
X471588Y460950D01*
X471097Y462459D01*
X470965Y463297D01*
X479407Y463297D01*
X479407Y454855D01*
X478569Y454987D01*
G37*
%LPD*%
%LPC*%
G36*
X68359Y454987D02*
X68359Y454987D01*
X66850Y455478D01*
X65437Y456198D01*
X64153Y457131D01*
X63031Y458253D01*
X62098Y459537D01*
X61378Y460950D01*
X60887Y462459D01*
X60755Y463297D01*
X69197Y463297D01*
X69197Y454855D01*
X68359Y454987D01*
G37*
%LPD*%
%LPC*%
G36*
X128523Y331723D02*
X128523Y331723D01*
X128523Y339345D01*
X130788Y339345D01*
X136145Y333988D01*
X136145Y331723D01*
X128523Y331723D01*
G37*
%LPD*%
%LPC*%
G36*
X382523Y331723D02*
X382523Y331723D01*
X382523Y339345D01*
X384788Y339345D01*
X390145Y333988D01*
X390145Y331723D01*
X382523Y331723D01*
G37*
%LPD*%
%LPC*%
G36*
X344423Y382523D02*
X344423Y382523D01*
X344423Y390145D01*
X346688Y390145D01*
X352045Y384788D01*
X352045Y382523D01*
X344423Y382523D01*
G37*
%LPD*%
%LPC*%
G36*
X344423Y204723D02*
X344423Y204723D01*
X344423Y212345D01*
X346688Y212345D01*
X352045Y206988D01*
X352045Y204723D01*
X344423Y204723D01*
G37*
%LPD*%
%LPC*%
G36*
X333755Y204723D02*
X333755Y204723D01*
X333755Y206988D01*
X339112Y212345D01*
X341377Y212345D01*
X341377Y204723D01*
X333755Y204723D01*
G37*
%LPD*%
%LPC*%
G36*
X371855Y331723D02*
X371855Y331723D01*
X371855Y333988D01*
X377212Y339345D01*
X379477Y339345D01*
X379477Y331723D01*
X371855Y331723D01*
G37*
%LPD*%
%LPC*%
G36*
X128523Y321055D02*
X128523Y321055D01*
X128523Y328677D01*
X136145Y328677D01*
X136145Y326412D01*
X130788Y321055D01*
X128523Y321055D01*
G37*
%LPD*%
%LPC*%
G36*
X382523Y321055D02*
X382523Y321055D01*
X382523Y328677D01*
X390145Y328677D01*
X390145Y326412D01*
X384788Y321055D01*
X382523Y321055D01*
G37*
%LPD*%
%LPC*%
G36*
X117855Y331723D02*
X117855Y331723D01*
X117855Y333988D01*
X123212Y339345D01*
X125477Y339345D01*
X125477Y331723D01*
X117855Y331723D01*
G37*
%LPD*%
%LPC*%
G36*
X344423Y371855D02*
X344423Y371855D01*
X344423Y379477D01*
X352045Y379477D01*
X352045Y377212D01*
X346688Y371855D01*
X344423Y371855D01*
G37*
%LPD*%
%LPC*%
G36*
X333755Y382523D02*
X333755Y382523D01*
X333755Y384788D01*
X339112Y390145D01*
X341377Y390145D01*
X341377Y382523D01*
X333755Y382523D01*
G37*
%LPD*%
%LPC*%
G36*
X344423Y194055D02*
X344423Y194055D01*
X344423Y201677D01*
X352045Y201677D01*
X352045Y199412D01*
X346688Y194055D01*
X344423Y194055D01*
G37*
%LPD*%
%LPC*%
G36*
X339112Y371855D02*
X339112Y371855D01*
X333755Y377212D01*
X333755Y379477D01*
X341377Y379477D01*
X341377Y371855D01*
X339112Y371855D01*
G37*
%LPD*%
%LPC*%
G36*
X123212Y321055D02*
X123212Y321055D01*
X117855Y326412D01*
X117855Y328677D01*
X125477Y328677D01*
X125477Y321055D01*
X123212Y321055D01*
G37*
%LPD*%
%LPC*%
G36*
X377212Y321055D02*
X377212Y321055D01*
X371855Y326412D01*
X371855Y328677D01*
X379477Y328677D01*
X379477Y321055D01*
X377212Y321055D01*
G37*
%LPD*%
%LPC*%
G36*
X339112Y194055D02*
X339112Y194055D01*
X333755Y199412D01*
X333755Y201677D01*
X341377Y201677D01*
X341377Y194055D01*
X339112Y194055D01*
G37*
%LPD*%
%LPC*%
G36*
X126999Y76199D02*
X126999Y76199D01*
X126999Y76201D01*
X127001Y76201D01*
X127001Y76199D01*
X126999Y76199D01*
G37*
%LPD*%
%LPC*%
G36*
X342899Y380999D02*
X342899Y380999D01*
X342899Y381001D01*
X342901Y381001D01*
X342901Y380999D01*
X342899Y380999D01*
G37*
%LPD*%
%LPC*%
G36*
X292099Y393699D02*
X292099Y393699D01*
X292099Y393701D01*
X292101Y393701D01*
X292101Y393699D01*
X292099Y393699D01*
G37*
%LPD*%
%LPC*%
G36*
X342899Y203199D02*
X342899Y203199D01*
X342899Y203201D01*
X342901Y203201D01*
X342901Y203199D01*
X342899Y203199D01*
G37*
%LPD*%
%LPC*%
G36*
X25399Y139699D02*
X25399Y139699D01*
X25399Y139701D01*
X25401Y139701D01*
X25401Y139699D01*
X25399Y139699D01*
G37*
%LPD*%
%LPC*%
G36*
X126999Y330199D02*
X126999Y330199D01*
X126999Y330201D01*
X127001Y330201D01*
X127001Y330199D01*
X126999Y330199D01*
G37*
%LPD*%
%LPC*%
G36*
X70719Y464819D02*
X70719Y464819D01*
X70719Y464821D01*
X70721Y464821D01*
X70721Y464819D01*
X70719Y464819D01*
G37*
%LPD*%
%LPC*%
G36*
X25399Y25399D02*
X25399Y25399D01*
X25399Y25401D01*
X25401Y25401D01*
X25401Y25399D01*
X25399Y25399D01*
G37*
%LPD*%
%LPC*%
G36*
X380999Y330199D02*
X380999Y330199D01*
X380999Y330201D01*
X381001Y330201D01*
X381001Y330199D01*
X380999Y330199D01*
G37*
%LPD*%
%LPC*%
G36*
X292099Y190499D02*
X292099Y190499D01*
X292099Y190501D01*
X292101Y190501D01*
X292101Y190499D01*
X292099Y190499D01*
G37*
%LPD*%
%LPC*%
G36*
X215899Y241299D02*
X215899Y241299D01*
X215899Y241301D01*
X215901Y241301D01*
X215901Y241299D01*
X215899Y241299D01*
G37*
%LPD*%
D10*
X165100Y25400D03*
X165100Y50800D03*
D11*
X342900Y406400D03*
X342900Y381000D03*
D12*
X317500Y203200D03*
X342900Y203200D03*
D13*
X190500Y114300D03*
X165100Y114300D03*
D10*
X419100Y114300D03*
X419100Y76200D03*
X469900Y368300D03*
X469900Y342900D03*
X469900Y317500D03*
X469900Y292100D03*
X469900Y266700D03*
X469900Y237490D03*
X469900Y212090D03*
X469900Y186690D03*
X469900Y161290D03*
X469900Y135890D03*
X25400Y241300D03*
X25400Y215900D03*
X25400Y190500D03*
X25400Y165100D03*
X25400Y139700D03*
X25400Y368300D03*
X25400Y342900D03*
X25400Y317500D03*
X25400Y292100D03*
X25400Y266700D03*
X127000Y165100D03*
X25400Y63500D03*
X25400Y25400D03*
D11*
X394970Y482600D03*
X394970Y457200D03*
X114300Y467360D03*
X114300Y441960D03*
D14*
X381000Y330200D03*
X381000Y406400D03*
X127000Y330200D03*
X127000Y406400D03*
D11*
X419100Y406400D03*
X419100Y381000D03*
X88900Y406400D03*
X88900Y381000D03*
D15*
X209296Y419100D02*
X222504Y419100D01*
X222504Y393700D02*
X209296Y393700D01*
X209296Y368300D02*
X222504Y368300D01*
X222504Y342900D02*
X209296Y342900D01*
X209296Y317500D02*
X222504Y317500D01*
X222504Y292100D02*
X209296Y292100D01*
X209296Y266700D02*
X222504Y266700D01*
X222504Y241300D02*
X209296Y241300D01*
X209296Y215900D02*
X222504Y215900D01*
X222504Y190500D02*
X209296Y190500D01*
X209296Y165100D02*
X222504Y165100D01*
X222504Y139700D02*
X209296Y139700D01*
X209296Y114300D02*
X222504Y114300D01*
X222504Y88900D02*
X209296Y88900D01*
X285496Y88900D02*
X298704Y88900D01*
X298704Y114300D02*
X285496Y114300D01*
X285496Y139700D02*
X298704Y139700D01*
X298704Y165100D02*
X285496Y165100D01*
X285496Y190500D02*
X298704Y190500D01*
X298704Y215900D02*
X285496Y215900D01*
X285496Y241300D02*
X298704Y241300D01*
X298704Y266700D02*
X285496Y266700D01*
X285496Y292100D02*
X298704Y292100D01*
X298704Y317500D02*
X285496Y317500D01*
X285496Y342900D02*
X298704Y342900D01*
X298704Y368300D02*
X285496Y368300D01*
X285496Y393700D02*
X298704Y393700D01*
X298704Y419100D02*
X285496Y419100D01*
D16*
X20720Y464820D03*
X70720Y464820D03*
D17*
X208680Y21600D03*
X233680Y21600D03*
X258680Y21600D03*
X258680Y54600D03*
X233680Y54600D03*
X208680Y54600D03*
D10*
X297180Y20320D03*
X322580Y20320D03*
X347980Y20320D03*
X373380Y20320D03*
X398780Y20320D03*
X424180Y20320D03*
X203200Y466090D03*
X228600Y466090D03*
X254000Y466090D03*
X279400Y466090D03*
X304800Y466090D03*
X457200Y101600D03*
X457200Y76200D03*
X457200Y50800D03*
X457200Y25400D03*
D18*
X127000Y25400D03*
X127000Y50800D03*
X127000Y76200D03*
X127000Y101600D03*
D16*
X430930Y464820D03*
X480930Y464820D03*
D19*
X394970Y482600D02*
X368300Y482600D01*
X342900Y457200D01*
X342900Y406400D01*
X215900Y419100D02*
X203200Y431800D01*
X203200Y466090D01*
X368300Y355600D02*
X419100Y406400D01*
X368300Y355600D02*
X330200Y355600D01*
X317754Y368046D01*
X317754Y471456D02*
X306610Y482600D01*
X215900Y482600D01*
X203200Y469900D01*
X203200Y466090D01*
X317754Y471456D02*
X317754Y368046D01*
X241300Y427990D02*
X279400Y466090D01*
X241300Y355600D02*
X228600Y342900D01*
X215900Y342900D01*
X241300Y355600D02*
X241300Y427990D01*
X254000Y415290D02*
X304800Y466090D01*
X254000Y330200D02*
X241300Y317500D01*
X215900Y317500D01*
X254000Y330200D02*
X254000Y415290D01*
X215900Y139700D02*
X203200Y139700D01*
X152400Y190500D02*
X152400Y457200D01*
X142240Y467360D01*
X114300Y467360D01*
X152400Y190500D02*
X203200Y139700D01*
X203200Y165100D02*
X215900Y165100D01*
X165100Y203200D02*
X165100Y469900D01*
X152400Y482600D01*
X101600Y482600D01*
X88900Y469900D01*
X165100Y203200D02*
X203200Y165100D01*
X88900Y406400D02*
X88900Y469900D01*
X190500Y88900D02*
X215900Y88900D01*
X190500Y88900D02*
X177800Y101600D01*
X177800Y152400D01*
X139700Y190500D02*
X139700Y228600D01*
X101600Y266700D01*
X25400Y266700D01*
X139700Y190500D02*
X177800Y152400D01*
X292100Y114300D02*
X330200Y114300D01*
X427990Y212090D02*
X469900Y212090D01*
X427990Y212090D02*
X330200Y114300D01*
D20*
X255280Y76200D02*
X233680Y54600D01*
X255280Y76200D02*
X317500Y76200D01*
X431800Y190500D01*
X466090Y190500D01*
X469900Y186690D01*
D19*
X152400Y76200D02*
X127000Y50800D01*
X152400Y76200D02*
X152400Y152400D01*
X139700Y165100D01*
X127000Y165100D01*
X50800Y215900D02*
X25400Y215900D01*
X50800Y215900D02*
X101600Y165100D01*
X127000Y165100D01*
M02*
