G04 EAGLE Gerber RS-274X export*
G75*
%MOMM*%
%FSLAX34Y34*%
%LPD*%
%INSilkscreen Bottom*%
%IPPOS*%
%AMOC8*
5,1,8,0,0,1.08239X$1,22.5*%
G01*
%ADD10R,22.199600X0.025400*%
%ADD11R,21.640800X0.025400*%
%ADD12R,21.615400X0.025400*%
%ADD13R,21.183600X0.025400*%
%ADD14R,20.828000X0.025400*%
%ADD15R,20.523200X0.025400*%
%ADD16R,20.218400X0.025400*%
%ADD17R,19.964400X0.025400*%
%ADD18R,19.710400X0.025400*%
%ADD19R,19.481800X0.025400*%
%ADD20R,19.278600X0.025400*%
%ADD21R,19.050000X0.025400*%
%ADD22R,19.075400X0.025400*%
%ADD23R,18.872200X0.025400*%
%ADD24R,18.669000X0.025400*%
%ADD25R,18.491200X0.025400*%
%ADD26R,18.313400X0.025400*%
%ADD27R,18.338800X0.025400*%
%ADD28R,18.161000X0.025400*%
%ADD29R,17.983200X0.025400*%
%ADD30R,18.008600X0.025400*%
%ADD31R,17.830800X0.025400*%
%ADD32R,17.678400X0.025400*%
%ADD33R,17.526000X0.025400*%
%ADD34R,17.399000X0.025400*%
%ADD35R,1.600200X0.025400*%
%ADD36R,17.246600X0.025400*%
%ADD37R,3.124200X0.025400*%
%ADD38R,17.094200X0.025400*%
%ADD39R,4.089400X0.025400*%
%ADD40R,17.119600X0.025400*%
%ADD41R,16.967200X0.025400*%
%ADD42R,4.902200X0.025400*%
%ADD43R,16.840200X0.025400*%
%ADD44R,5.562600X0.025400*%
%ADD45R,16.713200X0.025400*%
%ADD46R,6.172200X0.025400*%
%ADD47R,16.586200X0.025400*%
%ADD48R,6.731000X0.025400*%
%ADD49R,16.459200X0.025400*%
%ADD50R,7.213600X0.025400*%
%ADD51R,16.332200X0.025400*%
%ADD52R,7.696200X0.025400*%
%ADD53R,16.230600X0.025400*%
%ADD54R,8.102600X0.025400*%
%ADD55R,16.103600X0.025400*%
%ADD56R,8.559800X0.025400*%
%ADD57R,15.976600X0.025400*%
%ADD58R,8.940800X0.025400*%
%ADD59R,16.002000X0.025400*%
%ADD60R,15.875000X0.025400*%
%ADD61R,9.321800X0.025400*%
%ADD62R,15.773400X0.025400*%
%ADD63R,9.677400X0.025400*%
%ADD64R,15.646400X0.025400*%
%ADD65R,10.033000X0.025400*%
%ADD66R,15.544800X0.025400*%
%ADD67R,10.363200X0.025400*%
%ADD68R,15.443200X0.025400*%
%ADD69R,10.693400X0.025400*%
%ADD70R,15.341600X0.025400*%
%ADD71R,10.998200X0.025400*%
%ADD72R,15.240000X0.025400*%
%ADD73R,11.303000X0.025400*%
%ADD74R,15.138400X0.025400*%
%ADD75R,11.607800X0.025400*%
%ADD76R,15.036800X0.025400*%
%ADD77R,11.912600X0.025400*%
%ADD78R,14.935200X0.025400*%
%ADD79R,12.166600X0.025400*%
%ADD80R,14.833600X0.025400*%
%ADD81R,12.471400X0.025400*%
%ADD82R,14.732000X0.025400*%
%ADD83R,12.725400X0.025400*%
%ADD84R,14.630400X0.025400*%
%ADD85R,12.979400X0.025400*%
%ADD86R,14.655800X0.025400*%
%ADD87R,14.554200X0.025400*%
%ADD88R,13.233400X0.025400*%
%ADD89R,14.452600X0.025400*%
%ADD90R,13.487400X0.025400*%
%ADD91R,14.351000X0.025400*%
%ADD92R,13.741400X0.025400*%
%ADD93R,14.376400X0.025400*%
%ADD94R,14.274800X0.025400*%
%ADD95R,13.995400X0.025400*%
%ADD96R,14.173200X0.025400*%
%ADD97R,14.224000X0.025400*%
%ADD98R,14.198600X0.025400*%
%ADD99R,14.097000X0.025400*%
%ADD100R,14.681200X0.025400*%
%ADD101R,14.020800X0.025400*%
%ADD102R,13.919200X0.025400*%
%ADD103R,14.909800X0.025400*%
%ADD104R,13.843000X0.025400*%
%ADD105R,15.113000X0.025400*%
%ADD106R,13.665200X0.025400*%
%ADD107R,15.570200X0.025400*%
%ADD108R,13.589000X0.025400*%
%ADD109R,13.512800X0.025400*%
%ADD110R,13.411200X0.025400*%
%ADD111R,16.179800X0.025400*%
%ADD112R,13.335000X0.025400*%
%ADD113R,16.383000X0.025400*%
%ADD114R,13.258800X0.025400*%
%ADD115R,13.182600X0.025400*%
%ADD116R,16.789400X0.025400*%
%ADD117R,13.106400X0.025400*%
%ADD118R,13.030200X0.025400*%
%ADD119R,17.145000X0.025400*%
%ADD120R,12.954000X0.025400*%
%ADD121R,17.348200X0.025400*%
%ADD122R,12.877800X0.025400*%
%ADD123R,17.551400X0.025400*%
%ADD124R,12.801600X0.025400*%
%ADD125R,17.703800X0.025400*%
%ADD126R,17.907000X0.025400*%
%ADD127R,12.649200X0.025400*%
%ADD128R,18.084800X0.025400*%
%ADD129R,12.573000X0.025400*%
%ADD130R,18.262600X0.025400*%
%ADD131R,12.496800X0.025400*%
%ADD132R,18.415000X0.025400*%
%ADD133R,12.420600X0.025400*%
%ADD134R,18.618200X0.025400*%
%ADD135R,12.344400X0.025400*%
%ADD136R,18.770600X0.025400*%
%ADD137R,12.369800X0.025400*%
%ADD138R,12.293600X0.025400*%
%ADD139R,18.948400X0.025400*%
%ADD140R,12.217400X0.025400*%
%ADD141R,19.126200X0.025400*%
%ADD142R,12.141200X0.025400*%
%ADD143R,12.065000X0.025400*%
%ADD144R,19.431000X0.025400*%
%ADD145R,12.014200X0.025400*%
%ADD146R,19.608800X0.025400*%
%ADD147R,11.938000X0.025400*%
%ADD148R,19.786600X0.025400*%
%ADD149R,11.861800X0.025400*%
%ADD150R,19.939000X0.025400*%
%ADD151R,11.811000X0.025400*%
%ADD152R,20.091400X0.025400*%
%ADD153R,11.734800X0.025400*%
%ADD154R,20.243800X0.025400*%
%ADD155R,11.658600X0.025400*%
%ADD156R,20.396200X0.025400*%
%ADD157R,20.548600X0.025400*%
%ADD158R,11.531600X0.025400*%
%ADD159R,20.701000X0.025400*%
%ADD160R,11.480800X0.025400*%
%ADD161R,20.853400X0.025400*%
%ADD162R,11.404600X0.025400*%
%ADD163R,21.005800X0.025400*%
%ADD164R,11.328400X0.025400*%
%ADD165R,21.158200X0.025400*%
%ADD166R,11.353800X0.025400*%
%ADD167R,11.277600X0.025400*%
%ADD168R,21.310600X0.025400*%
%ADD169R,11.226800X0.025400*%
%ADD170R,21.437600X0.025400*%
%ADD171R,11.150600X0.025400*%
%ADD172R,21.564600X0.025400*%
%ADD173R,11.099800X0.025400*%
%ADD174R,21.717000X0.025400*%
%ADD175R,11.023600X0.025400*%
%ADD176R,21.869400X0.025400*%
%ADD177R,10.972800X0.025400*%
%ADD178R,22.021800X0.025400*%
%ADD179R,10.896600X0.025400*%
%ADD180R,22.123400X0.025400*%
%ADD181R,10.922000X0.025400*%
%ADD182R,10.845800X0.025400*%
%ADD183R,22.275800X0.025400*%
%ADD184R,10.795000X0.025400*%
%ADD185R,22.428200X0.025400*%
%ADD186R,10.718800X0.025400*%
%ADD187R,22.555200X0.025400*%
%ADD188R,10.668000X0.025400*%
%ADD189R,22.682200X0.025400*%
%ADD190R,10.617200X0.025400*%
%ADD191R,22.834600X0.025400*%
%ADD192R,10.541000X0.025400*%
%ADD193R,22.936200X0.025400*%
%ADD194R,10.490200X0.025400*%
%ADD195R,23.088600X0.025400*%
%ADD196R,10.439400X0.025400*%
%ADD197R,23.215600X0.025400*%
%ADD198R,23.342600X0.025400*%
%ADD199R,10.388600X0.025400*%
%ADD200R,10.312400X0.025400*%
%ADD201R,23.469600X0.025400*%
%ADD202R,10.261600X0.025400*%
%ADD203R,23.596600X0.025400*%
%ADD204R,10.210800X0.025400*%
%ADD205R,23.723600X0.025400*%
%ADD206R,10.160000X0.025400*%
%ADD207R,23.850600X0.025400*%
%ADD208R,10.083800X0.025400*%
%ADD209R,23.977600X0.025400*%
%ADD210R,10.109200X0.025400*%
%ADD211R,24.104600X0.025400*%
%ADD212R,9.982200X0.025400*%
%ADD213R,9.931400X0.025400*%
%ADD214R,9.880600X0.025400*%
%ADD215R,10.185400X0.025400*%
%ADD216R,9.829800X0.025400*%
%ADD217R,9.779000X0.025400*%
%ADD218R,9.855200X0.025400*%
%ADD219R,9.753600X0.025400*%
%ADD220R,9.499600X0.025400*%
%ADD221R,9.601200X0.025400*%
%ADD222R,9.702800X0.025400*%
%ADD223R,9.245600X0.025400*%
%ADD224R,9.372600X0.025400*%
%ADD225R,9.728200X0.025400*%
%ADD226R,9.652000X0.025400*%
%ADD227R,9.042400X0.025400*%
%ADD228R,9.169400X0.025400*%
%ADD229R,8.864600X0.025400*%
%ADD230R,8.991600X0.025400*%
%ADD231R,9.550400X0.025400*%
%ADD232R,8.686800X0.025400*%
%ADD233R,8.813800X0.025400*%
%ADD234R,8.534400X0.025400*%
%ADD235R,8.661400X0.025400*%
%ADD236R,9.448800X0.025400*%
%ADD237R,8.382000X0.025400*%
%ADD238R,9.398000X0.025400*%
%ADD239R,8.229600X0.025400*%
%ADD240R,9.347200X0.025400*%
%ADD241R,8.255000X0.025400*%
%ADD242R,9.296400X0.025400*%
%ADD243R,8.001000X0.025400*%
%ADD244R,8.128000X0.025400*%
%ADD245R,7.874000X0.025400*%
%ADD246R,8.026400X0.025400*%
%ADD247R,9.194800X0.025400*%
%ADD248R,7.772400X0.025400*%
%ADD249R,7.924800X0.025400*%
%ADD250R,9.144000X0.025400*%
%ADD251R,7.645400X0.025400*%
%ADD252R,7.823200X0.025400*%
%ADD253R,9.093200X0.025400*%
%ADD254R,7.543800X0.025400*%
%ADD255R,7.721600X0.025400*%
%ADD256R,7.467600X0.025400*%
%ADD257R,7.620000X0.025400*%
%ADD258R,7.391400X0.025400*%
%ADD259R,7.518400X0.025400*%
%ADD260R,7.289800X0.025400*%
%ADD261R,7.442200X0.025400*%
%ADD262R,8.890000X0.025400*%
%ADD263R,7.366000X0.025400*%
%ADD264R,8.839200X0.025400*%
%ADD265R,7.137400X0.025400*%
%ADD266R,8.788400X0.025400*%
%ADD267R,7.061200X0.025400*%
%ADD268R,8.763000X0.025400*%
%ADD269R,6.985000X0.025400*%
%ADD270R,8.712200X0.025400*%
%ADD271R,6.908800X0.025400*%
%ADD272R,6.832600X0.025400*%
%ADD273R,8.610600X0.025400*%
%ADD274R,6.756400X0.025400*%
%ADD275R,6.934200X0.025400*%
%ADD276R,6.705600X0.025400*%
%ADD277R,6.858000X0.025400*%
%ADD278R,8.509000X0.025400*%
%ADD279R,6.629400X0.025400*%
%ADD280R,6.807200X0.025400*%
%ADD281R,8.458200X0.025400*%
%ADD282R,6.578600X0.025400*%
%ADD283R,8.483600X0.025400*%
%ADD284R,8.432800X0.025400*%
%ADD285R,6.527800X0.025400*%
%ADD286R,6.680200X0.025400*%
%ADD287R,6.451600X0.025400*%
%ADD288R,8.331200X0.025400*%
%ADD289R,6.400800X0.025400*%
%ADD290R,8.280400X0.025400*%
%ADD291R,6.350000X0.025400*%
%ADD292R,6.502400X0.025400*%
%ADD293R,6.299200X0.025400*%
%ADD294R,8.204200X0.025400*%
%ADD295R,6.248400X0.025400*%
%ADD296R,8.153400X0.025400*%
%ADD297R,6.197600X0.025400*%
%ADD298R,6.375400X0.025400*%
%ADD299R,6.324600X0.025400*%
%ADD300R,8.051800X0.025400*%
%ADD301R,6.121400X0.025400*%
%ADD302R,6.273800X0.025400*%
%ADD303R,8.077200X0.025400*%
%ADD304R,6.070600X0.025400*%
%ADD305R,7.975600X0.025400*%
%ADD306R,6.019800X0.025400*%
%ADD307R,5.969000X0.025400*%
%ADD308R,5.918200X0.025400*%
%ADD309R,7.899400X0.025400*%
%ADD310R,7.848600X0.025400*%
%ADD311R,5.892800X0.025400*%
%ADD312R,6.045200X0.025400*%
%ADD313R,7.797800X0.025400*%
%ADD314R,5.842000X0.025400*%
%ADD315R,5.994400X0.025400*%
%ADD316R,7.747000X0.025400*%
%ADD317R,5.816600X0.025400*%
%ADD318R,5.791200X0.025400*%
%ADD319R,7.670800X0.025400*%
%ADD320R,5.715000X0.025400*%
%ADD321R,5.867400X0.025400*%
%ADD322R,5.689600X0.025400*%
%ADD323R,7.594600X0.025400*%
%ADD324R,5.664200X0.025400*%
%ADD325R,5.638800X0.025400*%
%ADD326R,5.765800X0.025400*%
%ADD327R,7.493000X0.025400*%
%ADD328R,5.588000X0.025400*%
%ADD329R,5.537200X0.025400*%
%ADD330R,7.416800X0.025400*%
%ADD331R,5.511800X0.025400*%
%ADD332R,5.486400X0.025400*%
%ADD333R,7.340600X0.025400*%
%ADD334R,5.461000X0.025400*%
%ADD335R,5.410200X0.025400*%
%ADD336R,7.264400X0.025400*%
%ADD337R,5.384800X0.025400*%
%ADD338R,5.359400X0.025400*%
%ADD339R,7.162800X0.025400*%
%ADD340R,5.308600X0.025400*%
%ADD341R,7.188200X0.025400*%
%ADD342R,5.435600X0.025400*%
%ADD343R,7.086600X0.025400*%
%ADD344R,5.283200X0.025400*%
%ADD345R,7.112000X0.025400*%
%ADD346R,5.257800X0.025400*%
%ADD347R,7.010400X0.025400*%
%ADD348R,5.207000X0.025400*%
%ADD349R,5.334000X0.025400*%
%ADD350R,5.181600X0.025400*%
%ADD351R,5.156200X0.025400*%
%ADD352R,5.130800X0.025400*%
%ADD353R,5.105400X0.025400*%
%ADD354R,5.232400X0.025400*%
%ADD355R,5.080000X0.025400*%
%ADD356R,6.781800X0.025400*%
%ADD357R,5.054600X0.025400*%
%ADD358R,5.003800X0.025400*%
%ADD359R,4.978400X0.025400*%
%ADD360R,4.953000X0.025400*%
%ADD361R,6.604000X0.025400*%
%ADD362R,4.927600X0.025400*%
%ADD363R,6.553200X0.025400*%
%ADD364R,6.477000X0.025400*%
%ADD365R,4.876800X0.025400*%
%ADD366R,4.851400X0.025400*%
%ADD367R,4.826000X0.025400*%
%ADD368R,6.426200X0.025400*%
%ADD369R,4.800600X0.025400*%
%ADD370R,4.749800X0.025400*%
%ADD371R,6.223000X0.025400*%
%ADD372R,4.724400X0.025400*%
%ADD373R,4.699000X0.025400*%
%ADD374R,6.146800X0.025400*%
%ADD375R,4.673600X0.025400*%
%ADD376R,4.775200X0.025400*%
%ADD377R,6.096000X0.025400*%
%ADD378R,4.648200X0.025400*%
%ADD379R,4.622800X0.025400*%
%ADD380R,4.597400X0.025400*%
%ADD381R,5.943600X0.025400*%
%ADD382R,4.572000X0.025400*%
%ADD383R,4.546600X0.025400*%
%ADD384R,4.521200X0.025400*%
%ADD385R,4.470400X0.025400*%
%ADD386R,5.740400X0.025400*%
%ADD387R,4.445000X0.025400*%
%ADD388R,4.495800X0.025400*%
%ADD389R,4.419600X0.025400*%
%ADD390R,5.613400X0.025400*%
%ADD391R,4.394200X0.025400*%
%ADD392R,4.368800X0.025400*%
%ADD393R,4.343400X0.025400*%
%ADD394R,4.318000X0.025400*%
%ADD395R,4.292600X0.025400*%
%ADD396R,4.267200X0.025400*%
%ADD397R,4.241800X0.025400*%
%ADD398R,4.216400X0.025400*%
%ADD399R,4.191000X0.025400*%
%ADD400R,4.165600X0.025400*%
%ADD401R,5.029200X0.025400*%
%ADD402R,4.140200X0.025400*%
%ADD403R,4.114800X0.025400*%
%ADD404R,4.064000X0.025400*%
%ADD405R,4.038600X0.025400*%
%ADD406R,4.013200X0.025400*%
%ADD407R,3.987800X0.025400*%
%ADD408R,3.962400X0.025400*%
%ADD409R,3.937000X0.025400*%
%ADD410R,3.911600X0.025400*%
%ADD411R,3.886200X0.025400*%
%ADD412R,3.860800X0.025400*%
%ADD413R,3.835400X0.025400*%
%ADD414R,3.810000X0.025400*%
%ADD415R,3.784600X0.025400*%
%ADD416R,3.759200X0.025400*%
%ADD417R,3.733800X0.025400*%
%ADD418R,3.708400X0.025400*%
%ADD419R,3.683000X0.025400*%
%ADD420R,3.657600X0.025400*%
%ADD421R,3.632200X0.025400*%
%ADD422R,3.606800X0.025400*%
%ADD423R,3.581400X0.025400*%
%ADD424R,3.556000X0.025400*%
%ADD425R,3.530600X0.025400*%
%ADD426R,3.505200X0.025400*%
%ADD427R,3.479800X0.025400*%
%ADD428R,3.454400X0.025400*%
%ADD429R,3.429000X0.025400*%
%ADD430R,3.403600X0.025400*%
%ADD431R,3.378200X0.025400*%
%ADD432R,3.352800X0.025400*%
%ADD433R,3.327400X0.025400*%
%ADD434R,3.302000X0.025400*%
%ADD435R,3.276600X0.025400*%
%ADD436R,3.251200X0.025400*%
%ADD437R,3.225800X0.025400*%
%ADD438R,3.200400X0.025400*%
%ADD439R,3.175000X0.025400*%
%ADD440R,3.149600X0.025400*%
%ADD441R,3.098800X0.025400*%
%ADD442R,3.073400X0.025400*%
%ADD443R,3.048000X0.025400*%
%ADD444R,3.022600X0.025400*%
%ADD445R,2.997200X0.025400*%
%ADD446R,2.971800X0.025400*%
%ADD447R,2.946400X0.025400*%
%ADD448R,2.921000X0.025400*%
%ADD449R,0.787400X0.025400*%
%ADD450R,2.895600X0.025400*%
%ADD451R,2.565400X0.025400*%
%ADD452R,2.870200X0.025400*%
%ADD453R,2.844800X0.025400*%
%ADD454R,2.819400X0.025400*%
%ADD455R,2.794000X0.025400*%
%ADD456R,2.768600X0.025400*%
%ADD457R,2.743200X0.025400*%
%ADD458R,2.717800X0.025400*%
%ADD459R,2.692400X0.025400*%
%ADD460R,2.667000X0.025400*%
%ADD461R,2.641600X0.025400*%
%ADD462R,8.636000X0.025400*%
%ADD463R,2.616200X0.025400*%
%ADD464R,8.915400X0.025400*%
%ADD465R,2.590800X0.025400*%
%ADD466R,9.423400X0.025400*%
%ADD467R,2.540000X0.025400*%
%ADD468R,2.514600X0.025400*%
%ADD469R,2.489200X0.025400*%
%ADD470R,10.337800X0.025400*%
%ADD471R,2.463800X0.025400*%
%ADD472R,10.744200X0.025400*%
%ADD473R,2.438400X0.025400*%
%ADD474R,2.413000X0.025400*%
%ADD475R,11.125200X0.025400*%
%ADD476R,2.387600X0.025400*%
%ADD477R,11.506200X0.025400*%
%ADD478R,2.362200X0.025400*%
%ADD479R,11.684000X0.025400*%
%ADD480R,2.336800X0.025400*%
%ADD481R,11.836400X0.025400*%
%ADD482R,2.311400X0.025400*%
%ADD483R,12.039600X0.025400*%
%ADD484R,12.192000X0.025400*%
%ADD485R,2.286000X0.025400*%
%ADD486R,2.260600X0.025400*%
%ADD487R,12.522200X0.025400*%
%ADD488R,2.235200X0.025400*%
%ADD489R,12.674600X0.025400*%
%ADD490R,12.827000X0.025400*%
%ADD491R,2.209800X0.025400*%
%ADD492R,2.184400X0.025400*%
%ADD493R,2.159000X0.025400*%
%ADD494R,13.385800X0.025400*%
%ADD495R,2.133600X0.025400*%
%ADD496R,2.108200X0.025400*%
%ADD497R,13.792200X0.025400*%
%ADD498R,2.082800X0.025400*%
%ADD499R,2.057400X0.025400*%
%ADD500R,14.046200X0.025400*%
%ADD501R,14.147800X0.025400*%
%ADD502R,2.032000X0.025400*%
%ADD503R,14.300200X0.025400*%
%ADD504R,2.006600X0.025400*%
%ADD505R,14.401800X0.025400*%
%ADD506R,14.528800X0.025400*%
%ADD507R,1.981200X0.025400*%
%ADD508R,1.955800X0.025400*%
%ADD509R,14.757400X0.025400*%
%ADD510R,14.884400X0.025400*%
%ADD511R,1.930400X0.025400*%
%ADD512R,14.986000X0.025400*%
%ADD513R,1.905000X0.025400*%
%ADD514R,15.087600X0.025400*%
%ADD515R,15.189200X0.025400*%
%ADD516R,1.879600X0.025400*%
%ADD517R,15.290800X0.025400*%
%ADD518R,1.854200X0.025400*%
%ADD519R,15.392400X0.025400*%
%ADD520R,15.494000X0.025400*%
%ADD521R,1.828800X0.025400*%
%ADD522R,15.595600X0.025400*%
%ADD523R,1.803400X0.025400*%
%ADD524R,15.697200X0.025400*%
%ADD525R,15.798800X0.025400*%
%ADD526R,1.778000X0.025400*%
%ADD527R,15.900400X0.025400*%
%ADD528R,1.752600X0.025400*%
%ADD529R,16.078200X0.025400*%
%ADD530R,1.727200X0.025400*%
%ADD531R,16.256000X0.025400*%
%ADD532R,1.701800X0.025400*%
%ADD533R,16.357600X0.025400*%
%ADD534R,1.676400X0.025400*%
%ADD535R,16.433800X0.025400*%
%ADD536R,16.510000X0.025400*%
%ADD537R,1.651000X0.025400*%
%ADD538R,16.611600X0.025400*%
%ADD539R,1.625600X0.025400*%
%ADD540R,16.687800X0.025400*%
%ADD541R,16.764000X0.025400*%
%ADD542R,16.865600X0.025400*%
%ADD543R,16.941800X0.025400*%
%ADD544R,1.574800X0.025400*%
%ADD545R,17.018000X0.025400*%
%ADD546R,1.549400X0.025400*%
%ADD547R,17.170400X0.025400*%
%ADD548R,1.524000X0.025400*%
%ADD549R,17.322800X0.025400*%
%ADD550R,1.498600X0.025400*%
%ADD551R,17.373600X0.025400*%
%ADD552R,17.475200X0.025400*%
%ADD553R,1.473200X0.025400*%
%ADD554R,1.447800X0.025400*%
%ADD555R,17.627600X0.025400*%
%ADD556R,1.422400X0.025400*%
%ADD557R,17.754600X0.025400*%
%ADD558R,1.397000X0.025400*%
%ADD559R,17.881600X0.025400*%
%ADD560R,17.957800X0.025400*%
%ADD561R,1.371600X0.025400*%
%ADD562R,1.346200X0.025400*%
%ADD563R,1.320800X0.025400*%
%ADD564R,18.211800X0.025400*%
%ADD565R,1.295400X0.025400*%
%ADD566R,1.270000X0.025400*%
%ADD567R,18.465800X0.025400*%
%ADD568R,18.516600X0.025400*%
%ADD569R,1.244600X0.025400*%
%ADD570R,18.567400X0.025400*%
%ADD571R,1.219200X0.025400*%
%ADD572R,18.694400X0.025400*%
%ADD573R,18.745200X0.025400*%
%ADD574R,1.193800X0.025400*%
%ADD575R,18.796000X0.025400*%
%ADD576R,18.846800X0.025400*%
%ADD577R,1.168400X0.025400*%
%ADD578R,18.897600X0.025400*%
%ADD579R,1.143000X0.025400*%
%ADD580R,18.999200X0.025400*%
%ADD581R,1.117600X0.025400*%
%ADD582R,19.177000X0.025400*%
%ADD583R,1.092200X0.025400*%
%ADD584R,19.227800X0.025400*%
%ADD585R,1.066800X0.025400*%
%ADD586R,19.329400X0.025400*%
%ADD587R,19.380200X0.025400*%
%ADD588R,1.041400X0.025400*%
%ADD589R,19.456400X0.025400*%
%ADD590R,1.016000X0.025400*%
%ADD591R,19.507200X0.025400*%
%ADD592R,19.558000X0.025400*%
%ADD593R,0.990600X0.025400*%
%ADD594R,19.659600X0.025400*%
%ADD595R,0.965200X0.025400*%
%ADD596R,0.939800X0.025400*%
%ADD597R,19.761200X0.025400*%
%ADD598R,19.812000X0.025400*%
%ADD599R,19.862800X0.025400*%
%ADD600R,0.914400X0.025400*%
%ADD601R,19.888200X0.025400*%
%ADD602R,0.889000X0.025400*%
%ADD603R,19.989800X0.025400*%
%ADD604R,20.015200X0.025400*%
%ADD605R,0.863600X0.025400*%
%ADD606R,20.066000X0.025400*%
%ADD607R,20.116800X0.025400*%
%ADD608R,0.838200X0.025400*%
%ADD609R,20.167600X0.025400*%
%ADD610R,0.812800X0.025400*%
%ADD611R,20.269200X0.025400*%
%ADD612R,20.320000X0.025400*%
%ADD613R,20.345400X0.025400*%
%ADD614R,0.762000X0.025400*%
%ADD615R,20.421600X0.025400*%
%ADD616R,20.447000X0.025400*%
%ADD617R,0.736600X0.025400*%
%ADD618R,20.472400X0.025400*%
%ADD619R,0.711200X0.025400*%
%ADD620R,20.574000X0.025400*%
%ADD621R,20.624800X0.025400*%
%ADD622R,0.685800X0.025400*%
%ADD623R,20.650200X0.025400*%
%ADD624R,20.675600X0.025400*%
%ADD625R,0.660400X0.025400*%
%ADD626R,20.726400X0.025400*%
%ADD627R,20.777200X0.025400*%
%ADD628R,0.635000X0.025400*%
%ADD629R,0.609600X0.025400*%
%ADD630R,20.878800X0.025400*%
%ADD631R,20.904200X0.025400*%
%ADD632R,0.584200X0.025400*%
%ADD633R,20.955000X0.025400*%
%ADD634R,20.980400X0.025400*%
%ADD635R,0.558800X0.025400*%
%ADD636R,21.031200X0.025400*%
%ADD637R,21.056600X0.025400*%
%ADD638R,21.082000X0.025400*%
%ADD639R,0.533400X0.025400*%
%ADD640R,21.107400X0.025400*%
%ADD641R,0.508000X0.025400*%
%ADD642R,21.209000X0.025400*%
%ADD643R,0.482600X0.025400*%
%ADD644R,21.234400X0.025400*%
%ADD645R,21.259800X0.025400*%
%ADD646R,0.457200X0.025400*%
%ADD647R,21.285200X0.025400*%
%ADD648R,21.336000X0.025400*%
%ADD649R,0.431800X0.025400*%
%ADD650R,21.361400X0.025400*%
%ADD651R,21.412200X0.025400*%
%ADD652R,0.406400X0.025400*%
%ADD653R,0.381000X0.025400*%
%ADD654R,21.463000X0.025400*%
%ADD655R,21.488400X0.025400*%
%ADD656R,21.513800X0.025400*%
%ADD657R,0.355600X0.025400*%
%ADD658R,9.118600X0.025400*%
%ADD659R,0.330200X0.025400*%
%ADD660R,0.304800X0.025400*%
%ADD661R,0.279400X0.025400*%
%ADD662R,7.950200X0.025400*%
%ADD663R,0.254000X0.025400*%
%ADD664R,0.228600X0.025400*%
%ADD665R,0.203200X0.025400*%
%ADD666R,0.177800X0.025400*%
%ADD667R,0.152400X0.025400*%
%ADD668R,0.127000X0.025400*%
%ADD669R,8.178800X0.025400*%
%ADD670R,0.101600X0.025400*%
%ADD671R,0.076200X0.025400*%
%ADD672R,0.050800X0.025400*%
%ADD673R,8.305800X0.025400*%
%ADD674R,0.025400X0.025400*%
%ADD675R,8.356600X0.025400*%
%ADD676R,8.407400X0.025400*%
%ADD677R,11.633200X0.025400*%
%ADD678R,24.536400X0.025400*%
%ADD679R,34.544000X0.025400*%
%ADD680R,34.518600X0.025400*%
%ADD681R,34.493200X0.025400*%
%ADD682R,34.467800X0.025400*%
%ADD683R,34.442400X0.025400*%
%ADD684R,34.417000X0.025400*%
%ADD685R,34.391600X0.025400*%
%ADD686R,34.340800X0.025400*%
%ADD687R,34.315400X0.025400*%
%ADD688R,34.290000X0.025400*%
%ADD689R,34.264600X0.025400*%
%ADD690R,34.239200X0.025400*%
%ADD691R,34.213800X0.025400*%
%ADD692R,34.188400X0.025400*%
%ADD693R,34.163000X0.025400*%
%ADD694R,34.137600X0.025400*%
%ADD695R,34.112200X0.025400*%
%ADD696R,34.086800X0.025400*%
%ADD697R,34.036000X0.025400*%
%ADD698R,34.010600X0.025400*%
%ADD699R,33.985200X0.025400*%
%ADD700R,33.959800X0.025400*%
%ADD701R,33.909000X0.025400*%
%ADD702R,33.883600X0.025400*%
%ADD703R,33.858200X0.025400*%
%ADD704R,33.832800X0.025400*%
%ADD705R,33.782000X0.025400*%
%ADD706R,33.756600X0.025400*%
%ADD707R,33.731200X0.025400*%
%ADD708R,33.705800X0.025400*%
%ADD709R,33.655000X0.025400*%
%ADD710R,33.604200X0.025400*%
%ADD711R,33.578800X0.025400*%
%ADD712R,33.528000X0.025400*%
%ADD713R,33.502600X0.025400*%
%ADD714R,33.477200X0.025400*%
%ADD715R,33.451800X0.025400*%
%ADD716R,33.401000X0.025400*%
%ADD717R,33.375600X0.025400*%
%ADD718R,33.350200X0.025400*%
%ADD719R,33.324800X0.025400*%
%ADD720R,33.274000X0.025400*%
%ADD721R,33.248600X0.025400*%
%ADD722R,33.223200X0.025400*%
%ADD723R,33.197800X0.025400*%
%ADD724R,33.172400X0.025400*%
%ADD725R,33.147000X0.025400*%
%ADD726R,33.121600X0.025400*%
%ADD727R,33.096200X0.025400*%
%ADD728R,33.070800X0.025400*%
%ADD729R,33.020000X0.025400*%
%ADD730R,32.994600X0.025400*%
%ADD731R,32.943800X0.025400*%
%ADD732R,32.918400X0.025400*%
%ADD733R,32.893000X0.025400*%
%ADD734R,32.867600X0.025400*%
%ADD735R,32.816800X0.025400*%
%ADD736R,32.791400X0.025400*%
%ADD737R,32.766000X0.025400*%
%ADD738R,32.740600X0.025400*%
%ADD739R,32.715200X0.025400*%
%ADD740R,32.689800X0.025400*%
%ADD741R,32.664400X0.025400*%
%ADD742R,32.613600X0.025400*%
%ADD743R,32.588200X0.025400*%
%ADD744R,32.537400X0.025400*%
%ADD745R,32.512000X0.025400*%
%ADD746R,32.486600X0.025400*%
%ADD747R,22.047200X0.025400*%
%ADD748R,20.193000X0.025400*%
%ADD749R,20.142200X0.025400*%
%ADD750R,20.040600X0.025400*%
%ADD751R,19.685000X0.025400*%
%ADD752R,19.634200X0.025400*%
%ADD753R,19.405600X0.025400*%
%ADD754R,19.202400X0.025400*%
%ADD755R,19.151600X0.025400*%
%ADD756R,19.100800X0.025400*%
%ADD757R,19.024600X0.025400*%
%ADD758R,18.973800X0.025400*%
%ADD759R,18.923000X0.025400*%
%ADD760R,18.719800X0.025400*%
%ADD761R,18.643600X0.025400*%
%ADD762R,18.592800X0.025400*%
%ADD763R,18.542000X0.025400*%
%ADD764R,18.440400X0.025400*%
%ADD765R,18.364200X0.025400*%
%ADD766R,18.288000X0.025400*%
%ADD767R,18.237200X0.025400*%
%ADD768R,18.186400X0.025400*%
%ADD769R,18.135600X0.025400*%
%ADD770R,17.932400X0.025400*%
%ADD771R,17.653000X0.025400*%
%ADD772R,17.576800X0.025400*%
%ADD773R,17.297400X0.025400*%
%ADD774R,17.221200X0.025400*%
%ADD775R,17.043400X0.025400*%
%ADD776R,16.891000X0.025400*%
%ADD777R,16.637000X0.025400*%
%ADD778R,16.306800X0.025400*%
%ADD779R,15.951200X0.025400*%
%ADD780R,15.722600X0.025400*%
%ADD781R,15.417800X0.025400*%
%ADD782R,15.316200X0.025400*%
%ADD783R,15.163800X0.025400*%
%ADD784R,15.011400X0.025400*%
%ADD785R,14.478000X0.025400*%
%ADD786R,13.817600X0.025400*%
%ADD787R,13.639800X0.025400*%
%ADD788R,13.538200X0.025400*%
%ADD789R,13.309600X0.025400*%
%ADD790R,13.131800X0.025400*%
%ADD791R,13.004800X0.025400*%
%ADD792R,12.903200X0.025400*%
%ADD793R,12.446000X0.025400*%
%ADD794R,12.115800X0.025400*%
%ADD795R,11.988800X0.025400*%
%ADD796R,11.201400X0.025400*%
%ADD797R,10.947400X0.025400*%
%ADD798R,10.820400X0.025400*%
%ADD799R,10.515600X0.025400*%
%ADD800R,9.906000X0.025400*%
%ADD801R,7.035800X0.025400*%
%ADD802R,6.883400X0.025400*%
%ADD803R,6.654800X0.025400*%
%ADD804R,6.959600X0.025400*%
%ADD805R,7.315200X0.025400*%
%ADD806R,7.239000X0.025400*%
%ADD807R,7.569200X0.025400*%
%ADD808R,8.737600X0.025400*%
%ADD809R,9.067800X0.025400*%
%ADD810R,10.058400X0.025400*%
%ADD811R,10.287000X0.025400*%
%ADD812R,10.134600X0.025400*%
%ADD813R,10.871200X0.025400*%
%ADD814R,24.815800X0.025400*%
%ADD815R,24.714200X0.025400*%
%ADD816R,9.804400X0.025400*%
%ADD817R,24.612600X0.025400*%
%ADD818R,24.460200X0.025400*%
%ADD819R,24.358600X0.025400*%
%ADD820R,24.231600X0.025400*%
%ADD821R,24.003000X0.025400*%
%ADD822R,23.749000X0.025400*%
%ADD823R,23.495000X0.025400*%
%ADD824R,23.241000X0.025400*%
%ADD825R,22.961600X0.025400*%
%ADD826R,10.591800X0.025400*%
%ADD827R,22.580600X0.025400*%
%ADD828R,10.769600X0.025400*%
%ADD829R,22.148800X0.025400*%
%ADD830R,11.074400X0.025400*%
%ADD831R,21.590000X0.025400*%
%ADD832R,11.455400X0.025400*%
%ADD833R,11.785600X0.025400*%
%ADD834R,12.268200X0.025400*%
%ADD835R,18.110200X0.025400*%
%ADD836R,12.776200X0.025400*%
%ADD837R,17.729200X0.025400*%
%ADD838R,12.852400X0.025400*%
%ADD839R,12.928600X0.025400*%
%ADD840R,16.992600X0.025400*%
%ADD841R,15.367000X0.025400*%
%ADD842R,14.706600X0.025400*%
%ADD843R,14.249400X0.025400*%
%ADD844R,15.214600X0.025400*%
%ADD845R,15.748000X0.025400*%
%ADD846R,8.966200X0.025400*%
%ADD847R,16.205200X0.025400*%
%ADD848R,19.253200X0.025400*%
%ADD849R,20.497800X0.025400*%
%ADD850R,20.802600X0.025400*%
%ADD851R,22.174200X0.025400*%
%ADD852C,0.000000*%


D10*
X124587Y83312D03*
X373253Y83312D03*
D11*
X121793Y83566D03*
D12*
X376174Y83566D03*
D13*
X119507Y83820D03*
X378333Y83820D03*
D14*
X117729Y84074D03*
X380111Y84074D03*
D15*
X116205Y84328D03*
X381635Y84328D03*
D16*
X114681Y84582D03*
X383159Y84582D03*
D17*
X113411Y84836D03*
X384429Y84836D03*
D18*
X112141Y85090D03*
X385699Y85090D03*
D19*
X110998Y85344D03*
X386842Y85344D03*
D20*
X109982Y85598D03*
X387858Y85598D03*
D21*
X108839Y85852D03*
D22*
X388874Y85852D03*
D23*
X107950Y86106D03*
X389890Y86106D03*
D24*
X106934Y86360D03*
X390906Y86360D03*
D25*
X106045Y86614D03*
X391795Y86614D03*
D26*
X105156Y86868D03*
D27*
X392557Y86868D03*
D28*
X104394Y87122D03*
X393446Y87122D03*
D29*
X103505Y87376D03*
D30*
X394208Y87376D03*
D31*
X102743Y87630D03*
X395097Y87630D03*
D32*
X101981Y87884D03*
X395859Y87884D03*
D33*
X101219Y88138D03*
X396621Y88138D03*
D34*
X100584Y88392D03*
D35*
X248920Y88392D03*
D34*
X397256Y88392D03*
D36*
X99822Y88646D03*
D37*
X248920Y88646D03*
D36*
X398018Y88646D03*
D38*
X99060Y88900D03*
D39*
X248920Y88900D03*
D40*
X398653Y88900D03*
D41*
X98425Y89154D03*
D42*
X248920Y89154D03*
D41*
X399415Y89154D03*
D43*
X97790Y89408D03*
D44*
X248920Y89408D03*
D43*
X400050Y89408D03*
D45*
X97155Y89662D03*
D46*
X248920Y89662D03*
D45*
X400685Y89662D03*
D47*
X96520Y89916D03*
D48*
X248920Y89916D03*
D47*
X401320Y89916D03*
D49*
X95885Y90170D03*
D50*
X248793Y90170D03*
D49*
X401955Y90170D03*
D51*
X95250Y90424D03*
D52*
X248920Y90424D03*
D51*
X402590Y90424D03*
D53*
X94742Y90678D03*
D54*
X248920Y90678D03*
D53*
X403098Y90678D03*
D55*
X94107Y90932D03*
D56*
X248920Y90932D03*
D55*
X403733Y90932D03*
D57*
X93472Y91186D03*
D58*
X248793Y91186D03*
D59*
X404241Y91186D03*
D60*
X92964Y91440D03*
D61*
X248920Y91440D03*
D60*
X404876Y91440D03*
D62*
X92456Y91694D03*
D63*
X248920Y91694D03*
D62*
X405384Y91694D03*
D64*
X91821Y91948D03*
D65*
X248920Y91948D03*
D64*
X406019Y91948D03*
D66*
X91313Y92202D03*
D67*
X248793Y92202D03*
D66*
X406527Y92202D03*
D68*
X90805Y92456D03*
D69*
X248920Y92456D03*
D68*
X407035Y92456D03*
D70*
X90297Y92710D03*
D71*
X248920Y92710D03*
D70*
X407543Y92710D03*
D72*
X89789Y92964D03*
D73*
X248920Y92964D03*
D72*
X408051Y92964D03*
D74*
X89281Y93218D03*
D75*
X248920Y93218D03*
D74*
X408559Y93218D03*
D76*
X88773Y93472D03*
D77*
X248920Y93472D03*
D76*
X409067Y93472D03*
D78*
X88265Y93726D03*
D79*
X248920Y93726D03*
D78*
X409575Y93726D03*
D80*
X87757Y93980D03*
D81*
X248920Y93980D03*
D80*
X410083Y93980D03*
D82*
X87249Y94234D03*
D83*
X248920Y94234D03*
D82*
X410591Y94234D03*
D84*
X86741Y94488D03*
D85*
X248920Y94488D03*
D86*
X410972Y94488D03*
D87*
X86360Y94742D03*
D88*
X248920Y94742D03*
D87*
X411480Y94742D03*
D89*
X85852Y94996D03*
D90*
X248920Y94996D03*
D89*
X411988Y94996D03*
D91*
X85344Y95250D03*
D92*
X248920Y95250D03*
D93*
X412369Y95250D03*
D94*
X84963Y95504D03*
D95*
X248920Y95504D03*
D94*
X412877Y95504D03*
D96*
X84455Y95758D03*
D97*
X248793Y95758D03*
D98*
X413258Y95758D03*
D99*
X84074Y96012D03*
D89*
X248920Y96012D03*
D99*
X413766Y96012D03*
D95*
X83566Y96266D03*
D100*
X248793Y96266D03*
D101*
X414147Y96266D03*
D102*
X83185Y96520D03*
D103*
X248920Y96520D03*
D102*
X414655Y96520D03*
D104*
X82804Y96774D03*
D105*
X248920Y96774D03*
D104*
X415036Y96774D03*
D92*
X82296Y97028D03*
D70*
X248793Y97028D03*
D92*
X415544Y97028D03*
D106*
X81915Y97282D03*
D107*
X248920Y97282D03*
D106*
X415925Y97282D03*
D108*
X81534Y97536D03*
D62*
X248920Y97536D03*
D108*
X416306Y97536D03*
D90*
X81026Y97790D03*
D57*
X248920Y97790D03*
D109*
X416687Y97790D03*
D110*
X80645Y98044D03*
D111*
X248920Y98044D03*
D110*
X417195Y98044D03*
D112*
X80264Y98298D03*
D113*
X248920Y98298D03*
D112*
X417576Y98298D03*
D114*
X79883Y98552D03*
D47*
X248920Y98552D03*
D114*
X417957Y98552D03*
D115*
X79502Y98806D03*
D116*
X248920Y98806D03*
D115*
X418338Y98806D03*
D117*
X79121Y99060D03*
D41*
X248793Y99060D03*
D117*
X418719Y99060D03*
D118*
X78740Y99314D03*
D119*
X248920Y99314D03*
D118*
X419100Y99314D03*
D120*
X78359Y99568D03*
D121*
X248920Y99568D03*
D120*
X419481Y99568D03*
D122*
X77978Y99822D03*
D123*
X248920Y99822D03*
D122*
X419862Y99822D03*
D124*
X77597Y100076D03*
D125*
X248920Y100076D03*
D124*
X420243Y100076D03*
D83*
X77216Y100330D03*
D126*
X248920Y100330D03*
D83*
X420624Y100330D03*
D127*
X76835Y100584D03*
D128*
X248793Y100584D03*
D127*
X421005Y100584D03*
D129*
X76454Y100838D03*
D130*
X248920Y100838D03*
D129*
X421386Y100838D03*
D131*
X76073Y101092D03*
D132*
X248920Y101092D03*
D131*
X421767Y101092D03*
D133*
X75692Y101346D03*
D134*
X248920Y101346D03*
D133*
X422148Y101346D03*
D135*
X75311Y101600D03*
D136*
X248920Y101600D03*
D137*
X422402Y101600D03*
D138*
X75057Y101854D03*
D139*
X248793Y101854D03*
D138*
X422783Y101854D03*
D140*
X74676Y102108D03*
D141*
X248920Y102108D03*
D140*
X423164Y102108D03*
D142*
X74295Y102362D03*
D20*
X248920Y102362D03*
D142*
X423545Y102362D03*
D143*
X73914Y102616D03*
D144*
X248920Y102616D03*
D143*
X423926Y102616D03*
D145*
X73660Y102870D03*
D146*
X248793Y102870D03*
D145*
X424180Y102870D03*
D147*
X73279Y103124D03*
D148*
X248920Y103124D03*
D147*
X424561Y103124D03*
D149*
X72898Y103378D03*
D150*
X248920Y103378D03*
D149*
X424942Y103378D03*
D151*
X72644Y103632D03*
D152*
X248920Y103632D03*
D151*
X425196Y103632D03*
D153*
X72263Y103886D03*
D154*
X248920Y103886D03*
D153*
X425577Y103886D03*
D155*
X71882Y104140D03*
D156*
X248920Y104140D03*
D155*
X425958Y104140D03*
D75*
X71628Y104394D03*
D157*
X248920Y104394D03*
D75*
X426212Y104394D03*
D158*
X71247Y104648D03*
D159*
X248920Y104648D03*
D158*
X426593Y104648D03*
D160*
X70993Y104902D03*
D161*
X248920Y104902D03*
D160*
X426847Y104902D03*
D162*
X70612Y105156D03*
D163*
X248920Y105156D03*
D162*
X427228Y105156D03*
D164*
X70231Y105410D03*
D165*
X248920Y105410D03*
D166*
X427482Y105410D03*
D167*
X69977Y105664D03*
D168*
X248920Y105664D03*
D167*
X427863Y105664D03*
D169*
X69723Y105918D03*
D170*
X248793Y105918D03*
D169*
X428117Y105918D03*
D171*
X69342Y106172D03*
D172*
X248920Y106172D03*
D171*
X428498Y106172D03*
D173*
X69088Y106426D03*
D174*
X248920Y106426D03*
D173*
X428752Y106426D03*
D175*
X68707Y106680D03*
D176*
X248920Y106680D03*
D175*
X429133Y106680D03*
D177*
X68453Y106934D03*
D178*
X248920Y106934D03*
D177*
X429387Y106934D03*
D179*
X68072Y107188D03*
D180*
X248920Y107188D03*
D181*
X429641Y107188D03*
D182*
X67818Y107442D03*
D183*
X248920Y107442D03*
D182*
X430022Y107442D03*
D184*
X67564Y107696D03*
D185*
X248920Y107696D03*
D184*
X430276Y107696D03*
D186*
X67183Y107950D03*
D187*
X248793Y107950D03*
D186*
X430657Y107950D03*
D188*
X66929Y108204D03*
D189*
X248920Y108204D03*
D188*
X430911Y108204D03*
D190*
X66675Y108458D03*
D191*
X248920Y108458D03*
D190*
X431165Y108458D03*
D192*
X66294Y108712D03*
D193*
X248920Y108712D03*
D192*
X431546Y108712D03*
D194*
X66040Y108966D03*
D195*
X248920Y108966D03*
D194*
X431800Y108966D03*
D196*
X65786Y109220D03*
D197*
X248793Y109220D03*
D196*
X432054Y109220D03*
D67*
X65405Y109474D03*
D198*
X248920Y109474D03*
D199*
X432308Y109474D03*
D200*
X65151Y109728D03*
D201*
X248793Y109728D03*
D200*
X432689Y109728D03*
D202*
X64897Y109982D03*
D203*
X248920Y109982D03*
D202*
X432943Y109982D03*
D204*
X64643Y110236D03*
D205*
X248793Y110236D03*
D204*
X433197Y110236D03*
D206*
X64389Y110490D03*
D207*
X248920Y110490D03*
D206*
X433451Y110490D03*
D208*
X64008Y110744D03*
D209*
X248793Y110744D03*
D210*
X433705Y110744D03*
D65*
X63754Y110998D03*
D211*
X248920Y110998D03*
D65*
X434086Y110998D03*
D212*
X63500Y111252D03*
D169*
X183769Y111252D03*
X313817Y111252D03*
D212*
X434340Y111252D03*
D213*
X63246Y111506D03*
D192*
X179832Y111506D03*
D190*
X317627Y111506D03*
D213*
X434594Y111506D03*
D214*
X62992Y111760D03*
D208*
X177038Y111760D03*
D215*
X320294Y111760D03*
D214*
X434848Y111760D03*
D216*
X62738Y112014D03*
D217*
X174752Y112014D03*
D218*
X322453Y112014D03*
D216*
X435102Y112014D03*
D219*
X62357Y112268D03*
D220*
X172847Y112268D03*
D221*
X324485Y112268D03*
D217*
X435356Y112268D03*
D222*
X62103Y112522D03*
D223*
X171069Y112522D03*
D224*
X326136Y112522D03*
D225*
X435610Y112522D03*
D226*
X61849Y112776D03*
D227*
X169291Y112776D03*
D228*
X327660Y112776D03*
D226*
X435991Y112776D03*
D221*
X61595Y113030D03*
D229*
X167894Y113030D03*
D230*
X329311Y113030D03*
D221*
X436245Y113030D03*
D231*
X61341Y113284D03*
D232*
X166497Y113284D03*
D233*
X330708Y113284D03*
D231*
X436499Y113284D03*
D220*
X61087Y113538D03*
D234*
X164973Y113538D03*
D235*
X331978Y113538D03*
D220*
X436753Y113538D03*
D236*
X60833Y113792D03*
D237*
X163703Y113792D03*
D234*
X333375Y113792D03*
D236*
X437007Y113792D03*
D238*
X60579Y114046D03*
D239*
X162433Y114046D03*
D237*
X334645Y114046D03*
D238*
X437261Y114046D03*
D240*
X60325Y114300D03*
D54*
X161290Y114300D03*
D241*
X335788Y114300D03*
D240*
X437515Y114300D03*
D242*
X60071Y114554D03*
D243*
X160020Y114554D03*
D244*
X336931Y114554D03*
D242*
X437769Y114554D03*
D223*
X59817Y114808D03*
D245*
X158877Y114808D03*
D246*
X338201Y114808D03*
D223*
X438023Y114808D03*
D247*
X59563Y115062D03*
D248*
X157861Y115062D03*
D249*
X339217Y115062D03*
D247*
X438277Y115062D03*
D250*
X59309Y115316D03*
D251*
X156718Y115316D03*
D252*
X340233Y115316D03*
D250*
X438531Y115316D03*
D253*
X59055Y115570D03*
D254*
X155702Y115570D03*
D255*
X341249Y115570D03*
D253*
X438785Y115570D03*
D227*
X58801Y115824D03*
D256*
X154813Y115824D03*
D257*
X342265Y115824D03*
D227*
X439039Y115824D03*
D230*
X58547Y116078D03*
D258*
X153670Y116078D03*
D259*
X343281Y116078D03*
D230*
X439293Y116078D03*
D58*
X58293Y116332D03*
D260*
X152654Y116332D03*
D261*
X344170Y116332D03*
D58*
X439547Y116332D03*
D262*
X58039Y116586D03*
D50*
X151765Y116586D03*
D263*
X345313Y116586D03*
D262*
X439801Y116586D03*
D264*
X57785Y116840D03*
D265*
X150876Y116840D03*
D260*
X346202Y116840D03*
D229*
X439928Y116840D03*
D266*
X57531Y117094D03*
D267*
X149987Y117094D03*
D50*
X347091Y117094D03*
D233*
X440182Y117094D03*
D268*
X57404Y117348D03*
D269*
X149098Y117348D03*
D265*
X347980Y117348D03*
D268*
X440436Y117348D03*
D270*
X57150Y117602D03*
D271*
X148209Y117602D03*
D267*
X348869Y117602D03*
D270*
X440690Y117602D03*
D235*
X56896Y117856D03*
D272*
X147320Y117856D03*
D269*
X349758Y117856D03*
D235*
X440944Y117856D03*
D273*
X56642Y118110D03*
D274*
X146431Y118110D03*
D275*
X350520Y118110D03*
D273*
X441198Y118110D03*
D56*
X56388Y118364D03*
D276*
X145669Y118364D03*
D277*
X351409Y118364D03*
D56*
X441452Y118364D03*
D278*
X56134Y118618D03*
D279*
X144780Y118618D03*
D280*
X352171Y118618D03*
D278*
X441706Y118618D03*
D281*
X55880Y118872D03*
D282*
X144018Y118872D03*
D48*
X353060Y118872D03*
D283*
X441833Y118872D03*
D284*
X55753Y119126D03*
D285*
X143256Y119126D03*
D286*
X353822Y119126D03*
D284*
X442087Y119126D03*
D237*
X55499Y119380D03*
D287*
X142367Y119380D03*
D279*
X354584Y119380D03*
D237*
X442341Y119380D03*
D288*
X55245Y119634D03*
D289*
X141605Y119634D03*
D282*
X355346Y119634D03*
D288*
X442595Y119634D03*
D290*
X54991Y119888D03*
D291*
X140843Y119888D03*
D292*
X356235Y119888D03*
D290*
X442849Y119888D03*
D239*
X54737Y120142D03*
D293*
X140081Y120142D03*
D287*
X356997Y120142D03*
D241*
X442976Y120142D03*
D294*
X54610Y120396D03*
D295*
X139319Y120396D03*
D289*
X357759Y120396D03*
D294*
X443230Y120396D03*
D296*
X54356Y120650D03*
D297*
X138557Y120650D03*
D298*
X358394Y120650D03*
D296*
X443484Y120650D03*
D54*
X54102Y120904D03*
D46*
X137922Y120904D03*
D299*
X359156Y120904D03*
D54*
X443738Y120904D03*
D300*
X53848Y121158D03*
D301*
X137160Y121158D03*
D302*
X359918Y121158D03*
D303*
X443865Y121158D03*
D246*
X53721Y121412D03*
D304*
X136398Y121412D03*
D297*
X360553Y121412D03*
D246*
X444119Y121412D03*
D305*
X53467Y121666D03*
D306*
X135636Y121666D03*
D46*
X361188Y121666D03*
D305*
X444373Y121666D03*
D249*
X53213Y121920D03*
D307*
X135128Y121920D03*
D301*
X361950Y121920D03*
D249*
X444627Y121920D03*
D245*
X52959Y122174D03*
D308*
X134366Y122174D03*
D304*
X362712Y122174D03*
D309*
X444754Y122174D03*
D310*
X52832Y122428D03*
D311*
X133731Y122428D03*
D312*
X363347Y122428D03*
D310*
X445008Y122428D03*
D313*
X52578Y122682D03*
D314*
X132969Y122682D03*
D315*
X364109Y122682D03*
D313*
X445262Y122682D03*
D316*
X52324Y122936D03*
D317*
X132334Y122936D03*
D307*
X364744Y122936D03*
D248*
X445389Y122936D03*
D255*
X52197Y123190D03*
D318*
X131699Y123190D03*
D311*
X365379Y123190D03*
D255*
X445643Y123190D03*
D319*
X51943Y123444D03*
D320*
X131064Y123444D03*
D321*
X366014Y123444D03*
D319*
X445897Y123444D03*
D257*
X51689Y123698D03*
D322*
X130429Y123698D03*
D314*
X366649Y123698D03*
D251*
X446024Y123698D03*
D323*
X51562Y123952D03*
D324*
X129794Y123952D03*
D318*
X367411Y123952D03*
D323*
X446278Y123952D03*
D254*
X51308Y124206D03*
D325*
X129159Y124206D03*
D326*
X368046Y124206D03*
D254*
X446532Y124206D03*
D327*
X51054Y124460D03*
D328*
X128397Y124460D03*
D320*
X368554Y124460D03*
D259*
X446659Y124460D03*
D256*
X50927Y124714D03*
D329*
X127889Y124714D03*
D322*
X369189Y124714D03*
D256*
X446913Y124714D03*
D330*
X50673Y124968D03*
D331*
X127254Y124968D03*
D324*
X369824Y124968D03*
D330*
X447167Y124968D03*
D263*
X50419Y125222D03*
D332*
X126619Y125222D03*
D325*
X370459Y125222D03*
D258*
X447294Y125222D03*
D333*
X50292Y125476D03*
D334*
X125984Y125476D03*
D328*
X370967Y125476D03*
D333*
X447548Y125476D03*
D260*
X50038Y125730D03*
D335*
X125476Y125730D03*
D44*
X371602Y125730D03*
D260*
X447802Y125730D03*
D336*
X49911Y125984D03*
D337*
X124841Y125984D03*
D329*
X372237Y125984D03*
D336*
X447929Y125984D03*
D50*
X49657Y126238D03*
D338*
X124206Y126238D03*
D331*
X372872Y126238D03*
D50*
X448183Y126238D03*
D339*
X49403Y126492D03*
D340*
X123698Y126492D03*
D334*
X373380Y126492D03*
D341*
X448310Y126492D03*
D265*
X49276Y126746D03*
D340*
X123190Y126746D03*
D342*
X374015Y126746D03*
D265*
X448564Y126746D03*
D343*
X49022Y127000D03*
D344*
X122555Y127000D03*
D335*
X374650Y127000D03*
D345*
X448691Y127000D03*
D267*
X48895Y127254D03*
D346*
X121920Y127254D03*
D338*
X375158Y127254D03*
D267*
X448945Y127254D03*
D347*
X48641Y127508D03*
D348*
X121412Y127508D03*
D349*
X375793Y127508D03*
D347*
X449199Y127508D03*
D269*
X48514Y127762D03*
D350*
X120777Y127762D03*
D340*
X376428Y127762D03*
D269*
X449326Y127762D03*
D275*
X48260Y128016D03*
D351*
X120396Y128016D03*
D344*
X376809Y128016D03*
D275*
X449580Y128016D03*
D271*
X48133Y128270D03*
D352*
X119761Y128270D03*
D346*
X377444Y128270D03*
D271*
X449707Y128270D03*
D277*
X47879Y128524D03*
D353*
X119126Y128524D03*
D354*
X378079Y128524D03*
D277*
X449961Y128524D03*
D272*
X47752Y128778D03*
D355*
X118745Y128778D03*
D350*
X378587Y128778D03*
D272*
X450088Y128778D03*
D356*
X47498Y129032D03*
D357*
X118110Y129032D03*
D350*
X379095Y129032D03*
D356*
X450342Y129032D03*
D274*
X47371Y129286D03*
D357*
X117602Y129286D03*
D352*
X379603Y129286D03*
D274*
X450469Y129286D03*
D276*
X47117Y129540D03*
D358*
X117094Y129540D03*
D352*
X380111Y129540D03*
D276*
X450723Y129540D03*
D286*
X46990Y129794D03*
D359*
X116459Y129794D03*
D353*
X380746Y129794D03*
D286*
X450850Y129794D03*
D279*
X46736Y130048D03*
D360*
X116078Y130048D03*
D357*
X381254Y130048D03*
D279*
X451104Y130048D03*
D361*
X46609Y130302D03*
D362*
X115443Y130302D03*
D357*
X381762Y130302D03*
D361*
X451231Y130302D03*
D363*
X46355Y130556D03*
D362*
X114935Y130556D03*
D358*
X382270Y130556D03*
D363*
X451485Y130556D03*
D285*
X46228Y130810D03*
D42*
X114554Y130810D03*
D358*
X382778Y130810D03*
D285*
X451612Y130810D03*
D364*
X45974Y131064D03*
D365*
X113919Y131064D03*
D360*
X383286Y131064D03*
D364*
X451866Y131064D03*
D287*
X45847Y131318D03*
D366*
X113538Y131318D03*
D360*
X383794Y131318D03*
D287*
X451993Y131318D03*
D289*
X45593Y131572D03*
D367*
X112903Y131572D03*
D362*
X384429Y131572D03*
D368*
X452120Y131572D03*
D298*
X45466Y131826D03*
D369*
X112522Y131826D03*
D42*
X384810Y131826D03*
D298*
X452374Y131826D03*
D299*
X45212Y132080D03*
D369*
X112014Y132080D03*
D42*
X385318Y132080D03*
D291*
X452501Y132080D03*
D293*
X45085Y132334D03*
D370*
X111506Y132334D03*
D366*
X385826Y132334D03*
D293*
X452755Y132334D03*
D302*
X44958Y132588D03*
D370*
X110998Y132588D03*
D366*
X386334Y132588D03*
D302*
X452882Y132588D03*
D371*
X44704Y132842D03*
D372*
X110617Y132842D03*
D367*
X386715Y132842D03*
D371*
X453136Y132842D03*
D297*
X44577Y133096D03*
D373*
X109982Y133096D03*
D369*
X387350Y133096D03*
D297*
X453263Y133096D03*
D374*
X44323Y133350D03*
D375*
X109601Y133350D03*
D376*
X387731Y133350D03*
D46*
X453390Y133350D03*
D301*
X44196Y133604D03*
D375*
X109093Y133604D03*
D376*
X388239Y133604D03*
D301*
X453644Y133604D03*
D377*
X44069Y133858D03*
D378*
X108712Y133858D03*
D372*
X388747Y133858D03*
D377*
X453771Y133858D03*
D312*
X43815Y134112D03*
D379*
X108077Y134112D03*
D372*
X389255Y134112D03*
D312*
X454025Y134112D03*
D306*
X43688Y134366D03*
D380*
X107696Y134366D03*
D373*
X389636Y134366D03*
D306*
X454152Y134366D03*
D315*
X43561Y134620D03*
D380*
X107188Y134620D03*
D373*
X390144Y134620D03*
D315*
X454279Y134620D03*
D381*
X43307Y134874D03*
D382*
X106807Y134874D03*
D378*
X390652Y134874D03*
D381*
X454533Y134874D03*
D308*
X43180Y135128D03*
D382*
X106299Y135128D03*
D379*
X391033Y135128D03*
D308*
X454660Y135128D03*
D321*
X42926Y135382D03*
D383*
X105918Y135382D03*
D379*
X391541Y135382D03*
D311*
X454787Y135382D03*
D314*
X42799Y135636D03*
D384*
X105537Y135636D03*
D380*
X391922Y135636D03*
D314*
X455041Y135636D03*
D317*
X42672Y135890D03*
D384*
X105029Y135890D03*
D380*
X392430Y135890D03*
D317*
X455168Y135890D03*
D326*
X42418Y136144D03*
D385*
X104521Y136144D03*
D382*
X392811Y136144D03*
D318*
X455295Y136144D03*
D386*
X42291Y136398D03*
D385*
X104013Y136398D03*
D383*
X393446Y136398D03*
D386*
X455549Y136398D03*
D320*
X42164Y136652D03*
D387*
X103632Y136652D03*
D384*
X393827Y136652D03*
D320*
X455676Y136652D03*
D324*
X41910Y136906D03*
D387*
X103124Y136906D03*
D388*
X394208Y136906D03*
D322*
X455803Y136906D03*
D325*
X41783Y137160D03*
D389*
X102743Y137160D03*
D388*
X394716Y137160D03*
D325*
X456057Y137160D03*
D390*
X41656Y137414D03*
D391*
X102362Y137414D03*
D385*
X395097Y137414D03*
D390*
X456184Y137414D03*
D328*
X41529Y137668D03*
D391*
X101854Y137668D03*
D387*
X395478Y137668D03*
D328*
X456311Y137668D03*
D329*
X41275Y137922D03*
D392*
X101473Y137922D03*
D387*
X395986Y137922D03*
D329*
X456565Y137922D03*
D331*
X41148Y138176D03*
D393*
X101092Y138176D03*
D389*
X396367Y138176D03*
D331*
X456692Y138176D03*
D332*
X41021Y138430D03*
D393*
X100584Y138430D03*
D389*
X396875Y138430D03*
D332*
X456819Y138430D03*
D342*
X40767Y138684D03*
D393*
X100330Y138684D03*
D391*
X397256Y138684D03*
D334*
X456946Y138684D03*
D335*
X40640Y138938D03*
D393*
X99822Y138938D03*
D392*
X397637Y138938D03*
D335*
X457200Y138938D03*
D337*
X40513Y139192D03*
D394*
X99441Y139192D03*
D392*
X398145Y139192D03*
D337*
X457327Y139192D03*
D338*
X40386Y139446D03*
D395*
X99060Y139446D03*
D393*
X398526Y139446D03*
D338*
X457454Y139446D03*
D340*
X40132Y139700D03*
D395*
X98552Y139700D03*
D394*
X398907Y139700D03*
D349*
X457581Y139700D03*
D344*
X40005Y139954D03*
D396*
X98171Y139954D03*
D394*
X399415Y139954D03*
D344*
X457835Y139954D03*
D346*
X39878Y140208D03*
D397*
X97790Y140208D03*
D395*
X399796Y140208D03*
D346*
X457962Y140208D03*
D354*
X39751Y140462D03*
D398*
X97409Y140462D03*
D395*
X400050Y140462D03*
D354*
X458089Y140462D03*
D350*
X39497Y140716D03*
D397*
X97028Y140716D03*
D395*
X400558Y140716D03*
D348*
X458216Y140716D03*
D351*
X39370Y140970D03*
D398*
X96647Y140970D03*
D396*
X400939Y140970D03*
D351*
X458470Y140970D03*
D352*
X39243Y141224D03*
D399*
X96266Y141224D03*
D397*
X401320Y141224D03*
D352*
X458597Y141224D03*
D353*
X39116Y141478D03*
D399*
X95758Y141478D03*
D398*
X401701Y141478D03*
D353*
X458724Y141478D03*
D355*
X38989Y141732D03*
D400*
X95377Y141732D03*
D398*
X402209Y141732D03*
D355*
X458851Y141732D03*
D401*
X38735Y141986D03*
D400*
X95123Y141986D03*
D399*
X402590Y141986D03*
D357*
X458978Y141986D03*
D358*
X38608Y142240D03*
D402*
X94742Y142240D03*
D399*
X402844Y142240D03*
D358*
X459232Y142240D03*
D359*
X38481Y142494D03*
D402*
X94234Y142494D03*
D399*
X403352Y142494D03*
D359*
X459359Y142494D03*
D360*
X38354Y142748D03*
D403*
X93853Y142748D03*
D400*
X403733Y142748D03*
D360*
X459486Y142748D03*
D362*
X38227Y143002D03*
D403*
X93599Y143002D03*
D402*
X404114Y143002D03*
D362*
X459613Y143002D03*
D365*
X37973Y143256D03*
D403*
X93091Y143256D03*
D402*
X404368Y143256D03*
D42*
X459740Y143256D03*
D366*
X37846Y143510D03*
D39*
X92710Y143510D03*
D402*
X404876Y143510D03*
D366*
X459994Y143510D03*
D367*
X37719Y143764D03*
D404*
X92329Y143764D03*
D403*
X405257Y143764D03*
D367*
X460121Y143764D03*
D369*
X37592Y144018D03*
D404*
X92075Y144018D03*
D39*
X405638Y144018D03*
D369*
X460248Y144018D03*
D376*
X37465Y144272D03*
D405*
X91694Y144272D03*
D39*
X405892Y144272D03*
D376*
X460375Y144272D03*
D370*
X37338Y144526D03*
D405*
X91186Y144526D03*
D404*
X406273Y144526D03*
D370*
X460502Y144526D03*
D373*
X37084Y144780D03*
D405*
X90932Y144780D03*
D404*
X406781Y144780D03*
D372*
X460629Y144780D03*
D375*
X36957Y145034D03*
D406*
X90551Y145034D03*
D405*
X407162Y145034D03*
D375*
X460883Y145034D03*
D378*
X36830Y145288D03*
D407*
X90170Y145288D03*
D405*
X407416Y145288D03*
D378*
X461010Y145288D03*
D379*
X36703Y145542D03*
D406*
X89789Y145542D03*
X407797Y145542D03*
D379*
X461137Y145542D03*
D380*
X36576Y145796D03*
D407*
X89408Y145796D03*
X408178Y145796D03*
D380*
X461264Y145796D03*
D382*
X36449Y146050D03*
D407*
X89154Y146050D03*
D406*
X408559Y146050D03*
D382*
X461391Y146050D03*
D383*
X36322Y146304D03*
D408*
X88773Y146304D03*
D407*
X408940Y146304D03*
D383*
X461518Y146304D03*
D388*
X36068Y146558D03*
D409*
X88392Y146558D03*
D407*
X409194Y146558D03*
D384*
X461645Y146558D03*
D385*
X35941Y146812D03*
D409*
X88138Y146812D03*
D408*
X409575Y146812D03*
D388*
X461772Y146812D03*
D387*
X35814Y147066D03*
D409*
X87630Y147066D03*
X409956Y147066D03*
D387*
X462026Y147066D03*
D389*
X35687Y147320D03*
D409*
X87376Y147320D03*
D408*
X410337Y147320D03*
D389*
X462153Y147320D03*
D391*
X35560Y147574D03*
D410*
X86995Y147574D03*
D409*
X410718Y147574D03*
D391*
X462280Y147574D03*
D392*
X35433Y147828D03*
D410*
X86741Y147828D03*
D409*
X410972Y147828D03*
D392*
X462407Y147828D03*
D393*
X35306Y148082D03*
D411*
X86360Y148082D03*
D410*
X411353Y148082D03*
D393*
X462534Y148082D03*
D394*
X35179Y148336D03*
D411*
X86106Y148336D03*
X411734Y148336D03*
D394*
X462661Y148336D03*
D395*
X35052Y148590D03*
D411*
X85598Y148590D03*
X411988Y148590D03*
D395*
X462788Y148590D03*
D396*
X34925Y148844D03*
D411*
X85344Y148844D03*
D412*
X412369Y148844D03*
D396*
X462915Y148844D03*
D397*
X34798Y149098D03*
D412*
X84963Y149098D03*
D411*
X412750Y149098D03*
D397*
X463042Y149098D03*
D399*
X34544Y149352D03*
D412*
X84709Y149352D03*
X413131Y149352D03*
D398*
X463169Y149352D03*
D400*
X34417Y149606D03*
D413*
X84328Y149606D03*
D412*
X413385Y149606D03*
D399*
X463296Y149606D03*
D402*
X34290Y149860D03*
D413*
X84074Y149860D03*
X413766Y149860D03*
D400*
X463423Y149860D03*
D403*
X34163Y150114D03*
D414*
X83693Y150114D03*
D413*
X414020Y150114D03*
D402*
X463550Y150114D03*
D39*
X34036Y150368D03*
D414*
X83439Y150368D03*
X414401Y150368D03*
D39*
X463804Y150368D03*
D404*
X33909Y150622D03*
D415*
X83058Y150622D03*
D414*
X414655Y150622D03*
D404*
X463931Y150622D03*
D405*
X33782Y150876D03*
D414*
X82677Y150876D03*
D415*
X415036Y150876D03*
D405*
X464058Y150876D03*
D406*
X33655Y151130D03*
D415*
X82296Y151130D03*
X415290Y151130D03*
D406*
X464185Y151130D03*
D407*
X33528Y151384D03*
D415*
X82042Y151384D03*
D416*
X415671Y151384D03*
D407*
X464312Y151384D03*
D408*
X33401Y151638D03*
D415*
X81788Y151638D03*
X416052Y151638D03*
D408*
X464439Y151638D03*
D409*
X33274Y151892D03*
D416*
X81407Y151892D03*
X416433Y151892D03*
D409*
X464566Y151892D03*
D410*
X33147Y152146D03*
D416*
X81153Y152146D03*
X416687Y152146D03*
D410*
X464693Y152146D03*
D411*
X33020Y152400D03*
D417*
X80772Y152400D03*
X417068Y152400D03*
D411*
X464820Y152400D03*
D412*
X32893Y152654D03*
D417*
X80518Y152654D03*
X417322Y152654D03*
D412*
X464947Y152654D03*
D413*
X32766Y152908D03*
D417*
X80264Y152908D03*
X417576Y152908D03*
D413*
X465074Y152908D03*
D414*
X32639Y153162D03*
D418*
X79883Y153162D03*
X417957Y153162D03*
D414*
X465201Y153162D03*
D415*
X32512Y153416D03*
D418*
X79629Y153416D03*
X418211Y153416D03*
D415*
X465328Y153416D03*
D416*
X32385Y153670D03*
D419*
X79248Y153670D03*
X418592Y153670D03*
D416*
X465455Y153670D03*
D417*
X32258Y153924D03*
D419*
X78994Y153924D03*
X418846Y153924D03*
D417*
X465582Y153924D03*
D418*
X32131Y154178D03*
D419*
X78740Y154178D03*
X419100Y154178D03*
D418*
X465709Y154178D03*
D419*
X32004Y154432D03*
D420*
X78359Y154432D03*
X419481Y154432D03*
D419*
X465836Y154432D03*
D420*
X31877Y154686D03*
X78105Y154686D03*
X419735Y154686D03*
X465963Y154686D03*
D421*
X31750Y154940D03*
D420*
X77851Y154940D03*
X419989Y154940D03*
D421*
X466090Y154940D03*
D422*
X31623Y155194D03*
D420*
X77597Y155194D03*
D421*
X420370Y155194D03*
D422*
X466217Y155194D03*
D423*
X31496Y155448D03*
D421*
X77216Y155448D03*
X420624Y155448D03*
D423*
X466344Y155448D03*
D424*
X31369Y155702D03*
D421*
X76962Y155702D03*
X420878Y155702D03*
D424*
X466471Y155702D03*
D425*
X31242Y155956D03*
D421*
X76708Y155956D03*
D422*
X421259Y155956D03*
D424*
X466471Y155956D03*
D426*
X31115Y156210D03*
D422*
X76327Y156210D03*
X421513Y156210D03*
D425*
X466598Y156210D03*
D427*
X30988Y156464D03*
D422*
X76073Y156464D03*
X421767Y156464D03*
D426*
X466725Y156464D03*
D428*
X30861Y156718D03*
D422*
X75819Y156718D03*
D423*
X422148Y156718D03*
D427*
X466852Y156718D03*
D428*
X30861Y156972D03*
D422*
X75565Y156972D03*
D423*
X422402Y156972D03*
D428*
X466979Y156972D03*
D429*
X30734Y157226D03*
D423*
X75184Y157226D03*
X422656Y157226D03*
D429*
X467106Y157226D03*
D430*
X30607Y157480D03*
D423*
X74930Y157480D03*
X422910Y157480D03*
D430*
X467233Y157480D03*
D431*
X30480Y157734D03*
D423*
X74676Y157734D03*
D424*
X423291Y157734D03*
D431*
X467360Y157734D03*
D432*
X30353Y157988D03*
D423*
X74422Y157988D03*
D424*
X423545Y157988D03*
D432*
X467487Y157988D03*
D433*
X30226Y158242D03*
D424*
X74041Y158242D03*
X423799Y158242D03*
D433*
X467614Y158242D03*
D434*
X30099Y158496D03*
D424*
X73787Y158496D03*
D425*
X424180Y158496D03*
D434*
X467741Y158496D03*
D435*
X29972Y158750D03*
D424*
X73533Y158750D03*
D425*
X424434Y158750D03*
D435*
X467868Y158750D03*
D436*
X29845Y159004D03*
D424*
X73279Y159004D03*
D425*
X424688Y159004D03*
D436*
X467995Y159004D03*
D437*
X29718Y159258D03*
D425*
X72898Y159258D03*
X424942Y159258D03*
D437*
X468122Y159258D03*
D438*
X29591Y159512D03*
D425*
X72644Y159512D03*
X425196Y159512D03*
D437*
X468122Y159512D03*
D439*
X29464Y159766D03*
D425*
X72390Y159766D03*
D426*
X425577Y159766D03*
D438*
X468249Y159766D03*
D439*
X29464Y160020D03*
D425*
X72136Y160020D03*
D426*
X425831Y160020D03*
D439*
X468376Y160020D03*
D440*
X29337Y160274D03*
D425*
X71882Y160274D03*
D426*
X426085Y160274D03*
D440*
X468503Y160274D03*
D37*
X29210Y160528D03*
D425*
X71628Y160528D03*
D427*
X426212Y160528D03*
D37*
X468630Y160528D03*
D441*
X29083Y160782D03*
D426*
X71247Y160782D03*
D427*
X426466Y160782D03*
D441*
X468757Y160782D03*
D442*
X28956Y161036D03*
D426*
X70993Y161036D03*
D428*
X426847Y161036D03*
D442*
X468884Y161036D03*
D443*
X28829Y161290D03*
D427*
X70866Y161290D03*
D428*
X427101Y161290D03*
D443*
X469011Y161290D03*
D444*
X28702Y161544D03*
D427*
X70612Y161544D03*
D428*
X427355Y161544D03*
D443*
X469011Y161544D03*
D445*
X28575Y161798D03*
D427*
X70358Y161798D03*
D428*
X427609Y161798D03*
D444*
X469138Y161798D03*
D445*
X28575Y162052D03*
D427*
X70104Y162052D03*
D428*
X427863Y162052D03*
D445*
X469265Y162052D03*
D446*
X28448Y162306D03*
D427*
X69850Y162306D03*
D429*
X428244Y162306D03*
D446*
X469392Y162306D03*
D447*
X28321Y162560D03*
D428*
X69469Y162560D03*
D429*
X428498Y162560D03*
D447*
X469519Y162560D03*
D448*
X28194Y162814D03*
D428*
X69215Y162814D03*
D449*
X241046Y162814D03*
D429*
X428752Y162814D03*
D448*
X469646Y162814D03*
D450*
X28067Y163068D03*
D428*
X68961Y163068D03*
D451*
X242062Y163068D03*
D430*
X428879Y163068D03*
D450*
X469773Y163068D03*
D452*
X27940Y163322D03*
D428*
X68707Y163322D03*
D426*
X242697Y163322D03*
D430*
X429133Y163322D03*
D450*
X469773Y163322D03*
D452*
X27940Y163576D03*
D429*
X68580Y163576D03*
D397*
X243078Y163576D03*
D430*
X429387Y163576D03*
D452*
X469900Y163576D03*
D453*
X27813Y163830D03*
D429*
X68326Y163830D03*
D366*
X243332Y163830D03*
D430*
X429641Y163830D03*
D453*
X470027Y163830D03*
D454*
X27686Y164084D03*
D429*
X68072Y164084D03*
D337*
X243459Y164084D03*
D430*
X429895Y164084D03*
D454*
X470154Y164084D03*
D455*
X27559Y164338D03*
D429*
X67818Y164338D03*
D314*
X243713Y164338D03*
D431*
X430276Y164338D03*
D455*
X470281Y164338D03*
D456*
X27432Y164592D03*
D429*
X67564Y164592D03*
D293*
X243967Y164592D03*
D431*
X430530Y164592D03*
D456*
X470408Y164592D03*
D457*
X27305Y164846D03*
D429*
X67310Y164846D03*
D286*
X244094Y164846D03*
D431*
X430784Y164846D03*
D456*
X470408Y164846D03*
D457*
X27305Y165100D03*
D430*
X66929Y165100D03*
D267*
X244221Y165100D03*
D432*
X430911Y165100D03*
D457*
X470535Y165100D03*
D458*
X27178Y165354D03*
D431*
X66802Y165354D03*
D330*
X244475Y165354D03*
D432*
X431165Y165354D03*
D458*
X470662Y165354D03*
D459*
X27051Y165608D03*
D431*
X66548Y165608D03*
D316*
X244602Y165608D03*
D432*
X431419Y165608D03*
D459*
X470789Y165608D03*
D460*
X26924Y165862D03*
D431*
X66294Y165862D03*
D300*
X244602Y165862D03*
D432*
X431673Y165862D03*
D460*
X470916Y165862D03*
D461*
X26797Y166116D03*
D431*
X66040Y166116D03*
D288*
X244729Y166116D03*
D432*
X431927Y166116D03*
D460*
X470916Y166116D03*
D461*
X26797Y166370D03*
D431*
X65786Y166370D03*
D462*
X244729Y166370D03*
D432*
X432181Y166370D03*
D461*
X471043Y166370D03*
D463*
X26670Y166624D03*
D431*
X65532Y166624D03*
D464*
X244856Y166624D03*
D433*
X432308Y166624D03*
D463*
X471170Y166624D03*
D465*
X26543Y166878D03*
D432*
X65405Y166878D03*
D250*
X244983Y166878D03*
D433*
X432562Y166878D03*
D465*
X471297Y166878D03*
D451*
X26416Y167132D03*
D432*
X65151Y167132D03*
D466*
X245110Y167132D03*
D433*
X432816Y167132D03*
D451*
X471424Y167132D03*
D467*
X26289Y167386D03*
D432*
X64897Y167386D03*
D226*
X245237Y167386D03*
D433*
X433070Y167386D03*
D451*
X471424Y167386D03*
D467*
X26289Y167640D03*
D432*
X64643Y167640D03*
D214*
X245110Y167640D03*
D433*
X433324Y167640D03*
D467*
X471551Y167640D03*
D468*
X26162Y167894D03*
D432*
X64389Y167894D03*
D210*
X245237Y167894D03*
D433*
X433578Y167894D03*
D468*
X471678Y167894D03*
D469*
X26035Y168148D03*
D432*
X64135Y168148D03*
D470*
X245364Y168148D03*
D434*
X433705Y168148D03*
D469*
X471805Y168148D03*
D471*
X25908Y168402D03*
D433*
X64008Y168402D03*
D192*
X245364Y168402D03*
D434*
X433959Y168402D03*
D469*
X471805Y168402D03*
D471*
X25908Y168656D03*
D433*
X63754Y168656D03*
D472*
X245364Y168656D03*
D434*
X434213Y168656D03*
D471*
X471932Y168656D03*
D473*
X25781Y168910D03*
D433*
X63500Y168910D03*
D181*
X245491Y168910D03*
D434*
X434467Y168910D03*
D473*
X472059Y168910D03*
D474*
X25654Y169164D03*
D433*
X63246Y169164D03*
D475*
X245491Y169164D03*
D434*
X434721Y169164D03*
D474*
X472186Y169164D03*
D476*
X25527Y169418D03*
D433*
X62992Y169418D03*
D73*
X245618Y169418D03*
D435*
X434848Y169418D03*
D476*
X472313Y169418D03*
X25527Y169672D03*
D434*
X62865Y169672D03*
D477*
X245618Y169672D03*
D435*
X435102Y169672D03*
D476*
X472313Y169672D03*
D478*
X25400Y169926D03*
D434*
X62611Y169926D03*
D479*
X245745Y169926D03*
D435*
X435356Y169926D03*
D478*
X472440Y169926D03*
D480*
X25273Y170180D03*
D434*
X62357Y170180D03*
D481*
X245745Y170180D03*
D435*
X435610Y170180D03*
D480*
X472567Y170180D03*
D482*
X25146Y170434D03*
D434*
X62103Y170434D03*
D483*
X245745Y170434D03*
D436*
X435737Y170434D03*
D480*
X472567Y170434D03*
D482*
X25146Y170688D03*
D435*
X61976Y170688D03*
D484*
X245745Y170688D03*
D436*
X435991Y170688D03*
D482*
X472694Y170688D03*
D485*
X25019Y170942D03*
D435*
X61722Y170942D03*
D135*
X245745Y170942D03*
D436*
X436245Y170942D03*
D485*
X472821Y170942D03*
D486*
X24892Y171196D03*
D435*
X61468Y171196D03*
D487*
X245872Y171196D03*
D436*
X436499Y171196D03*
D486*
X472948Y171196D03*
D488*
X24765Y171450D03*
D434*
X61341Y171450D03*
D489*
X245872Y171450D03*
D437*
X436626Y171450D03*
D486*
X472948Y171450D03*
D488*
X24765Y171704D03*
D435*
X61214Y171704D03*
D490*
X245872Y171704D03*
D437*
X436880Y171704D03*
D488*
X473075Y171704D03*
D491*
X24638Y171958D03*
D435*
X60960Y171958D03*
D120*
X245999Y171958D03*
D437*
X437134Y171958D03*
D491*
X473202Y171958D03*
D492*
X24511Y172212D03*
D435*
X60706Y172212D03*
D117*
X245999Y172212D03*
D437*
X437388Y172212D03*
D492*
X473329Y172212D03*
D493*
X24384Y172466D03*
D435*
X60452Y172466D03*
D114*
X245999Y172466D03*
D438*
X437515Y172466D03*
D492*
X473329Y172466D03*
D493*
X24384Y172720D03*
D436*
X60325Y172720D03*
D494*
X246126Y172720D03*
D438*
X437769Y172720D03*
D493*
X473456Y172720D03*
D495*
X24257Y172974D03*
D436*
X60071Y172974D03*
D109*
X245999Y172974D03*
D438*
X438023Y172974D03*
D495*
X473583Y172974D03*
D496*
X24130Y173228D03*
D436*
X59817Y173228D03*
D106*
X245999Y173228D03*
D438*
X438277Y173228D03*
D495*
X473583Y173228D03*
D496*
X24130Y173482D03*
D436*
X59563Y173482D03*
D497*
X246126Y173482D03*
D439*
X438404Y173482D03*
D496*
X473710Y173482D03*
D498*
X24003Y173736D03*
D437*
X59436Y173736D03*
D102*
X245999Y173736D03*
D439*
X438658Y173736D03*
D498*
X473837Y173736D03*
D499*
X23876Y173990D03*
D437*
X59182Y173990D03*
D500*
X246126Y173990D03*
D438*
X438785Y173990D03*
D498*
X473837Y173990D03*
D499*
X23876Y174244D03*
D436*
X59055Y174244D03*
D501*
X246126Y174244D03*
D438*
X439039Y174244D03*
D499*
X473964Y174244D03*
D502*
X23749Y174498D03*
D436*
X58801Y174498D03*
D503*
X246126Y174498D03*
D439*
X439166Y174498D03*
D502*
X474091Y174498D03*
D504*
X23622Y174752D03*
D437*
X58674Y174752D03*
D505*
X246126Y174752D03*
D439*
X439420Y174752D03*
D504*
X474218Y174752D03*
X23622Y175006D03*
D437*
X58420Y175006D03*
D506*
X246253Y175006D03*
D439*
X439674Y175006D03*
D504*
X474218Y175006D03*
D507*
X23495Y175260D03*
D437*
X58166Y175260D03*
D84*
X246253Y175260D03*
D440*
X439801Y175260D03*
D507*
X474345Y175260D03*
D508*
X23368Y175514D03*
D438*
X58039Y175514D03*
D509*
X246126Y175514D03*
D440*
X440055Y175514D03*
D508*
X474472Y175514D03*
X23368Y175768D03*
D438*
X57785Y175768D03*
D510*
X246253Y175768D03*
D440*
X440309Y175768D03*
D508*
X474472Y175768D03*
D511*
X23241Y176022D03*
D438*
X57531Y176022D03*
D512*
X246253Y176022D03*
D439*
X440436Y176022D03*
D511*
X474599Y176022D03*
D513*
X23114Y176276D03*
D438*
X57531Y176276D03*
D514*
X246253Y176276D03*
D440*
X440563Y176276D03*
D513*
X474726Y176276D03*
X23114Y176530D03*
D438*
X57277Y176530D03*
D515*
X246253Y176530D03*
D440*
X440817Y176530D03*
D513*
X474726Y176530D03*
D516*
X22987Y176784D03*
D438*
X57023Y176784D03*
D517*
X246253Y176784D03*
D440*
X441071Y176784D03*
D516*
X474853Y176784D03*
D518*
X22860Y177038D03*
D439*
X56896Y177038D03*
D519*
X246253Y177038D03*
D37*
X441198Y177038D03*
D518*
X474980Y177038D03*
X22860Y177292D03*
D439*
X56642Y177292D03*
D520*
X246253Y177292D03*
D37*
X441452Y177292D03*
D518*
X474980Y177292D03*
D521*
X22733Y177546D03*
D439*
X56388Y177546D03*
D522*
X246253Y177546D03*
D440*
X441579Y177546D03*
D521*
X475107Y177546D03*
D523*
X22606Y177800D03*
D439*
X56388Y177800D03*
D524*
X246253Y177800D03*
D37*
X441706Y177800D03*
D521*
X475107Y177800D03*
D523*
X22606Y178054D03*
D439*
X56134Y178054D03*
D525*
X246253Y178054D03*
D37*
X441960Y178054D03*
D523*
X475234Y178054D03*
D526*
X22479Y178308D03*
D439*
X55880Y178308D03*
D527*
X246253Y178308D03*
D37*
X442214Y178308D03*
D526*
X475361Y178308D03*
D528*
X22352Y178562D03*
D440*
X55753Y178562D03*
D59*
X246253Y178562D03*
D441*
X442341Y178562D03*
D526*
X475361Y178562D03*
D528*
X22352Y178816D03*
D440*
X55499Y178816D03*
D529*
X246380Y178816D03*
D441*
X442595Y178816D03*
D528*
X475488Y178816D03*
D530*
X22225Y179070D03*
D439*
X55372Y179070D03*
D111*
X246380Y179070D03*
D37*
X442722Y179070D03*
D530*
X475615Y179070D03*
X22225Y179324D03*
D440*
X55245Y179324D03*
D531*
X246253Y179324D03*
D441*
X442849Y179324D03*
D530*
X475615Y179324D03*
D532*
X22098Y179578D03*
D440*
X54991Y179578D03*
D533*
X246253Y179578D03*
D441*
X443103Y179578D03*
D532*
X475742Y179578D03*
D534*
X21971Y179832D03*
D440*
X54737Y179832D03*
D535*
X246380Y179832D03*
D441*
X443357Y179832D03*
D534*
X475869Y179832D03*
X21971Y180086D03*
D37*
X54610Y180086D03*
D536*
X246253Y180086D03*
D442*
X443484Y180086D03*
D534*
X475869Y180086D03*
D537*
X21844Y180340D03*
D440*
X54483Y180340D03*
D538*
X246253Y180340D03*
D441*
X443611Y180340D03*
D537*
X475996Y180340D03*
D539*
X21717Y180594D03*
D440*
X54229Y180594D03*
D540*
X246380Y180594D03*
D442*
X443738Y180594D03*
D537*
X475996Y180594D03*
D539*
X21717Y180848D03*
D37*
X54102Y180848D03*
D541*
X246253Y180848D03*
D442*
X443992Y180848D03*
D539*
X476123Y180848D03*
D35*
X21590Y181102D03*
D37*
X53848Y181102D03*
D542*
X246253Y181102D03*
D442*
X444246Y181102D03*
D35*
X476250Y181102D03*
X21590Y181356D03*
D440*
X53721Y181356D03*
D543*
X246380Y181356D03*
D442*
X444246Y181356D03*
D35*
X476250Y181356D03*
D544*
X21463Y181610D03*
D37*
X53594Y181610D03*
D545*
X246253Y181610D03*
D442*
X444500Y181610D03*
D544*
X476377Y181610D03*
D546*
X21336Y181864D03*
D37*
X53340Y181864D03*
D38*
X246380Y181864D03*
D442*
X444754Y181864D03*
D544*
X476377Y181864D03*
D546*
X21336Y182118D03*
D441*
X53213Y182118D03*
D547*
X246253Y182118D03*
D443*
X444881Y182118D03*
D546*
X476504Y182118D03*
D548*
X21209Y182372D03*
D37*
X53086Y182372D03*
D36*
X246380Y182372D03*
D442*
X445008Y182372D03*
D548*
X476631Y182372D03*
X21209Y182626D03*
D37*
X52832Y182626D03*
D549*
X246253Y182626D03*
D443*
X445135Y182626D03*
D548*
X476631Y182626D03*
D550*
X21082Y182880D03*
D441*
X52705Y182880D03*
D551*
X246253Y182880D03*
D443*
X445389Y182880D03*
D550*
X476758Y182880D03*
X21082Y183134D03*
D441*
X52451Y183134D03*
D552*
X246253Y183134D03*
D443*
X445643Y183134D03*
D550*
X476758Y183134D03*
D553*
X20955Y183388D03*
D441*
X52451Y183388D03*
D33*
X246253Y183388D03*
D443*
X445643Y183388D03*
D553*
X476885Y183388D03*
D554*
X20828Y183642D03*
D441*
X52197Y183642D03*
D555*
X246253Y183642D03*
D443*
X445897Y183642D03*
D553*
X476885Y183642D03*
D554*
X20828Y183896D03*
D441*
X51943Y183896D03*
D32*
X246253Y183896D03*
D444*
X446024Y183896D03*
D554*
X477012Y183896D03*
D556*
X20701Y184150D03*
D441*
X51943Y184150D03*
D557*
X246126Y184150D03*
D444*
X446278Y184150D03*
D556*
X477139Y184150D03*
X20701Y184404D03*
D441*
X51689Y184404D03*
D31*
X246253Y184404D03*
D443*
X446405Y184404D03*
D556*
X477139Y184404D03*
D558*
X20574Y184658D03*
D442*
X51562Y184658D03*
D559*
X246253Y184658D03*
D444*
X446532Y184658D03*
D558*
X477266Y184658D03*
X20574Y184912D03*
D442*
X51308Y184912D03*
D560*
X246126Y184912D03*
D444*
X446786Y184912D03*
D558*
X477266Y184912D03*
D561*
X20447Y185166D03*
D442*
X51308Y185166D03*
D30*
X246126Y185166D03*
D444*
X446786Y185166D03*
D561*
X477393Y185166D03*
D562*
X20320Y185420D03*
D442*
X51054Y185420D03*
D128*
X246253Y185420D03*
D444*
X447040Y185420D03*
D561*
X477393Y185420D03*
D562*
X20320Y185674D03*
D442*
X50800Y185674D03*
D28*
X246126Y185674D03*
D445*
X447167Y185674D03*
D562*
X477520Y185674D03*
D563*
X20193Y185928D03*
D442*
X50800Y185928D03*
D564*
X246126Y185928D03*
D444*
X447294Y185928D03*
D562*
X477520Y185928D03*
D563*
X20193Y186182D03*
D442*
X50546Y186182D03*
D130*
X246126Y186182D03*
D444*
X447548Y186182D03*
D563*
X477647Y186182D03*
D565*
X20066Y186436D03*
D443*
X50419Y186436D03*
D27*
X246253Y186436D03*
D445*
X447675Y186436D03*
D563*
X477647Y186436D03*
D565*
X20066Y186690D03*
D442*
X50292Y186690D03*
D132*
X246126Y186690D03*
D444*
X447802Y186690D03*
D565*
X477774Y186690D03*
D566*
X19939Y186944D03*
D443*
X50165Y186944D03*
D567*
X246126Y186944D03*
D445*
X447929Y186944D03*
D566*
X477901Y186944D03*
X19939Y187198D03*
D443*
X49911Y187198D03*
D568*
X246126Y187198D03*
D445*
X448183Y187198D03*
D566*
X477901Y187198D03*
D569*
X19812Y187452D03*
D443*
X49911Y187452D03*
D570*
X246126Y187452D03*
D445*
X448183Y187452D03*
D569*
X478028Y187452D03*
X19812Y187706D03*
D443*
X49657Y187706D03*
D134*
X246126Y187706D03*
D445*
X448437Y187706D03*
D569*
X478028Y187706D03*
D571*
X19685Y187960D03*
D443*
X49403Y187960D03*
D572*
X245999Y187960D03*
D446*
X448564Y187960D03*
D571*
X478155Y187960D03*
X19685Y188214D03*
D443*
X49403Y188214D03*
D573*
X245999Y188214D03*
D445*
X448691Y188214D03*
D571*
X478155Y188214D03*
D574*
X19558Y188468D03*
D443*
X49149Y188468D03*
D575*
X245999Y188468D03*
D446*
X448818Y188468D03*
D574*
X478282Y188468D03*
X19558Y188722D03*
D444*
X49022Y188722D03*
D576*
X245999Y188722D03*
D446*
X449072Y188722D03*
D574*
X478282Y188722D03*
D577*
X19431Y188976D03*
D443*
X48895Y188976D03*
D578*
X245999Y188976D03*
D446*
X449072Y188976D03*
D577*
X478409Y188976D03*
X19431Y189230D03*
D444*
X48768Y189230D03*
D139*
X245999Y189230D03*
D446*
X449326Y189230D03*
D577*
X478409Y189230D03*
D579*
X19304Y189484D03*
D444*
X48514Y189484D03*
D580*
X245999Y189484D03*
D446*
X449580Y189484D03*
D579*
X478536Y189484D03*
X19304Y189738D03*
D444*
X48514Y189738D03*
D21*
X245999Y189738D03*
D446*
X449580Y189738D03*
D579*
X478536Y189738D03*
D581*
X19177Y189992D03*
D444*
X48260Y189992D03*
D141*
X245872Y189992D03*
D446*
X449834Y189992D03*
D581*
X478663Y189992D03*
X19177Y190246D03*
D444*
X48260Y190246D03*
D582*
X245872Y190246D03*
D446*
X449834Y190246D03*
D581*
X478663Y190246D03*
D583*
X19050Y190500D03*
D444*
X48006Y190500D03*
D584*
X245872Y190500D03*
D446*
X450088Y190500D03*
D583*
X478790Y190500D03*
X19050Y190754D03*
D445*
X47879Y190754D03*
D20*
X245872Y190754D03*
D447*
X450215Y190754D03*
D583*
X478790Y190754D03*
D585*
X18923Y191008D03*
D444*
X47752Y191008D03*
D586*
X245872Y191008D03*
D446*
X450342Y191008D03*
D585*
X478917Y191008D03*
X18923Y191262D03*
D445*
X47625Y191262D03*
D587*
X245872Y191262D03*
D447*
X450469Y191262D03*
D585*
X478917Y191262D03*
D588*
X18796Y191516D03*
D445*
X47371Y191516D03*
D144*
X245872Y191516D03*
D446*
X450596Y191516D03*
D588*
X479044Y191516D03*
X18796Y191770D03*
D445*
X47371Y191770D03*
D589*
X245745Y191770D03*
D447*
X450723Y191770D03*
D588*
X479044Y191770D03*
D590*
X18669Y192024D03*
D445*
X47117Y192024D03*
D591*
X245745Y192024D03*
D447*
X450977Y192024D03*
D590*
X479171Y192024D03*
X18669Y192278D03*
D445*
X47117Y192278D03*
D592*
X245745Y192278D03*
D447*
X450977Y192278D03*
D590*
X479171Y192278D03*
D593*
X18542Y192532D03*
D445*
X46863Y192532D03*
D146*
X245745Y192532D03*
D447*
X451231Y192532D03*
D590*
X479171Y192532D03*
D593*
X18542Y192786D03*
D445*
X46863Y192786D03*
D594*
X245745Y192786D03*
D447*
X451231Y192786D03*
D593*
X479298Y192786D03*
D595*
X18415Y193040D03*
D445*
X46609Y193040D03*
D18*
X245745Y193040D03*
D447*
X451485Y193040D03*
D593*
X479298Y193040D03*
D595*
X18415Y193294D03*
D446*
X46482Y193294D03*
D18*
X245745Y193294D03*
D447*
X451485Y193294D03*
D595*
X479425Y193294D03*
D596*
X18288Y193548D03*
D445*
X46355Y193548D03*
D597*
X245745Y193548D03*
D448*
X451612Y193548D03*
D595*
X479425Y193548D03*
D596*
X18288Y193802D03*
D446*
X46228Y193802D03*
D598*
X245745Y193802D03*
D448*
X451866Y193802D03*
D596*
X479552Y193802D03*
X18288Y194056D03*
D445*
X46101Y194056D03*
D599*
X245745Y194056D03*
D448*
X451866Y194056D03*
D596*
X479552Y194056D03*
D600*
X18161Y194310D03*
D446*
X45974Y194310D03*
D601*
X245618Y194310D03*
D448*
X452120Y194310D03*
D600*
X479679Y194310D03*
X18161Y194564D03*
D445*
X45847Y194564D03*
D150*
X245618Y194564D03*
D448*
X452120Y194564D03*
D600*
X479679Y194564D03*
D602*
X18034Y194818D03*
D446*
X45720Y194818D03*
D603*
X245618Y194818D03*
D448*
X452374Y194818D03*
D602*
X479806Y194818D03*
X18034Y195072D03*
D447*
X45593Y195072D03*
D604*
X245491Y195072D03*
D448*
X452374Y195072D03*
D602*
X479806Y195072D03*
D605*
X17907Y195326D03*
D446*
X45466Y195326D03*
D606*
X245491Y195326D03*
D448*
X452628Y195326D03*
D602*
X479806Y195326D03*
D605*
X17907Y195580D03*
D447*
X45339Y195580D03*
D152*
X245618Y195580D03*
D448*
X452628Y195580D03*
D605*
X479933Y195580D03*
X17907Y195834D03*
D446*
X45212Y195834D03*
D607*
X245491Y195834D03*
D448*
X452882Y195834D03*
D605*
X479933Y195834D03*
D608*
X17780Y196088D03*
D447*
X45085Y196088D03*
D609*
X245491Y196088D03*
D448*
X452882Y196088D03*
D608*
X480060Y196088D03*
X17780Y196342D03*
D446*
X44958Y196342D03*
D16*
X245491Y196342D03*
D450*
X453009Y196342D03*
D608*
X480060Y196342D03*
D610*
X17653Y196596D03*
D447*
X44831Y196596D03*
D154*
X245364Y196596D03*
D450*
X453263Y196596D03*
D610*
X480187Y196596D03*
X17653Y196850D03*
D446*
X44704Y196850D03*
D611*
X245491Y196850D03*
D450*
X453263Y196850D03*
D610*
X480187Y196850D03*
D449*
X17526Y197104D03*
D447*
X44577Y197104D03*
D612*
X245491Y197104D03*
D450*
X453517Y197104D03*
D610*
X480187Y197104D03*
D449*
X17526Y197358D03*
D447*
X44577Y197358D03*
D613*
X245364Y197358D03*
D450*
X453517Y197358D03*
D449*
X480314Y197358D03*
X17526Y197612D03*
D447*
X44323Y197612D03*
D156*
X245364Y197612D03*
D450*
X453771Y197612D03*
D449*
X480314Y197612D03*
D614*
X17399Y197866D03*
D447*
X44323Y197866D03*
D615*
X245237Y197866D03*
D450*
X453771Y197866D03*
D614*
X480441Y197866D03*
X17399Y198120D03*
D447*
X44069Y198120D03*
D616*
X245364Y198120D03*
D452*
X453898Y198120D03*
D614*
X480441Y198120D03*
D617*
X17272Y198374D03*
D447*
X44069Y198374D03*
D618*
X245237Y198374D03*
D450*
X454025Y198374D03*
D614*
X480441Y198374D03*
D617*
X17272Y198628D03*
D448*
X43942Y198628D03*
D15*
X245237Y198628D03*
D452*
X454152Y198628D03*
D617*
X480568Y198628D03*
X17272Y198882D03*
D447*
X43815Y198882D03*
D157*
X245110Y198882D03*
D450*
X454279Y198882D03*
D617*
X480568Y198882D03*
D619*
X17145Y199136D03*
D448*
X43688Y199136D03*
D620*
X245237Y199136D03*
D452*
X454406Y199136D03*
D619*
X480695Y199136D03*
X17145Y199390D03*
D447*
X43561Y199390D03*
D621*
X245237Y199390D03*
D452*
X454406Y199390D03*
D619*
X480695Y199390D03*
D622*
X17018Y199644D03*
D448*
X43434Y199644D03*
D623*
X245110Y199644D03*
D450*
X454533Y199644D03*
D619*
X480695Y199644D03*
D622*
X17018Y199898D03*
D448*
X43434Y199898D03*
D624*
X245237Y199898D03*
D452*
X454660Y199898D03*
D622*
X480822Y199898D03*
X17018Y200152D03*
D448*
X43180Y200152D03*
D159*
X245110Y200152D03*
D450*
X454787Y200152D03*
D622*
X480822Y200152D03*
D625*
X16891Y200406D03*
D448*
X43180Y200406D03*
D626*
X244983Y200406D03*
D452*
X454914Y200406D03*
D622*
X480822Y200406D03*
D625*
X16891Y200660D03*
D448*
X42926Y200660D03*
D627*
X244983Y200660D03*
D452*
X454914Y200660D03*
D625*
X480949Y200660D03*
X16891Y200914D03*
D448*
X42926Y200914D03*
D627*
X244983Y200914D03*
D452*
X455168Y200914D03*
D625*
X480949Y200914D03*
D628*
X16764Y201168D03*
D450*
X42799Y201168D03*
D14*
X244983Y201168D03*
D452*
X455168Y201168D03*
D628*
X481076Y201168D03*
X16764Y201422D03*
D448*
X42672Y201422D03*
D161*
X244856Y201422D03*
D452*
X455422Y201422D03*
D628*
X481076Y201422D03*
D629*
X16637Y201676D03*
D450*
X42545Y201676D03*
D630*
X244983Y201676D03*
D452*
X455422Y201676D03*
D628*
X481076Y201676D03*
D629*
X16637Y201930D03*
D448*
X42418Y201930D03*
D631*
X244856Y201930D03*
D453*
X455549Y201930D03*
D629*
X481203Y201930D03*
X16637Y202184D03*
D450*
X42291Y202184D03*
D631*
X244856Y202184D03*
D452*
X455676Y202184D03*
D629*
X481203Y202184D03*
D632*
X16510Y202438D03*
D450*
X42291Y202438D03*
D633*
X244856Y202438D03*
D452*
X455676Y202438D03*
D629*
X481203Y202438D03*
D632*
X16510Y202692D03*
D448*
X42164Y202692D03*
D634*
X244729Y202692D03*
D453*
X455803Y202692D03*
D632*
X481330Y202692D03*
X16510Y202946D03*
D450*
X42037Y202946D03*
D163*
X244856Y202946D03*
D452*
X455930Y202946D03*
D632*
X481330Y202946D03*
D635*
X16383Y203200D03*
D450*
X42037Y203200D03*
D636*
X244729Y203200D03*
D453*
X456057Y203200D03*
D632*
X481330Y203200D03*
D635*
X16383Y203454D03*
D450*
X41783Y203454D03*
D637*
X244602Y203454D03*
D452*
X456184Y203454D03*
D635*
X481457Y203454D03*
X16383Y203708D03*
D450*
X41783Y203708D03*
D638*
X244729Y203708D03*
D453*
X456311Y203708D03*
D635*
X481457Y203708D03*
D639*
X16256Y203962D03*
D452*
X41656Y203962D03*
D640*
X244602Y203962D03*
D453*
X456311Y203962D03*
D635*
X481457Y203962D03*
D639*
X16256Y204216D03*
D450*
X41529Y204216D03*
D640*
X244602Y204216D03*
D452*
X456438Y204216D03*
D639*
X481584Y204216D03*
X16256Y204470D03*
D450*
X41529Y204470D03*
D165*
X244602Y204470D03*
D453*
X456565Y204470D03*
D639*
X481584Y204470D03*
D641*
X16129Y204724D03*
D450*
X41275Y204724D03*
D165*
X244602Y204724D03*
D453*
X456565Y204724D03*
D639*
X481584Y204724D03*
D641*
X16129Y204978D03*
D450*
X41275Y204978D03*
D13*
X244475Y204978D03*
D453*
X456819Y204978D03*
D641*
X481711Y204978D03*
X16129Y205232D03*
D452*
X41148Y205232D03*
D642*
X244348Y205232D03*
D453*
X456819Y205232D03*
D641*
X481711Y205232D03*
D643*
X16002Y205486D03*
D450*
X41021Y205486D03*
D644*
X244475Y205486D03*
D453*
X456819Y205486D03*
D641*
X481711Y205486D03*
D643*
X16002Y205740D03*
D452*
X40894Y205740D03*
D645*
X244348Y205740D03*
D453*
X457073Y205740D03*
D643*
X481838Y205740D03*
X16002Y205994D03*
D452*
X40894Y205994D03*
D645*
X244348Y205994D03*
D453*
X457073Y205994D03*
D643*
X481838Y205994D03*
D646*
X15875Y206248D03*
D450*
X40767Y206248D03*
D647*
X244221Y206248D03*
D454*
X457200Y206248D03*
D643*
X481838Y206248D03*
D646*
X15875Y206502D03*
D452*
X40640Y206502D03*
D168*
X244348Y206502D03*
D453*
X457327Y206502D03*
D646*
X481965Y206502D03*
X15875Y206756D03*
D452*
X40640Y206756D03*
D648*
X244221Y206756D03*
D453*
X457327Y206756D03*
D646*
X481965Y206756D03*
D649*
X15748Y207010D03*
D452*
X40640Y207010D03*
D648*
X244221Y207010D03*
D454*
X457454Y207010D03*
D646*
X481965Y207010D03*
D649*
X15748Y207264D03*
D452*
X40386Y207264D03*
D650*
X244094Y207264D03*
D453*
X457581Y207264D03*
D649*
X482092Y207264D03*
X15748Y207518D03*
D452*
X40386Y207518D03*
D650*
X244094Y207518D03*
D453*
X457581Y207518D03*
D649*
X482092Y207518D03*
X15748Y207772D03*
D453*
X40259Y207772D03*
D651*
X244094Y207772D03*
D454*
X457708Y207772D03*
D649*
X482092Y207772D03*
D652*
X15621Y208026D03*
D452*
X40132Y208026D03*
D651*
X244094Y208026D03*
D454*
X457708Y208026D03*
D652*
X482219Y208026D03*
X15621Y208280D03*
D452*
X40132Y208280D03*
D170*
X243967Y208280D03*
D454*
X457962Y208280D03*
D652*
X482219Y208280D03*
X15621Y208534D03*
D453*
X40005Y208534D03*
D170*
X243967Y208534D03*
D454*
X457962Y208534D03*
D652*
X482219Y208534D03*
D653*
X15494Y208788D03*
D452*
X39878Y208788D03*
D654*
X243840Y208788D03*
D454*
X457962Y208788D03*
D652*
X482219Y208788D03*
D653*
X15494Y209042D03*
D452*
X39878Y209042D03*
D654*
X243840Y209042D03*
D454*
X458216Y209042D03*
D653*
X482346Y209042D03*
X15494Y209296D03*
D453*
X39751Y209296D03*
D655*
X243713Y209296D03*
D454*
X458216Y209296D03*
D653*
X482346Y209296D03*
X15494Y209550D03*
D452*
X39624Y209550D03*
D656*
X243840Y209550D03*
D454*
X458216Y209550D03*
D653*
X482346Y209550D03*
D657*
X15367Y209804D03*
D453*
X39497Y209804D03*
D252*
X175133Y209804D03*
D658*
X305816Y209804D03*
D454*
X458470Y209804D03*
D657*
X482473Y209804D03*
X15367Y210058D03*
D453*
X39497Y210058D03*
D252*
X175133Y210058D03*
D528*
X342646Y210058D03*
D454*
X458470Y210058D03*
D657*
X482473Y210058D03*
X15367Y210312D03*
D453*
X39497Y210312D03*
D252*
X175133Y210312D03*
D454*
X458470Y210312D03*
D657*
X482473Y210312D03*
D659*
X15240Y210566D03*
D453*
X39243Y210566D03*
D310*
X175006Y210566D03*
D455*
X458597Y210566D03*
D657*
X482473Y210566D03*
D659*
X15240Y210820D03*
D453*
X39243Y210820D03*
D310*
X175006Y210820D03*
D454*
X458724Y210820D03*
D659*
X482600Y210820D03*
X15240Y211074D03*
D453*
X39243Y211074D03*
D245*
X174879Y211074D03*
D454*
X458724Y211074D03*
D659*
X482600Y211074D03*
X15240Y211328D03*
D454*
X39116Y211328D03*
D245*
X174879Y211328D03*
D455*
X458851Y211328D03*
D659*
X482600Y211328D03*
D660*
X15113Y211582D03*
D453*
X38989Y211582D03*
D309*
X174752Y211582D03*
D454*
X458978Y211582D03*
D659*
X482600Y211582D03*
D660*
X15113Y211836D03*
D453*
X38989Y211836D03*
D309*
X174752Y211836D03*
D454*
X458978Y211836D03*
D660*
X482727Y211836D03*
X15113Y212090D03*
D454*
X38862Y212090D03*
D309*
X174752Y212090D03*
D454*
X458978Y212090D03*
D660*
X482727Y212090D03*
X15113Y212344D03*
D453*
X38735Y212344D03*
D249*
X174625Y212344D03*
D455*
X459105Y212344D03*
D660*
X482727Y212344D03*
D661*
X14986Y212598D03*
D453*
X38735Y212598D03*
D249*
X174625Y212598D03*
D454*
X459232Y212598D03*
D660*
X482727Y212598D03*
D661*
X14986Y212852D03*
D453*
X38735Y212852D03*
D662*
X174498Y212852D03*
D454*
X459232Y212852D03*
D661*
X482854Y212852D03*
X14986Y213106D03*
D454*
X38608Y213106D03*
D662*
X174498Y213106D03*
D455*
X459359Y213106D03*
D661*
X482854Y213106D03*
X14986Y213360D03*
D453*
X38481Y213360D03*
D662*
X174498Y213360D03*
D455*
X459359Y213360D03*
D661*
X482854Y213360D03*
D663*
X14859Y213614D03*
D453*
X38481Y213614D03*
D305*
X174371Y213614D03*
D454*
X459486Y213614D03*
D661*
X482854Y213614D03*
D663*
X14859Y213868D03*
D454*
X38354Y213868D03*
D305*
X174371Y213868D03*
D454*
X459486Y213868D03*
D663*
X482981Y213868D03*
X14859Y214122D03*
D454*
X38354Y214122D03*
D305*
X174371Y214122D03*
D455*
X459613Y214122D03*
D663*
X482981Y214122D03*
X14859Y214376D03*
D454*
X38354Y214376D03*
D243*
X174244Y214376D03*
D455*
X459613Y214376D03*
D663*
X482981Y214376D03*
D664*
X14732Y214630D03*
D454*
X38100Y214630D03*
D243*
X174244Y214630D03*
D454*
X459740Y214630D03*
D663*
X482981Y214630D03*
D664*
X14732Y214884D03*
D454*
X38100Y214884D03*
D246*
X174117Y214884D03*
D455*
X459867Y214884D03*
D664*
X483108Y214884D03*
X14732Y215138D03*
D454*
X38100Y215138D03*
D246*
X174117Y215138D03*
D455*
X459867Y215138D03*
D664*
X483108Y215138D03*
X14732Y215392D03*
D454*
X38100Y215392D03*
D246*
X174117Y215392D03*
D455*
X459867Y215392D03*
D664*
X483108Y215392D03*
X14732Y215646D03*
D454*
X37846Y215646D03*
D300*
X173990Y215646D03*
D455*
X459867Y215646D03*
D664*
X483108Y215646D03*
D665*
X14605Y215900D03*
D454*
X37846Y215900D03*
D300*
X173990Y215900D03*
D455*
X460121Y215900D03*
D664*
X483108Y215900D03*
D665*
X14605Y216154D03*
D454*
X37846Y216154D03*
D300*
X173990Y216154D03*
D455*
X460121Y216154D03*
D665*
X483235Y216154D03*
X14605Y216408D03*
D455*
X37719Y216408D03*
D303*
X173863Y216408D03*
D455*
X460121Y216408D03*
D665*
X483235Y216408D03*
X14605Y216662D03*
D454*
X37592Y216662D03*
D303*
X173863Y216662D03*
D455*
X460121Y216662D03*
D665*
X483235Y216662D03*
X14605Y216916D03*
D454*
X37592Y216916D03*
D303*
X173863Y216916D03*
D455*
X460375Y216916D03*
D665*
X483235Y216916D03*
D666*
X14478Y217170D03*
D454*
X37592Y217170D03*
D303*
X173863Y217170D03*
D455*
X460375Y217170D03*
D665*
X483235Y217170D03*
D666*
X14478Y217424D03*
D455*
X37465Y217424D03*
D54*
X173736Y217424D03*
D455*
X460375Y217424D03*
D666*
X483362Y217424D03*
X14478Y217678D03*
D455*
X37465Y217678D03*
D54*
X173736Y217678D03*
D455*
X460375Y217678D03*
D666*
X483362Y217678D03*
X14478Y217932D03*
D454*
X37338Y217932D03*
D54*
X173736Y217932D03*
D456*
X460502Y217932D03*
D666*
X483362Y217932D03*
X14478Y218186D03*
D454*
X37338Y218186D03*
D244*
X173609Y218186D03*
D455*
X460629Y218186D03*
D666*
X483362Y218186D03*
D667*
X14351Y218440D03*
D455*
X37211Y218440D03*
D244*
X173609Y218440D03*
D455*
X460629Y218440D03*
D666*
X483362Y218440D03*
D667*
X14351Y218694D03*
D455*
X37211Y218694D03*
D244*
X173609Y218694D03*
D455*
X460629Y218694D03*
D667*
X483489Y218694D03*
X14351Y218948D03*
D455*
X37211Y218948D03*
D244*
X173609Y218948D03*
D455*
X460629Y218948D03*
D667*
X483489Y218948D03*
X14351Y219202D03*
D454*
X37084Y219202D03*
D296*
X173482Y219202D03*
D456*
X460756Y219202D03*
D667*
X483489Y219202D03*
X14351Y219456D03*
D454*
X37084Y219456D03*
D296*
X173482Y219456D03*
D456*
X460756Y219456D03*
D667*
X483489Y219456D03*
D668*
X14224Y219710D03*
D455*
X36957Y219710D03*
D296*
X173482Y219710D03*
D455*
X460883Y219710D03*
D667*
X483489Y219710D03*
D668*
X14224Y219964D03*
D455*
X36957Y219964D03*
D669*
X173355Y219964D03*
D455*
X460883Y219964D03*
D667*
X483489Y219964D03*
D668*
X14224Y220218D03*
D455*
X36957Y220218D03*
D669*
X173355Y220218D03*
D456*
X461010Y220218D03*
D668*
X483616Y220218D03*
X14224Y220472D03*
D455*
X36957Y220472D03*
D669*
X173355Y220472D03*
D456*
X461010Y220472D03*
D668*
X483616Y220472D03*
X14224Y220726D03*
D455*
X36703Y220726D03*
D669*
X173355Y220726D03*
D456*
X461010Y220726D03*
D668*
X483616Y220726D03*
X14224Y220980D03*
D455*
X36703Y220980D03*
D294*
X173228Y220980D03*
D455*
X461137Y220980D03*
D668*
X483616Y220980D03*
D670*
X14097Y221234D03*
D455*
X36703Y221234D03*
D294*
X173228Y221234D03*
D455*
X461137Y221234D03*
D668*
X483616Y221234D03*
D670*
X14097Y221488D03*
D455*
X36703Y221488D03*
D294*
X173228Y221488D03*
D455*
X461137Y221488D03*
D668*
X483616Y221488D03*
D670*
X14097Y221742D03*
D455*
X36703Y221742D03*
D294*
X173228Y221742D03*
D456*
X461264Y221742D03*
D670*
X483743Y221742D03*
X14097Y221996D03*
D456*
X36576Y221996D03*
D294*
X173228Y221996D03*
D456*
X461264Y221996D03*
D670*
X483743Y221996D03*
X14097Y222250D03*
D455*
X36449Y222250D03*
D239*
X173101Y222250D03*
D456*
X461264Y222250D03*
D670*
X483743Y222250D03*
X14097Y222504D03*
D455*
X36449Y222504D03*
D239*
X173101Y222504D03*
D456*
X461264Y222504D03*
D670*
X483743Y222504D03*
X14097Y222758D03*
D455*
X36449Y222758D03*
D239*
X173101Y222758D03*
D455*
X461391Y222758D03*
D670*
X483743Y222758D03*
D671*
X13970Y223012D03*
D455*
X36449Y223012D03*
D239*
X173101Y223012D03*
D456*
X461518Y223012D03*
D670*
X483743Y223012D03*
D671*
X13970Y223266D03*
D455*
X36449Y223266D03*
D241*
X172974Y223266D03*
D456*
X461518Y223266D03*
D670*
X483743Y223266D03*
D671*
X13970Y223520D03*
D456*
X36322Y223520D03*
D241*
X172974Y223520D03*
D456*
X461518Y223520D03*
D671*
X483870Y223520D03*
X13970Y223774D03*
D456*
X36322Y223774D03*
D241*
X172974Y223774D03*
D456*
X461518Y223774D03*
D671*
X483870Y223774D03*
X13970Y224028D03*
D455*
X36195Y224028D03*
D241*
X172974Y224028D03*
D456*
X461518Y224028D03*
D671*
X483870Y224028D03*
X13970Y224282D03*
D455*
X36195Y224282D03*
D241*
X172974Y224282D03*
D456*
X461518Y224282D03*
D671*
X483870Y224282D03*
X13970Y224536D03*
D455*
X36195Y224536D03*
D290*
X172847Y224536D03*
D455*
X461645Y224536D03*
D671*
X483870Y224536D03*
X13970Y224790D03*
D456*
X36068Y224790D03*
D290*
X172847Y224790D03*
D456*
X461772Y224790D03*
D671*
X483870Y224790D03*
D672*
X13843Y225044D03*
D456*
X36068Y225044D03*
D290*
X172847Y225044D03*
D456*
X461772Y225044D03*
D671*
X483870Y225044D03*
D672*
X13843Y225298D03*
D456*
X36068Y225298D03*
D290*
X172847Y225298D03*
D456*
X461772Y225298D03*
D672*
X483997Y225298D03*
X13843Y225552D03*
D456*
X36068Y225552D03*
D290*
X172847Y225552D03*
D456*
X461772Y225552D03*
D672*
X483997Y225552D03*
X13843Y225806D03*
D456*
X36068Y225806D03*
D290*
X172847Y225806D03*
D456*
X461772Y225806D03*
D672*
X483997Y225806D03*
X13843Y226060D03*
D455*
X35941Y226060D03*
D673*
X172720Y226060D03*
D456*
X461772Y226060D03*
D672*
X483997Y226060D03*
X13843Y226314D03*
D455*
X35941Y226314D03*
D673*
X172720Y226314D03*
D456*
X461772Y226314D03*
D672*
X483997Y226314D03*
X13843Y226568D03*
D456*
X35814Y226568D03*
D673*
X172720Y226568D03*
D456*
X462026Y226568D03*
D672*
X483997Y226568D03*
X13843Y226822D03*
D456*
X35814Y226822D03*
D673*
X172720Y226822D03*
D456*
X462026Y226822D03*
D672*
X483997Y226822D03*
D674*
X13716Y227076D03*
D456*
X35814Y227076D03*
D673*
X172720Y227076D03*
D456*
X462026Y227076D03*
D672*
X483997Y227076D03*
D674*
X13716Y227330D03*
D456*
X35814Y227330D03*
D673*
X172720Y227330D03*
D456*
X462026Y227330D03*
D672*
X483997Y227330D03*
D674*
X13716Y227584D03*
D456*
X35814Y227584D03*
D673*
X172720Y227584D03*
D456*
X462026Y227584D03*
D672*
X483997Y227584D03*
D674*
X13716Y227838D03*
D456*
X35814Y227838D03*
D288*
X172593Y227838D03*
D456*
X462026Y227838D03*
D674*
X484124Y227838D03*
X13716Y228092D03*
D456*
X35814Y228092D03*
D288*
X172593Y228092D03*
D456*
X462026Y228092D03*
D674*
X484124Y228092D03*
X13716Y228346D03*
D456*
X35814Y228346D03*
D288*
X172593Y228346D03*
D456*
X462026Y228346D03*
D674*
X484124Y228346D03*
X13716Y228600D03*
D456*
X35560Y228600D03*
D288*
X172593Y228600D03*
D456*
X462026Y228600D03*
D674*
X484124Y228600D03*
X13716Y228854D03*
D456*
X35560Y228854D03*
D288*
X172593Y228854D03*
D457*
X462153Y228854D03*
D674*
X484124Y228854D03*
X13716Y229108D03*
D456*
X35560Y229108D03*
D288*
X172593Y229108D03*
D456*
X462280Y229108D03*
D674*
X484124Y229108D03*
X13716Y229362D03*
D456*
X35560Y229362D03*
D288*
X172593Y229362D03*
D456*
X462280Y229362D03*
D674*
X484124Y229362D03*
X13716Y229616D03*
D456*
X35560Y229616D03*
D675*
X172466Y229616D03*
D456*
X462280Y229616D03*
D674*
X484124Y229616D03*
X13716Y229870D03*
D456*
X35560Y229870D03*
D675*
X172466Y229870D03*
D456*
X462280Y229870D03*
D674*
X484124Y229870D03*
D456*
X35560Y230124D03*
D675*
X172466Y230124D03*
D456*
X462280Y230124D03*
D674*
X484124Y230124D03*
D456*
X35560Y230378D03*
D675*
X172466Y230378D03*
D456*
X462280Y230378D03*
D674*
X484124Y230378D03*
D456*
X35560Y230632D03*
D675*
X172466Y230632D03*
D456*
X462280Y230632D03*
D674*
X484124Y230632D03*
D456*
X35560Y230886D03*
D675*
X172466Y230886D03*
D456*
X462280Y230886D03*
X35560Y231140D03*
D675*
X172466Y231140D03*
D456*
X462280Y231140D03*
D457*
X35433Y231394D03*
D675*
X172466Y231394D03*
D456*
X462280Y231394D03*
D457*
X35433Y231648D03*
D675*
X172466Y231648D03*
D456*
X462280Y231648D03*
D457*
X35433Y231902D03*
D675*
X172466Y231902D03*
D457*
X462407Y231902D03*
D456*
X35306Y232156D03*
D675*
X172466Y232156D03*
D457*
X462407Y232156D03*
D456*
X35306Y232410D03*
D237*
X172339Y232410D03*
D457*
X462407Y232410D03*
D456*
X35306Y232664D03*
D237*
X172339Y232664D03*
D457*
X462407Y232664D03*
D456*
X35306Y232918D03*
D237*
X172339Y232918D03*
D457*
X462407Y232918D03*
D456*
X35306Y233172D03*
D237*
X172339Y233172D03*
D456*
X462534Y233172D03*
X35306Y233426D03*
D237*
X172339Y233426D03*
D456*
X462534Y233426D03*
X35306Y233680D03*
D237*
X172339Y233680D03*
D456*
X462534Y233680D03*
X35306Y233934D03*
D237*
X172339Y233934D03*
D456*
X462534Y233934D03*
X35306Y234188D03*
D237*
X172339Y234188D03*
D456*
X462534Y234188D03*
X35306Y234442D03*
D237*
X172339Y234442D03*
D456*
X462534Y234442D03*
X35306Y234696D03*
D237*
X172339Y234696D03*
D456*
X462534Y234696D03*
X35306Y234950D03*
D237*
X172339Y234950D03*
D456*
X462534Y234950D03*
X35306Y235204D03*
D237*
X172339Y235204D03*
D456*
X462534Y235204D03*
X35306Y235458D03*
D237*
X172339Y235458D03*
D456*
X462534Y235458D03*
X35306Y235712D03*
D237*
X172339Y235712D03*
D456*
X462534Y235712D03*
X35306Y235966D03*
D237*
X172339Y235966D03*
D456*
X462534Y235966D03*
X35306Y236220D03*
D237*
X172339Y236220D03*
D456*
X462534Y236220D03*
X35306Y236474D03*
D237*
X172339Y236474D03*
D456*
X462534Y236474D03*
X35306Y236728D03*
D237*
X172339Y236728D03*
D456*
X462534Y236728D03*
X35306Y236982D03*
D237*
X172339Y236982D03*
D456*
X462534Y236982D03*
X35306Y237236D03*
D237*
X172339Y237236D03*
D456*
X462534Y237236D03*
X35306Y237490D03*
D237*
X172339Y237490D03*
D456*
X462534Y237490D03*
X35306Y237744D03*
D237*
X172339Y237744D03*
D456*
X462534Y237744D03*
X35306Y237998D03*
D676*
X172212Y237998D03*
D456*
X462534Y237998D03*
X35306Y238252D03*
D676*
X172212Y238252D03*
D456*
X462534Y238252D03*
X35306Y238506D03*
D676*
X172212Y238506D03*
D456*
X462534Y238506D03*
X35306Y238760D03*
D676*
X172212Y238760D03*
D456*
X462534Y238760D03*
X35306Y239014D03*
D676*
X172212Y239014D03*
D456*
X462534Y239014D03*
X35306Y239268D03*
D676*
X172212Y239268D03*
D456*
X462534Y239268D03*
X35306Y239522D03*
D676*
X172212Y239522D03*
D456*
X462534Y239522D03*
X35306Y239776D03*
D237*
X172339Y239776D03*
D456*
X462534Y239776D03*
X35306Y240030D03*
D237*
X172339Y240030D03*
D456*
X462534Y240030D03*
X35306Y240284D03*
D237*
X172339Y240284D03*
D456*
X462534Y240284D03*
X35306Y240538D03*
D237*
X172339Y240538D03*
D456*
X462534Y240538D03*
X35306Y240792D03*
D237*
X172339Y240792D03*
D456*
X462534Y240792D03*
X35306Y241046D03*
D237*
X172339Y241046D03*
D456*
X462534Y241046D03*
X35306Y241300D03*
D237*
X172339Y241300D03*
D456*
X462534Y241300D03*
X35306Y241554D03*
D237*
X172339Y241554D03*
D456*
X462534Y241554D03*
X35306Y241808D03*
D237*
X172339Y241808D03*
D457*
X462407Y241808D03*
D456*
X35306Y242062D03*
D237*
X172339Y242062D03*
D457*
X462407Y242062D03*
D456*
X35306Y242316D03*
D237*
X172339Y242316D03*
D457*
X462407Y242316D03*
D456*
X35306Y242570D03*
D237*
X172339Y242570D03*
D456*
X462280Y242570D03*
D457*
X35433Y242824D03*
D237*
X172339Y242824D03*
D456*
X462280Y242824D03*
D457*
X35433Y243078D03*
D237*
X172339Y243078D03*
D456*
X462280Y243078D03*
X35560Y243332D03*
D237*
X172339Y243332D03*
D456*
X462280Y243332D03*
X35560Y243586D03*
D237*
X172339Y243586D03*
D456*
X462280Y243586D03*
X35560Y243840D03*
D237*
X172339Y243840D03*
D456*
X462280Y243840D03*
X35560Y244094D03*
D237*
X172339Y244094D03*
D456*
X462280Y244094D03*
D674*
X484124Y244094D03*
D456*
X35560Y244348D03*
D237*
X172339Y244348D03*
D677*
X417957Y244348D03*
D674*
X484124Y244348D03*
D456*
X35560Y244602D03*
D237*
X172339Y244602D03*
D678*
X353441Y244602D03*
D674*
X484124Y244602D03*
X13716Y244856D03*
D456*
X35560Y244856D03*
D679*
X303403Y244856D03*
D674*
X484124Y244856D03*
X13716Y245110D03*
D456*
X35560Y245110D03*
D679*
X303403Y245110D03*
D674*
X484124Y245110D03*
X13716Y245364D03*
D456*
X35560Y245364D03*
D679*
X303403Y245364D03*
D674*
X484124Y245364D03*
X13716Y245618D03*
D456*
X35560Y245618D03*
D679*
X303403Y245618D03*
D674*
X484124Y245618D03*
X13716Y245872D03*
D455*
X35687Y245872D03*
D680*
X303276Y245872D03*
D674*
X484124Y245872D03*
X13716Y246126D03*
D455*
X35687Y246126D03*
D680*
X303276Y246126D03*
D674*
X484124Y246126D03*
X13716Y246380D03*
D456*
X35814Y246380D03*
D680*
X303276Y246380D03*
D674*
X484124Y246380D03*
X13716Y246634D03*
D456*
X35814Y246634D03*
D680*
X303276Y246634D03*
D674*
X484124Y246634D03*
X13716Y246888D03*
D456*
X35814Y246888D03*
D680*
X303276Y246888D03*
D674*
X484124Y246888D03*
X13716Y247142D03*
D456*
X35814Y247142D03*
D680*
X303276Y247142D03*
D672*
X483997Y247142D03*
D674*
X13716Y247396D03*
D456*
X35814Y247396D03*
D681*
X303403Y247396D03*
D672*
X483997Y247396D03*
D674*
X13716Y247650D03*
D455*
X35941Y247650D03*
D681*
X303403Y247650D03*
D672*
X483997Y247650D03*
X13843Y247904D03*
D455*
X35941Y247904D03*
D681*
X303403Y247904D03*
D672*
X483997Y247904D03*
X13843Y248158D03*
D455*
X35941Y248158D03*
D681*
X303403Y248158D03*
D672*
X483997Y248158D03*
X13843Y248412D03*
D455*
X35941Y248412D03*
D682*
X303276Y248412D03*
D672*
X483997Y248412D03*
X13843Y248666D03*
D455*
X35941Y248666D03*
D682*
X303276Y248666D03*
D672*
X483997Y248666D03*
X13843Y248920D03*
D456*
X36068Y248920D03*
D682*
X303276Y248920D03*
D672*
X483997Y248920D03*
X13843Y249174D03*
D456*
X36068Y249174D03*
D683*
X303403Y249174D03*
D672*
X483997Y249174D03*
X13843Y249428D03*
D455*
X36195Y249428D03*
D683*
X303403Y249428D03*
D672*
X483997Y249428D03*
X13843Y249682D03*
D455*
X36195Y249682D03*
D683*
X303403Y249682D03*
D671*
X483870Y249682D03*
D672*
X13843Y249936D03*
D455*
X36195Y249936D03*
D683*
X303403Y249936D03*
D671*
X483870Y249936D03*
X13970Y250190D03*
D455*
X36195Y250190D03*
D683*
X303403Y250190D03*
D671*
X483870Y250190D03*
X13970Y250444D03*
D455*
X36195Y250444D03*
D684*
X303276Y250444D03*
D671*
X483870Y250444D03*
X13970Y250698D03*
D454*
X36322Y250698D03*
D685*
X303403Y250698D03*
D671*
X483870Y250698D03*
X13970Y250952D03*
D455*
X36449Y250952D03*
D685*
X303403Y250952D03*
D671*
X483870Y250952D03*
X13970Y251206D03*
D455*
X36449Y251206D03*
D685*
X303403Y251206D03*
D671*
X483870Y251206D03*
X13970Y251460D03*
D455*
X36449Y251460D03*
D685*
X303403Y251460D03*
D671*
X483870Y251460D03*
X13970Y251714D03*
D455*
X36449Y251714D03*
D685*
X303403Y251714D03*
D670*
X483743Y251714D03*
X14097Y251968D03*
D454*
X36576Y251968D03*
D685*
X303403Y251968D03*
D670*
X483743Y251968D03*
X14097Y252222D03*
D454*
X36576Y252222D03*
D686*
X303403Y252222D03*
D670*
X483743Y252222D03*
X14097Y252476D03*
D454*
X36576Y252476D03*
D686*
X303403Y252476D03*
D670*
X483743Y252476D03*
X14097Y252730D03*
D455*
X36703Y252730D03*
D686*
X303403Y252730D03*
D670*
X483743Y252730D03*
X14097Y252984D03*
D455*
X36703Y252984D03*
D686*
X303403Y252984D03*
D670*
X483743Y252984D03*
X14097Y253238D03*
D454*
X36830Y253238D03*
D686*
X303403Y253238D03*
D668*
X483616Y253238D03*
D670*
X14097Y253492D03*
D454*
X36830Y253492D03*
D687*
X303530Y253492D03*
D668*
X483616Y253492D03*
X14224Y253746D03*
D454*
X36830Y253746D03*
D687*
X303530Y253746D03*
D668*
X483616Y253746D03*
X14224Y254000D03*
D454*
X36830Y254000D03*
D688*
X303403Y254000D03*
D668*
X483616Y254000D03*
X14224Y254254D03*
D454*
X37084Y254254D03*
D688*
X303403Y254254D03*
D668*
X483616Y254254D03*
X14224Y254508D03*
D454*
X37084Y254508D03*
D689*
X303530Y254508D03*
D668*
X483616Y254508D03*
X14224Y254762D03*
D454*
X37084Y254762D03*
D689*
X303530Y254762D03*
D667*
X483489Y254762D03*
D668*
X14224Y255016D03*
D454*
X37084Y255016D03*
D689*
X303530Y255016D03*
D667*
X483489Y255016D03*
X14351Y255270D03*
D453*
X37211Y255270D03*
D690*
X303403Y255270D03*
D667*
X483489Y255270D03*
X14351Y255524D03*
D453*
X37211Y255524D03*
D691*
X303530Y255524D03*
D667*
X483489Y255524D03*
X14351Y255778D03*
D454*
X37338Y255778D03*
D691*
X303530Y255778D03*
D667*
X483489Y255778D03*
X14351Y256032D03*
D454*
X37338Y256032D03*
D691*
X303530Y256032D03*
D667*
X483489Y256032D03*
X14351Y256286D03*
D453*
X37465Y256286D03*
D691*
X303530Y256286D03*
D666*
X483362Y256286D03*
X14478Y256540D03*
D453*
X37465Y256540D03*
D692*
X303657Y256540D03*
D666*
X483362Y256540D03*
X14478Y256794D03*
D453*
X37465Y256794D03*
D693*
X303530Y256794D03*
D666*
X483362Y256794D03*
X14478Y257048D03*
D454*
X37592Y257048D03*
D693*
X303530Y257048D03*
D666*
X483362Y257048D03*
X14478Y257302D03*
D453*
X37719Y257302D03*
D694*
X303657Y257302D03*
D666*
X483362Y257302D03*
X14478Y257556D03*
D453*
X37719Y257556D03*
D694*
X303657Y257556D03*
D665*
X483235Y257556D03*
X14605Y257810D03*
D453*
X37719Y257810D03*
D694*
X303657Y257810D03*
D665*
X483235Y257810D03*
X14605Y258064D03*
D452*
X37846Y258064D03*
D695*
X303530Y258064D03*
D665*
X483235Y258064D03*
X14605Y258318D03*
D453*
X37973Y258318D03*
D696*
X303657Y258318D03*
D665*
X483235Y258318D03*
X14605Y258572D03*
D453*
X37973Y258572D03*
D696*
X303657Y258572D03*
D665*
X483235Y258572D03*
X14605Y258826D03*
D452*
X38100Y258826D03*
D696*
X303657Y258826D03*
D664*
X483108Y258826D03*
X14732Y259080D03*
D452*
X38100Y259080D03*
D697*
X303657Y259080D03*
D664*
X483108Y259080D03*
X14732Y259334D03*
D453*
X38227Y259334D03*
D697*
X303657Y259334D03*
D664*
X483108Y259334D03*
X14732Y259588D03*
D453*
X38227Y259588D03*
D697*
X303657Y259588D03*
D664*
X483108Y259588D03*
X14732Y259842D03*
D452*
X38354Y259842D03*
D698*
X303784Y259842D03*
D664*
X483108Y259842D03*
X14732Y260096D03*
D452*
X38354Y260096D03*
D698*
X303784Y260096D03*
D663*
X482981Y260096D03*
X14859Y260350D03*
D452*
X38354Y260350D03*
D699*
X303657Y260350D03*
D663*
X482981Y260350D03*
X14859Y260604D03*
D452*
X38608Y260604D03*
D700*
X303784Y260604D03*
D663*
X482981Y260604D03*
X14859Y260858D03*
D452*
X38608Y260858D03*
D700*
X303784Y260858D03*
D663*
X482981Y260858D03*
X14859Y261112D03*
D452*
X38608Y261112D03*
D700*
X303784Y261112D03*
D661*
X482854Y261112D03*
X14986Y261366D03*
D450*
X38735Y261366D03*
D701*
X303784Y261366D03*
D661*
X482854Y261366D03*
X14986Y261620D03*
D452*
X38862Y261620D03*
D701*
X303784Y261620D03*
D661*
X482854Y261620D03*
X14986Y261874D03*
D450*
X38989Y261874D03*
D701*
X303784Y261874D03*
D661*
X482854Y261874D03*
X14986Y262128D03*
D450*
X38989Y262128D03*
D702*
X303911Y262128D03*
D660*
X482727Y262128D03*
X15113Y262382D03*
D450*
X38989Y262382D03*
D703*
X303784Y262382D03*
D660*
X482727Y262382D03*
X15113Y262636D03*
D450*
X39243Y262636D03*
D704*
X303911Y262636D03*
D660*
X482727Y262636D03*
X15113Y262890D03*
D450*
X39243Y262890D03*
D704*
X303911Y262890D03*
D660*
X482727Y262890D03*
X15113Y263144D03*
D450*
X39243Y263144D03*
D704*
X303911Y263144D03*
D659*
X482600Y263144D03*
X15240Y263398D03*
D450*
X39497Y263398D03*
D705*
X303911Y263398D03*
D659*
X482600Y263398D03*
X15240Y263652D03*
D450*
X39497Y263652D03*
D705*
X303911Y263652D03*
D659*
X482600Y263652D03*
X15240Y263906D03*
D450*
X39497Y263906D03*
D706*
X304038Y263906D03*
D659*
X482600Y263906D03*
X15240Y264160D03*
D448*
X39624Y264160D03*
D707*
X303911Y264160D03*
D657*
X482473Y264160D03*
X15367Y264414D03*
D450*
X39751Y264414D03*
D707*
X303911Y264414D03*
D657*
X482473Y264414D03*
X15367Y264668D03*
D448*
X39878Y264668D03*
D708*
X304038Y264668D03*
D657*
X482473Y264668D03*
X15367Y264922D03*
D448*
X39878Y264922D03*
D708*
X304038Y264922D03*
D657*
X482473Y264922D03*
D653*
X15494Y265176D03*
D448*
X39878Y265176D03*
D709*
X304038Y265176D03*
D653*
X482346Y265176D03*
X15494Y265430D03*
D448*
X40132Y265430D03*
D709*
X304038Y265430D03*
D653*
X482346Y265430D03*
X15494Y265684D03*
D448*
X40132Y265684D03*
D709*
X304038Y265684D03*
D653*
X482346Y265684D03*
X15494Y265938D03*
D447*
X40259Y265938D03*
D710*
X304038Y265938D03*
D652*
X482219Y265938D03*
X15621Y266192D03*
D448*
X40386Y266192D03*
D710*
X304038Y266192D03*
D652*
X482219Y266192D03*
X15621Y266446D03*
D448*
X40386Y266446D03*
D711*
X304165Y266446D03*
D652*
X482219Y266446D03*
X15621Y266700D03*
D447*
X40513Y266700D03*
D711*
X304165Y266700D03*
D652*
X482219Y266700D03*
D649*
X15748Y266954D03*
D448*
X40640Y266954D03*
D712*
X304165Y266954D03*
D649*
X482092Y266954D03*
X15748Y267208D03*
D447*
X40767Y267208D03*
D712*
X304165Y267208D03*
D649*
X482092Y267208D03*
X15748Y267462D03*
D447*
X40767Y267462D03*
D713*
X304292Y267462D03*
D649*
X482092Y267462D03*
X15748Y267716D03*
D447*
X41021Y267716D03*
D714*
X304165Y267716D03*
D646*
X481965Y267716D03*
X15875Y267970D03*
D447*
X41021Y267970D03*
D715*
X304292Y267970D03*
D646*
X481965Y267970D03*
X15875Y268224D03*
D446*
X41148Y268224D03*
D715*
X304292Y268224D03*
D646*
X481965Y268224D03*
X15875Y268478D03*
D446*
X41148Y268478D03*
D716*
X304292Y268478D03*
D643*
X481838Y268478D03*
X16002Y268732D03*
D447*
X41275Y268732D03*
D716*
X304292Y268732D03*
D643*
X481838Y268732D03*
X16002Y268986D03*
D446*
X41402Y268986D03*
D717*
X304419Y268986D03*
D643*
X481838Y268986D03*
X16002Y269240D03*
D446*
X41402Y269240D03*
D718*
X304292Y269240D03*
D641*
X481711Y269240D03*
X16129Y269494D03*
D446*
X41656Y269494D03*
D719*
X304419Y269494D03*
D641*
X481711Y269494D03*
X16129Y269748D03*
D446*
X41656Y269748D03*
D719*
X304419Y269748D03*
D641*
X481711Y269748D03*
X16129Y270002D03*
D445*
X41783Y270002D03*
D720*
X304419Y270002D03*
D641*
X481711Y270002D03*
D639*
X16256Y270256D03*
D446*
X41910Y270256D03*
D720*
X304419Y270256D03*
D639*
X481584Y270256D03*
X16256Y270510D03*
D445*
X42037Y270510D03*
D721*
X304546Y270510D03*
D639*
X481584Y270510D03*
X16256Y270764D03*
D446*
X42164Y270764D03*
D722*
X304419Y270764D03*
D639*
X481584Y270764D03*
D635*
X16383Y271018D03*
D445*
X42291Y271018D03*
D723*
X304546Y271018D03*
D635*
X481457Y271018D03*
X16383Y271272D03*
D445*
X42291Y271272D03*
D724*
X304673Y271272D03*
D635*
X481457Y271272D03*
X16383Y271526D03*
D445*
X42545Y271526D03*
D725*
X304546Y271526D03*
D632*
X481330Y271526D03*
X16510Y271780D03*
D445*
X42545Y271780D03*
D726*
X304673Y271780D03*
D632*
X481330Y271780D03*
X16510Y272034D03*
D444*
X42672Y272034D03*
D727*
X304546Y272034D03*
D632*
X481330Y272034D03*
X16510Y272288D03*
D445*
X42799Y272288D03*
D728*
X304673Y272288D03*
D629*
X481203Y272288D03*
X16637Y272542D03*
D444*
X42926Y272542D03*
D728*
X304673Y272542D03*
D629*
X481203Y272542D03*
X16637Y272796D03*
D444*
X42926Y272796D03*
D729*
X304673Y272796D03*
D629*
X481203Y272796D03*
X16637Y273050D03*
D444*
X43180Y273050D03*
D730*
X304800Y273050D03*
D628*
X481076Y273050D03*
X16764Y273304D03*
D444*
X43180Y273304D03*
D730*
X304800Y273304D03*
D628*
X481076Y273304D03*
X16764Y273558D03*
D444*
X43434Y273558D03*
D731*
X304800Y273558D03*
D628*
X481076Y273558D03*
D625*
X16891Y273812D03*
D444*
X43434Y273812D03*
D732*
X304927Y273812D03*
D625*
X480949Y273812D03*
X16891Y274066D03*
D443*
X43561Y274066D03*
D733*
X304800Y274066D03*
D625*
X480949Y274066D03*
X16891Y274320D03*
D444*
X43688Y274320D03*
D734*
X304927Y274320D03*
D622*
X480822Y274320D03*
X17018Y274574D03*
D443*
X43815Y274574D03*
D734*
X304927Y274574D03*
D622*
X480822Y274574D03*
X17018Y274828D03*
D442*
X43942Y274828D03*
D735*
X304927Y274828D03*
D622*
X480822Y274828D03*
X17018Y275082D03*
D443*
X44069Y275082D03*
D736*
X305054Y275082D03*
D619*
X480695Y275082D03*
X17145Y275336D03*
D442*
X44196Y275336D03*
D737*
X304927Y275336D03*
D619*
X480695Y275336D03*
X17145Y275590D03*
D443*
X44323Y275590D03*
D738*
X305054Y275590D03*
D619*
X480695Y275590D03*
D617*
X17272Y275844D03*
D442*
X44450Y275844D03*
D739*
X305181Y275844D03*
D617*
X480568Y275844D03*
X17272Y276098D03*
D443*
X44577Y276098D03*
D740*
X305054Y276098D03*
D617*
X480568Y276098D03*
X17272Y276352D03*
D442*
X44704Y276352D03*
D741*
X305181Y276352D03*
D614*
X480441Y276352D03*
X17399Y276606D03*
D442*
X44704Y276606D03*
D742*
X305181Y276606D03*
D614*
X480441Y276606D03*
X17399Y276860D03*
D442*
X44958Y276860D03*
D742*
X305181Y276860D03*
D614*
X480441Y276860D03*
D449*
X17526Y277114D03*
D441*
X45085Y277114D03*
D743*
X305308Y277114D03*
D449*
X480314Y277114D03*
X17526Y277368D03*
D442*
X45212Y277368D03*
D744*
X305308Y277368D03*
D449*
X480314Y277368D03*
X17526Y277622D03*
D441*
X45339Y277622D03*
D745*
X305435Y277622D03*
D610*
X480187Y277622D03*
X17653Y277876D03*
D441*
X45339Y277876D03*
D746*
X305308Y277876D03*
D610*
X480187Y277876D03*
X17653Y278130D03*
D441*
X45593Y278130D03*
D747*
X253365Y278130D03*
D443*
X452501Y278130D03*
D610*
X480187Y278130D03*
D608*
X17780Y278384D03*
D37*
X45720Y278384D03*
D613*
X245110Y278384D03*
D444*
X452374Y278384D03*
D608*
X480060Y278384D03*
X17780Y278638D03*
D441*
X45847Y278638D03*
D612*
X245237Y278638D03*
D443*
X452247Y278638D03*
D608*
X480060Y278638D03*
D605*
X17907Y278892D03*
D37*
X45974Y278892D03*
D612*
X245237Y278892D03*
D442*
X452120Y278892D03*
D605*
X479933Y278892D03*
X17907Y279146D03*
D441*
X46101Y279146D03*
D611*
X245237Y279146D03*
D443*
X451993Y279146D03*
D605*
X479933Y279146D03*
X17907Y279400D03*
D37*
X46228Y279400D03*
D154*
X245364Y279400D03*
D442*
X451866Y279400D03*
D602*
X479806Y279400D03*
X18034Y279654D03*
D37*
X46482Y279654D03*
D748*
X245364Y279654D03*
D443*
X451739Y279654D03*
D602*
X479806Y279654D03*
X18034Y279908D03*
D37*
X46482Y279908D03*
D748*
X245364Y279908D03*
D442*
X451612Y279908D03*
D602*
X479806Y279908D03*
D600*
X18161Y280162D03*
D440*
X46609Y280162D03*
D749*
X245364Y280162D03*
D442*
X451358Y280162D03*
D600*
X479679Y280162D03*
X18161Y280416D03*
D440*
X46863Y280416D03*
D607*
X245491Y280416D03*
D442*
X451358Y280416D03*
D600*
X479679Y280416D03*
D596*
X18288Y280670D03*
D440*
X46863Y280670D03*
D606*
X245491Y280670D03*
D442*
X451104Y280670D03*
D596*
X479552Y280670D03*
X18288Y280924D03*
D440*
X47117Y280924D03*
D750*
X245618Y280924D03*
D442*
X451104Y280924D03*
D596*
X479552Y280924D03*
X18288Y281178D03*
D439*
X47244Y281178D03*
D604*
X245491Y281178D03*
D442*
X450850Y281178D03*
D595*
X479425Y281178D03*
X18415Y281432D03*
D440*
X47371Y281432D03*
D17*
X245491Y281432D03*
D441*
X450723Y281432D03*
D595*
X479425Y281432D03*
X18415Y281686D03*
D439*
X47498Y281686D03*
D150*
X245618Y281686D03*
D441*
X450723Y281686D03*
D593*
X479298Y281686D03*
X18542Y281940D03*
D439*
X47752Y281940D03*
D601*
X245618Y281940D03*
D441*
X450469Y281940D03*
D593*
X479298Y281940D03*
X18542Y282194D03*
D439*
X47752Y282194D03*
D599*
X245745Y282194D03*
D37*
X450342Y282194D03*
D590*
X479171Y282194D03*
X18669Y282448D03*
D439*
X48006Y282448D03*
D598*
X245745Y282448D03*
D441*
X450215Y282448D03*
D590*
X479171Y282448D03*
X18669Y282702D03*
D438*
X48133Y282702D03*
D598*
X245745Y282702D03*
D37*
X450088Y282702D03*
D590*
X479171Y282702D03*
D588*
X18796Y282956D03*
D439*
X48260Y282956D03*
D597*
X245745Y282956D03*
D441*
X449961Y282956D03*
D588*
X479044Y282956D03*
X18796Y283210D03*
D438*
X48387Y283210D03*
D18*
X245745Y283210D03*
D37*
X449834Y283210D03*
D588*
X479044Y283210D03*
D585*
X18923Y283464D03*
D438*
X48641Y283464D03*
D751*
X245872Y283464D03*
D37*
X449580Y283464D03*
D585*
X478917Y283464D03*
X18923Y283718D03*
D438*
X48641Y283718D03*
D752*
X245872Y283718D03*
D37*
X449580Y283718D03*
D585*
X478917Y283718D03*
D583*
X19050Y283972D03*
D438*
X48895Y283972D03*
D146*
X245999Y283972D03*
D37*
X449326Y283972D03*
D583*
X478790Y283972D03*
X19050Y284226D03*
D437*
X49022Y284226D03*
D592*
X245999Y284226D03*
D440*
X449199Y284226D03*
D583*
X478790Y284226D03*
D581*
X19177Y284480D03*
D438*
X49149Y284480D03*
D591*
X245999Y284480D03*
D37*
X449072Y284480D03*
D581*
X478663Y284480D03*
X19177Y284734D03*
D437*
X49276Y284734D03*
D19*
X246126Y284734D03*
D440*
X448945Y284734D03*
D581*
X478663Y284734D03*
D579*
X19304Y284988D03*
D437*
X49530Y284988D03*
D589*
X245999Y284988D03*
D440*
X448691Y284988D03*
D579*
X478536Y284988D03*
X19304Y285242D03*
D437*
X49530Y285242D03*
D753*
X245999Y285242D03*
D440*
X448691Y285242D03*
D579*
X478536Y285242D03*
D577*
X19431Y285496D03*
D437*
X49784Y285496D03*
D587*
X246126Y285496D03*
D440*
X448437Y285496D03*
D577*
X478409Y285496D03*
X19431Y285750D03*
D436*
X49911Y285750D03*
D586*
X246126Y285750D03*
D439*
X448310Y285750D03*
D577*
X478409Y285750D03*
D574*
X19558Y286004D03*
D436*
X50165Y286004D03*
D20*
X246126Y286004D03*
D439*
X448056Y286004D03*
D574*
X478282Y286004D03*
X19558Y286258D03*
D436*
X50165Y286258D03*
D584*
X246126Y286258D03*
D440*
X447929Y286258D03*
D574*
X478282Y286258D03*
D571*
X19685Y286512D03*
D436*
X50419Y286512D03*
D754*
X246253Y286512D03*
D439*
X447802Y286512D03*
D571*
X478155Y286512D03*
X19685Y286766D03*
D435*
X50546Y286766D03*
D755*
X246253Y286766D03*
D439*
X447548Y286766D03*
D571*
X478155Y286766D03*
D569*
X19812Y287020D03*
D435*
X50800Y287020D03*
D756*
X246253Y287020D03*
D439*
X447548Y287020D03*
D569*
X478028Y287020D03*
X19812Y287274D03*
D435*
X50800Y287274D03*
D22*
X246380Y287274D03*
D439*
X447294Y287274D03*
D569*
X478028Y287274D03*
D566*
X19939Y287528D03*
D435*
X51054Y287528D03*
D757*
X246380Y287528D03*
D438*
X447167Y287528D03*
D566*
X477901Y287528D03*
X19939Y287782D03*
D435*
X51308Y287782D03*
D758*
X246380Y287782D03*
D438*
X446913Y287782D03*
D566*
X477901Y287782D03*
D565*
X20066Y288036D03*
D434*
X51435Y288036D03*
D759*
X246380Y288036D03*
D438*
X446913Y288036D03*
D565*
X477774Y288036D03*
X20066Y288290D03*
D435*
X51562Y288290D03*
D578*
X246507Y288290D03*
D438*
X446659Y288290D03*
D563*
X477647Y288290D03*
X20193Y288544D03*
D434*
X51689Y288544D03*
D576*
X246507Y288544D03*
D437*
X446532Y288544D03*
D563*
X477647Y288544D03*
X20193Y288798D03*
D434*
X51943Y288798D03*
D575*
X246507Y288798D03*
D437*
X446278Y288798D03*
D562*
X477520Y288798D03*
X20320Y289052D03*
D433*
X52070Y289052D03*
D760*
X246634Y289052D03*
D438*
X446151Y289052D03*
D562*
X477520Y289052D03*
X20320Y289306D03*
D433*
X52324Y289306D03*
D24*
X246634Y289306D03*
D437*
X446024Y289306D03*
D561*
X477393Y289306D03*
X20447Y289560D03*
D434*
X52451Y289560D03*
D761*
X246761Y289560D03*
D437*
X445770Y289560D03*
D561*
X477393Y289560D03*
D558*
X20574Y289814D03*
D433*
X52578Y289814D03*
D762*
X246761Y289814D03*
D436*
X445643Y289814D03*
D558*
X477266Y289814D03*
X20574Y290068D03*
D433*
X52832Y290068D03*
D763*
X246761Y290068D03*
D437*
X445516Y290068D03*
D558*
X477266Y290068D03*
D556*
X20701Y290322D03*
D432*
X52959Y290322D03*
D25*
X246761Y290322D03*
D436*
X445389Y290322D03*
D556*
X477139Y290322D03*
X20701Y290576D03*
D432*
X53213Y290576D03*
D764*
X246761Y290576D03*
D436*
X445135Y290576D03*
D556*
X477139Y290576D03*
D554*
X20828Y290830D03*
D432*
X53213Y290830D03*
D132*
X246888Y290830D03*
D436*
X444881Y290830D03*
D554*
X477012Y290830D03*
X20828Y291084D03*
D432*
X53467Y291084D03*
D765*
X246888Y291084D03*
D436*
X444881Y291084D03*
D553*
X476885Y291084D03*
X20955Y291338D03*
D432*
X53721Y291338D03*
D766*
X247015Y291338D03*
D436*
X444627Y291338D03*
D553*
X476885Y291338D03*
D550*
X21082Y291592D03*
D431*
X53848Y291592D03*
D767*
X247015Y291592D03*
D435*
X444500Y291592D03*
D550*
X476758Y291592D03*
X21082Y291846D03*
D431*
X54102Y291846D03*
D768*
X247015Y291846D03*
D435*
X444246Y291846D03*
D550*
X476758Y291846D03*
D548*
X21209Y292100D03*
D431*
X54102Y292100D03*
D769*
X247015Y292100D03*
D435*
X443992Y292100D03*
D548*
X476631Y292100D03*
X21209Y292354D03*
D431*
X54356Y292354D03*
D128*
X247015Y292354D03*
D435*
X443992Y292354D03*
D548*
X476631Y292354D03*
D546*
X21336Y292608D03*
D431*
X54610Y292608D03*
D30*
X247142Y292608D03*
D435*
X443738Y292608D03*
D546*
X476504Y292608D03*
X21336Y292862D03*
D430*
X54737Y292862D03*
D560*
X247142Y292862D03*
D434*
X443611Y292862D03*
D544*
X476377Y292862D03*
X21463Y293116D03*
D430*
X54991Y293116D03*
D770*
X247269Y293116D03*
D434*
X443357Y293116D03*
D544*
X476377Y293116D03*
D35*
X21590Y293370D03*
D429*
X55118Y293370D03*
D559*
X247269Y293370D03*
D434*
X443103Y293370D03*
D35*
X476250Y293370D03*
X21590Y293624D03*
D429*
X55372Y293624D03*
D31*
X247269Y293624D03*
D434*
X443103Y293624D03*
D35*
X476250Y293624D03*
D539*
X21717Y293878D03*
D430*
X55499Y293878D03*
D557*
X247396Y293878D03*
D434*
X442849Y293878D03*
D539*
X476123Y293878D03*
X21717Y294132D03*
D429*
X55626Y294132D03*
D125*
X247396Y294132D03*
D434*
X442595Y294132D03*
D537*
X475996Y294132D03*
X21844Y294386D03*
D429*
X55880Y294386D03*
D771*
X247396Y294386D03*
D433*
X442468Y294386D03*
D537*
X475996Y294386D03*
D534*
X21971Y294640D03*
D429*
X56134Y294640D03*
D772*
X247523Y294640D03*
D433*
X442214Y294640D03*
D534*
X475869Y294640D03*
X21971Y294894D03*
D428*
X56261Y294894D03*
D33*
X247523Y294894D03*
D432*
X442087Y294894D03*
D534*
X475869Y294894D03*
D532*
X22098Y295148D03*
D428*
X56515Y295148D03*
D552*
X247523Y295148D03*
D432*
X441833Y295148D03*
D532*
X475742Y295148D03*
X22098Y295402D03*
D428*
X56769Y295402D03*
D34*
X247650Y295402D03*
D433*
X441706Y295402D03*
D530*
X475615Y295402D03*
X22225Y295656D03*
D427*
X56896Y295656D03*
D121*
X247650Y295656D03*
D432*
X441579Y295656D03*
D530*
X475615Y295656D03*
D528*
X22352Y295910D03*
D427*
X57150Y295910D03*
D773*
X247650Y295910D03*
D432*
X441325Y295910D03*
D528*
X475488Y295910D03*
X22352Y296164D03*
D427*
X57150Y296164D03*
D774*
X247777Y296164D03*
D432*
X441071Y296164D03*
D526*
X475361Y296164D03*
X22479Y296418D03*
D427*
X57404Y296418D03*
D547*
X247777Y296418D03*
D431*
X440944Y296418D03*
D526*
X475361Y296418D03*
D523*
X22606Y296672D03*
D427*
X57658Y296672D03*
D40*
X247777Y296672D03*
D431*
X440690Y296672D03*
D523*
X475234Y296672D03*
X22606Y296926D03*
D426*
X57785Y296926D03*
D775*
X247904Y296926D03*
D431*
X440436Y296926D03*
D523*
X475234Y296926D03*
D521*
X22733Y297180D03*
D426*
X58039Y297180D03*
D41*
X247777Y297180D03*
D430*
X440309Y297180D03*
D521*
X475107Y297180D03*
D518*
X22860Y297434D03*
D426*
X58293Y297434D03*
D776*
X247904Y297434D03*
D431*
X440182Y297434D03*
D518*
X474980Y297434D03*
X22860Y297688D03*
D425*
X58420Y297688D03*
D43*
X247904Y297688D03*
D431*
X439928Y297688D03*
D518*
X474980Y297688D03*
D516*
X22987Y297942D03*
D425*
X58674Y297942D03*
D541*
X248031Y297942D03*
D430*
X439801Y297942D03*
D516*
X474853Y297942D03*
D513*
X23114Y298196D03*
D425*
X58928Y298196D03*
D45*
X248031Y298196D03*
D430*
X439547Y298196D03*
D513*
X474726Y298196D03*
X23114Y298450D03*
D425*
X59182Y298450D03*
D777*
X248158Y298450D03*
D430*
X439293Y298450D03*
D513*
X474726Y298450D03*
D511*
X23241Y298704D03*
D424*
X59309Y298704D03*
D47*
X248158Y298704D03*
D429*
X439166Y298704D03*
D511*
X474599Y298704D03*
D508*
X23368Y298958D03*
D424*
X59563Y298958D03*
D536*
X248285Y298958D03*
D429*
X438912Y298958D03*
D508*
X474472Y298958D03*
X23368Y299212D03*
D424*
X59817Y299212D03*
D535*
X248158Y299212D03*
D429*
X438658Y299212D03*
D508*
X474472Y299212D03*
D507*
X23495Y299466D03*
D423*
X59944Y299466D03*
D533*
X248285Y299466D03*
D429*
X438404Y299466D03*
D507*
X474345Y299466D03*
D504*
X23622Y299720D03*
D423*
X60198Y299720D03*
D778*
X248285Y299720D03*
D428*
X438277Y299720D03*
D504*
X474218Y299720D03*
X23622Y299974D03*
D423*
X60452Y299974D03*
D53*
X248412Y299974D03*
D428*
X438023Y299974D03*
D504*
X474218Y299974D03*
D502*
X23749Y300228D03*
D422*
X60579Y300228D03*
D111*
X248412Y300228D03*
D428*
X437769Y300228D03*
D502*
X474091Y300228D03*
D499*
X23876Y300482D03*
D422*
X60833Y300482D03*
D529*
X248412Y300482D03*
D427*
X437642Y300482D03*
D499*
X473964Y300482D03*
X23876Y300736D03*
D422*
X61087Y300736D03*
D59*
X248539Y300736D03*
D427*
X437388Y300736D03*
D499*
X473964Y300736D03*
D498*
X24003Y300990D03*
D422*
X61341Y300990D03*
D779*
X248539Y300990D03*
D427*
X437134Y300990D03*
D498*
X473837Y300990D03*
D496*
X24130Y301244D03*
D421*
X61468Y301244D03*
D60*
X248666Y301244D03*
D428*
X437007Y301244D03*
D496*
X473710Y301244D03*
X24130Y301498D03*
D421*
X61722Y301498D03*
D62*
X248666Y301498D03*
D427*
X436880Y301498D03*
D495*
X473583Y301498D03*
X24257Y301752D03*
D421*
X61976Y301752D03*
D780*
X248666Y301752D03*
D427*
X436626Y301752D03*
D495*
X473583Y301752D03*
D493*
X24384Y302006D03*
D421*
X62230Y302006D03*
D64*
X248793Y302006D03*
D427*
X436372Y302006D03*
D493*
X473456Y302006D03*
X24384Y302260D03*
D420*
X62357Y302260D03*
D66*
X248793Y302260D03*
D426*
X436245Y302260D03*
D492*
X473329Y302260D03*
X24511Y302514D03*
D420*
X62611Y302514D03*
D520*
X248793Y302514D03*
D426*
X435991Y302514D03*
D492*
X473329Y302514D03*
D491*
X24638Y302768D03*
D420*
X62865Y302768D03*
D781*
X248920Y302768D03*
D426*
X435737Y302768D03*
D491*
X473202Y302768D03*
D488*
X24765Y303022D03*
D420*
X63119Y303022D03*
D782*
X248920Y303022D03*
D426*
X435483Y303022D03*
D488*
X473075Y303022D03*
X24765Y303276D03*
D419*
X63246Y303276D03*
D72*
X249047Y303276D03*
D425*
X435356Y303276D03*
D486*
X472948Y303276D03*
X24892Y303530D03*
D419*
X63500Y303530D03*
D783*
X248920Y303530D03*
D425*
X435102Y303530D03*
D486*
X472948Y303530D03*
D485*
X25019Y303784D03*
D419*
X63754Y303784D03*
D514*
X249047Y303784D03*
D425*
X434848Y303784D03*
D485*
X472821Y303784D03*
D482*
X25146Y304038D03*
D419*
X64008Y304038D03*
D784*
X249174Y304038D03*
D425*
X434594Y304038D03*
D482*
X472694Y304038D03*
X25146Y304292D03*
D418*
X64135Y304292D03*
D103*
X249174Y304292D03*
D424*
X434213Y304292D03*
D482*
X472694Y304292D03*
D480*
X25273Y304546D03*
D418*
X64389Y304546D03*
D80*
X249301Y304546D03*
D423*
X434086Y304546D03*
D480*
X472567Y304546D03*
D478*
X25400Y304800D03*
D418*
X64643Y304800D03*
D82*
X249301Y304800D03*
D423*
X433832Y304800D03*
D478*
X472440Y304800D03*
X25400Y305054D03*
D418*
X64897Y305054D03*
D86*
X249428Y305054D03*
D423*
X433578Y305054D03*
D476*
X472313Y305054D03*
X25527Y305308D03*
D417*
X65024Y305308D03*
D87*
X249428Y305308D03*
D423*
X433324Y305308D03*
D476*
X472313Y305308D03*
D474*
X25654Y305562D03*
D416*
X65405Y305562D03*
D785*
X249555Y305562D03*
D422*
X433197Y305562D03*
D474*
X472186Y305562D03*
D473*
X25781Y305816D03*
D416*
X65659Y305816D03*
D505*
X249428Y305816D03*
D422*
X432943Y305816D03*
D473*
X472059Y305816D03*
D471*
X25908Y306070D03*
D416*
X65913Y306070D03*
D503*
X249428Y306070D03*
D422*
X432689Y306070D03*
D471*
X471932Y306070D03*
X25908Y306324D03*
D416*
X66167Y306324D03*
D98*
X249682Y306324D03*
D422*
X432435Y306324D03*
D471*
X471932Y306324D03*
D469*
X26035Y306578D03*
D415*
X66294Y306578D03*
D99*
X249682Y306578D03*
D422*
X432181Y306578D03*
D469*
X471805Y306578D03*
D468*
X26162Y306832D03*
D415*
X66548Y306832D03*
D101*
X249809Y306832D03*
D421*
X432054Y306832D03*
D468*
X471678Y306832D03*
D467*
X26289Y307086D03*
D415*
X66802Y307086D03*
D102*
X249809Y307086D03*
D421*
X431800Y307086D03*
D467*
X471551Y307086D03*
X26289Y307340D03*
D415*
X67056Y307340D03*
D786*
X249809Y307340D03*
D421*
X431546Y307340D03*
D451*
X471424Y307340D03*
X26416Y307594D03*
D414*
X67437Y307594D03*
D92*
X249936Y307594D03*
D421*
X431292Y307594D03*
D451*
X471424Y307594D03*
D465*
X26543Y307848D03*
D413*
X67564Y307848D03*
D787*
X249936Y307848D03*
D420*
X430911Y307848D03*
D465*
X471297Y307848D03*
D463*
X26670Y308102D03*
D413*
X67818Y308102D03*
D788*
X249936Y308102D03*
D420*
X430657Y308102D03*
D463*
X471170Y308102D03*
D461*
X26797Y308356D03*
D413*
X68072Y308356D03*
D110*
X250063Y308356D03*
D419*
X430530Y308356D03*
D461*
X471043Y308356D03*
X26797Y308610D03*
D413*
X68326Y308610D03*
D789*
X250063Y308610D03*
D419*
X430276Y308610D03*
D460*
X470916Y308610D03*
X26924Y308864D03*
D413*
X68580Y308864D03*
D88*
X250190Y308864D03*
D419*
X430022Y308864D03*
D460*
X470916Y308864D03*
D459*
X27051Y309118D03*
D412*
X68961Y309118D03*
D790*
X250190Y309118D03*
D419*
X429768Y309118D03*
D459*
X470789Y309118D03*
D458*
X27178Y309372D03*
D411*
X69088Y309372D03*
D791*
X250317Y309372D03*
D419*
X429514Y309372D03*
D458*
X470662Y309372D03*
D457*
X27305Y309626D03*
D411*
X69342Y309626D03*
D792*
X250317Y309626D03*
D419*
X429260Y309626D03*
D457*
X470535Y309626D03*
X27305Y309880D03*
D411*
X69596Y309880D03*
D124*
X250317Y309880D03*
D417*
X429006Y309880D03*
D456*
X470408Y309880D03*
X27432Y310134D03*
D411*
X69850Y310134D03*
D489*
X250444Y310134D03*
D417*
X428752Y310134D03*
D456*
X470408Y310134D03*
D455*
X27559Y310388D03*
D410*
X70231Y310388D03*
D129*
X250444Y310388D03*
D417*
X428498Y310388D03*
D455*
X470281Y310388D03*
D454*
X27686Y310642D03*
D410*
X70485Y310642D03*
D793*
X250571Y310642D03*
D417*
X428244Y310642D03*
D454*
X470154Y310642D03*
D453*
X27813Y310896D03*
D410*
X70739Y310896D03*
D135*
X250571Y310896D03*
D417*
X427990Y310896D03*
D453*
X470027Y310896D03*
X27813Y311150D03*
D409*
X70866Y311150D03*
D140*
X250698Y311150D03*
D416*
X427609Y311150D03*
D452*
X469900Y311150D03*
X27940Y311404D03*
D409*
X71120Y311404D03*
D794*
X250698Y311404D03*
D416*
X427355Y311404D03*
D450*
X469773Y311404D03*
X28067Y311658D03*
D408*
X71501Y311658D03*
D795*
X250825Y311658D03*
D415*
X427228Y311658D03*
D450*
X469773Y311658D03*
D448*
X28194Y311912D03*
D408*
X71755Y311912D03*
D149*
X250952Y311912D03*
D415*
X426974Y311912D03*
D448*
X469646Y311912D03*
D447*
X28321Y312166D03*
D408*
X72009Y312166D03*
D153*
X250825Y312166D03*
D415*
X426720Y312166D03*
D447*
X469519Y312166D03*
D446*
X28448Y312420D03*
D408*
X72263Y312420D03*
D75*
X250952Y312420D03*
D414*
X426339Y312420D03*
D446*
X469392Y312420D03*
D445*
X28575Y312674D03*
D407*
X72644Y312674D03*
D160*
X251079Y312674D03*
D414*
X426085Y312674D03*
D445*
X469265Y312674D03*
X28575Y312928D03*
D407*
X72898Y312928D03*
D166*
X251206Y312928D03*
D414*
X425831Y312928D03*
D444*
X469138Y312928D03*
X28702Y313182D03*
D407*
X73152Y313182D03*
D796*
X251206Y313182D03*
D414*
X425577Y313182D03*
D444*
X469138Y313182D03*
D443*
X28829Y313436D03*
D407*
X73406Y313436D03*
D173*
X251206Y313436D03*
D414*
X425323Y313436D03*
D443*
X469011Y313436D03*
D442*
X28956Y313690D03*
D405*
X73660Y313690D03*
D797*
X251206Y313690D03*
D413*
X424942Y313690D03*
D442*
X468884Y313690D03*
D441*
X29083Y313944D03*
D405*
X73914Y313944D03*
D798*
X251333Y313944D03*
D413*
X424688Y313944D03*
D441*
X468757Y313944D03*
D37*
X29210Y314198D03*
D405*
X74168Y314198D03*
D188*
X251333Y314198D03*
D412*
X424561Y314198D03*
D37*
X468630Y314198D03*
D440*
X29337Y314452D03*
D404*
X74549Y314452D03*
D799*
X251587Y314452D03*
D412*
X424307Y314452D03*
D440*
X468503Y314452D03*
D439*
X29464Y314706D03*
D404*
X74803Y314706D03*
D67*
X251587Y314706D03*
D411*
X423926Y314706D03*
D439*
X468376Y314706D03*
X29464Y314960D03*
D404*
X75057Y314960D03*
D204*
X251587Y314960D03*
D411*
X423672Y314960D03*
D438*
X468249Y314960D03*
X29591Y315214D03*
D39*
X75438Y315214D03*
D208*
X251714Y315214D03*
D411*
X423418Y315214D03*
D437*
X468122Y315214D03*
X29718Y315468D03*
D39*
X75692Y315468D03*
D800*
X251841Y315468D03*
D410*
X423037Y315468D03*
D437*
X468122Y315468D03*
D436*
X29845Y315722D03*
D39*
X75946Y315722D03*
D219*
X251841Y315722D03*
D410*
X422783Y315722D03*
D436*
X467995Y315722D03*
D435*
X29972Y315976D03*
D403*
X76327Y315976D03*
D221*
X251841Y315976D03*
D410*
X422529Y315976D03*
D435*
X467868Y315976D03*
D434*
X30099Y316230D03*
D403*
X76581Y316230D03*
D466*
X251968Y316230D03*
D409*
X422148Y316230D03*
D434*
X467741Y316230D03*
D433*
X30226Y316484D03*
D403*
X76835Y316484D03*
D223*
X252095Y316484D03*
D409*
X421894Y316484D03*
D433*
X467614Y316484D03*
D432*
X30353Y316738D03*
D402*
X77216Y316738D03*
D253*
X252095Y316738D03*
D409*
X421640Y316738D03*
D432*
X467487Y316738D03*
D431*
X30480Y316992D03*
D402*
X77470Y316992D03*
D262*
X252095Y316992D03*
D408*
X421259Y316992D03*
D431*
X467360Y316992D03*
D430*
X30607Y317246D03*
D402*
X77724Y317246D03*
D270*
X252222Y317246D03*
D408*
X421005Y317246D03*
D430*
X467233Y317246D03*
D429*
X30734Y317500D03*
D400*
X78105Y317500D03*
D234*
X252349Y317500D03*
D408*
X420751Y317500D03*
D429*
X467106Y317500D03*
X30734Y317754D03*
D400*
X78359Y317754D03*
D288*
X252349Y317754D03*
D407*
X420370Y317754D03*
D428*
X466979Y317754D03*
X30861Y318008D03*
D399*
X78740Y318008D03*
D244*
X252349Y318008D03*
D407*
X420116Y318008D03*
D427*
X466852Y318008D03*
X30988Y318262D03*
D399*
X78994Y318262D03*
D662*
X252476Y318262D03*
D407*
X419862Y318262D03*
D426*
X466725Y318262D03*
X31115Y318516D03*
D399*
X79248Y318516D03*
D255*
X252603Y318516D03*
D406*
X419481Y318516D03*
D425*
X466598Y318516D03*
X31242Y318770D03*
D398*
X79629Y318770D03*
D259*
X252603Y318770D03*
D406*
X419227Y318770D03*
D425*
X466598Y318770D03*
D424*
X31369Y319024D03*
D398*
X79883Y319024D03*
D336*
X252603Y319024D03*
D406*
X418973Y319024D03*
D424*
X466471Y319024D03*
D423*
X31496Y319278D03*
D397*
X80264Y319278D03*
D801*
X252730Y319278D03*
D405*
X418592Y319278D03*
D423*
X466344Y319278D03*
D422*
X31623Y319532D03*
D397*
X80518Y319532D03*
D280*
X252857Y319532D03*
D405*
X418338Y319532D03*
D422*
X466217Y319532D03*
D421*
X31750Y319786D03*
D396*
X80899Y319786D03*
D363*
X252857Y319786D03*
D404*
X417957Y319786D03*
D421*
X466090Y319786D03*
D420*
X31877Y320040D03*
D396*
X81153Y320040D03*
D302*
X252984Y320040D03*
D404*
X417703Y320040D03*
D420*
X465963Y320040D03*
D419*
X32004Y320294D03*
D395*
X81534Y320294D03*
D306*
X252984Y320294D03*
D39*
X417322Y320294D03*
D419*
X465836Y320294D03*
D418*
X32131Y320548D03*
D395*
X81788Y320548D03*
D322*
X253111Y320548D03*
D39*
X417068Y320548D03*
D418*
X465709Y320548D03*
D417*
X32258Y320802D03*
D394*
X82169Y320802D03*
D337*
X253111Y320802D03*
D39*
X416814Y320802D03*
D417*
X465582Y320802D03*
D416*
X32385Y321056D03*
D394*
X82423Y321056D03*
D357*
X253238Y321056D03*
D403*
X416433Y321056D03*
D416*
X465455Y321056D03*
D415*
X32512Y321310D03*
D393*
X82804Y321310D03*
D373*
X253238Y321310D03*
D403*
X416179Y321310D03*
D415*
X465328Y321310D03*
D414*
X32639Y321564D03*
D393*
X83058Y321564D03*
D395*
X253238Y321564D03*
D402*
X415798Y321564D03*
D414*
X465201Y321564D03*
D413*
X32766Y321818D03*
D392*
X83439Y321818D03*
D411*
X253238Y321818D03*
D402*
X415544Y321818D03*
D413*
X465074Y321818D03*
D412*
X32893Y322072D03*
D392*
X83693Y322072D03*
D430*
X253365Y322072D03*
D400*
X415163Y322072D03*
D412*
X464947Y322072D03*
D411*
X33020Y322326D03*
D391*
X84074Y322326D03*
D454*
X253238Y322326D03*
D400*
X414909Y322326D03*
D411*
X464820Y322326D03*
D410*
X33147Y322580D03*
D391*
X84328Y322580D03*
D496*
X253238Y322580D03*
D399*
X414528Y322580D03*
D410*
X464693Y322580D03*
D409*
X33274Y322834D03*
D389*
X84709Y322834D03*
D600*
X253111Y322834D03*
D399*
X414274Y322834D03*
D409*
X464566Y322834D03*
D408*
X33401Y323088D03*
D389*
X84963Y323088D03*
D398*
X413893Y323088D03*
D408*
X464439Y323088D03*
D407*
X33528Y323342D03*
D387*
X85344Y323342D03*
D398*
X413639Y323342D03*
D407*
X464312Y323342D03*
D406*
X33655Y323596D03*
D387*
X85598Y323596D03*
D398*
X413131Y323596D03*
D406*
X464185Y323596D03*
D405*
X33782Y323850D03*
D385*
X85979Y323850D03*
D398*
X412877Y323850D03*
D405*
X464058Y323850D03*
D404*
X33909Y324104D03*
D387*
X86360Y324104D03*
D397*
X412496Y324104D03*
D404*
X463931Y324104D03*
D39*
X34036Y324358D03*
D385*
X86741Y324358D03*
D397*
X412242Y324358D03*
D39*
X463804Y324358D03*
D403*
X34163Y324612D03*
D388*
X87122Y324612D03*
D396*
X411861Y324612D03*
D403*
X463677Y324612D03*
D402*
X34290Y324866D03*
D388*
X87376Y324866D03*
D395*
X411480Y324866D03*
D400*
X463423Y324866D03*
X34417Y325120D03*
D384*
X87757Y325120D03*
D395*
X411226Y325120D03*
D399*
X463296Y325120D03*
X34544Y325374D03*
D383*
X88138Y325374D03*
D394*
X410845Y325374D03*
D398*
X463169Y325374D03*
X34671Y325628D03*
D383*
X88392Y325628D03*
D394*
X410591Y325628D03*
D397*
X463042Y325628D03*
D396*
X34925Y325882D03*
D382*
X88773Y325882D03*
D394*
X410083Y325882D03*
D396*
X462915Y325882D03*
D395*
X35052Y326136D03*
D382*
X89027Y326136D03*
D393*
X409702Y326136D03*
D395*
X462788Y326136D03*
D394*
X35179Y326390D03*
D382*
X89535Y326390D03*
D393*
X409448Y326390D03*
D394*
X462661Y326390D03*
D393*
X35306Y326644D03*
D380*
X89916Y326644D03*
D392*
X409067Y326644D03*
D393*
X462534Y326644D03*
D392*
X35433Y326898D03*
D380*
X90170Y326898D03*
D392*
X408813Y326898D03*
X462407Y326898D03*
D391*
X35560Y327152D03*
D379*
X90551Y327152D03*
D391*
X408432Y327152D03*
X462280Y327152D03*
D389*
X35687Y327406D03*
D378*
X90932Y327406D03*
D389*
X408051Y327406D03*
X462153Y327406D03*
D387*
X35814Y327660D03*
D375*
X91313Y327660D03*
D391*
X407670Y327660D03*
D387*
X462026Y327660D03*
D385*
X35941Y327914D03*
D378*
X91694Y327914D03*
D389*
X407289Y327914D03*
D388*
X461772Y327914D03*
X36068Y328168D03*
D375*
X92075Y328168D03*
D387*
X406908Y328168D03*
D384*
X461645Y328168D03*
D383*
X36322Y328422D03*
D373*
X92456Y328422D03*
D385*
X406527Y328422D03*
D383*
X461518Y328422D03*
D382*
X36449Y328676D03*
D372*
X92837Y328676D03*
D385*
X406273Y328676D03*
D382*
X461391Y328676D03*
D380*
X36576Y328930D03*
D372*
X93091Y328930D03*
D388*
X405892Y328930D03*
D380*
X461264Y328930D03*
D379*
X36703Y329184D03*
D370*
X93472Y329184D03*
D388*
X405384Y329184D03*
D379*
X461137Y329184D03*
D378*
X36830Y329438D03*
D370*
X93980Y329438D03*
D388*
X405130Y329438D03*
D378*
X461010Y329438D03*
D375*
X36957Y329692D03*
D376*
X94361Y329692D03*
D384*
X404749Y329692D03*
D375*
X460883Y329692D03*
D373*
X37084Y329946D03*
D376*
X94615Y329946D03*
D383*
X404368Y329946D03*
D372*
X460629Y329946D03*
X37211Y330200D03*
D369*
X94996Y330200D03*
D382*
X403987Y330200D03*
D370*
X460502Y330200D03*
D376*
X37465Y330454D03*
D367*
X95377Y330454D03*
D382*
X403479Y330454D03*
D376*
X460375Y330454D03*
D369*
X37592Y330708D03*
D367*
X95885Y330708D03*
D382*
X403225Y330708D03*
D369*
X460248Y330708D03*
D367*
X37719Y330962D03*
D366*
X96266Y330962D03*
D380*
X402844Y330962D03*
D367*
X460121Y330962D03*
D366*
X37846Y331216D03*
D365*
X96647Y331216D03*
D379*
X402463Y331216D03*
D366*
X459994Y331216D03*
D365*
X37973Y331470D03*
X96901Y331470D03*
D379*
X401955Y331470D03*
D42*
X459740Y331470D03*
X38100Y331724D03*
D365*
X97409Y331724D03*
D378*
X401574Y331724D03*
D362*
X459613Y331724D03*
D360*
X38354Y331978D03*
D42*
X97790Y331978D03*
D378*
X401320Y331978D03*
D360*
X459486Y331978D03*
D359*
X38481Y332232D03*
D362*
X98171Y332232D03*
D375*
X400939Y332232D03*
D359*
X459359Y332232D03*
D358*
X38608Y332486D03*
D360*
X98552Y332486D03*
D375*
X400431Y332486D03*
D358*
X459232Y332486D03*
D401*
X38735Y332740D03*
D360*
X99060Y332740D03*
D373*
X400050Y332740D03*
D401*
X459105Y332740D03*
D357*
X38862Y332994D03*
D359*
X99441Y332994D03*
D372*
X399669Y332994D03*
D355*
X458851Y332994D03*
D353*
X39116Y333248D03*
D358*
X99822Y333248D03*
D370*
X399288Y333248D03*
D353*
X458724Y333248D03*
D352*
X39243Y333502D03*
D358*
X100330Y333502D03*
D370*
X398780Y333502D03*
D352*
X458597Y333502D03*
D351*
X39370Y333756D03*
D401*
X100711Y333756D03*
D376*
X398399Y333756D03*
D351*
X458470Y333756D03*
D350*
X39497Y334010D03*
D357*
X101092Y334010D03*
D369*
X398018Y334010D03*
D348*
X458216Y334010D03*
D354*
X39751Y334264D03*
D355*
X101473Y334264D03*
D369*
X397510Y334264D03*
D354*
X458089Y334264D03*
D346*
X39878Y334518D03*
D355*
X101981Y334518D03*
D367*
X397129Y334518D03*
D346*
X457962Y334518D03*
D344*
X40005Y334772D03*
D353*
X102362Y334772D03*
D366*
X396748Y334772D03*
D344*
X457835Y334772D03*
D340*
X40132Y335026D03*
D352*
X102743Y335026D03*
D366*
X396240Y335026D03*
D349*
X457581Y335026D03*
D338*
X40386Y335280D03*
D352*
X103251Y335280D03*
D365*
X395859Y335280D03*
D338*
X457454Y335280D03*
D337*
X40513Y335534D03*
D351*
X103632Y335534D03*
D42*
X395478Y335534D03*
D337*
X457327Y335534D03*
D335*
X40640Y335788D03*
D350*
X104013Y335788D03*
D42*
X394970Y335788D03*
D335*
X457200Y335788D03*
D342*
X40767Y336042D03*
D350*
X104521Y336042D03*
D362*
X394589Y336042D03*
D334*
X456946Y336042D03*
D332*
X41021Y336296D03*
D348*
X104902Y336296D03*
D360*
X394208Y336296D03*
D332*
X456819Y336296D03*
D331*
X41148Y336550D03*
D354*
X105283Y336550D03*
D360*
X393700Y336550D03*
D331*
X456692Y336550D03*
D329*
X41275Y336804D03*
D354*
X105791Y336804D03*
D359*
X393319Y336804D03*
D329*
X456565Y336804D03*
D44*
X41402Y337058D03*
D346*
X106172Y337058D03*
D358*
X392938Y337058D03*
D328*
X456311Y337058D03*
D390*
X41656Y337312D03*
D346*
X106680Y337312D03*
D358*
X392430Y337312D03*
D390*
X456184Y337312D03*
D325*
X41783Y337566D03*
D340*
X107188Y337566D03*
D401*
X392049Y337566D03*
D325*
X456057Y337566D03*
D324*
X41910Y337820D03*
D349*
X107569Y337820D03*
D401*
X391541Y337820D03*
D322*
X455803Y337820D03*
D320*
X42164Y338074D03*
D349*
X108077Y338074D03*
D355*
X391033Y338074D03*
D320*
X455676Y338074D03*
D386*
X42291Y338328D03*
D338*
X108458Y338328D03*
D353*
X390652Y338328D03*
D386*
X455549Y338328D03*
D326*
X42418Y338582D03*
D338*
X108966Y338582D03*
D353*
X390144Y338582D03*
D318*
X455295Y338582D03*
D317*
X42672Y338836D03*
D335*
X109474Y338836D03*
D352*
X389763Y338836D03*
D317*
X455168Y338836D03*
D314*
X42799Y339090D03*
D342*
X109855Y339090D03*
D352*
X389255Y339090D03*
D314*
X455041Y339090D03*
D321*
X42926Y339344D03*
D342*
X110363Y339344D03*
D350*
X388747Y339344D03*
D311*
X454787Y339344D03*
D308*
X43180Y339598D03*
D334*
X110744Y339598D03*
D350*
X388239Y339598D03*
D308*
X454660Y339598D03*
D381*
X43307Y339852D03*
D332*
X111379Y339852D03*
D348*
X387858Y339852D03*
D381*
X454533Y339852D03*
D307*
X43434Y340106D03*
D331*
X111760Y340106D03*
D346*
X387350Y340106D03*
D315*
X454279Y340106D03*
D306*
X43688Y340360D03*
D331*
X112268Y340360D03*
D346*
X386842Y340360D03*
D306*
X454152Y340360D03*
D312*
X43815Y340614D03*
D44*
X112776Y340614D03*
D344*
X386461Y340614D03*
D312*
X454025Y340614D03*
D377*
X44069Y340868D03*
D44*
X113284Y340868D03*
D344*
X385953Y340868D03*
D377*
X453771Y340868D03*
D301*
X44196Y341122D03*
D328*
X113665Y341122D03*
D349*
X385445Y341122D03*
D301*
X453644Y341122D03*
D374*
X44323Y341376D03*
D390*
X114300Y341376D03*
D349*
X384937Y341376D03*
D46*
X453390Y341376D03*
D297*
X44577Y341630D03*
D325*
X114681Y341630D03*
D337*
X384429Y341630D03*
D297*
X453263Y341630D03*
D371*
X44704Y341884D03*
D324*
X115316Y341884D03*
D337*
X383921Y341884D03*
D371*
X453136Y341884D03*
D302*
X44958Y342138D03*
D322*
X115697Y342138D03*
D335*
X383540Y342138D03*
D302*
X452882Y342138D03*
D293*
X45085Y342392D03*
D320*
X116332Y342392D03*
D342*
X382905Y342392D03*
D293*
X452755Y342392D03*
D299*
X45212Y342646D03*
D386*
X116713Y342646D03*
D334*
X382524Y342646D03*
D291*
X452501Y342646D03*
D298*
X45466Y342900D03*
D326*
X117348Y342900D03*
D332*
X381889Y342900D03*
D298*
X452374Y342900D03*
D289*
X45593Y343154D03*
D318*
X117729Y343154D03*
D331*
X381508Y343154D03*
D289*
X452247Y343154D03*
D287*
X45847Y343408D03*
D317*
X118364Y343408D03*
D329*
X380873Y343408D03*
D287*
X451993Y343408D03*
D364*
X45974Y343662D03*
D314*
X118745Y343662D03*
D328*
X380365Y343662D03*
D364*
X451866Y343662D03*
D285*
X46228Y343916D03*
D321*
X119380Y343916D03*
D328*
X379857Y343916D03*
D285*
X451612Y343916D03*
D363*
X46355Y344170D03*
D311*
X119761Y344170D03*
D390*
X379222Y344170D03*
D363*
X451485Y344170D03*
D361*
X46609Y344424D03*
D308*
X120396Y344424D03*
D325*
X378841Y344424D03*
D361*
X451231Y344424D03*
D279*
X46736Y344678D03*
D381*
X121031Y344678D03*
D324*
X378206Y344678D03*
D279*
X451104Y344678D03*
D286*
X46990Y344932D03*
D307*
X121412Y344932D03*
D320*
X377698Y344932D03*
D286*
X450850Y344932D03*
D276*
X47117Y345186D03*
D315*
X122047Y345186D03*
D320*
X377190Y345186D03*
D276*
X450723Y345186D03*
D48*
X47244Y345440D03*
D312*
X122555Y345440D03*
D386*
X376555Y345440D03*
D274*
X450469Y345440D03*
D356*
X47498Y345694D03*
D304*
X123190Y345694D03*
D318*
X376047Y345694D03*
D356*
X450342Y345694D03*
D280*
X47625Y345948D03*
D304*
X123698Y345948D03*
D317*
X375412Y345948D03*
D272*
X450088Y345948D03*
D277*
X47879Y346202D03*
D301*
X124206Y346202D03*
D321*
X374904Y346202D03*
D277*
X449961Y346202D03*
D271*
X48133Y346456D03*
D374*
X124841Y346456D03*
D321*
X374396Y346456D03*
D271*
X449707Y346456D03*
D275*
X48260Y346710D03*
D297*
X125349Y346710D03*
D311*
X373761Y346710D03*
D275*
X449580Y346710D03*
D269*
X48514Y346964D03*
D371*
X125984Y346964D03*
D381*
X373253Y346964D03*
D269*
X449326Y346964D03*
D347*
X48641Y347218D03*
D295*
X126619Y347218D03*
D307*
X372618Y347218D03*
D347*
X449199Y347218D03*
D267*
X48895Y347472D03*
D293*
X127127Y347472D03*
D315*
X371983Y347472D03*
D267*
X448945Y347472D03*
D343*
X49022Y347726D03*
D299*
X127762Y347726D03*
D312*
X371475Y347726D03*
D343*
X448818Y347726D03*
D265*
X49276Y347980D03*
D291*
X128397Y347980D03*
D304*
X370840Y347980D03*
D265*
X448564Y347980D03*
D339*
X49403Y348234D03*
D289*
X128905Y348234D03*
D377*
X370205Y348234D03*
D341*
X448310Y348234D03*
D50*
X49657Y348488D03*
D368*
X129540Y348488D03*
D374*
X369697Y348488D03*
D50*
X448183Y348488D03*
D336*
X49911Y348742D03*
D287*
X130175Y348742D03*
D46*
X369062Y348742D03*
D336*
X447929Y348742D03*
D260*
X50038Y348996D03*
D364*
X130810Y348996D03*
D297*
X368427Y348996D03*
D260*
X447802Y348996D03*
D333*
X50292Y349250D03*
D285*
X131318Y349250D03*
D371*
X367792Y349250D03*
D333*
X447548Y349250D03*
D263*
X50419Y349504D03*
D363*
X131953Y349504D03*
D293*
X367157Y349504D03*
D258*
X447294Y349504D03*
D330*
X50673Y349758D03*
D282*
X132588Y349758D03*
D299*
X366522Y349758D03*
D330*
X447167Y349758D03*
D256*
X50927Y350012D03*
D279*
X133350Y350012D03*
D291*
X365887Y350012D03*
D256*
X446913Y350012D03*
D327*
X51054Y350266D03*
D286*
X133858Y350266D03*
D289*
X365125Y350266D03*
D327*
X446786Y350266D03*
D254*
X51308Y350520D03*
D276*
X134493Y350520D03*
D287*
X364617Y350520D03*
D254*
X446532Y350520D03*
D323*
X51562Y350774D03*
D274*
X135255Y350774D03*
D364*
X363982Y350774D03*
D323*
X446278Y350774D03*
D257*
X51689Y351028D03*
D356*
X135890Y351028D03*
D285*
X363220Y351028D03*
D257*
X446151Y351028D03*
D319*
X51943Y351282D03*
D277*
X136525Y351282D03*
D363*
X362585Y351282D03*
D319*
X445897Y351282D03*
D255*
X52197Y351536D03*
D802*
X137160Y351536D03*
D279*
X361950Y351536D03*
D255*
X445643Y351536D03*
D316*
X52324Y351790D03*
D275*
X137922Y351790D03*
D803*
X361315Y351790D03*
D316*
X445516Y351790D03*
D313*
X52578Y352044D03*
D804*
X138557Y352044D03*
D276*
X360553Y352044D03*
D313*
X445262Y352044D03*
D310*
X52832Y352298D03*
D347*
X139319Y352298D03*
D274*
X359791Y352298D03*
D310*
X445008Y352298D03*
D245*
X52959Y352552D03*
D267*
X140081Y352552D03*
D280*
X359029Y352552D03*
D309*
X444754Y352552D03*
D249*
X53213Y352806D03*
D345*
X140589Y352806D03*
D272*
X358394Y352806D03*
D249*
X444627Y352806D03*
D305*
X53467Y353060D03*
D339*
X141351Y353060D03*
D802*
X357632Y353060D03*
D305*
X444373Y353060D03*
D246*
X53721Y353314D03*
D50*
X142113Y353314D03*
D804*
X356997Y353314D03*
D246*
X444119Y353314D03*
D300*
X53848Y353568D03*
D336*
X142875Y353568D03*
D347*
X356235Y353568D03*
D300*
X443992Y353568D03*
D54*
X54102Y353822D03*
D805*
X143637Y353822D03*
D267*
X355473Y353822D03*
D54*
X443738Y353822D03*
D296*
X54356Y354076D03*
D263*
X144399Y354076D03*
D345*
X354711Y354076D03*
D296*
X443484Y354076D03*
D294*
X54610Y354330D03*
D330*
X145161Y354330D03*
D341*
X353822Y354330D03*
D294*
X443230Y354330D03*
D239*
X54737Y354584D03*
D256*
X145923Y354584D03*
D806*
X353060Y354584D03*
D241*
X442976Y354584D03*
D290*
X54991Y354838D03*
D254*
X146812Y354838D03*
D260*
X352298Y354838D03*
D290*
X442849Y354838D03*
D288*
X55245Y355092D03*
D323*
X147574Y355092D03*
D263*
X351409Y355092D03*
D288*
X442595Y355092D03*
D237*
X55499Y355346D03*
D319*
X148463Y355346D03*
D330*
X350647Y355346D03*
D237*
X442341Y355346D03*
D284*
X55753Y355600D03*
D255*
X149225Y355600D03*
D327*
X349758Y355600D03*
D284*
X442087Y355600D03*
D281*
X55880Y355854D03*
D313*
X150114Y355854D03*
D807*
X348869Y355854D03*
D283*
X441833Y355854D03*
D278*
X56134Y356108D03*
D310*
X150876Y356108D03*
D257*
X348107Y356108D03*
D278*
X441706Y356108D03*
D56*
X56388Y356362D03*
D249*
X151765Y356362D03*
D52*
X347218Y356362D03*
D56*
X441452Y356362D03*
D273*
X56642Y356616D03*
D243*
X152654Y356616D03*
D248*
X346329Y356616D03*
D273*
X441198Y356616D03*
D235*
X56896Y356870D03*
D303*
X153543Y356870D03*
D245*
X345313Y356870D03*
D235*
X440944Y356870D03*
D270*
X57150Y357124D03*
D296*
X154432Y357124D03*
D662*
X344424Y357124D03*
D270*
X440690Y357124D03*
D808*
X57277Y357378D03*
D241*
X155448Y357378D03*
D246*
X343535Y357378D03*
D268*
X440436Y357378D03*
D266*
X57531Y357632D03*
D288*
X156337Y357632D03*
D244*
X342519Y357632D03*
D233*
X440182Y357632D03*
D264*
X57785Y357886D03*
D284*
X157353Y357886D03*
D239*
X341503Y357886D03*
D264*
X440055Y357886D03*
D262*
X58039Y358140D03*
D234*
X158369Y358140D03*
D288*
X340487Y358140D03*
D262*
X439801Y358140D03*
D58*
X58293Y358394D03*
D462*
X159385Y358394D03*
D284*
X339471Y358394D03*
D58*
X439547Y358394D03*
D230*
X58547Y358648D03*
D808*
X160401Y358648D03*
D278*
X338328Y358648D03*
D230*
X439293Y358648D03*
D227*
X58801Y358902D03*
D264*
X161417Y358902D03*
D462*
X337185Y358902D03*
D227*
X439039Y358902D03*
D253*
X59055Y359156D03*
D58*
X162687Y359156D03*
D268*
X336042Y359156D03*
D253*
X438785Y359156D03*
D250*
X59309Y359410D03*
D809*
X163830Y359410D03*
D262*
X334899Y359410D03*
D250*
X438531Y359410D03*
D247*
X59563Y359664D03*
X164973Y359664D03*
D227*
X333629Y359664D03*
D247*
X438277Y359664D03*
D223*
X59817Y359918D03*
D240*
X166243Y359918D03*
D247*
X332359Y359918D03*
D223*
X438023Y359918D03*
D242*
X60071Y360172D03*
D220*
X167513Y360172D03*
D61*
X330962Y360172D03*
D242*
X437769Y360172D03*
D240*
X60325Y360426D03*
D226*
X169037Y360426D03*
D220*
X329565Y360426D03*
D240*
X437515Y360426D03*
D238*
X60579Y360680D03*
D216*
X170434Y360680D03*
D222*
X328041Y360680D03*
D238*
X437261Y360680D03*
D236*
X60833Y360934D03*
D810*
X172085Y360934D03*
D800*
X326517Y360934D03*
D236*
X437007Y360934D03*
D220*
X61087Y361188D03*
D811*
X173736Y361188D03*
D812*
X324612Y361188D03*
D220*
X436753Y361188D03*
D231*
X61341Y361442D03*
D192*
X175768Y361442D03*
D196*
X322580Y361442D03*
D231*
X436499Y361442D03*
D221*
X61595Y361696D03*
D813*
X177927Y361696D03*
D184*
X320294Y361696D03*
D221*
X436245Y361696D03*
D226*
X61849Y361950D03*
D166*
X180848Y361950D03*
D73*
X317246Y361950D03*
D226*
X435991Y361950D03*
D222*
X62103Y362204D03*
D814*
X248920Y362204D03*
D222*
X435737Y362204D03*
D219*
X62357Y362458D03*
D815*
X248920Y362458D03*
D217*
X435356Y362458D03*
D816*
X62611Y362712D03*
D817*
X248920Y362712D03*
D216*
X435102Y362712D03*
D214*
X62992Y362966D03*
D818*
X248920Y362966D03*
D214*
X434848Y362966D03*
D213*
X63246Y363220D03*
D819*
X248920Y363220D03*
D213*
X434594Y363220D03*
D212*
X63500Y363474D03*
D820*
X248793Y363474D03*
D212*
X434340Y363474D03*
D65*
X63754Y363728D03*
D211*
X248920Y363728D03*
D65*
X434086Y363728D03*
D208*
X64008Y363982D03*
D821*
X248920Y363982D03*
D208*
X433832Y363982D03*
D812*
X64262Y364236D03*
D207*
X248920Y364236D03*
D206*
X433451Y364236D03*
D204*
X64643Y364490D03*
D822*
X248920Y364490D03*
D204*
X433197Y364490D03*
D202*
X64897Y364744D03*
D203*
X248920Y364744D03*
D202*
X432943Y364744D03*
D200*
X65151Y364998D03*
D823*
X248920Y364998D03*
D200*
X432689Y364998D03*
D67*
X65405Y365252D03*
D198*
X248920Y365252D03*
D199*
X432308Y365252D03*
D196*
X65786Y365506D03*
D824*
X248920Y365506D03*
D196*
X432054Y365506D03*
D194*
X66040Y365760D03*
D195*
X248920Y365760D03*
D194*
X431800Y365760D03*
D192*
X66294Y366014D03*
D825*
X248793Y366014D03*
D192*
X431546Y366014D03*
D826*
X66548Y366268D03*
D191*
X248920Y366268D03*
D190*
X431165Y366268D03*
D188*
X66929Y366522D03*
D189*
X248920Y366522D03*
D188*
X430911Y366522D03*
D186*
X67183Y366776D03*
D827*
X248920Y366776D03*
D186*
X430657Y366776D03*
D828*
X67437Y367030D03*
D185*
X248920Y367030D03*
D184*
X430276Y367030D03*
D182*
X67818Y367284D03*
D183*
X248920Y367284D03*
D182*
X430022Y367284D03*
D179*
X68072Y367538D03*
D829*
X248793Y367538D03*
D179*
X429768Y367538D03*
D177*
X68453Y367792D03*
D178*
X248920Y367792D03*
D177*
X429387Y367792D03*
D175*
X68707Y368046D03*
D176*
X248920Y368046D03*
D175*
X429133Y368046D03*
D830*
X68961Y368300D03*
D174*
X248920Y368300D03*
D173*
X428752Y368300D03*
D171*
X69342Y368554D03*
D831*
X248793Y368554D03*
D171*
X428498Y368554D03*
D796*
X69596Y368808D03*
D654*
X248920Y368808D03*
D169*
X428117Y368808D03*
D167*
X69977Y369062D03*
D168*
X248920Y369062D03*
D167*
X427863Y369062D03*
D164*
X70231Y369316D03*
D165*
X248920Y369316D03*
D166*
X427482Y369316D03*
D162*
X70612Y369570D03*
D163*
X248920Y369570D03*
D162*
X427228Y369570D03*
D832*
X70866Y369824D03*
D161*
X248920Y369824D03*
D160*
X426847Y369824D03*
D158*
X71247Y370078D03*
D159*
X248920Y370078D03*
D158*
X426593Y370078D03*
D75*
X71628Y370332D03*
D157*
X248920Y370332D03*
D75*
X426212Y370332D03*
D155*
X71882Y370586D03*
D156*
X248920Y370586D03*
D155*
X425958Y370586D03*
D153*
X72263Y370840D03*
D154*
X248920Y370840D03*
D153*
X425577Y370840D03*
D833*
X72517Y371094D03*
D152*
X248920Y371094D03*
D151*
X425196Y371094D03*
D149*
X72898Y371348D03*
D150*
X248920Y371348D03*
D149*
X424942Y371348D03*
D147*
X73279Y371602D03*
D148*
X248920Y371602D03*
D147*
X424561Y371602D03*
D795*
X73533Y371856D03*
D752*
X248920Y371856D03*
D145*
X424180Y371856D03*
D143*
X73914Y372110D03*
D589*
X248793Y372110D03*
D143*
X423926Y372110D03*
D142*
X74295Y372364D03*
D20*
X248920Y372364D03*
D142*
X423545Y372364D03*
D140*
X74676Y372618D03*
D141*
X248920Y372618D03*
D140*
X423164Y372618D03*
D834*
X74930Y372872D03*
D758*
X248920Y372872D03*
D138*
X422783Y372872D03*
D135*
X75311Y373126D03*
D136*
X248920Y373126D03*
D135*
X422529Y373126D03*
D133*
X75692Y373380D03*
D134*
X248920Y373380D03*
D133*
X422148Y373380D03*
D131*
X76073Y373634D03*
D764*
X248793Y373634D03*
D131*
X421767Y373634D03*
D129*
X76454Y373888D03*
D130*
X248920Y373888D03*
D129*
X421386Y373888D03*
D127*
X76835Y374142D03*
D835*
X248920Y374142D03*
D127*
X421005Y374142D03*
D83*
X77216Y374396D03*
D126*
X248920Y374396D03*
D83*
X420624Y374396D03*
D836*
X77470Y374650D03*
D837*
X248793Y374650D03*
D124*
X420243Y374650D03*
D838*
X77851Y374904D03*
D123*
X248920Y374904D03*
D122*
X419862Y374904D03*
D839*
X78232Y375158D03*
D121*
X248920Y375158D03*
D120*
X419481Y375158D03*
D791*
X78613Y375412D03*
D547*
X248793Y375412D03*
D118*
X419100Y375412D03*
D117*
X79121Y375666D03*
D840*
X248920Y375666D03*
D117*
X418719Y375666D03*
D115*
X79502Y375920D03*
D116*
X248920Y375920D03*
D115*
X418338Y375920D03*
D114*
X79883Y376174D03*
D47*
X248920Y376174D03*
D114*
X417957Y376174D03*
D112*
X80264Y376428D03*
D113*
X248920Y376428D03*
D112*
X417576Y376428D03*
D110*
X80645Y376682D03*
D111*
X248920Y376682D03*
D110*
X417195Y376682D03*
D90*
X81026Y376936D03*
D57*
X248920Y376936D03*
D109*
X416687Y376936D03*
D108*
X81534Y377190D03*
D62*
X248920Y377190D03*
D108*
X416306Y377190D03*
D106*
X81915Y377444D03*
D107*
X248920Y377444D03*
D106*
X415925Y377444D03*
D92*
X82296Y377698D03*
D841*
X248920Y377698D03*
D92*
X415544Y377698D03*
D786*
X82677Y377952D03*
D74*
X248793Y377952D03*
D104*
X415036Y377952D03*
D102*
X83185Y378206D03*
D103*
X248920Y378206D03*
D102*
X414655Y378206D03*
D95*
X83566Y378460D03*
D842*
X248920Y378460D03*
D95*
X414274Y378460D03*
D99*
X84074Y378714D03*
D89*
X248920Y378714D03*
D99*
X413766Y378714D03*
D96*
X84455Y378968D03*
D843*
X248920Y378968D03*
D96*
X413385Y378968D03*
D94*
X84963Y379222D03*
D95*
X248920Y379222D03*
D94*
X412877Y379222D03*
D91*
X85344Y379476D03*
D92*
X248920Y379476D03*
D91*
X412496Y379476D03*
D89*
X85852Y379730D03*
D109*
X248793Y379730D03*
D89*
X411988Y379730D03*
D506*
X86233Y379984D03*
D114*
X248793Y379984D03*
D87*
X411480Y379984D03*
D84*
X86741Y380238D03*
D791*
X248793Y380238D03*
D84*
X411099Y380238D03*
D82*
X87249Y380492D03*
D83*
X248920Y380492D03*
D82*
X410591Y380492D03*
D80*
X87757Y380746D03*
D81*
X248920Y380746D03*
D80*
X410083Y380746D03*
D78*
X88265Y381000D03*
D140*
X248920Y381000D03*
D78*
X409575Y381000D03*
D784*
X88646Y381254D03*
D77*
X248920Y381254D03*
D76*
X409067Y381254D03*
D105*
X89154Y381508D03*
D677*
X248793Y381508D03*
D74*
X408559Y381508D03*
D844*
X89662Y381762D03*
D164*
X248793Y381762D03*
D72*
X408051Y381762D03*
D70*
X90297Y382016D03*
D175*
X248793Y382016D03*
D70*
X407543Y382016D03*
D68*
X90805Y382270D03*
D69*
X248920Y382270D03*
D68*
X407035Y382270D03*
D66*
X91313Y382524D03*
D199*
X248920Y382524D03*
D66*
X406527Y382524D03*
D64*
X91821Y382778D03*
D810*
X248793Y382778D03*
D64*
X406019Y382778D03*
D845*
X92329Y383032D03*
D222*
X248793Y383032D03*
D62*
X405384Y383032D03*
D60*
X92964Y383286D03*
D61*
X248920Y383286D03*
D60*
X404876Y383286D03*
D57*
X93472Y383540D03*
D846*
X248920Y383540D03*
D57*
X404368Y383540D03*
D55*
X94107Y383794D03*
D56*
X248920Y383794D03*
D55*
X403733Y383794D03*
D847*
X94615Y384048D03*
D296*
X248920Y384048D03*
D53*
X403098Y384048D03*
D51*
X95250Y384302D03*
D52*
X248920Y384302D03*
D51*
X402590Y384302D03*
D49*
X95885Y384556D03*
D806*
X248920Y384556D03*
D49*
X401955Y384556D03*
D47*
X96520Y384810D03*
D274*
X248793Y384810D03*
D47*
X401320Y384810D03*
D45*
X97155Y385064D03*
D297*
X248793Y385064D03*
D45*
X400685Y385064D03*
D43*
X97790Y385318D03*
D390*
X248920Y385318D03*
D43*
X400050Y385318D03*
D41*
X98425Y385572D03*
D360*
X248920Y385572D03*
D41*
X399415Y385572D03*
D38*
X99060Y385826D03*
D402*
X248920Y385826D03*
D38*
X398780Y385826D03*
D36*
X99822Y386080D03*
D438*
X248793Y386080D03*
D36*
X398018Y386080D03*
D551*
X100457Y386334D03*
D530*
X248793Y386334D03*
D551*
X397383Y386334D03*
D33*
X101219Y386588D03*
X396621Y386588D03*
D32*
X101981Y386842D03*
X395859Y386842D03*
D31*
X102743Y387096D03*
X395097Y387096D03*
D29*
X103505Y387350D03*
X394335Y387350D03*
D769*
X104267Y387604D03*
D28*
X393446Y387604D03*
D26*
X105156Y387858D03*
X392684Y387858D03*
D25*
X106045Y388112D03*
X391795Y388112D03*
D24*
X106934Y388366D03*
X390906Y388366D03*
D576*
X107823Y388620D03*
D23*
X389890Y388620D03*
D21*
X108839Y388874D03*
X389001Y388874D03*
D848*
X109855Y389128D03*
X387985Y389128D03*
D19*
X110998Y389382D03*
X386842Y389382D03*
D18*
X112141Y389636D03*
X385699Y389636D03*
D150*
X113284Y389890D03*
X384556Y389890D03*
D16*
X114681Y390144D03*
X383159Y390144D03*
D849*
X116078Y390398D03*
X381762Y390398D03*
D850*
X117602Y390652D03*
D14*
X380111Y390652D03*
D165*
X119380Y390906D03*
D13*
X378333Y390906D03*
D831*
X121539Y391160D03*
D12*
X376174Y391160D03*
D829*
X124333Y391414D03*
D851*
X373380Y391414D03*
D852*
X13942Y82606D02*
X13716Y81986D01*
X14112Y82042D02*
X14112Y82550D01*
X14112Y82381D02*
X14253Y82381D01*
X14270Y82379D01*
X14286Y82375D01*
X14300Y82367D01*
X14313Y82356D01*
X14324Y82343D01*
X14332Y82329D01*
X14336Y82313D01*
X14338Y82296D01*
X14338Y82042D01*
X14524Y82155D02*
X14524Y82268D01*
X14526Y82288D01*
X14531Y82307D01*
X14539Y82325D01*
X14550Y82341D01*
X14564Y82355D01*
X14581Y82366D01*
X14598Y82374D01*
X14617Y82379D01*
X14637Y82381D01*
X14657Y82379D01*
X14676Y82374D01*
X14694Y82366D01*
X14710Y82355D01*
X14724Y82341D01*
X14735Y82325D01*
X14743Y82307D01*
X14748Y82288D01*
X14750Y82268D01*
X14749Y82268D02*
X14749Y82155D01*
X14750Y82155D02*
X14748Y82135D01*
X14743Y82116D01*
X14735Y82099D01*
X14724Y82082D01*
X14710Y82068D01*
X14694Y82057D01*
X14676Y82049D01*
X14657Y82044D01*
X14637Y82042D01*
X14617Y82044D01*
X14598Y82049D01*
X14581Y82057D01*
X14564Y82068D01*
X14550Y82082D01*
X14539Y82099D01*
X14531Y82116D01*
X14526Y82135D01*
X14524Y82155D01*
X14940Y82042D02*
X14940Y82381D01*
X15194Y82381D01*
X15211Y82379D01*
X15227Y82375D01*
X15241Y82367D01*
X15254Y82356D01*
X15265Y82343D01*
X15273Y82329D01*
X15277Y82313D01*
X15279Y82296D01*
X15278Y82296D02*
X15278Y82042D01*
X15109Y82042D02*
X15109Y82381D01*
X15553Y82042D02*
X15694Y82042D01*
X15553Y82042D02*
X15536Y82044D01*
X15520Y82048D01*
X15506Y82056D01*
X15493Y82067D01*
X15482Y82080D01*
X15474Y82094D01*
X15470Y82110D01*
X15468Y82127D01*
X15469Y82127D02*
X15469Y82268D01*
X15468Y82268D02*
X15470Y82288D01*
X15475Y82307D01*
X15483Y82325D01*
X15494Y82341D01*
X15508Y82355D01*
X15525Y82366D01*
X15542Y82374D01*
X15561Y82379D01*
X15581Y82381D01*
X15601Y82379D01*
X15620Y82374D01*
X15638Y82366D01*
X15654Y82355D01*
X15668Y82341D01*
X15679Y82325D01*
X15687Y82307D01*
X15692Y82288D01*
X15694Y82268D01*
X15694Y82211D01*
X15469Y82211D01*
X15850Y81986D02*
X16075Y82606D01*
X16250Y82381D02*
X16250Y82042D01*
X16250Y82381D02*
X16504Y82381D01*
X16521Y82379D01*
X16537Y82375D01*
X16551Y82367D01*
X16564Y82356D01*
X16575Y82343D01*
X16583Y82329D01*
X16587Y82313D01*
X16589Y82296D01*
X16589Y82042D01*
X16420Y82042D02*
X16420Y82381D01*
X16796Y82381D02*
X16796Y81873D01*
X16796Y82381D02*
X16937Y82381D01*
X16954Y82379D01*
X16970Y82375D01*
X16984Y82367D01*
X16997Y82356D01*
X17008Y82343D01*
X17016Y82329D01*
X17020Y82313D01*
X17022Y82296D01*
X17021Y82296D02*
X17021Y82127D01*
X17022Y82127D02*
X17020Y82110D01*
X17016Y82094D01*
X17008Y82080D01*
X16997Y82067D01*
X16984Y82056D01*
X16970Y82048D01*
X16954Y82044D01*
X16937Y82042D01*
X16796Y82042D01*
X17193Y81957D02*
X17193Y82381D01*
X17193Y81957D02*
X17191Y81940D01*
X17187Y81924D01*
X17179Y81910D01*
X17168Y81897D01*
X17155Y81886D01*
X17141Y81878D01*
X17125Y81874D01*
X17108Y81872D01*
X17108Y81873D02*
X17080Y81873D01*
X17179Y82522D02*
X17179Y82550D01*
X17207Y82550D01*
X17207Y82522D01*
X17179Y82522D01*
X17374Y82268D02*
X17374Y82155D01*
X17373Y82268D02*
X17375Y82288D01*
X17380Y82307D01*
X17388Y82325D01*
X17399Y82341D01*
X17413Y82355D01*
X17430Y82366D01*
X17447Y82374D01*
X17466Y82379D01*
X17486Y82381D01*
X17506Y82379D01*
X17525Y82374D01*
X17543Y82366D01*
X17559Y82355D01*
X17573Y82341D01*
X17584Y82325D01*
X17592Y82307D01*
X17597Y82288D01*
X17599Y82268D01*
X17599Y82155D01*
X17597Y82135D01*
X17592Y82116D01*
X17584Y82099D01*
X17573Y82082D01*
X17559Y82068D01*
X17543Y82057D01*
X17525Y82049D01*
X17506Y82044D01*
X17486Y82042D01*
X17466Y82044D01*
X17447Y82049D01*
X17430Y82057D01*
X17413Y82068D01*
X17399Y82082D01*
X17388Y82099D01*
X17380Y82116D01*
X17375Y82135D01*
X17373Y82155D01*
X17785Y82042D02*
X17785Y82550D01*
X17785Y82381D02*
X17926Y82381D01*
X17943Y82379D01*
X17959Y82375D01*
X17973Y82367D01*
X17986Y82356D01*
X17997Y82343D01*
X18005Y82329D01*
X18009Y82313D01*
X18011Y82296D01*
X18011Y82042D01*
X18212Y82042D02*
X18212Y82381D01*
X18353Y82381D01*
X18370Y82379D01*
X18386Y82375D01*
X18400Y82367D01*
X18413Y82356D01*
X18424Y82343D01*
X18432Y82329D01*
X18436Y82313D01*
X18438Y82296D01*
X18437Y82296D02*
X18437Y82042D01*
X18665Y82240D02*
X18807Y82183D01*
X18666Y82239D02*
X18651Y82247D01*
X18638Y82258D01*
X18629Y82272D01*
X18623Y82288D01*
X18620Y82305D01*
X18621Y82321D01*
X18627Y82337D01*
X18635Y82352D01*
X18647Y82364D01*
X18661Y82373D01*
X18677Y82378D01*
X18694Y82380D01*
X18693Y82380D02*
X18726Y82378D01*
X18758Y82372D01*
X18790Y82364D01*
X18820Y82352D01*
X18806Y82183D02*
X18821Y82175D01*
X18834Y82164D01*
X18843Y82150D01*
X18849Y82134D01*
X18852Y82117D01*
X18851Y82101D01*
X18845Y82085D01*
X18837Y82070D01*
X18825Y82058D01*
X18811Y82049D01*
X18795Y82044D01*
X18778Y82042D01*
X18739Y82044D01*
X18700Y82050D01*
X18661Y82058D01*
X18623Y82070D01*
X19004Y81986D02*
X19230Y82606D01*
X19403Y82550D02*
X19403Y82042D01*
X19403Y82550D02*
X19544Y82550D01*
X19566Y82548D01*
X19588Y82543D01*
X19608Y82535D01*
X19627Y82523D01*
X19644Y82509D01*
X19658Y82492D01*
X19670Y82473D01*
X19678Y82453D01*
X19683Y82431D01*
X19685Y82409D01*
X19685Y82183D01*
X19683Y82161D01*
X19678Y82139D01*
X19670Y82119D01*
X19658Y82100D01*
X19644Y82083D01*
X19627Y82069D01*
X19608Y82057D01*
X19588Y82049D01*
X19566Y82044D01*
X19544Y82042D01*
X19403Y82042D01*
X19873Y82155D02*
X19873Y82268D01*
X19875Y82288D01*
X19880Y82307D01*
X19888Y82325D01*
X19899Y82341D01*
X19913Y82355D01*
X19930Y82366D01*
X19947Y82374D01*
X19966Y82379D01*
X19986Y82381D01*
X20006Y82379D01*
X20025Y82374D01*
X20043Y82366D01*
X20059Y82355D01*
X20073Y82341D01*
X20084Y82325D01*
X20092Y82307D01*
X20097Y82288D01*
X20099Y82268D01*
X20098Y82268D02*
X20098Y82155D01*
X20099Y82155D02*
X20097Y82135D01*
X20092Y82116D01*
X20084Y82099D01*
X20073Y82082D01*
X20059Y82068D01*
X20043Y82057D01*
X20025Y82049D01*
X20006Y82044D01*
X19986Y82042D01*
X19966Y82044D01*
X19947Y82049D01*
X19930Y82057D01*
X19913Y82068D01*
X19899Y82082D01*
X19888Y82099D01*
X19880Y82116D01*
X19875Y82135D01*
X19873Y82155D01*
X20258Y82381D02*
X20343Y82042D01*
X20428Y82268D01*
X20512Y82042D01*
X20597Y82381D01*
X20772Y82381D02*
X20772Y82042D01*
X20772Y82381D02*
X20913Y82381D01*
X20930Y82379D01*
X20946Y82375D01*
X20960Y82367D01*
X20973Y82356D01*
X20984Y82343D01*
X20992Y82329D01*
X20996Y82313D01*
X20998Y82296D01*
X20998Y82042D01*
X21194Y82127D02*
X21194Y82550D01*
X21194Y82127D02*
X21196Y82110D01*
X21200Y82094D01*
X21208Y82080D01*
X21219Y82067D01*
X21232Y82056D01*
X21246Y82048D01*
X21262Y82044D01*
X21279Y82042D01*
X21427Y82155D02*
X21427Y82268D01*
X21429Y82288D01*
X21434Y82307D01*
X21442Y82325D01*
X21453Y82341D01*
X21467Y82355D01*
X21484Y82366D01*
X21501Y82374D01*
X21520Y82379D01*
X21540Y82381D01*
X21560Y82379D01*
X21579Y82374D01*
X21597Y82366D01*
X21613Y82355D01*
X21627Y82341D01*
X21638Y82325D01*
X21646Y82307D01*
X21651Y82288D01*
X21653Y82268D01*
X21653Y82155D01*
X21651Y82135D01*
X21646Y82116D01*
X21638Y82099D01*
X21627Y82082D01*
X21613Y82068D01*
X21597Y82057D01*
X21579Y82049D01*
X21560Y82044D01*
X21540Y82042D01*
X21520Y82044D01*
X21501Y82049D01*
X21484Y82057D01*
X21467Y82068D01*
X21453Y82082D01*
X21442Y82099D01*
X21434Y82116D01*
X21429Y82135D01*
X21427Y82155D01*
X21921Y82240D02*
X22048Y82240D01*
X21921Y82240D02*
X21903Y82238D01*
X21885Y82233D01*
X21869Y82225D01*
X21854Y82214D01*
X21842Y82201D01*
X21832Y82185D01*
X21826Y82168D01*
X21822Y82150D01*
X21822Y82132D01*
X21826Y82114D01*
X21832Y82097D01*
X21842Y82081D01*
X21854Y82068D01*
X21869Y82057D01*
X21885Y82049D01*
X21903Y82044D01*
X21921Y82042D01*
X22048Y82042D01*
X22048Y82296D01*
X22046Y82313D01*
X22042Y82329D01*
X22034Y82343D01*
X22023Y82356D01*
X22010Y82367D01*
X21996Y82375D01*
X21980Y82379D01*
X21963Y82381D01*
X21850Y82381D01*
X22459Y82550D02*
X22459Y82042D01*
X22318Y82042D01*
X22301Y82044D01*
X22285Y82048D01*
X22271Y82056D01*
X22258Y82067D01*
X22247Y82080D01*
X22239Y82094D01*
X22235Y82110D01*
X22233Y82127D01*
X22234Y82127D02*
X22234Y82296D01*
X22233Y82296D02*
X22235Y82313D01*
X22239Y82329D01*
X22247Y82343D01*
X22258Y82356D01*
X22271Y82367D01*
X22285Y82375D01*
X22301Y82379D01*
X22318Y82381D01*
X22459Y82381D01*
X22689Y82240D02*
X22830Y82183D01*
X22689Y82239D02*
X22674Y82247D01*
X22661Y82258D01*
X22652Y82272D01*
X22646Y82288D01*
X22643Y82305D01*
X22644Y82321D01*
X22650Y82337D01*
X22658Y82352D01*
X22670Y82364D01*
X22684Y82373D01*
X22700Y82378D01*
X22717Y82380D01*
X22716Y82380D02*
X22749Y82378D01*
X22781Y82372D01*
X22813Y82364D01*
X22843Y82352D01*
X22830Y82183D02*
X22845Y82175D01*
X22858Y82164D01*
X22867Y82150D01*
X22873Y82134D01*
X22876Y82117D01*
X22875Y82101D01*
X22869Y82085D01*
X22861Y82070D01*
X22849Y82058D01*
X22835Y82049D01*
X22819Y82044D01*
X22802Y82042D01*
X22801Y82042D02*
X22762Y82044D01*
X22723Y82050D01*
X22684Y82058D01*
X22646Y82070D01*
X23027Y81986D02*
X23253Y82606D01*
X23492Y82042D02*
X23633Y82042D01*
X23492Y82042D02*
X23475Y82044D01*
X23459Y82048D01*
X23445Y82056D01*
X23432Y82067D01*
X23421Y82080D01*
X23413Y82094D01*
X23409Y82110D01*
X23407Y82127D01*
X23407Y82296D01*
X23409Y82313D01*
X23413Y82329D01*
X23421Y82343D01*
X23432Y82356D01*
X23445Y82367D01*
X23459Y82375D01*
X23475Y82379D01*
X23492Y82381D01*
X23633Y82381D01*
X23633Y81957D01*
X23631Y81940D01*
X23627Y81924D01*
X23619Y81910D01*
X23608Y81897D01*
X23595Y81886D01*
X23581Y81878D01*
X23565Y81874D01*
X23548Y81872D01*
X23548Y81873D02*
X23435Y81873D01*
X23836Y82042D02*
X23836Y82381D01*
X24006Y82381D01*
X24006Y82324D01*
X24224Y82042D02*
X24366Y82042D01*
X24224Y82042D02*
X24207Y82044D01*
X24191Y82048D01*
X24177Y82056D01*
X24164Y82067D01*
X24153Y82080D01*
X24145Y82094D01*
X24141Y82110D01*
X24139Y82127D01*
X24140Y82127D02*
X24140Y82268D01*
X24142Y82288D01*
X24147Y82307D01*
X24155Y82325D01*
X24166Y82341D01*
X24180Y82355D01*
X24197Y82366D01*
X24214Y82374D01*
X24233Y82379D01*
X24253Y82381D01*
X24273Y82379D01*
X24292Y82374D01*
X24310Y82366D01*
X24326Y82355D01*
X24340Y82341D01*
X24351Y82325D01*
X24359Y82307D01*
X24364Y82288D01*
X24366Y82268D01*
X24366Y82211D01*
X24140Y82211D01*
X24621Y82042D02*
X24762Y82042D01*
X24621Y82042D02*
X24604Y82044D01*
X24588Y82048D01*
X24574Y82056D01*
X24561Y82067D01*
X24550Y82080D01*
X24542Y82094D01*
X24538Y82110D01*
X24536Y82127D01*
X24536Y82268D01*
X24538Y82288D01*
X24543Y82307D01*
X24551Y82325D01*
X24562Y82341D01*
X24576Y82355D01*
X24593Y82366D01*
X24610Y82374D01*
X24629Y82379D01*
X24649Y82381D01*
X24669Y82379D01*
X24688Y82374D01*
X24706Y82366D01*
X24722Y82355D01*
X24736Y82341D01*
X24747Y82325D01*
X24755Y82307D01*
X24760Y82288D01*
X24762Y82268D01*
X24762Y82211D01*
X24536Y82211D01*
X24947Y82042D02*
X24947Y82381D01*
X25089Y82381D01*
X25106Y82379D01*
X25122Y82375D01*
X25136Y82367D01*
X25149Y82356D01*
X25160Y82343D01*
X25168Y82329D01*
X25172Y82313D01*
X25174Y82296D01*
X25173Y82296D02*
X25173Y82042D01*
X25363Y82240D02*
X25702Y82240D01*
X25894Y82042D02*
X25894Y82550D01*
X25894Y82042D02*
X26035Y82042D01*
X26052Y82044D01*
X26068Y82048D01*
X26082Y82056D01*
X26095Y82067D01*
X26106Y82080D01*
X26114Y82094D01*
X26118Y82110D01*
X26120Y82127D01*
X26119Y82127D02*
X26119Y82296D01*
X26120Y82296D02*
X26118Y82313D01*
X26114Y82329D01*
X26106Y82343D01*
X26095Y82356D01*
X26082Y82367D01*
X26068Y82375D01*
X26052Y82379D01*
X26035Y82381D01*
X25894Y82381D01*
X26386Y82240D02*
X26513Y82240D01*
X26386Y82240D02*
X26368Y82238D01*
X26350Y82233D01*
X26334Y82225D01*
X26319Y82214D01*
X26307Y82201D01*
X26297Y82185D01*
X26291Y82168D01*
X26287Y82150D01*
X26287Y82132D01*
X26291Y82114D01*
X26297Y82097D01*
X26307Y82081D01*
X26319Y82068D01*
X26334Y82057D01*
X26350Y82049D01*
X26368Y82044D01*
X26386Y82042D01*
X26513Y82042D01*
X26513Y82296D01*
X26511Y82313D01*
X26507Y82329D01*
X26499Y82343D01*
X26488Y82356D01*
X26475Y82367D01*
X26461Y82375D01*
X26445Y82379D01*
X26428Y82381D01*
X26316Y82381D01*
X26685Y81873D02*
X26741Y81873D01*
X26911Y82381D01*
X26685Y82381D02*
X26798Y82042D01*
X27070Y82240D02*
X27409Y82240D01*
X27600Y82381D02*
X27600Y81873D01*
X27600Y82381D02*
X27741Y82381D01*
X27758Y82379D01*
X27774Y82375D01*
X27788Y82367D01*
X27801Y82356D01*
X27812Y82343D01*
X27820Y82329D01*
X27824Y82313D01*
X27826Y82296D01*
X27826Y82127D01*
X27824Y82110D01*
X27820Y82094D01*
X27812Y82080D01*
X27801Y82067D01*
X27788Y82056D01*
X27774Y82048D01*
X27758Y82044D01*
X27741Y82042D01*
X27600Y82042D01*
X28093Y82240D02*
X28220Y82240D01*
X28093Y82240D02*
X28075Y82238D01*
X28057Y82233D01*
X28041Y82225D01*
X28026Y82214D01*
X28014Y82201D01*
X28004Y82185D01*
X27998Y82168D01*
X27994Y82150D01*
X27994Y82132D01*
X27998Y82114D01*
X28004Y82097D01*
X28014Y82081D01*
X28026Y82068D01*
X28041Y82057D01*
X28057Y82049D01*
X28075Y82044D01*
X28093Y82042D01*
X28220Y82042D01*
X28220Y82296D01*
X28218Y82313D01*
X28214Y82329D01*
X28206Y82343D01*
X28195Y82356D01*
X28182Y82367D01*
X28168Y82375D01*
X28152Y82379D01*
X28135Y82381D01*
X28022Y82381D01*
X28492Y82042D02*
X28605Y82042D01*
X28492Y82042D02*
X28475Y82044D01*
X28459Y82048D01*
X28445Y82056D01*
X28432Y82067D01*
X28421Y82080D01*
X28413Y82094D01*
X28409Y82110D01*
X28407Y82127D01*
X28407Y82296D01*
X28409Y82313D01*
X28413Y82329D01*
X28421Y82343D01*
X28432Y82356D01*
X28445Y82367D01*
X28459Y82375D01*
X28475Y82379D01*
X28492Y82381D01*
X28605Y82381D01*
X28775Y82550D02*
X28775Y82042D01*
X28775Y82211D02*
X29001Y82381D01*
X28874Y82282D02*
X29001Y82042D01*
X29238Y82042D02*
X29379Y82042D01*
X29238Y82042D02*
X29221Y82044D01*
X29205Y82048D01*
X29191Y82056D01*
X29178Y82067D01*
X29167Y82080D01*
X29159Y82094D01*
X29155Y82110D01*
X29153Y82127D01*
X29154Y82127D02*
X29154Y82268D01*
X29153Y82268D02*
X29155Y82288D01*
X29160Y82307D01*
X29168Y82325D01*
X29179Y82341D01*
X29193Y82355D01*
X29210Y82366D01*
X29227Y82374D01*
X29246Y82379D01*
X29266Y82381D01*
X29286Y82379D01*
X29305Y82374D01*
X29323Y82366D01*
X29339Y82355D01*
X29353Y82341D01*
X29364Y82325D01*
X29372Y82307D01*
X29377Y82288D01*
X29379Y82268D01*
X29379Y82211D01*
X29154Y82211D01*
X29566Y82042D02*
X29566Y82381D01*
X29736Y82381D01*
X29736Y82324D01*
X29912Y82240D02*
X30053Y82183D01*
X29912Y82239D02*
X29897Y82247D01*
X29884Y82258D01*
X29875Y82272D01*
X29869Y82288D01*
X29866Y82305D01*
X29867Y82321D01*
X29873Y82337D01*
X29881Y82352D01*
X29893Y82364D01*
X29907Y82373D01*
X29923Y82378D01*
X29940Y82380D01*
X29973Y82378D01*
X30005Y82372D01*
X30037Y82364D01*
X30067Y82352D01*
X30053Y82183D02*
X30068Y82175D01*
X30081Y82164D01*
X30090Y82150D01*
X30096Y82134D01*
X30099Y82117D01*
X30098Y82101D01*
X30092Y82085D01*
X30084Y82070D01*
X30072Y82058D01*
X30058Y82049D01*
X30042Y82044D01*
X30025Y82042D01*
X29986Y82044D01*
X29947Y82050D01*
X29908Y82058D01*
X29870Y82070D01*
X30271Y82240D02*
X30609Y82240D01*
X30795Y82127D02*
X30795Y82550D01*
X30794Y82127D02*
X30796Y82110D01*
X30800Y82094D01*
X30808Y82080D01*
X30819Y82067D01*
X30832Y82056D01*
X30846Y82048D01*
X30862Y82044D01*
X30879Y82042D01*
X31028Y82155D02*
X31028Y82268D01*
X31030Y82288D01*
X31035Y82307D01*
X31043Y82325D01*
X31054Y82341D01*
X31068Y82355D01*
X31085Y82366D01*
X31102Y82374D01*
X31121Y82379D01*
X31141Y82381D01*
X31161Y82379D01*
X31180Y82374D01*
X31198Y82366D01*
X31214Y82355D01*
X31228Y82341D01*
X31239Y82325D01*
X31247Y82307D01*
X31252Y82288D01*
X31254Y82268D01*
X31254Y82155D01*
X31252Y82135D01*
X31247Y82116D01*
X31239Y82099D01*
X31228Y82082D01*
X31214Y82068D01*
X31198Y82057D01*
X31180Y82049D01*
X31161Y82044D01*
X31141Y82042D01*
X31121Y82044D01*
X31102Y82049D01*
X31085Y82057D01*
X31068Y82068D01*
X31054Y82082D01*
X31043Y82099D01*
X31035Y82116D01*
X31030Y82135D01*
X31028Y82155D01*
X31508Y82042D02*
X31649Y82042D01*
X31508Y82042D02*
X31491Y82044D01*
X31475Y82048D01*
X31461Y82056D01*
X31448Y82067D01*
X31437Y82080D01*
X31429Y82094D01*
X31425Y82110D01*
X31423Y82127D01*
X31423Y82296D01*
X31425Y82313D01*
X31429Y82329D01*
X31437Y82343D01*
X31448Y82356D01*
X31461Y82367D01*
X31475Y82375D01*
X31491Y82379D01*
X31508Y82381D01*
X31649Y82381D01*
X31649Y81957D01*
X31647Y81940D01*
X31643Y81924D01*
X31635Y81910D01*
X31624Y81897D01*
X31611Y81886D01*
X31597Y81878D01*
X31581Y81874D01*
X31564Y81872D01*
X31564Y81873D02*
X31451Y81873D01*
X31836Y82155D02*
X31836Y82268D01*
X31838Y82288D01*
X31843Y82307D01*
X31851Y82325D01*
X31862Y82341D01*
X31876Y82355D01*
X31893Y82366D01*
X31910Y82374D01*
X31929Y82379D01*
X31949Y82381D01*
X31969Y82379D01*
X31988Y82374D01*
X32006Y82366D01*
X32022Y82355D01*
X32036Y82341D01*
X32047Y82325D01*
X32055Y82307D01*
X32060Y82288D01*
X32062Y82268D01*
X32062Y82155D01*
X32060Y82135D01*
X32055Y82116D01*
X32047Y82099D01*
X32036Y82082D01*
X32022Y82068D01*
X32006Y82057D01*
X31988Y82049D01*
X31969Y82044D01*
X31949Y82042D01*
X31929Y82044D01*
X31910Y82049D01*
X31893Y82057D01*
X31876Y82068D01*
X31862Y82082D01*
X31851Y82099D01*
X31843Y82116D01*
X31838Y82135D01*
X31836Y82155D01*
X32487Y82296D02*
X32489Y82338D01*
X32494Y82380D01*
X32503Y82421D01*
X32516Y82461D01*
X32532Y82500D01*
X32552Y82537D01*
X32574Y82573D01*
X32600Y82606D01*
X32487Y82296D02*
X32489Y82254D01*
X32494Y82212D01*
X32503Y82171D01*
X32516Y82131D01*
X32532Y82092D01*
X32552Y82055D01*
X32574Y82019D01*
X32600Y81986D01*
X32768Y82437D02*
X32909Y82550D01*
X32909Y82042D01*
X32768Y82042D02*
X33050Y82042D01*
X33217Y81986D02*
X33243Y82019D01*
X33265Y82055D01*
X33285Y82092D01*
X33301Y82131D01*
X33314Y82171D01*
X33323Y82212D01*
X33328Y82254D01*
X33330Y82296D01*
X33328Y82338D01*
X33323Y82380D01*
X33314Y82421D01*
X33301Y82461D01*
X33285Y82500D01*
X33265Y82537D01*
X33243Y82573D01*
X33217Y82606D01*
X33504Y82070D02*
X33504Y82042D01*
X33504Y82070D02*
X33532Y82070D01*
X33532Y82042D01*
X33504Y82042D01*
X33711Y82042D02*
X33711Y82550D01*
X33711Y82042D02*
X33852Y82042D01*
X33869Y82044D01*
X33885Y82048D01*
X33899Y82056D01*
X33912Y82067D01*
X33923Y82080D01*
X33931Y82094D01*
X33935Y82110D01*
X33937Y82127D01*
X33937Y82296D01*
X33935Y82313D01*
X33931Y82329D01*
X33923Y82343D01*
X33912Y82356D01*
X33899Y82367D01*
X33885Y82375D01*
X33869Y82379D01*
X33852Y82381D01*
X33711Y82381D01*
X34126Y82381D02*
X34126Y82042D01*
X34126Y82381D02*
X34380Y82381D01*
X34397Y82379D01*
X34413Y82375D01*
X34427Y82367D01*
X34440Y82356D01*
X34451Y82343D01*
X34459Y82329D01*
X34463Y82313D01*
X34465Y82296D01*
X34465Y82042D01*
X34295Y82042D02*
X34295Y82381D01*
X34671Y82381D02*
X34671Y81873D01*
X34671Y82381D02*
X34813Y82381D01*
X34830Y82379D01*
X34846Y82375D01*
X34860Y82367D01*
X34873Y82356D01*
X34884Y82343D01*
X34892Y82329D01*
X34896Y82313D01*
X34898Y82296D01*
X34897Y82296D02*
X34897Y82127D01*
X34895Y82110D01*
X34891Y82094D01*
X34883Y82080D01*
X34872Y82067D01*
X34859Y82056D01*
X34845Y82048D01*
X34829Y82044D01*
X34812Y82042D01*
X34813Y82042D02*
X34671Y82042D01*
M02*
