M48
;GenerationSoftware,Autodesk,EAGLE,9.6.2*%
;CreationDate,2022-04-14T05:51:01Z*%
FMAT,2
ICI,OFF
METRIC,TZ,000.000
T6C0.813
T5C0.900
T4C1.000
T3C1.016
T2C1.020
%
G90
M71
T2
X12700Y10160
X12700Y7620
X12700Y5080
X12700Y2540
T3
X25400Y46609
X2540Y31750
X2540Y29210
X2540Y26670
X12700Y16510
X2540Y6350
X2540Y2540
X45720Y2540
X45720Y5080
X45720Y7620
X45720Y10160
X30480Y46609
X27940Y46609
X16510Y5080
X22860Y46609
X20320Y46609
X42418Y2032
X39878Y2032
X37338Y2032
X34798Y2032
X32258Y2032
X29718Y2032
X2540Y36830
X16510Y2540
X41910Y11430
X41910Y7620
X46990Y36830
X46990Y34290
X46990Y31750
X46990Y29210
X46990Y26670
X46990Y23749
X46990Y21209
X46990Y18669
X46990Y16129
X46990Y13589
X2540Y24130
X2540Y21590
X2540Y19050
X2540Y16510
X2540Y13970
X2540Y34290
T4
X43093Y46482
X48093Y46482
X7072Y46482
X2072Y46482
T5
X25868Y2160
X23368Y2160
X20868Y2160
X25868Y5460
X23368Y5460
X20868Y5460
T6
X12700Y40640
X21590Y36830
X21590Y39370
X21590Y41910
X8890Y38100
X8890Y40640
X41910Y38100
X41910Y40640
X34290Y40640
X12700Y33020
X38100Y40640
X38100Y33020
X11430Y44196
X11430Y46736
X39497Y45720
X39497Y48260
X16510Y11430
X19050Y11430
X34290Y20320
X31750Y20320
X34290Y38100
X21590Y29210
X29210Y16510
X21590Y26670
X21590Y24130
X21590Y21590
X21590Y19050
X21590Y16510
X21590Y13970
X21590Y11430
X21590Y8890
X29210Y8890
X29210Y11430
X29210Y13970
X21590Y34290
X29210Y19050
X29210Y21590
X29210Y24130
X29210Y26670
X29210Y29210
X29210Y31750
X29210Y34290
X29210Y36830
X29210Y39370
X29210Y41910
X21590Y31750
M30